<svg width="411" height="519" viewBox="0 0 411 519" fill="none" xmlns="http://www.w3.org/2000/svg">
<g filter="url(#filter0_d_1268_8226)">
<g clip-path="url(#clip0_1268_8226)">
<rect x="4" width="403" height="511" rx="30" fill="white"/>
<path d="M98.29 54.53C98.29 52.49 98.75 50.66 99.67 49.04C100.59 47.4 101.84 46.12 103.42 45.2C105.02 44.28 106.79 43.82 108.73 43.82C111.01 43.82 113 44.37 114.7 45.47C116.4 46.57 117.64 48.13 118.42 50.15H115.15C114.57 48.89 113.73 47.92 112.63 47.24C111.55 46.56 110.25 46.22 108.73 46.22C107.27 46.22 105.96 46.56 104.8 47.24C103.64 47.92 102.73 48.89 102.07 50.15C101.41 51.39 101.08 52.85 101.08 54.53C101.08 56.19 101.41 57.65 102.07 58.91C102.73 60.15 103.64 61.11 104.8 61.79C105.96 62.47 107.27 62.81 108.73 62.81C110.25 62.81 111.55 62.48 112.63 61.82C113.73 61.14 114.57 60.17 115.15 58.91H118.42C117.64 60.91 116.4 62.46 114.7 63.56C113 64.64 111.01 65.18 108.73 65.18C106.79 65.18 105.02 64.73 103.42 63.83C101.84 62.91 100.59 61.64 99.67 60.02C98.75 58.4 98.29 56.57 98.29 54.53ZM129.654 65.27C128.114 65.27 126.714 64.92 125.454 64.22C124.214 63.52 123.234 62.53 122.514 61.25C121.814 59.95 121.464 58.45 121.464 56.75C121.464 55.07 121.824 53.59 122.544 52.31C123.284 51.01 124.284 50.02 125.544 49.34C126.804 48.64 128.214 48.29 129.774 48.29C131.334 48.29 132.744 48.64 134.004 49.34C135.264 50.02 136.254 51 136.974 52.28C137.714 53.56 138.084 55.05 138.084 56.75C138.084 58.45 137.704 59.95 136.944 61.25C136.204 62.53 135.194 63.52 133.914 64.22C132.634 64.92 131.214 65.27 129.654 65.27ZM129.654 62.87C130.634 62.87 131.554 62.64 132.414 62.18C133.274 61.72 133.964 61.03 134.484 60.11C135.024 59.19 135.294 58.07 135.294 56.75C135.294 55.43 135.034 54.31 134.514 53.39C133.994 52.47 133.314 51.79 132.474 51.35C131.634 50.89 130.724 50.66 129.744 50.66C128.744 50.66 127.824 50.89 126.984 51.35C126.164 51.79 125.504 52.47 125.004 53.39C124.504 54.31 124.254 55.43 124.254 56.75C124.254 58.09 124.494 59.22 124.974 60.14C125.474 61.06 126.134 61.75 126.954 62.21C127.774 62.65 128.674 62.87 129.654 62.87ZM149.683 48.26C151.683 48.26 153.303 48.87 154.543 50.09C155.783 51.29 156.403 53.03 156.403 55.31V65H153.703V55.7C153.703 54.06 153.293 52.81 152.473 51.95C151.653 51.07 150.533 50.63 149.113 50.63C147.673 50.63 146.523 51.08 145.663 51.98C144.823 52.88 144.403 54.19 144.403 55.91V65H141.673V48.56H144.403V50.9C144.943 50.06 145.673 49.41 146.593 48.95C147.533 48.49 148.563 48.26 149.683 48.26ZM159.843 56.75C159.843 55.05 160.183 53.57 160.863 52.31C161.543 51.03 162.483 50.04 163.683 49.34C164.903 48.64 166.293 48.29 167.853 48.29C169.873 48.29 171.533 48.78 172.833 49.76C174.153 50.74 175.023 52.1 175.443 53.84H172.503C172.223 52.84 171.673 52.05 170.853 51.47C170.053 50.89 169.053 50.6 167.853 50.6C166.293 50.6 165.033 51.14 164.073 52.22C163.113 53.28 162.633 54.79 162.633 56.75C162.633 58.73 163.113 60.26 164.073 61.34C165.033 62.42 166.293 62.96 167.853 62.96C169.053 62.96 170.053 62.68 170.853 62.12C171.653 61.56 172.203 60.76 172.503 59.72H175.443C175.003 61.4 174.123 62.75 172.803 63.77C171.483 64.77 169.833 65.27 167.853 65.27C166.293 65.27 164.903 64.92 163.683 64.22C162.483 63.52 161.543 62.53 160.863 61.25C160.183 59.97 159.843 58.47 159.843 56.75ZM194.085 56.15C194.085 56.67 194.055 57.22 193.995 57.8H180.855C180.955 59.42 181.505 60.69 182.505 61.61C183.525 62.51 184.755 62.96 186.195 62.96C187.375 62.96 188.355 62.69 189.135 62.15C189.935 61.59 190.495 60.85 190.815 59.93H193.755C193.315 61.51 192.435 62.8 191.115 63.8C189.795 64.78 188.155 65.27 186.195 65.27C184.635 65.27 183.235 64.92 181.995 64.22C180.775 63.52 179.815 62.53 179.115 61.25C178.415 59.95 178.065 58.45 178.065 56.75C178.065 55.05 178.405 53.56 179.085 52.28C179.765 51 180.715 50.02 181.935 49.34C183.175 48.64 184.595 48.29 186.195 48.29C187.755 48.29 189.135 48.63 190.335 49.31C191.535 49.99 192.455 50.93 193.095 52.13C193.755 53.31 194.085 54.65 194.085 56.15ZM191.265 55.58C191.265 54.54 191.035 53.65 190.575 52.91C190.115 52.15 189.485 51.58 188.685 51.2C187.905 50.8 187.035 50.6 186.075 50.6C184.695 50.6 183.515 51.04 182.535 51.92C181.575 52.8 181.025 54.02 180.885 55.58H191.265ZM200.419 51.59C200.959 50.65 201.759 49.87 202.819 49.25C203.899 48.61 205.149 48.29 206.569 48.29C208.029 48.29 209.349 48.64 210.529 49.34C211.729 50.04 212.669 51.03 213.349 52.31C214.029 53.57 214.369 55.04 214.369 56.72C214.369 58.38 214.029 59.86 213.349 61.16C212.669 62.46 211.729 63.47 210.529 64.19C209.349 64.91 208.029 65.27 206.569 65.27C205.169 65.27 203.929 64.96 202.849 64.34C201.789 63.7 200.979 62.91 200.419 61.97V72.8H197.689V48.56H200.419V51.59ZM211.579 56.72C211.579 55.48 211.329 54.4 210.829 53.48C210.329 52.56 209.649 51.86 208.789 51.38C207.949 50.9 207.019 50.66 205.999 50.66C204.999 50.66 204.069 50.91 203.209 51.41C202.369 51.89 201.689 52.6 201.169 53.54C200.669 54.46 200.419 55.53 200.419 56.75C200.419 57.99 200.669 59.08 201.169 60.02C201.689 60.94 202.369 61.65 203.209 62.15C204.069 62.63 204.999 62.87 205.999 62.87C207.019 62.87 207.949 62.63 208.789 62.15C209.649 61.65 210.329 60.94 210.829 60.02C211.329 59.08 211.579 57.98 211.579 56.72ZM221.292 50.81V60.5C221.292 61.3 221.462 61.87 221.802 62.21C222.142 62.53 222.732 62.69 223.572 62.69H225.582V65H223.122C221.602 65 220.462 64.65 219.702 63.95C218.942 63.25 218.562 62.1 218.562 60.5V50.81H216.432V48.56H218.562V44.42H221.292V48.56H225.582V50.81H221.292ZM243.47 48.56V65H240.74V62.57C240.22 63.41 239.49 64.07 238.55 64.55C237.63 65.01 236.61 65.24 235.49 65.24C234.21 65.24 233.06 64.98 232.04 64.46C231.02 63.92 230.21 63.12 229.61 62.06C229.03 61 228.74 59.71 228.74 58.19V48.56H231.44V57.83C231.44 59.45 231.85 60.7 232.67 61.58C233.49 62.44 234.61 62.87 236.03 62.87C237.49 62.87 238.64 62.42 239.48 61.52C240.32 60.62 240.74 59.31 240.74 57.59V48.56H243.47ZM247.06 56.72C247.06 55.04 247.4 53.57 248.08 52.31C248.76 51.03 249.69 50.04 250.87 49.34C252.07 48.64 253.4 48.29 254.86 48.29C256.3 48.29 257.55 48.6 258.61 49.22C259.67 49.84 260.46 50.62 260.98 51.56V48.56H263.74V65H260.98V61.94C260.44 62.9 259.63 63.7 258.55 64.34C257.49 64.96 256.25 65.27 254.83 65.27C253.37 65.27 252.05 64.91 250.87 64.19C249.69 63.47 248.76 62.46 248.08 61.16C247.4 59.86 247.06 58.38 247.06 56.72ZM260.98 56.75C260.98 55.51 260.73 54.43 260.23 53.51C259.73 52.59 259.05 51.89 258.19 51.41C257.35 50.91 256.42 50.66 255.4 50.66C254.38 50.66 253.45 50.9 252.61 51.38C251.77 51.86 251.1 52.56 250.6 53.48C250.1 54.4 249.85 55.48 249.85 56.72C249.85 57.98 250.1 59.08 250.6 60.02C251.1 60.94 251.77 61.65 252.61 62.15C253.45 62.63 254.38 62.87 255.4 62.87C256.42 62.87 257.35 62.63 258.19 62.15C259.05 61.65 259.73 60.94 260.23 60.02C260.73 59.08 260.98 57.99 260.98 56.75ZM271.083 42.8V65H268.353V42.8H271.083ZM282.714 54.53C282.714 52.49 283.174 50.66 284.094 49.04C285.014 47.4 286.264 46.12 287.844 45.2C289.444 44.28 291.214 43.82 293.154 43.82C295.434 43.82 297.424 44.37 299.124 45.47C300.824 46.57 302.064 48.13 302.844 50.15H299.574C298.994 48.89 298.154 47.92 297.054 47.24C295.974 46.56 294.674 46.22 293.154 46.22C291.694 46.22 290.384 46.56 289.224 47.24C288.064 47.92 287.154 48.89 286.494 50.15C285.834 51.39 285.504 52.85 285.504 54.53C285.504 56.19 285.834 57.65 286.494 58.91C287.154 60.15 288.064 61.11 289.224 61.79C290.384 62.47 291.694 62.81 293.154 62.81C294.674 62.81 295.974 62.48 297.054 61.82C298.154 61.14 298.994 60.17 299.574 58.91H302.844C302.064 60.91 300.824 62.46 299.124 63.56C297.424 64.64 295.434 65.18 293.154 65.18C291.214 65.18 289.444 64.73 287.844 63.83C286.264 62.91 285.014 61.64 284.094 60.02C283.174 58.4 282.714 56.57 282.714 54.53ZM309.638 42.8V65H306.908V42.8H309.638ZM313.27 56.72C313.27 55.04 313.61 53.57 314.29 52.31C314.97 51.03 315.9 50.04 317.08 49.34C318.28 48.64 319.61 48.29 321.07 48.29C322.51 48.29 323.76 48.6 324.82 49.22C325.88 49.84 326.67 50.62 327.19 51.56V48.56H329.95V65H327.19V61.94C326.65 62.9 325.84 63.7 324.76 64.34C323.7 64.96 322.46 65.27 321.04 65.27C319.58 65.27 318.26 64.91 317.08 64.19C315.9 63.47 314.97 62.46 314.29 61.16C313.61 59.86 313.27 58.38 313.27 56.72ZM327.19 56.75C327.19 55.51 326.94 54.43 326.44 53.51C325.94 52.59 325.26 51.89 324.4 51.41C323.56 50.91 322.63 50.66 321.61 50.66C320.59 50.66 319.66 50.9 318.82 51.38C317.98 51.86 317.31 52.56 316.81 53.48C316.31 54.4 316.06 55.48 316.06 56.72C316.06 57.98 316.31 59.08 316.81 60.02C317.31 60.94 317.98 61.65 318.82 62.15C319.66 62.63 320.59 62.87 321.61 62.87C322.63 62.87 323.56 62.63 324.4 62.15C325.26 61.65 325.94 60.94 326.44 60.02C326.94 59.08 327.19 57.99 327.19 56.75ZM337.294 51.23C337.774 50.29 338.454 49.56 339.334 49.04C340.234 48.52 341.324 48.26 342.604 48.26V51.08H341.884C338.824 51.08 337.294 52.74 337.294 56.06V65H334.564V48.56H337.294V51.23ZM347.165 45.89C346.645 45.89 346.205 45.71 345.845 45.35C345.485 44.99 345.305 44.55 345.305 44.03C345.305 43.51 345.485 43.07 345.845 42.71C346.205 42.35 346.645 42.17 347.165 42.17C347.665 42.17 348.085 42.35 348.425 42.71C348.785 43.07 348.965 43.51 348.965 44.03C348.965 44.55 348.785 44.99 348.425 45.35C348.085 45.71 347.665 45.89 347.165 45.89ZM348.485 48.56V65H345.755V48.56H348.485ZM356.468 50.81V60.5C356.468 61.3 356.638 61.87 356.978 62.21C357.318 62.53 357.908 62.69 358.748 62.69H360.758V65H358.298C356.778 65 355.638 64.65 354.878 63.95C354.118 63.25 353.738 62.1 353.738 60.5V50.81H351.608V48.56H353.738V44.42H356.468V48.56H360.758V50.81H356.468ZM378.226 48.56L368.326 72.74H365.506L368.746 64.82L362.116 48.56H365.146L370.306 61.88L375.406 48.56H378.226Z" fill="black"/>
<path d="M103.04 132.78H110.36V135H100.31V114.09H103.04V132.78ZM128.259 126.15C128.259 126.67 128.229 127.22 128.169 127.8H115.029C115.129 129.42 115.679 130.69 116.679 131.61C117.699 132.51 118.929 132.96 120.369 132.96C121.549 132.96 122.529 132.69 123.309 132.15C124.109 131.59 124.669 130.85 124.989 129.93H127.929C127.489 131.51 126.609 132.8 125.289 133.8C123.969 134.78 122.329 135.27 120.369 135.27C118.809 135.27 117.409 134.92 116.169 134.22C114.949 133.52 113.989 132.53 113.289 131.25C112.589 129.95 112.239 128.45 112.239 126.75C112.239 125.05 112.579 123.56 113.259 122.28C113.939 121 114.889 120.02 116.109 119.34C117.349 118.64 118.769 118.29 120.369 118.29C121.929 118.29 123.309 118.63 124.509 119.31C125.709 119.99 126.629 120.93 127.269 122.13C127.929 123.31 128.259 124.65 128.259 126.15ZM125.439 125.58C125.439 124.54 125.209 123.65 124.749 122.91C124.289 122.15 123.659 121.58 122.859 121.2C122.079 120.8 121.209 120.6 120.249 120.6C118.869 120.6 117.689 121.04 116.709 121.92C115.749 122.8 115.199 124.02 115.059 125.58H125.439ZM130.843 126.72C130.843 125.04 131.183 123.57 131.863 122.31C132.543 121.03 133.473 120.04 134.653 119.34C135.853 118.64 137.183 118.29 138.643 118.29C140.083 118.29 141.333 118.6 142.393 119.22C143.453 119.84 144.243 120.62 144.763 121.56V118.56H147.523V135H144.763V131.94C144.223 132.9 143.413 133.7 142.333 134.34C141.273 134.96 140.033 135.27 138.613 135.27C137.153 135.27 135.833 134.91 134.653 134.19C133.473 133.47 132.543 132.46 131.863 131.16C131.183 129.86 130.843 128.38 130.843 126.72ZM144.763 126.75C144.763 125.51 144.513 124.43 144.013 123.51C143.513 122.59 142.833 121.89 141.973 121.41C141.133 120.91 140.203 120.66 139.183 120.66C138.163 120.66 137.233 120.9 136.393 121.38C135.553 121.86 134.883 122.56 134.383 123.48C133.883 124.4 133.633 125.48 133.633 126.72C133.633 127.98 133.883 129.08 134.383 130.02C134.883 130.94 135.553 131.65 136.393 132.15C137.233 132.63 138.163 132.87 139.183 132.87C140.203 132.87 141.133 132.63 141.973 132.15C142.833 131.65 143.513 130.94 144.013 130.02C144.513 129.08 144.763 127.99 144.763 126.75ZM154.866 121.23C155.346 120.29 156.026 119.56 156.906 119.04C157.806 118.52 158.896 118.26 160.176 118.26V121.08H159.456C156.396 121.08 154.866 122.74 154.866 126.06V135H152.136V118.56H154.866V121.23ZM171.338 118.26C173.338 118.26 174.958 118.87 176.198 120.09C177.438 121.29 178.058 123.03 178.058 125.31V135H175.358V125.7C175.358 124.06 174.948 122.81 174.128 121.95C173.308 121.07 172.188 120.63 170.768 120.63C169.328 120.63 168.178 121.08 167.318 121.98C166.478 122.88 166.058 124.19 166.058 125.91V135H163.328V118.56H166.058V120.9C166.598 120.06 167.328 119.41 168.248 118.95C169.188 118.49 170.218 118.26 171.338 118.26ZM183.927 115.89C183.407 115.89 182.967 115.71 182.607 115.35C182.247 114.99 182.067 114.55 182.067 114.03C182.067 113.51 182.247 113.07 182.607 112.71C182.967 112.35 183.407 112.17 183.927 112.17C184.427 112.17 184.847 112.35 185.187 112.71C185.547 113.07 185.727 113.51 185.727 114.03C185.727 114.55 185.547 114.99 185.187 115.35C184.847 115.71 184.427 115.89 183.927 115.89ZM185.247 118.56V135H182.517V118.56H185.247ZM197.91 118.26C199.91 118.26 201.53 118.87 202.77 120.09C204.01 121.29 204.63 123.03 204.63 125.31V135H201.93V125.7C201.93 124.06 201.52 122.81 200.7 121.95C199.88 121.07 198.76 120.63 197.34 120.63C195.9 120.63 194.75 121.08 193.89 121.98C193.05 122.88 192.63 124.19 192.63 125.91V135H189.9V118.56H192.63V120.9C193.17 120.06 193.9 119.41 194.82 118.95C195.76 118.49 196.79 118.26 197.91 118.26ZM215.869 118.29C217.289 118.29 218.529 118.6 219.589 119.22C220.669 119.84 221.469 120.62 221.989 121.56V118.56H224.749V135.36C224.749 136.86 224.429 138.19 223.789 139.35C223.149 140.53 222.229 141.45 221.029 142.11C219.849 142.77 218.469 143.1 216.889 143.1C214.729 143.1 212.929 142.59 211.489 141.57C210.049 140.55 209.199 139.16 208.939 137.4H211.639C211.939 138.4 212.559 139.2 213.499 139.8C214.439 140.42 215.569 140.73 216.889 140.73C218.389 140.73 219.609 140.26 220.549 139.32C221.509 138.38 221.989 137.06 221.989 135.36V131.91C221.449 132.87 220.649 133.67 219.589 134.31C218.529 134.95 217.289 135.27 215.869 135.27C214.409 135.27 213.079 134.91 211.879 134.19C210.699 133.47 209.769 132.46 209.089 131.16C208.409 129.86 208.069 128.38 208.069 126.72C208.069 125.04 208.409 123.57 209.089 122.31C209.769 121.03 210.699 120.04 211.879 119.34C213.079 118.64 214.409 118.29 215.869 118.29ZM221.989 126.75C221.989 125.51 221.739 124.43 221.239 123.51C220.739 122.59 220.059 121.89 219.199 121.41C218.359 120.91 217.429 120.66 216.409 120.66C215.389 120.66 214.459 120.9 213.619 121.38C212.779 121.86 212.109 122.56 211.609 123.48C211.109 124.4 210.859 125.48 210.859 126.72C210.859 127.98 211.109 129.08 211.609 130.02C212.109 130.94 212.779 131.65 213.619 132.15C214.459 132.63 215.389 132.87 216.409 132.87C217.429 132.87 218.359 132.63 219.199 132.15C220.059 131.65 220.739 130.94 221.239 130.02C221.739 129.08 221.989 127.99 221.989 126.75ZM251.341 120.21C251.341 121.95 250.741 123.4 249.541 124.56C248.361 125.7 246.551 126.27 244.111 126.27H240.091V135H237.361V114.09H244.111C246.471 114.09 248.261 114.66 249.481 115.8C250.721 116.94 251.341 118.41 251.341 120.21ZM244.111 124.02C245.631 124.02 246.751 123.69 247.471 123.03C248.191 122.37 248.551 121.43 248.551 120.21C248.551 117.63 247.071 116.34 244.111 116.34H240.091V124.02H244.111ZM261.904 135.27C260.364 135.27 258.964 134.92 257.704 134.22C256.464 133.52 255.484 132.53 254.764 131.25C254.064 129.95 253.714 128.45 253.714 126.75C253.714 125.07 254.074 123.59 254.794 122.31C255.534 121.01 256.534 120.02 257.794 119.34C259.054 118.64 260.464 118.29 262.024 118.29C263.584 118.29 264.994 118.64 266.254 119.34C267.514 120.02 268.504 121 269.224 122.28C269.964 123.56 270.334 125.05 270.334 126.75C270.334 128.45 269.954 129.95 269.194 131.25C268.454 132.53 267.444 133.52 266.164 134.22C264.884 134.92 263.464 135.27 261.904 135.27ZM261.904 132.87C262.884 132.87 263.804 132.64 264.664 132.18C265.524 131.72 266.214 131.03 266.734 130.11C267.274 129.19 267.544 128.07 267.544 126.75C267.544 125.43 267.284 124.31 266.764 123.39C266.244 122.47 265.564 121.79 264.724 121.35C263.884 120.89 262.974 120.66 261.994 120.66C260.994 120.66 260.074 120.89 259.234 121.35C258.414 121.79 257.754 122.47 257.254 123.39C256.754 124.31 256.504 125.43 256.504 126.75C256.504 128.09 256.744 129.22 257.224 130.14C257.724 131.06 258.384 131.75 259.204 132.21C260.024 132.65 260.924 132.87 261.904 132.87ZM295.823 118.56L290.693 135H287.873L283.913 121.95L279.953 135H277.133L271.973 118.56H274.763L278.543 132.36L282.623 118.56H285.413L289.403 132.39L293.123 118.56H295.823ZM313.533 126.15C313.533 126.67 313.503 127.22 313.443 127.8H300.303C300.403 129.42 300.953 130.69 301.953 131.61C302.973 132.51 304.203 132.96 305.643 132.96C306.823 132.96 307.803 132.69 308.583 132.15C309.383 131.59 309.943 130.85 310.263 129.93H313.203C312.763 131.51 311.883 132.8 310.563 133.8C309.243 134.78 307.603 135.27 305.643 135.27C304.083 135.27 302.683 134.92 301.443 134.22C300.223 133.52 299.263 132.53 298.563 131.25C297.863 129.95 297.513 128.45 297.513 126.75C297.513 125.05 297.853 123.56 298.533 122.28C299.213 121 300.163 120.02 301.383 119.34C302.623 118.64 304.043 118.29 305.643 118.29C307.203 118.29 308.583 118.63 309.783 119.31C310.983 119.99 311.903 120.93 312.543 122.13C313.203 123.31 313.533 124.65 313.533 126.15ZM310.713 125.58C310.713 124.54 310.483 123.65 310.023 122.91C309.563 122.15 308.933 121.58 308.133 121.2C307.353 120.8 306.483 120.6 305.523 120.6C304.143 120.6 302.963 121.04 301.983 121.92C301.023 122.8 300.473 124.02 300.333 125.58H310.713ZM319.866 121.23C320.346 120.29 321.026 119.56 321.906 119.04C322.806 118.52 323.896 118.26 325.176 118.26V121.08H324.456C321.396 121.08 319.866 122.74 319.866 126.06V135H317.136V118.56H319.866V121.23Z" fill="black"/>
<path d="M112.32 208L107.34 199.45H104.04V208H101.31V187.09H108.06C109.64 187.09 110.97 187.36 112.05 187.9C113.15 188.44 113.97 189.17 114.51 190.09C115.05 191.01 115.32 192.06 115.32 193.24C115.32 194.68 114.9 195.95 114.06 197.05C113.24 198.15 112 198.88 110.34 199.24L115.59 208H112.32ZM104.04 197.26H108.06C109.54 197.26 110.65 196.9 111.39 196.18C112.13 195.44 112.5 194.46 112.5 193.24C112.5 192 112.13 191.04 111.39 190.36C110.67 189.68 109.56 189.34 108.06 189.34H104.04V197.26ZM134.562 199.15C134.562 199.67 134.532 200.22 134.472 200.8H121.332C121.432 202.42 121.982 203.69 122.982 204.61C124.002 205.51 125.232 205.96 126.672 205.96C127.852 205.96 128.832 205.69 129.612 205.15C130.412 204.59 130.972 203.85 131.292 202.93H134.232C133.792 204.51 132.912 205.8 131.592 206.8C130.272 207.78 128.632 208.27 126.672 208.27C125.112 208.27 123.712 207.92 122.472 207.22C121.252 206.52 120.292 205.53 119.592 204.25C118.892 202.95 118.542 201.45 118.542 199.75C118.542 198.05 118.882 196.56 119.562 195.28C120.242 194 121.192 193.02 122.412 192.34C123.652 191.64 125.072 191.29 126.672 191.29C128.232 191.29 129.612 191.63 130.812 192.31C132.012 192.99 132.932 193.93 133.572 195.13C134.232 196.31 134.562 197.65 134.562 199.15ZM131.742 198.58C131.742 197.54 131.512 196.65 131.052 195.91C130.592 195.15 129.962 194.58 129.162 194.2C128.382 193.8 127.512 193.6 126.552 193.6C125.172 193.6 123.992 194.04 123.012 194.92C122.052 195.8 121.502 197.02 121.362 198.58H131.742ZM141.495 193.81V203.5C141.495 204.3 141.665 204.87 142.005 205.21C142.345 205.53 142.935 205.69 143.775 205.69H145.785V208H143.325C141.805 208 140.665 207.65 139.905 206.95C139.145 206.25 138.765 205.1 138.765 203.5V193.81H136.635V191.56H138.765V187.42H141.495V191.56H145.785V193.81H141.495ZM164.093 199.15C164.093 199.67 164.063 200.22 164.003 200.8H150.863C150.963 202.42 151.513 203.69 152.513 204.61C153.533 205.51 154.763 205.96 156.203 205.96C157.383 205.96 158.363 205.69 159.143 205.15C159.943 204.59 160.503 203.85 160.823 202.93H163.763C163.323 204.51 162.443 205.8 161.123 206.8C159.803 207.78 158.163 208.27 156.203 208.27C154.643 208.27 153.243 207.92 152.003 207.22C150.783 206.52 149.823 205.53 149.123 204.25C148.423 202.95 148.073 201.45 148.073 199.75C148.073 198.05 148.413 196.56 149.093 195.28C149.773 194 150.723 193.02 151.943 192.34C153.183 191.64 154.603 191.29 156.203 191.29C157.763 191.29 159.143 191.63 160.343 192.31C161.543 192.99 162.463 193.93 163.103 195.13C163.763 196.31 164.093 197.65 164.093 199.15ZM161.273 198.58C161.273 197.54 161.043 196.65 160.583 195.91C160.123 195.15 159.493 194.58 158.693 194.2C157.913 193.8 157.043 193.6 156.083 193.6C154.703 193.6 153.523 194.04 152.543 194.92C151.583 195.8 151.033 197.02 150.893 198.58H161.273ZM175.707 191.26C177.707 191.26 179.327 191.87 180.567 193.09C181.807 194.29 182.427 196.03 182.427 198.31V208H179.727V198.7C179.727 197.06 179.317 195.81 178.497 194.95C177.677 194.07 176.557 193.63 175.137 193.63C173.697 193.63 172.547 194.08 171.687 194.98C170.847 195.88 170.427 197.19 170.427 198.91V208H167.697V191.56H170.427V193.9C170.967 193.06 171.697 192.41 172.617 191.95C173.557 191.49 174.587 191.26 175.707 191.26ZM190.216 193.81V203.5C190.216 204.3 190.386 204.87 190.726 205.21C191.066 205.53 191.656 205.69 192.496 205.69H194.506V208H192.046C190.526 208 189.386 207.65 188.626 206.95C187.866 206.25 187.486 205.1 187.486 203.5V193.81H185.356V191.56H187.486V187.42H190.216V191.56H194.506V193.81H190.216ZM199.224 188.89C198.704 188.89 198.264 188.71 197.904 188.35C197.544 187.99 197.364 187.55 197.364 187.03C197.364 186.51 197.544 186.07 197.904 185.71C198.264 185.35 198.704 185.17 199.224 185.17C199.724 185.17 200.144 185.35 200.484 185.71C200.844 186.07 201.024 186.51 201.024 187.03C201.024 187.55 200.844 187.99 200.484 188.35C200.144 188.71 199.724 188.89 199.224 188.89ZM200.544 191.56V208H197.814V191.56H200.544ZM212.367 208.27C210.827 208.27 209.427 207.92 208.167 207.22C206.927 206.52 205.947 205.53 205.227 204.25C204.527 202.95 204.177 201.45 204.177 199.75C204.177 198.07 204.537 196.59 205.257 195.31C205.997 194.01 206.997 193.02 208.257 192.34C209.517 191.64 210.927 191.29 212.487 191.29C214.047 191.29 215.457 191.64 216.717 192.34C217.977 193.02 218.967 194 219.687 195.28C220.427 196.56 220.797 198.05 220.797 199.75C220.797 201.45 220.417 202.95 219.657 204.25C218.917 205.53 217.907 206.52 216.627 207.22C215.347 207.92 213.927 208.27 212.367 208.27ZM212.367 205.87C213.347 205.87 214.267 205.64 215.127 205.18C215.987 204.72 216.677 204.03 217.197 203.11C217.737 202.19 218.007 201.07 218.007 199.75C218.007 198.43 217.747 197.31 217.227 196.39C216.707 195.47 216.027 194.79 215.187 194.35C214.347 193.89 213.437 193.66 212.457 193.66C211.457 193.66 210.537 193.89 209.697 194.35C208.877 194.79 208.217 195.47 207.717 196.39C207.217 197.31 206.967 198.43 206.967 199.75C206.967 201.09 207.207 202.22 207.687 203.14C208.187 204.06 208.847 204.75 209.667 205.21C210.487 205.65 211.387 205.87 212.367 205.87ZM232.396 191.26C234.396 191.26 236.016 191.87 237.256 193.09C238.496 194.29 239.116 196.03 239.116 198.31V208H236.416V198.7C236.416 197.06 236.006 195.81 235.186 194.95C234.366 194.07 233.246 193.63 231.826 193.63C230.386 193.63 229.236 194.08 228.376 194.98C227.536 195.88 227.116 197.19 227.116 198.91V208H224.386V191.56H227.116V193.9C227.656 193.06 228.386 192.41 229.306 191.95C230.246 191.49 231.276 191.26 232.396 191.26ZM265.554 193.21C265.554 194.95 264.954 196.4 263.754 197.56C262.574 198.7 260.764 199.27 258.324 199.27H254.304V208H251.574V187.09H258.324C260.684 187.09 262.474 187.66 263.694 188.8C264.934 189.94 265.554 191.41 265.554 193.21ZM258.324 197.02C259.844 197.02 260.964 196.69 261.684 196.03C262.404 195.37 262.764 194.43 262.764 193.21C262.764 190.63 261.284 189.34 258.324 189.34H254.304V197.02H258.324ZM276.117 208.27C274.577 208.27 273.177 207.92 271.917 207.22C270.677 206.52 269.697 205.53 268.977 204.25C268.277 202.95 267.927 201.45 267.927 199.75C267.927 198.07 268.287 196.59 269.007 195.31C269.747 194.01 270.747 193.02 272.007 192.34C273.267 191.64 274.677 191.29 276.237 191.29C277.797 191.29 279.207 191.64 280.467 192.34C281.727 193.02 282.717 194 283.437 195.28C284.177 196.56 284.547 198.05 284.547 199.75C284.547 201.45 284.167 202.95 283.407 204.25C282.667 205.53 281.657 206.52 280.377 207.22C279.097 207.92 277.677 208.27 276.117 208.27ZM276.117 205.87C277.097 205.87 278.017 205.64 278.877 205.18C279.737 204.72 280.427 204.03 280.947 203.11C281.487 202.19 281.757 201.07 281.757 199.75C281.757 198.43 281.497 197.31 280.977 196.39C280.457 195.47 279.777 194.79 278.937 194.35C278.097 193.89 277.187 193.66 276.207 193.66C275.207 193.66 274.287 193.89 273.447 194.35C272.627 194.79 271.967 195.47 271.467 196.39C270.967 197.31 270.717 198.43 270.717 199.75C270.717 201.09 270.957 202.22 271.437 203.14C271.937 204.06 272.597 204.75 273.417 205.21C274.237 205.65 275.137 205.87 276.117 205.87ZM310.036 191.56L304.906 208H302.086L298.126 194.95L294.166 208H291.346L286.186 191.56H288.976L292.756 205.36L296.836 191.56H299.626L303.616 205.39L307.336 191.56H310.036ZM327.746 199.15C327.746 199.67 327.716 200.22 327.656 200.8H314.516C314.616 202.42 315.166 203.69 316.166 204.61C317.186 205.51 318.416 205.96 319.856 205.96C321.036 205.96 322.016 205.69 322.796 205.15C323.596 204.59 324.156 203.85 324.476 202.93H327.416C326.976 204.51 326.096 205.8 324.776 206.8C323.456 207.78 321.816 208.27 319.856 208.27C318.296 208.27 316.896 207.92 315.656 207.22C314.436 206.52 313.476 205.53 312.776 204.25C312.076 202.95 311.726 201.45 311.726 199.75C311.726 198.05 312.066 196.56 312.746 195.28C313.426 194 314.376 193.02 315.596 192.34C316.836 191.64 318.256 191.29 319.856 191.29C321.416 191.29 322.796 191.63 323.996 192.31C325.196 192.99 326.116 193.93 326.756 195.13C327.416 196.31 327.746 197.65 327.746 199.15ZM324.926 198.58C324.926 197.54 324.696 196.65 324.236 195.91C323.776 195.15 323.146 194.58 322.346 194.2C321.566 193.8 320.696 193.6 319.736 193.6C318.356 193.6 317.176 194.04 316.196 194.92C315.236 195.8 314.686 197.02 314.546 198.58H324.926ZM334.079 194.23C334.559 193.29 335.239 192.56 336.119 192.04C337.019 191.52 338.109 191.26 339.389 191.26V194.08H338.669C335.609 194.08 334.079 195.74 334.079 199.06V208H331.349V191.56H334.079V194.23Z" fill="black"/>
<path d="M105.94 279.21C104.56 279.21 103.32 278.97 102.22 278.49C101.14 277.99 100.29 277.31 99.67 276.45C99.05 275.57 98.73 274.56 98.71 273.42H101.62C101.72 274.4 102.12 275.23 102.82 275.91C103.54 276.57 104.58 276.9 105.94 276.9C107.24 276.9 108.26 276.58 109 275.94C109.76 275.28 110.14 274.44 110.14 273.42C110.14 272.62 109.92 271.97 109.48 271.47C109.04 270.97 108.49 270.59 107.83 270.33C107.17 270.07 106.28 269.79 105.16 269.49C103.78 269.13 102.67 268.77 101.83 268.41C101.01 268.05 100.3 267.49 99.7 266.73C99.12 265.95 98.83 264.91 98.83 263.61C98.83 262.47 99.12 261.46 99.7 260.58C100.28 259.7 101.09 259.02 102.13 258.54C103.19 258.06 104.4 257.82 105.76 257.82C107.72 257.82 109.32 258.31 110.56 259.29C111.82 260.27 112.53 261.57 112.69 263.19H109.69C109.59 262.39 109.17 261.69 108.43 261.09C107.69 260.47 106.71 260.16 105.49 260.16C104.35 260.16 103.42 260.46 102.7 261.06C101.98 261.64 101.62 262.46 101.62 263.52C101.62 264.28 101.83 264.9 102.25 265.38C102.69 265.86 103.22 266.23 103.84 266.49C104.48 266.73 105.37 267.01 106.51 267.33C107.89 267.71 109 268.09 109.84 268.47C110.68 268.83 111.4 269.4 112 270.18C112.6 270.94 112.9 271.98 112.9 273.3C112.9 274.32 112.63 275.28 112.09 276.18C111.55 277.08 110.75 277.81 109.69 278.37C108.63 278.93 107.38 279.21 105.94 279.21ZM131.497 262.56V279H128.767V276.57C128.247 277.41 127.517 278.07 126.577 278.55C125.657 279.01 124.637 279.24 123.517 279.24C122.237 279.24 121.087 278.98 120.067 278.46C119.047 277.92 118.237 277.12 117.637 276.06C117.057 275 116.767 273.71 116.767 272.19V262.56H119.467V271.83C119.467 273.45 119.877 274.7 120.697 275.58C121.517 276.44 122.637 276.87 124.057 276.87C125.517 276.87 126.667 276.42 127.507 275.52C128.347 274.62 128.767 273.31 128.767 271.59V262.56H131.497ZM138.837 265.62C139.397 264.64 140.217 263.84 141.297 263.22C142.377 262.6 143.607 262.29 144.987 262.29C146.467 262.29 147.797 262.64 148.977 263.34C150.157 264.04 151.087 265.03 151.767 266.31C152.447 267.57 152.787 269.04 152.787 270.72C152.787 272.38 152.447 273.86 151.767 275.16C151.087 276.46 150.147 277.47 148.947 278.19C147.767 278.91 146.447 279.27 144.987 279.27C143.567 279.27 142.317 278.96 141.237 278.34C140.177 277.72 139.377 276.93 138.837 275.97V279H136.107V256.8H138.837V265.62ZM149.997 270.72C149.997 269.48 149.747 268.4 149.247 267.48C148.747 266.56 148.067 265.86 147.207 265.38C146.367 264.9 145.437 264.66 144.417 264.66C143.417 264.66 142.487 264.91 141.627 265.41C140.787 265.89 140.107 266.6 139.587 267.54C139.087 268.46 138.837 269.53 138.837 270.75C138.837 271.99 139.087 273.08 139.587 274.02C140.107 274.94 140.787 275.65 141.627 276.15C142.487 276.63 143.417 276.87 144.417 276.87C145.437 276.87 146.367 276.63 147.207 276.15C148.067 275.65 148.747 274.94 149.247 274.02C149.747 273.08 149.997 271.98 149.997 270.72ZM157.85 259.89C157.33 259.89 156.89 259.71 156.53 259.35C156.19 258.99 156.02 258.55 156.02 258.03C156.02 257.51 156.19 257.07 156.53 256.71C156.89 256.35 157.33 256.17 157.85 256.17C158.37 256.17 158.8 256.35 159.14 256.71C159.5 257.07 159.68 257.51 159.68 258.03C159.68 258.55 159.5 258.99 159.14 259.35C158.8 259.71 158.37 259.89 157.85 259.89ZM159.2 282.57C159.2 284.03 158.83 285.1 158.09 285.78C157.35 286.46 156.27 286.8 154.85 286.8H153.26V284.49H154.4C155.16 284.49 155.69 284.34 155.99 284.04C156.31 283.74 156.47 283.23 156.47 282.51V262.56H159.2V282.57ZM178.822 270.15C178.822 270.67 178.792 271.22 178.732 271.8H165.592C165.692 273.42 166.242 274.69 167.242 275.61C168.262 276.51 169.492 276.96 170.932 276.96C172.112 276.96 173.092 276.69 173.872 276.15C174.672 275.59 175.232 274.85 175.552 273.93H178.492C178.052 275.51 177.172 276.8 175.852 277.8C174.532 278.78 172.892 279.27 170.932 279.27C169.372 279.27 167.972 278.92 166.732 278.22C165.512 277.52 164.552 276.53 163.852 275.25C163.152 273.95 162.802 272.45 162.802 270.75C162.802 269.05 163.142 267.56 163.822 266.28C164.502 265 165.452 264.02 166.672 263.34C167.912 262.64 169.332 262.29 170.932 262.29C172.492 262.29 173.872 262.63 175.072 263.31C176.272 263.99 177.192 264.93 177.832 266.13C178.492 267.31 178.822 268.65 178.822 270.15ZM176.002 269.58C176.002 268.54 175.772 267.65 175.312 266.91C174.852 266.15 174.222 265.58 173.422 265.2C172.642 264.8 171.772 264.6 170.812 264.6C169.432 264.6 168.252 265.04 167.272 265.92C166.312 266.8 165.762 268.02 165.622 269.58H176.002ZM181.405 270.75C181.405 269.05 181.745 267.57 182.425 266.31C183.105 265.03 184.045 264.04 185.245 263.34C186.465 262.64 187.855 262.29 189.415 262.29C191.435 262.29 193.095 262.78 194.395 263.76C195.715 264.74 196.585 266.1 197.005 267.84H194.065C193.785 266.84 193.235 266.05 192.415 265.47C191.615 264.89 190.615 264.6 189.415 264.6C187.855 264.6 186.595 265.14 185.635 266.22C184.675 267.28 184.195 268.79 184.195 270.75C184.195 272.73 184.675 274.26 185.635 275.34C186.595 276.42 187.855 276.96 189.415 276.96C190.615 276.96 191.615 276.68 192.415 276.12C193.215 275.56 193.765 274.76 194.065 273.72H197.005C196.565 275.4 195.685 276.75 194.365 277.77C193.045 278.77 191.395 279.27 189.415 279.27C187.855 279.27 186.465 278.92 185.245 278.22C184.045 277.52 183.105 276.53 182.425 275.25C181.745 273.97 181.405 272.47 181.405 270.75ZM203.978 264.81V274.5C203.978 275.3 204.148 275.87 204.488 276.21C204.828 276.53 205.418 276.69 206.258 276.69H208.268V279H205.808C204.288 279 203.148 278.65 202.388 277.95C201.628 277.25 201.248 276.1 201.248 274.5V264.81H199.118V262.56H201.248V258.42H203.978V262.56H208.268V264.81H203.978ZM212.986 259.89C212.466 259.89 212.026 259.71 211.666 259.35C211.306 258.99 211.126 258.55 211.126 258.03C211.126 257.51 211.306 257.07 211.666 256.71C212.026 256.35 212.466 256.17 212.986 256.17C213.486 256.17 213.906 256.35 214.246 256.71C214.606 257.07 214.786 257.51 214.786 258.03C214.786 258.55 214.606 258.99 214.246 259.35C213.906 259.71 213.486 259.89 212.986 259.89ZM214.306 262.56V279H211.576V262.56H214.306ZM225.078 276.48L230.178 262.56H233.088L226.638 279H223.458L217.008 262.56H219.948L225.078 276.48ZM250.775 270.15C250.775 270.67 250.745 271.22 250.685 271.8H237.545C237.645 273.42 238.195 274.69 239.195 275.61C240.215 276.51 241.445 276.96 242.885 276.96C244.065 276.96 245.045 276.69 245.825 276.15C246.625 275.59 247.185 274.85 247.505 273.93H250.445C250.005 275.51 249.125 276.8 247.805 277.8C246.485 278.78 244.845 279.27 242.885 279.27C241.325 279.27 239.925 278.92 238.685 278.22C237.465 277.52 236.505 276.53 235.805 275.25C235.105 273.95 234.755 272.45 234.755 270.75C234.755 269.05 235.095 267.56 235.775 266.28C236.455 265 237.405 264.02 238.625 263.34C239.865 262.64 241.285 262.29 242.885 262.29C244.445 262.29 245.825 262.63 247.025 263.31C248.225 263.99 249.145 264.93 249.785 266.13C250.445 267.31 250.775 268.65 250.775 270.15ZM247.955 269.58C247.955 268.54 247.725 267.65 247.265 266.91C246.805 266.15 246.175 265.58 245.375 265.2C244.595 264.8 243.725 264.6 242.765 264.6C241.385 264.6 240.205 265.04 239.225 265.92C238.265 266.8 237.715 268.02 237.575 269.58H247.955ZM265.106 258.09V279H262.376V258.09H265.106ZM277.769 262.26C279.769 262.26 281.389 262.87 282.629 264.09C283.869 265.29 284.489 267.03 284.489 269.31V279H281.789V269.7C281.789 268.06 281.379 266.81 280.559 265.95C279.739 265.07 278.619 264.63 277.199 264.63C275.759 264.63 274.609 265.08 273.749 265.98C272.909 266.88 272.489 268.19 272.489 269.91V279H269.759V262.56H272.489V264.9C273.029 264.06 273.759 263.41 274.679 262.95C275.619 262.49 276.649 262.26 277.769 262.26ZM292.279 264.81V274.5C292.279 275.3 292.449 275.87 292.789 276.21C293.129 276.53 293.719 276.69 294.559 276.69H296.569V279H294.109C292.589 279 291.449 278.65 290.689 277.95C289.929 277.25 289.549 276.1 289.549 274.5V264.81H287.419V262.56H289.549V258.42H292.279V262.56H296.569V264.81H292.279ZM314.876 270.15C314.876 270.67 314.846 271.22 314.786 271.8H301.646C301.746 273.42 302.296 274.69 303.296 275.61C304.316 276.51 305.546 276.96 306.986 276.96C308.166 276.96 309.146 276.69 309.926 276.15C310.726 275.59 311.286 274.85 311.606 273.93H314.546C314.106 275.51 313.226 276.8 311.906 277.8C310.586 278.78 308.946 279.27 306.986 279.27C305.426 279.27 304.026 278.92 302.786 278.22C301.566 277.52 300.606 276.53 299.906 275.25C299.206 273.95 298.856 272.45 298.856 270.75C298.856 269.05 299.196 267.56 299.876 266.28C300.556 265 301.506 264.02 302.726 263.34C303.966 262.64 305.386 262.29 306.986 262.29C308.546 262.29 309.926 262.63 311.126 263.31C312.326 263.99 313.246 264.93 313.886 266.13C314.546 267.31 314.876 268.65 314.876 270.15ZM312.056 269.58C312.056 268.54 311.826 267.65 311.366 266.91C310.906 266.15 310.276 265.58 309.476 265.2C308.696 264.8 307.826 264.6 306.866 264.6C305.486 264.6 304.306 265.04 303.326 265.92C302.366 266.8 301.816 268.02 301.676 269.58H312.056ZM321.21 265.23C321.69 264.29 322.37 263.56 323.25 263.04C324.15 262.52 325.24 262.26 326.52 262.26V265.08H325.8C322.74 265.08 321.21 266.74 321.21 270.06V279H318.48V262.56H321.21V265.23ZM344.671 270.15C344.671 270.67 344.641 271.22 344.581 271.8H331.441C331.541 273.42 332.091 274.69 333.091 275.61C334.111 276.51 335.341 276.96 336.781 276.96C337.961 276.96 338.941 276.69 339.721 276.15C340.521 275.59 341.081 274.85 341.401 273.93H344.341C343.901 275.51 343.021 276.8 341.701 277.8C340.381 278.78 338.741 279.27 336.781 279.27C335.221 279.27 333.821 278.92 332.581 278.22C331.361 277.52 330.401 276.53 329.701 275.25C329.001 273.95 328.651 272.45 328.651 270.75C328.651 269.05 328.991 267.56 329.671 266.28C330.351 265 331.301 264.02 332.521 263.34C333.761 262.64 335.181 262.29 336.781 262.29C338.341 262.29 339.721 262.63 340.921 263.31C342.121 263.99 343.041 264.93 343.681 266.13C344.341 267.31 344.671 268.65 344.671 270.15ZM341.851 269.58C341.851 268.54 341.621 267.65 341.161 266.91C340.701 266.15 340.071 265.58 339.271 265.2C338.491 264.8 337.621 264.6 336.661 264.6C335.281 264.6 334.101 265.04 333.121 265.92C332.161 266.8 331.611 268.02 331.471 269.58H341.851ZM354.095 279.27C352.835 279.27 351.705 279.06 350.705 278.64C349.705 278.2 348.915 277.6 348.335 276.84C347.755 276.06 347.435 275.17 347.375 274.17H350.195C350.275 274.99 350.655 275.66 351.335 276.18C352.035 276.7 352.945 276.96 354.065 276.96C355.105 276.96 355.925 276.73 356.525 276.27C357.125 275.81 357.425 275.23 357.425 274.53C357.425 273.81 357.105 273.28 356.465 272.94C355.825 272.58 354.835 272.23 353.495 271.89C352.275 271.57 351.275 271.25 350.495 270.93C349.735 270.59 349.075 270.1 348.515 269.46C347.975 268.8 347.705 267.94 347.705 266.88C347.705 266.04 347.955 265.27 348.455 264.57C348.955 263.87 349.665 263.32 350.585 262.92C351.505 262.5 352.555 262.29 353.735 262.29C355.555 262.29 357.025 262.75 358.145 263.67C359.265 264.59 359.865 265.85 359.945 267.45H357.215C357.155 266.59 356.805 265.9 356.165 265.38C355.545 264.86 354.705 264.6 353.645 264.6C352.665 264.6 351.885 264.81 351.305 265.23C350.725 265.65 350.435 266.2 350.435 266.88C350.435 267.42 350.605 267.87 350.945 268.23C351.305 268.57 351.745 268.85 352.265 269.07C352.805 269.27 353.545 269.5 354.485 269.76C355.665 270.08 356.625 270.4 357.365 270.72C358.105 271.02 358.735 271.48 359.255 272.1C359.795 272.72 360.075 273.53 360.095 274.53C360.095 275.43 359.845 276.24 359.345 276.96C358.845 277.68 358.135 278.25 357.215 278.67C356.315 279.07 355.275 279.27 354.095 279.27ZM367.279 264.81V274.5C367.279 275.3 367.449 275.87 367.789 276.21C368.129 276.53 368.719 276.69 369.559 276.69H371.569V279H369.109C367.589 279 366.449 278.65 365.689 277.95C364.929 277.25 364.549 276.1 364.549 274.5V264.81H362.419V262.56H364.549V258.42H367.279V262.56H371.569V264.81H367.279Z" fill="black"/>
<path d="M100.29 333.53C100.29 331.49 100.75 329.66 101.67 328.04C102.59 326.4 103.84 325.12 105.42 324.2C107.02 323.28 108.79 322.82 110.73 322.82C113.01 322.82 115 323.37 116.7 324.47C118.4 325.57 119.64 327.13 120.42 329.15H117.15C116.57 327.89 115.73 326.92 114.63 326.24C113.55 325.56 112.25 325.22 110.73 325.22C109.27 325.22 107.96 325.56 106.8 326.24C105.64 326.92 104.73 327.89 104.07 329.15C103.41 330.39 103.08 331.85 103.08 333.53C103.08 335.19 103.41 336.65 104.07 337.91C104.73 339.15 105.64 340.11 106.8 340.79C107.96 341.47 109.27 341.81 110.73 341.81C112.25 341.81 113.55 341.48 114.63 340.82C115.73 340.14 116.57 339.17 117.15 337.91H120.42C119.64 339.91 118.4 341.46 116.7 342.56C115 343.64 113.01 344.18 110.73 344.18C108.79 344.18 107.02 343.73 105.42 342.83C103.84 341.91 102.59 340.64 101.67 339.02C100.75 337.4 100.29 335.57 100.29 333.53ZM131.654 344.27C130.114 344.27 128.714 343.92 127.454 343.22C126.214 342.52 125.234 341.53 124.514 340.25C123.814 338.95 123.464 337.45 123.464 335.75C123.464 334.07 123.824 332.59 124.544 331.31C125.284 330.01 126.284 329.02 127.544 328.34C128.804 327.64 130.214 327.29 131.774 327.29C133.334 327.29 134.744 327.64 136.004 328.34C137.264 329.02 138.254 330 138.974 331.28C139.714 332.56 140.084 334.05 140.084 335.75C140.084 337.45 139.704 338.95 138.944 340.25C138.204 341.53 137.194 342.52 135.914 343.22C134.634 343.92 133.214 344.27 131.654 344.27ZM131.654 341.87C132.634 341.87 133.554 341.64 134.414 341.18C135.274 340.72 135.964 340.03 136.484 339.11C137.024 338.19 137.294 337.07 137.294 335.75C137.294 334.43 137.034 333.31 136.514 332.39C135.994 331.47 135.314 330.79 134.474 330.35C133.634 329.89 132.724 329.66 131.744 329.66C130.744 329.66 129.824 329.89 128.984 330.35C128.164 330.79 127.504 331.47 127.004 332.39C126.504 333.31 126.254 334.43 126.254 335.75C126.254 337.09 126.494 338.22 126.974 339.14C127.474 340.06 128.134 340.75 128.954 341.21C129.774 341.65 130.674 341.87 131.654 341.87ZM151.683 327.26C153.683 327.26 155.303 327.87 156.543 329.09C157.783 330.29 158.403 332.03 158.403 334.31V344H155.703V334.7C155.703 333.06 155.293 331.81 154.473 330.95C153.653 330.07 152.533 329.63 151.113 329.63C149.673 329.63 148.523 330.08 147.663 330.98C146.823 331.88 146.403 333.19 146.403 334.91V344H143.673V327.56H146.403V329.9C146.943 329.06 147.673 328.41 148.593 327.95C149.533 327.49 150.563 327.26 151.683 327.26ZM161.843 335.75C161.843 334.05 162.183 332.57 162.863 331.31C163.543 330.03 164.483 329.04 165.683 328.34C166.903 327.64 168.293 327.29 169.853 327.29C171.873 327.29 173.533 327.78 174.833 328.76C176.153 329.74 177.023 331.1 177.443 332.84H174.503C174.223 331.84 173.673 331.05 172.853 330.47C172.053 329.89 171.053 329.6 169.853 329.6C168.293 329.6 167.033 330.14 166.073 331.22C165.113 332.28 164.633 333.79 164.633 335.75C164.633 337.73 165.113 339.26 166.073 340.34C167.033 341.42 168.293 341.96 169.853 341.96C171.053 341.96 172.053 341.68 172.853 341.12C173.653 340.56 174.203 339.76 174.503 338.72H177.443C177.003 340.4 176.123 341.75 174.803 342.77C173.483 343.77 171.833 344.27 169.853 344.27C168.293 344.27 166.903 343.92 165.683 343.22C164.483 342.52 163.543 341.53 162.863 340.25C162.183 338.97 161.843 337.47 161.843 335.75ZM196.085 335.15C196.085 335.67 196.055 336.22 195.995 336.8H182.855C182.955 338.42 183.505 339.69 184.505 340.61C185.525 341.51 186.755 341.96 188.195 341.96C189.375 341.96 190.355 341.69 191.135 341.15C191.935 340.59 192.495 339.85 192.815 338.93H195.755C195.315 340.51 194.435 341.8 193.115 342.8C191.795 343.78 190.155 344.27 188.195 344.27C186.635 344.27 185.235 343.92 183.995 343.22C182.775 342.52 181.815 341.53 181.115 340.25C180.415 338.95 180.065 337.45 180.065 335.75C180.065 334.05 180.405 332.56 181.085 331.28C181.765 330 182.715 329.02 183.935 328.34C185.175 327.64 186.595 327.29 188.195 327.29C189.755 327.29 191.135 327.63 192.335 328.31C193.535 328.99 194.455 329.93 195.095 331.13C195.755 332.31 196.085 333.65 196.085 335.15ZM193.265 334.58C193.265 333.54 193.035 332.65 192.575 331.91C192.115 331.15 191.485 330.58 190.685 330.2C189.905 329.8 189.035 329.6 188.075 329.6C186.695 329.6 185.515 330.04 184.535 330.92C183.575 331.8 183.025 333.02 182.885 334.58H193.265ZM207.699 327.26C209.699 327.26 211.319 327.87 212.559 329.09C213.799 330.29 214.419 332.03 214.419 334.31V344H211.719V334.7C211.719 333.06 211.309 331.81 210.489 330.95C209.669 330.07 208.549 329.63 207.129 329.63C205.689 329.63 204.539 330.08 203.679 330.98C202.839 331.88 202.419 333.19 202.419 334.91V344H199.689V327.56H202.419V329.9C202.959 329.06 203.689 328.41 204.609 327.95C205.549 327.49 206.579 327.26 207.699 327.26ZM222.208 329.81V339.5C222.208 340.3 222.378 340.87 222.718 341.21C223.058 341.53 223.648 341.69 224.488 341.69H226.498V344H224.038C222.518 344 221.378 343.65 220.618 342.95C219.858 342.25 219.478 341.1 219.478 339.5V329.81H217.348V327.56H219.478V323.42H222.208V327.56H226.498V329.81H222.208ZM232.536 330.23C233.016 329.29 233.696 328.56 234.576 328.04C235.476 327.52 236.566 327.26 237.846 327.26V330.08H237.126C234.066 330.08 232.536 331.74 232.536 335.06V344H229.806V327.56H232.536V330.23ZM239.978 335.72C239.978 334.04 240.318 332.57 240.998 331.31C241.678 330.03 242.608 329.04 243.788 328.34C244.988 327.64 246.318 327.29 247.778 327.29C249.218 327.29 250.468 327.6 251.528 328.22C252.588 328.84 253.378 329.62 253.898 330.56V327.56H256.658V344H253.898V340.94C253.358 341.9 252.548 342.7 251.468 343.34C250.408 343.96 249.168 344.27 247.748 344.27C246.288 344.27 244.968 343.91 243.788 343.19C242.608 342.47 241.678 341.46 240.998 340.16C240.318 338.86 239.978 337.38 239.978 335.72ZM253.898 335.75C253.898 334.51 253.648 333.43 253.148 332.51C252.648 331.59 251.968 330.89 251.108 330.41C250.268 329.91 249.338 329.66 248.318 329.66C247.298 329.66 246.368 329.9 245.528 330.38C244.688 330.86 244.018 331.56 243.518 332.48C243.018 333.4 242.768 334.48 242.768 335.72C242.768 336.98 243.018 338.08 243.518 339.02C244.018 339.94 244.688 340.65 245.528 341.15C246.368 341.63 247.298 341.87 248.318 341.87C249.338 341.87 250.268 341.63 251.108 341.15C251.968 340.65 252.648 339.94 253.148 339.02C253.648 338.08 253.898 336.99 253.898 335.75ZM264.601 329.81V339.5C264.601 340.3 264.771 340.87 265.111 341.21C265.451 341.53 266.041 341.69 266.881 341.69H268.891V344H266.431C264.911 344 263.771 343.65 263.011 342.95C262.251 342.25 261.871 341.1 261.871 339.5V329.81H259.741V327.56H261.871V323.42H264.601V327.56H268.891V329.81H264.601ZM273.609 324.89C273.089 324.89 272.649 324.71 272.289 324.35C271.929 323.99 271.749 323.55 271.749 323.03C271.749 322.51 271.929 322.07 272.289 321.71C272.649 321.35 273.089 321.17 273.609 321.17C274.109 321.17 274.529 321.35 274.869 321.71C275.229 322.07 275.409 322.51 275.409 323.03C275.409 323.55 275.229 323.99 274.869 324.35C274.529 324.71 274.109 324.89 273.609 324.89ZM274.929 327.56V344H272.199V327.56H274.929ZM286.751 344.27C285.211 344.27 283.811 343.92 282.551 343.22C281.311 342.52 280.331 341.53 279.611 340.25C278.911 338.95 278.561 337.45 278.561 335.75C278.561 334.07 278.921 332.59 279.641 331.31C280.381 330.01 281.381 329.02 282.641 328.34C283.901 327.64 285.311 327.29 286.871 327.29C288.431 327.29 289.841 327.64 291.101 328.34C292.361 329.02 293.351 330 294.071 331.28C294.811 332.56 295.181 334.05 295.181 335.75C295.181 337.45 294.801 338.95 294.041 340.25C293.301 341.53 292.291 342.52 291.011 343.22C289.731 343.92 288.311 344.27 286.751 344.27ZM286.751 341.87C287.731 341.87 288.651 341.64 289.511 341.18C290.371 340.72 291.061 340.03 291.581 339.11C292.121 338.19 292.391 337.07 292.391 335.75C292.391 334.43 292.131 333.31 291.611 332.39C291.091 331.47 290.411 330.79 289.571 330.35C288.731 329.89 287.821 329.66 286.841 329.66C285.841 329.66 284.921 329.89 284.081 330.35C283.261 330.79 282.601 331.47 282.101 332.39C281.601 333.31 281.351 334.43 281.351 335.75C281.351 337.09 281.591 338.22 282.071 339.14C282.571 340.06 283.231 340.75 284.051 341.21C284.871 341.65 285.771 341.87 286.751 341.87ZM306.781 327.26C308.781 327.26 310.401 327.87 311.641 329.09C312.881 330.29 313.501 332.03 313.501 334.31V344H310.801V334.7C310.801 333.06 310.391 331.81 309.571 330.95C308.751 330.07 307.631 329.63 306.211 329.63C304.771 329.63 303.621 330.08 302.761 330.98C301.921 331.88 301.501 333.19 301.501 334.91V344H298.771V327.56H301.501V329.9C302.041 329.06 302.771 328.41 303.691 327.95C304.631 327.49 305.661 327.26 306.781 327.26Z" fill="black"/>
<path d="M112.67 406.35H103.55L101.87 411H98.99L106.55 390.21H109.7L117.23 411H114.35L112.67 406.35ZM111.89 404.13L108.11 393.57L104.33 404.13H111.89ZM119.505 402.75C119.505 401.05 119.845 399.57 120.525 398.31C121.205 397.03 122.145 396.04 123.345 395.34C124.565 394.64 125.955 394.29 127.515 394.29C129.535 394.29 131.195 394.78 132.495 395.76C133.815 396.74 134.685 398.1 135.105 399.84H132.165C131.885 398.84 131.335 398.05 130.515 397.47C129.715 396.89 128.715 396.6 127.515 396.6C125.955 396.6 124.695 397.14 123.735 398.22C122.775 399.28 122.295 400.79 122.295 402.75C122.295 404.73 122.775 406.26 123.735 407.34C124.695 408.42 125.955 408.96 127.515 408.96C128.715 408.96 129.715 408.68 130.515 408.12C131.315 407.56 131.865 406.76 132.165 405.72H135.105C134.665 407.4 133.785 408.75 132.465 409.77C131.145 410.77 129.495 411.27 127.515 411.27C125.955 411.27 124.565 410.92 123.345 410.22C122.145 409.52 121.205 408.53 120.525 407.25C119.845 405.97 119.505 404.47 119.505 402.75ZM137.728 402.72C137.728 401.04 138.068 399.57 138.748 398.31C139.428 397.03 140.358 396.04 141.538 395.34C142.738 394.64 144.068 394.29 145.528 394.29C146.968 394.29 148.218 394.6 149.278 395.22C150.338 395.84 151.128 396.62 151.648 397.56V394.56H154.408V411H151.648V407.94C151.108 408.9 150.298 409.7 149.218 410.34C148.158 410.96 146.918 411.27 145.498 411.27C144.038 411.27 142.718 410.91 141.538 410.19C140.358 409.47 139.428 408.46 138.748 407.16C138.068 405.86 137.728 404.38 137.728 402.72ZM151.648 402.75C151.648 401.51 151.398 400.43 150.898 399.51C150.398 398.59 149.718 397.89 148.858 397.41C148.018 396.91 147.088 396.66 146.068 396.66C145.048 396.66 144.118 396.9 143.278 397.38C142.438 397.86 141.768 398.56 141.268 399.48C140.768 400.4 140.518 401.48 140.518 402.72C140.518 403.98 140.768 405.08 141.268 406.02C141.768 406.94 142.438 407.65 143.278 408.15C144.118 408.63 145.048 408.87 146.068 408.87C147.088 408.87 148.018 408.63 148.858 408.15C149.718 407.65 150.398 406.94 150.898 406.02C151.398 405.08 151.648 403.99 151.648 402.75ZM158.001 402.72C158.001 401.04 158.341 399.57 159.021 398.31C159.701 397.03 160.631 396.04 161.811 395.34C163.011 394.64 164.351 394.29 165.831 394.29C167.111 394.29 168.301 394.59 169.401 395.19C170.501 395.77 171.341 396.54 171.921 397.5V388.8H174.681V411H171.921V407.91C171.381 408.89 170.581 409.7 169.521 410.34C168.461 410.96 167.221 411.27 165.801 411.27C164.341 411.27 163.011 410.91 161.811 410.19C160.631 409.47 159.701 408.46 159.021 407.16C158.341 405.86 158.001 404.38 158.001 402.72ZM171.921 402.75C171.921 401.51 171.671 400.43 171.171 399.51C170.671 398.59 169.991 397.89 169.131 397.41C168.291 396.91 167.361 396.66 166.341 396.66C165.321 396.66 164.391 396.9 163.551 397.38C162.711 397.86 162.041 398.56 161.541 399.48C161.041 400.4 160.791 401.48 160.791 402.72C160.791 403.98 161.041 405.08 161.541 406.02C162.041 406.94 162.711 407.65 163.551 408.15C164.391 408.63 165.321 408.87 166.341 408.87C167.361 408.87 168.291 408.63 169.131 408.15C169.991 407.65 170.671 406.94 171.171 406.02C171.671 405.08 171.921 403.99 171.921 402.75ZM194.294 402.15C194.294 402.67 194.264 403.22 194.204 403.8H181.064C181.164 405.42 181.714 406.69 182.714 407.61C183.734 408.51 184.964 408.96 186.404 408.96C187.584 408.96 188.564 408.69 189.344 408.15C190.144 407.59 190.704 406.85 191.024 405.93H193.964C193.524 407.51 192.644 408.8 191.324 409.8C190.004 410.78 188.364 411.27 186.404 411.27C184.844 411.27 183.444 410.92 182.204 410.22C180.984 409.52 180.024 408.53 179.324 407.25C178.624 405.95 178.274 404.45 178.274 402.75C178.274 401.05 178.614 399.56 179.294 398.28C179.974 397 180.924 396.02 182.144 395.34C183.384 394.64 184.804 394.29 186.404 394.29C187.964 394.29 189.344 394.63 190.544 395.31C191.744 395.99 192.664 396.93 193.304 398.13C193.964 399.31 194.294 400.65 194.294 402.15ZM191.474 401.58C191.474 400.54 191.244 399.65 190.784 398.91C190.324 398.15 189.694 397.58 188.894 397.2C188.114 396.8 187.244 396.6 186.284 396.6C184.904 396.6 183.724 397.04 182.744 397.92C181.784 398.8 181.234 400.02 181.094 401.58H191.474ZM217.668 394.26C218.948 394.26 220.088 394.53 221.088 395.07C222.088 395.59 222.878 396.38 223.458 397.44C224.038 398.5 224.328 399.79 224.328 401.31V411H221.628V401.7C221.628 400.06 221.218 398.81 220.398 397.95C219.598 397.07 218.508 396.63 217.128 396.63C215.708 396.63 214.578 397.09 213.738 398.01C212.898 398.91 212.478 400.22 212.478 401.94V411H209.778V401.7C209.778 400.06 209.368 398.81 208.548 397.95C207.748 397.07 206.658 396.63 205.278 396.63C203.858 396.63 202.728 397.09 201.888 398.01C201.048 398.91 200.628 400.22 200.628 401.94V411H197.898V394.56H200.628V396.93C201.168 396.07 201.888 395.41 202.788 394.95C203.708 394.49 204.718 394.26 205.818 394.26C207.198 394.26 208.418 394.57 209.478 395.19C210.538 395.81 211.328 396.72 211.848 397.92C212.308 396.76 213.068 395.86 214.128 395.22C215.188 394.58 216.368 394.26 217.668 394.26ZM230.216 391.89C229.696 391.89 229.256 391.71 228.896 391.35C228.536 390.99 228.356 390.55 228.356 390.03C228.356 389.51 228.536 389.07 228.896 388.71C229.256 388.35 229.696 388.17 230.216 388.17C230.716 388.17 231.136 388.35 231.476 388.71C231.836 389.07 232.016 389.51 232.016 390.03C232.016 390.55 231.836 390.99 231.476 391.35C231.136 391.71 230.716 391.89 230.216 391.89ZM231.536 394.56V411H228.806V394.56H231.536ZM235.169 402.75C235.169 401.05 235.509 399.57 236.189 398.31C236.869 397.03 237.809 396.04 239.009 395.34C240.229 394.64 241.619 394.29 243.179 394.29C245.199 394.29 246.859 394.78 248.159 395.76C249.479 396.74 250.349 398.1 250.769 399.84H247.829C247.549 398.84 246.999 398.05 246.179 397.47C245.379 396.89 244.379 396.6 243.179 396.6C241.619 396.6 240.359 397.14 239.399 398.22C238.439 399.28 237.959 400.79 237.959 402.75C237.959 404.73 238.439 406.26 239.399 407.34C240.359 408.42 241.619 408.96 243.179 408.96C244.379 408.96 245.379 408.68 246.179 408.12C246.979 407.56 247.529 406.76 247.829 405.72H250.769C250.329 407.4 249.449 408.75 248.129 409.77C246.809 410.77 245.159 411.27 243.179 411.27C241.619 411.27 240.229 410.92 239.009 410.22C237.809 409.52 236.869 408.53 236.189 407.25C235.509 405.97 235.169 404.47 235.169 402.75ZM265.14 390.09V411H262.41V390.09H265.14ZM277.802 394.26C279.802 394.26 281.422 394.87 282.662 396.09C283.902 397.29 284.522 399.03 284.522 401.31V411H281.822V401.7C281.822 400.06 281.412 398.81 280.592 397.95C279.772 397.07 278.652 396.63 277.232 396.63C275.792 396.63 274.642 397.08 273.782 397.98C272.942 398.88 272.522 400.19 272.522 401.91V411H269.792V394.56H272.522V396.9C273.062 396.06 273.792 395.41 274.712 394.95C275.652 394.49 276.682 394.26 277.802 394.26ZM292.312 396.81V406.5C292.312 407.3 292.482 407.87 292.822 408.21C293.162 408.53 293.752 408.69 294.592 408.69H296.602V411H294.142C292.622 411 291.482 410.65 290.722 409.95C289.962 409.25 289.582 408.1 289.582 406.5V396.81H287.452V394.56H289.582V390.42H292.312V394.56H296.602V396.81H292.312ZM314.91 402.15C314.91 402.67 314.88 403.22 314.82 403.8H301.68C301.78 405.42 302.33 406.69 303.33 407.61C304.35 408.51 305.58 408.96 307.02 408.96C308.2 408.96 309.18 408.69 309.96 408.15C310.76 407.59 311.32 406.85 311.64 405.93H314.58C314.14 407.51 313.26 408.8 311.94 409.8C310.62 410.78 308.98 411.27 307.02 411.27C305.46 411.27 304.06 410.92 302.82 410.22C301.6 409.52 300.64 408.53 299.94 407.25C299.24 405.95 298.89 404.45 298.89 402.75C298.89 401.05 299.23 399.56 299.91 398.28C300.59 397 301.54 396.02 302.76 395.34C304 394.64 305.42 394.29 307.02 394.29C308.58 394.29 309.96 394.63 311.16 395.31C312.36 395.99 313.28 396.93 313.92 398.13C314.58 399.31 314.91 400.65 314.91 402.15ZM312.09 401.58C312.09 400.54 311.86 399.65 311.4 398.91C310.94 398.15 310.31 397.58 309.51 397.2C308.73 396.8 307.86 396.6 306.9 396.6C305.52 396.6 304.34 397.04 303.36 397.92C302.4 398.8 301.85 400.02 301.71 401.58H312.09ZM321.243 397.23C321.723 396.29 322.403 395.56 323.283 395.04C324.183 394.52 325.273 394.26 326.553 394.26V397.08H325.833C322.773 397.08 321.243 398.74 321.243 402.06V411H318.513V394.56H321.243V397.23ZM344.705 402.15C344.705 402.67 344.675 403.22 344.615 403.8H331.475C331.575 405.42 332.125 406.69 333.125 407.61C334.145 408.51 335.375 408.96 336.815 408.96C337.995 408.96 338.975 408.69 339.755 408.15C340.555 407.59 341.115 406.85 341.435 405.93H344.375C343.935 407.51 343.055 408.8 341.735 409.8C340.415 410.78 338.775 411.27 336.815 411.27C335.255 411.27 333.855 410.92 332.615 410.22C331.395 409.52 330.435 408.53 329.735 407.25C329.035 405.95 328.685 404.45 328.685 402.75C328.685 401.05 329.025 399.56 329.705 398.28C330.385 397 331.335 396.02 332.555 395.34C333.795 394.64 335.215 394.29 336.815 394.29C338.375 394.29 339.755 394.63 340.955 395.31C342.155 395.99 343.075 396.93 343.715 398.13C344.375 399.31 344.705 400.65 344.705 402.15ZM341.885 401.58C341.885 400.54 341.655 399.65 341.195 398.91C340.735 398.15 340.105 397.58 339.305 397.2C338.525 396.8 337.655 396.6 336.695 396.6C335.315 396.6 334.135 397.04 333.155 397.92C332.195 398.8 331.645 400.02 331.505 401.58H341.885ZM354.128 411.27C352.868 411.27 351.738 411.06 350.738 410.64C349.738 410.2 348.948 409.6 348.368 408.84C347.788 408.06 347.468 407.17 347.408 406.17H350.228C350.308 406.99 350.688 407.66 351.368 408.18C352.068 408.7 352.978 408.96 354.098 408.96C355.138 408.96 355.958 408.73 356.558 408.27C357.158 407.81 357.458 407.23 357.458 406.53C357.458 405.81 357.138 405.28 356.498 404.94C355.858 404.58 354.868 404.23 353.528 403.89C352.308 403.57 351.308 403.25 350.528 402.93C349.768 402.59 349.108 402.1 348.548 401.46C348.008 400.8 347.738 399.94 347.738 398.88C347.738 398.04 347.988 397.27 348.488 396.57C348.988 395.87 349.698 395.32 350.618 394.92C351.538 394.5 352.588 394.29 353.768 394.29C355.588 394.29 357.058 394.75 358.178 395.67C359.298 396.59 359.898 397.85 359.978 399.45H357.248C357.188 398.59 356.838 397.9 356.198 397.38C355.578 396.86 354.738 396.6 353.678 396.6C352.698 396.6 351.918 396.81 351.338 397.23C350.758 397.65 350.468 398.2 350.468 398.88C350.468 399.42 350.638 399.87 350.978 400.23C351.338 400.57 351.778 400.85 352.298 401.07C352.838 401.27 353.578 401.5 354.518 401.76C355.698 402.08 356.658 402.4 357.398 402.72C358.138 403.02 358.768 403.48 359.288 404.1C359.828 404.72 360.108 405.53 360.128 406.53C360.128 407.43 359.878 408.24 359.378 408.96C358.878 409.68 358.168 410.25 357.248 410.67C356.348 411.07 355.308 411.27 354.128 411.27ZM367.312 396.81V406.5C367.312 407.3 367.482 407.87 367.822 408.21C368.162 408.53 368.752 408.69 369.592 408.69H371.602V411H369.142C367.622 411 366.482 410.65 365.722 409.95C364.962 409.25 364.582 408.1 364.582 406.5V396.81H362.452V394.56H364.582V390.42H367.312V394.56H371.602V396.81H367.312Z" fill="black"/>
<path d="M98.29 462.53C98.29 460.49 98.75 458.66 99.67 457.04C100.59 455.4 101.84 454.12 103.42 453.2C105.02 452.28 106.79 451.82 108.73 451.82C111.01 451.82 113 452.37 114.7 453.47C116.4 454.57 117.64 456.13 118.42 458.15H115.15C114.57 456.89 113.73 455.92 112.63 455.24C111.55 454.56 110.25 454.22 108.73 454.22C107.27 454.22 105.96 454.56 104.8 455.24C103.64 455.92 102.73 456.89 102.07 458.15C101.41 459.39 101.08 460.85 101.08 462.53C101.08 464.19 101.41 465.65 102.07 466.91C102.73 468.15 103.64 469.11 104.8 469.79C105.96 470.47 107.27 470.81 108.73 470.81C110.25 470.81 111.55 470.48 112.63 469.82C113.73 469.14 114.57 468.17 115.15 466.91H118.42C117.64 468.91 116.4 470.46 114.7 471.56C113 472.64 111.01 473.18 108.73 473.18C106.79 473.18 105.02 472.73 103.42 471.83C101.84 470.91 100.59 469.64 99.67 468.02C98.75 466.4 98.29 464.57 98.29 462.53ZM129.654 473.27C128.114 473.27 126.714 472.92 125.454 472.22C124.214 471.52 123.234 470.53 122.514 469.25C121.814 467.95 121.464 466.45 121.464 464.75C121.464 463.07 121.824 461.59 122.544 460.31C123.284 459.01 124.284 458.02 125.544 457.34C126.804 456.64 128.214 456.29 129.774 456.29C131.334 456.29 132.744 456.64 134.004 457.34C135.264 458.02 136.254 459 136.974 460.28C137.714 461.56 138.084 463.05 138.084 464.75C138.084 466.45 137.704 467.95 136.944 469.25C136.204 470.53 135.194 471.52 133.914 472.22C132.634 472.92 131.214 473.27 129.654 473.27ZM129.654 470.87C130.634 470.87 131.554 470.64 132.414 470.18C133.274 469.72 133.964 469.03 134.484 468.11C135.024 467.19 135.294 466.07 135.294 464.75C135.294 463.43 135.034 462.31 134.514 461.39C133.994 460.47 133.314 459.79 132.474 459.35C131.634 458.89 130.724 458.66 129.744 458.66C128.744 458.66 127.824 458.89 126.984 459.35C126.164 459.79 125.504 460.47 125.004 461.39C124.504 462.31 124.254 463.43 124.254 464.75C124.254 466.09 124.494 467.22 124.974 468.14C125.474 469.06 126.134 469.75 126.954 470.21C127.774 470.65 128.674 470.87 129.654 470.87ZM149.683 456.26C151.683 456.26 153.303 456.87 154.543 458.09C155.783 459.29 156.403 461.03 156.403 463.31V473H153.703V463.7C153.703 462.06 153.293 460.81 152.473 459.95C151.653 459.07 150.533 458.63 149.113 458.63C147.673 458.63 146.523 459.08 145.663 459.98C144.823 460.88 144.403 462.19 144.403 463.91V473H141.673V456.56H144.403V458.9C144.943 458.06 145.673 457.41 146.593 456.95C147.533 456.49 148.563 456.26 149.683 456.26ZM166.683 473.27C165.423 473.27 164.293 473.06 163.293 472.64C162.293 472.2 161.503 471.6 160.923 470.84C160.343 470.06 160.023 469.17 159.963 468.17H162.783C162.863 468.99 163.243 469.66 163.923 470.18C164.623 470.7 165.533 470.96 166.653 470.96C167.693 470.96 168.513 470.73 169.113 470.27C169.713 469.81 170.013 469.23 170.013 468.53C170.013 467.81 169.693 467.28 169.053 466.94C168.413 466.58 167.423 466.23 166.083 465.89C164.863 465.57 163.863 465.25 163.083 464.93C162.323 464.59 161.663 464.1 161.103 463.46C160.563 462.8 160.293 461.94 160.293 460.88C160.293 460.04 160.543 459.27 161.043 458.57C161.543 457.87 162.253 457.32 163.173 456.92C164.093 456.5 165.143 456.29 166.323 456.29C168.143 456.29 169.613 456.75 170.733 457.67C171.853 458.59 172.453 459.85 172.533 461.45H169.803C169.743 460.59 169.393 459.9 168.753 459.38C168.133 458.86 167.293 458.6 166.233 458.6C165.253 458.6 164.473 458.81 163.893 459.23C163.313 459.65 163.023 460.2 163.023 460.88C163.023 461.42 163.193 461.87 163.533 462.23C163.893 462.57 164.333 462.85 164.853 463.07C165.393 463.27 166.133 463.5 167.073 463.76C168.253 464.08 169.213 464.4 169.953 464.72C170.693 465.02 171.323 465.48 171.843 466.1C172.383 466.72 172.663 467.53 172.683 468.53C172.683 469.43 172.433 470.24 171.933 470.96C171.433 471.68 170.723 472.25 169.803 472.67C168.903 473.07 167.863 473.27 166.683 473.27ZM177.947 453.89C177.427 453.89 176.987 453.71 176.627 453.35C176.267 452.99 176.087 452.55 176.087 452.03C176.087 451.51 176.267 451.07 176.627 450.71C176.987 450.35 177.427 450.17 177.947 450.17C178.447 450.17 178.867 450.35 179.207 450.71C179.567 451.07 179.747 451.51 179.747 452.03C179.747 452.55 179.567 452.99 179.207 453.35C178.867 453.71 178.447 453.89 177.947 453.89ZM179.267 456.56V473H176.537V456.56H179.267ZM189.739 473.27C188.479 473.27 187.349 473.06 186.349 472.64C185.349 472.2 184.559 471.6 183.979 470.84C183.399 470.06 183.079 469.17 183.019 468.17H185.839C185.919 468.99 186.299 469.66 186.979 470.18C187.679 470.7 188.589 470.96 189.709 470.96C190.749 470.96 191.569 470.73 192.169 470.27C192.769 469.81 193.069 469.23 193.069 468.53C193.069 467.81 192.749 467.28 192.109 466.94C191.469 466.58 190.479 466.23 189.139 465.89C187.919 465.57 186.919 465.25 186.139 464.93C185.379 464.59 184.719 464.1 184.159 463.46C183.619 462.8 183.349 461.94 183.349 460.88C183.349 460.04 183.599 459.27 184.099 458.57C184.599 457.87 185.309 457.32 186.229 456.92C187.149 456.5 188.199 456.29 189.379 456.29C191.199 456.29 192.669 456.75 193.789 457.67C194.909 458.59 195.509 459.85 195.589 461.45H192.859C192.799 460.59 192.449 459.9 191.809 459.38C191.189 458.86 190.349 458.6 189.289 458.6C188.309 458.6 187.529 458.81 186.949 459.23C186.369 459.65 186.079 460.2 186.079 460.88C186.079 461.42 186.249 461.87 186.589 462.23C186.949 462.57 187.389 462.85 187.909 463.07C188.449 463.27 189.189 463.5 190.129 463.76C191.309 464.08 192.269 464.4 193.009 464.72C193.749 465.02 194.379 465.48 194.899 466.1C195.439 466.72 195.719 467.53 195.739 468.53C195.739 469.43 195.489 470.24 194.989 470.96C194.489 471.68 193.779 472.25 192.859 472.67C191.959 473.07 190.919 473.27 189.739 473.27ZM202.923 458.81V468.5C202.923 469.3 203.093 469.87 203.433 470.21C203.773 470.53 204.363 470.69 205.203 470.69H207.213V473H204.753C203.233 473 202.093 472.65 201.333 471.95C200.573 471.25 200.193 470.1 200.193 468.5V458.81H198.063V456.56H200.193V452.42H202.923V456.56H207.213V458.81H202.923ZM225.521 464.15C225.521 464.67 225.491 465.22 225.431 465.8H212.291C212.391 467.42 212.941 468.69 213.941 469.61C214.961 470.51 216.191 470.96 217.631 470.96C218.811 470.96 219.791 470.69 220.571 470.15C221.371 469.59 221.931 468.85 222.251 467.93H225.191C224.751 469.51 223.871 470.8 222.551 471.8C221.231 472.78 219.591 473.27 217.631 473.27C216.071 473.27 214.671 472.92 213.431 472.22C212.211 471.52 211.251 470.53 210.551 469.25C209.851 467.95 209.501 466.45 209.501 464.75C209.501 463.05 209.841 461.56 210.521 460.28C211.201 459 212.151 458.02 213.371 457.34C214.611 456.64 216.031 456.29 217.631 456.29C219.191 456.29 220.571 456.63 221.771 457.31C222.971 457.99 223.891 458.93 224.531 460.13C225.191 461.31 225.521 462.65 225.521 464.15ZM222.701 463.58C222.701 462.54 222.471 461.65 222.011 460.91C221.551 460.15 220.921 459.58 220.121 459.2C219.341 458.8 218.471 458.6 217.511 458.6C216.131 458.6 214.951 459.04 213.971 459.92C213.011 460.8 212.461 462.02 212.321 463.58H222.701ZM237.134 456.26C239.134 456.26 240.754 456.87 241.994 458.09C243.234 459.29 243.854 461.03 243.854 463.31V473H241.154V463.7C241.154 462.06 240.744 460.81 239.924 459.95C239.104 459.07 237.984 458.63 236.564 458.63C235.124 458.63 233.974 459.08 233.114 459.98C232.274 460.88 231.854 462.19 231.854 463.91V473H229.124V456.56H231.854V458.9C232.394 458.06 233.124 457.41 234.044 456.95C234.984 456.49 236.014 456.26 237.134 456.26ZM247.294 464.75C247.294 463.05 247.634 461.57 248.314 460.31C248.994 459.03 249.934 458.04 251.134 457.34C252.354 456.64 253.744 456.29 255.304 456.29C257.324 456.29 258.984 456.78 260.284 457.76C261.604 458.74 262.474 460.1 262.894 461.84H259.954C259.674 460.84 259.124 460.05 258.304 459.47C257.504 458.89 256.504 458.6 255.304 458.6C253.744 458.6 252.484 459.14 251.524 460.22C250.564 461.28 250.084 462.79 250.084 464.75C250.084 466.73 250.564 468.26 251.524 469.34C252.484 470.42 253.744 470.96 255.304 470.96C256.504 470.96 257.504 470.68 258.304 470.12C259.104 469.56 259.654 468.76 259.954 467.72H262.894C262.454 469.4 261.574 470.75 260.254 471.77C258.934 472.77 257.284 473.27 255.304 473.27C253.744 473.27 252.354 472.92 251.134 472.22C249.934 471.52 248.994 470.53 248.314 469.25C247.634 467.97 247.294 466.47 247.294 464.75ZM280.697 456.56L270.797 480.74H267.977L271.217 472.82L264.587 456.56H267.617L272.777 469.88L277.877 456.56H280.697Z" fill="black"/>
<rect width="35" height="35" transform="translate(38 37)" fill="#007CB6"/>
<rect width="35" height="35" transform="translate(38 107)" fill="#6AC259"/>
<rect width="35" height="35" transform="translate(38 178)" fill="#242357"/>
<rect width="35" height="35" transform="translate(38 251)" fill="#28BBE2"/>
<rect width="35" height="35" transform="translate(38 314)" fill="#E85D1C"/>
<rect width="35" height="35" transform="translate(38 383)" fill="#BA422B"/>
<rect width="35" height="35" transform="translate(38 445)" fill="#E42CAB"/>
</g>
</g>
<defs>
<filter id="filter0_d_1268_8226" x="0" y="0" width="411" height="519" filterUnits="userSpaceOnUse" color-interpolation-filters="sRGB">
<feFlood flood-opacity="0" result="BackgroundImageFix"/>
<feColorMatrix in="SourceAlpha" type="matrix" values="0 0 0 0 0 0 0 0 0 0 0 0 0 0 0 0 0 0 127 0" result="hardAlpha"/>
<feOffset dy="4"/>
<feGaussianBlur stdDeviation="2"/>
<feComposite in2="hardAlpha" operator="out"/>
<feColorMatrix type="matrix" values="0 0 0 0 0 0 0 0 0 0 0 0 0 0 0 0 0 0 0.25 0"/>
<feBlend mode="normal" in2="BackgroundImageFix" result="effect1_dropShadow_1268_8226"/>
<feBlend mode="normal" in="SourceGraphic" in2="effect1_dropShadow_1268_8226" result="shape"/>
</filter>
<clipPath id="clip0_1268_8226">
<rect x="4" width="403" height="511" rx="30" fill="white"/>
</clipPath>
</defs>
</svg>
