<svg width="1199" height="960" viewBox="0 0 1199 960" fill="none" xmlns="http://www.w3.org/2000/svg">
<circle opacity="0.1" cx="480.5" cy="480.5" r="358.5" fill="#9B9B9B"/>
<circle opacity="0.1" cx="480.5" cy="480.5" r="285.5" fill="#646464" fill-opacity="0.3"/>
<path fill-rule="evenodd" clip-rule="evenodd" d="M607.532 108.893H352.379C322.284 108.893 297.888 133.289 297.888 163.383V208.359C296.455 208.359 295.293 209.521 295.293 210.954V233.442C295.293 234.875 296.455 236.037 297.888 236.037V261.985C296.455 261.985 295.293 263.147 295.293 264.58V313.016C295.293 314.449 296.455 315.61 297.888 315.61V329.449C296.455 329.449 295.293 330.611 295.293 332.044V380.48C295.293 381.913 296.455 383.075 297.888 383.075V796.51C297.888 826.604 322.284 851 352.379 851H607.532C637.626 851 662.022 826.604 662.022 796.51V365.776C663.455 365.776 664.617 364.614 664.617 363.181V281.878C664.617 280.445 663.455 279.283 662.022 279.283V163.383C662.022 133.289 637.626 108.893 607.532 108.893ZM302.213 163.383C302.213 135.677 324.673 113.217 352.379 113.217H607.532C635.238 113.217 657.698 135.677 657.698 163.383V796.51C657.698 824.215 635.238 846.675 607.532 846.675H352.379C324.673 846.675 302.213 824.215 302.213 796.51V163.383Z" fill="#FDDE56"/>
<mask id="mask0_1202_8108" style="mask-type:alpha" maskUnits="userSpaceOnUse" x="317" y="128" width="326" height="704">
<path d="M607.532 831.106H352.379C333.264 831.106 317.782 815.624 317.782 796.509V163.383C317.782 144.268 333.264 128.786 352.379 128.786H607.532C626.647 128.786 642.129 144.268 642.129 163.383V796.509C642.129 815.624 626.647 831.106 607.532 831.106Z" fill="white"/>
</mask>
<g mask="url(#mask0_1202_8108)">
<rect x="317.782" y="128.786" width="324.348" height="702.321" fill="black"/>
<g opacity="0.21">
<path d="M535.743 383.882V383.215H424.021L367.969 480.302L424.021 577.388H536.128L592.181 480.302L536.127 383.215H535.743V383.882L535.165 384.215L590.641 480.302L535.357 576.055H424.792L369.508 480.302L424.792 384.548H535.743V383.882L535.165 384.215L535.743 383.882Z" fill="white"/>
<path d="M529.602 394.515V391.848H429.007L377.938 480.302L429.007 568.755H531.143L582.21 480.302L531.143 391.848H529.602V394.515L527.293 395.848L576.052 480.302L528.064 563.422H432.085L384.096 480.302L432.085 397.182H529.602V394.515L527.293 395.848L529.602 394.515Z" fill="white"/>
<path d="M432.5 397L384.5 480.5L432.5 562.5H529.5L576 480.5L527.5 397H432.5Z" stroke="black"/>
<path d="M374.183 533.736L351.936 569.547L365.315 593.817L366.483 593.173L353.481 569.587L375.316 534.439L374.183 533.736Z" fill="white"/>
<path d="M376.615 515.411L339.897 574.515L352.127 596.489L353.291 595.841L341.444 574.552L377.748 516.113L376.615 515.411Z" fill="white"/>
<path d="M377.925 534.088C377.925 535.841 376.503 537.263 374.749 537.263C372.995 537.263 371.573 535.841 371.573 534.088C371.573 532.333 372.995 530.912 374.749 530.912C376.503 530.912 377.925 532.333 377.925 534.088Z" fill="white"/>
<path d="M380.357 515.761C380.357 517.516 378.935 518.938 377.181 518.938C375.428 518.938 374.005 517.516 374.005 515.761C374.005 514.008 375.428 512.587 377.181 512.587C378.935 512.587 380.357 514.008 380.357 515.761Z" fill="white"/>
<path d="M397.11 562.959C397.11 564.712 395.689 566.135 393.934 566.135C392.181 566.135 390.76 564.712 390.76 562.959C390.76 561.204 392.181 559.781 393.934 559.781C395.689 559.781 397.11 561.204 397.11 562.959Z" fill="white"/>
<path d="M333.536 673.074C333.536 674.828 332.113 676.25 330.36 676.25C328.605 676.25 327.184 674.828 327.184 673.074C327.184 671.32 328.605 669.899 330.36 669.899C332.113 669.899 333.536 671.32 333.536 673.074Z" fill="white"/>
<path d="M317.828 717.487C317.828 719.241 316.407 720.663 314.652 720.663C312.899 720.663 311.476 719.241 311.476 717.487C311.476 715.734 312.899 714.312 314.652 714.312C316.407 714.312 317.828 715.734 317.828 717.487Z" fill="white"/>
<path d="M315.229 717.82L410.36 553.049L409.205 552.383L314.075 717.153" fill="white"/>
<path d="M330.937 673.408L394.512 563.292L393.357 562.625L329.783 672.741" fill="white"/>
<path d="M271.345 758.599L366.476 593.828L365.321 593.162L270.19 757.932" fill="white"/>
<path d="M258.155 761.269L353.287 596.499L352.132 595.832L257 760.602" fill="white"/>
<path d="M486.645 598.372L466.789 634.673L439.858 634.959L439.873 636.292L467.584 635.999L487.816 599.012L486.645 598.372Z" fill="white"/>
<path d="M501.404 587.237L468.389 647.595L444.025 647.756L444.035 649.089L469.183 648.924L502.573 587.877L501.404 587.237Z" fill="white"/>
<path d="M485.668 595.925C484.142 596.789 483.603 598.727 484.467 600.255C485.33 601.781 487.267 602.319 488.794 601.456C490.322 600.592 490.86 598.655 489.996 597.129C489.134 595.601 487.196 595.063 485.668 595.925Z" fill="white"/>
<path d="M500.427 584.793C498.899 585.655 498.361 587.593 499.224 589.12C500.087 590.648 502.024 591.187 503.551 590.323C505.079 589.46 505.617 587.523 504.755 585.995C503.891 584.468 501.953 583.929 500.427 584.793Z" fill="white"/>
<path d="M451.095 593.427C449.567 594.291 449.029 596.228 449.891 597.756C450.755 599.283 452.692 599.82 454.219 598.958C455.747 598.094 456.284 596.156 455.423 594.631C454.559 593.103 452.621 592.564 451.095 593.427Z" fill="white"/>
<path d="M386.507 702.953C384.98 703.816 384.441 705.755 385.305 707.28C386.167 708.808 388.104 709.347 389.632 708.483C391.159 707.62 391.697 705.683 390.835 704.155C389.972 702.628 388.035 702.091 386.507 702.953Z" fill="white"/>
<path d="M357.707 741.584L454.351 577.696L453.203 577.019L356.558 740.907" fill="white"/>
<path d="M388.644 706.056L453.231 596.532L452.083 595.855L387.495 705.379" fill="white"/>
<path d="M343.796 799.852L440.44 635.964L439.292 635.287L342.648 799.174" fill="white"/>
<path d="M347.96 812.649L444.604 648.761L443.456 648.084L346.812 811.972" fill="white"/>
<path d="M586.029 426.914L608.276 391.103L594.897 366.832L593.729 367.476L606.732 391.063L584.896 426.211L586.029 426.914Z" fill="white"/>
<path d="M583.597 445.24L620.315 386.135L608.087 364.16L606.921 364.81L618.769 386.099L582.465 444.536L583.597 445.24Z" fill="white"/>
<path d="M582.287 426.563C582.287 424.808 583.709 423.387 585.463 423.387C587.217 423.387 588.64 424.808 588.64 426.563C588.64 428.316 587.217 429.739 585.463 429.739C583.709 429.739 582.287 428.316 582.287 426.563Z" fill="white"/>
<path d="M579.856 444.888C579.856 443.133 581.277 441.712 583.032 441.712C584.785 441.712 586.208 443.133 586.208 444.888C586.208 446.643 584.785 448.064 583.032 448.064C581.277 448.064 579.856 446.643 579.856 444.888Z" fill="white"/>
<path d="M563.1 397.691C563.1 395.937 564.523 394.515 566.276 394.515C568.032 394.515 569.453 395.937 569.453 397.691C569.453 399.445 568.032 400.868 566.276 400.868C564.523 400.868 563.1 399.445 563.1 397.691Z" fill="white"/>
<path d="M626.676 287.575C626.676 285.821 628.098 284.399 629.852 284.399C631.606 284.399 633.029 285.821 633.029 287.575C633.029 289.329 631.606 290.752 629.852 290.752C628.098 290.752 626.676 289.329 626.676 287.575Z" fill="white"/>
<path d="M644.983 242.828L549.854 407.6L551.008 408.267L646.138 243.495" fill="white"/>
<path d="M629.275 287.241L565.699 397.357L566.853 398.024L630.429 287.908" fill="white"/>
<path d="M688.867 202.05L593.736 366.821L594.891 367.488L690.021 202.717" fill="white"/>
<path d="M702.057 199.38L606.927 364.151L608.081 364.817L703.212 200.047" fill="white"/>
<path d="M473.565 362.277L493.423 325.975L520.353 325.691L520.34 324.357L492.628 324.651L472.396 361.637L473.565 362.277Z" fill="white"/>
<path d="M458.809 373.411L491.823 313.055L516.185 312.893L516.177 311.56L491.029 311.727L457.64 372.772L458.809 373.411Z" fill="white"/>
<path d="M474.544 364.723C476.071 363.86 476.61 361.923 475.747 360.396C474.883 358.869 472.946 358.331 471.419 359.193C469.891 360.056 469.354 361.993 470.216 363.521C471.08 365.048 473.018 365.587 474.544 364.723Z" fill="white"/>
<path d="M459.787 375.856C461.313 374.993 461.852 373.056 460.988 371.529C460.125 370.001 458.188 369.463 456.66 370.327C455.135 371.189 454.596 373.127 455.459 374.653C456.321 376.181 458.26 376.72 459.787 375.856Z" fill="white"/>
<path d="M388.623 426.15C390.151 425.288 390.688 423.349 389.824 421.822C388.963 420.296 387.025 419.757 385.497 420.62C383.971 421.482 383.432 423.421 384.295 424.948C385.157 426.476 387.096 427.013 388.623 426.15Z" fill="white"/>
<path d="M509.119 367.223C510.647 366.359 511.184 364.421 510.321 362.895C509.457 361.368 507.52 360.829 505.993 361.692C504.467 362.555 503.928 364.492 504.791 366.02C505.655 367.547 507.592 368.085 509.119 367.223Z" fill="white"/>
<path d="M573.706 257.696C575.232 256.833 575.77 254.896 574.908 253.369C574.044 251.841 572.106 251.303 570.58 252.167C569.053 253.029 568.514 254.967 569.377 256.493C570.241 258.021 572.178 258.559 573.706 257.696Z" fill="white"/>
<path d="M604.644 222.171C606.171 221.307 606.709 219.369 605.845 217.843C604.984 216.315 603.044 215.777 601.519 216.64C599.991 217.503 599.452 219.44 600.316 220.968C601.179 222.495 603.116 223.033 604.644 222.171Z" fill="white"/>
<path d="M602.507 219.067L505.863 382.954L507.011 383.631L603.655 219.744" fill="white"/>
<path d="M571.569 254.592L506.982 364.119L508.13 364.796L572.717 255.269" fill="white"/>
<path d="M616.417 160.799L519.772 324.685L520.921 325.363L617.565 161.476" fill="white"/>
<path d="M612.252 148L515.606 311.888L516.756 312.565L613.4 148.677" fill="white"/>
</g>
<g opacity="0.2">
<path d="M398.212 389.504L355.301 463.826L356.456 464.492L399.367 390.171" fill="white"/>
<path d="M567.733 537.288C569.26 536.424 569.799 534.487 568.935 532.96C568.073 531.432 566.136 530.895 564.608 531.757C563.081 532.621 562.543 534.559 563.405 536.084C564.268 537.612 566.205 538.151 567.733 537.288Z" fill="white"/>
<path d="M585.172 500.205L542.261 574.527L543.416 575.193L586.327 500.872" fill="white"/>
<path d="M591.989 541.923L659.005 417.859L636.983 361.328L730.685 199.831L726.072 197.154L631.081 360.872L653.14 417.495L587.297 539.388L591.989 541.923Z" fill="white"/>
<path d="M592.551 548.308H589.884C589.883 549.406 589.447 550.374 588.729 551.095C588.008 551.812 587.04 552.247 585.943 552.25C584.847 552.248 583.879 551.812 583.156 551.095C582.44 550.374 582.004 549.406 582.003 548.308C582.004 547.212 582.44 546.244 583.157 545.523C583.879 544.806 584.847 544.37 585.943 544.368C587.04 544.37 588.008 544.806 588.729 545.523C589.447 546.244 589.883 547.212 589.884 548.308H592.551H595.217C595.216 543.186 591.065 539.038 585.943 539.035C580.82 539.038 576.671 543.187 576.669 548.308C576.671 553.432 580.821 557.58 585.943 557.582C591.065 557.582 595.216 553.432 595.217 548.308H592.551Z" fill="white"/>
<path d="M354.248 419.6L287.231 543.663L309.253 600.193L215.551 761.691L220.164 764.367L315.155 600.649L293.096 544.027L358.94 422.135L354.248 419.6Z" fill="white"/>
<path d="M353.687 413.212H356.353C356.355 412.116 356.789 411.148 357.507 410.427C358.228 409.709 359.197 409.274 360.293 409.272C361.389 409.274 362.357 409.709 363.079 410.427C363.796 411.148 364.232 412.116 364.233 413.212C364.232 414.31 363.796 415.277 363.079 415.999C362.357 416.716 361.389 417.152 360.293 417.153C359.197 417.152 358.228 416.716 357.507 415.999C356.789 415.277 356.355 414.31 356.353 413.212H353.687H351.02C351.021 418.335 355.171 422.484 360.293 422.487C365.416 422.484 369.564 418.335 369.567 413.212C369.564 408.09 365.416 403.942 360.293 403.939C355.171 403.942 351.021 408.09 351.02 413.212H353.687Z" fill="white"/>
<path d="M389.261 375.081C383.417 375.081 378.677 370.341 378.677 364.496C378.677 358.651 383.417 353.911 389.261 353.911C395.108 353.911 399.848 358.651 399.848 364.496C399.848 370.341 395.108 375.081 389.261 375.081ZM401.777 364.496C401.777 364.355 401.771 364.215 401.767 364.075L403.212 363.923L403.027 362.156L401.583 362.308C401.533 362.029 401.476 361.755 401.411 361.483L402.788 361.035L402.24 359.345L400.861 359.793C400.753 359.532 400.641 359.275 400.519 359.023L401.773 358.299L400.884 356.76L399.631 357.485C399.472 357.252 399.304 357.027 399.132 356.805L400.211 355.833L399.023 354.513L397.943 355.485C397.74 355.291 397.532 355.101 397.316 354.92L398.171 353.747L396.733 352.701L395.88 353.876C395.641 353.727 395.4 353.585 395.151 353.452L395.741 352.129L394.119 351.407L393.528 352.728C393.265 352.633 392.997 352.549 392.727 352.471L393.028 351.052L391.291 350.683L390.988 352.103C390.712 352.064 390.432 352.036 390.151 352.016V350.563H388.373V352.016C388.092 352.036 387.812 352.064 387.536 352.103L387.235 350.683L385.496 351.052L385.799 352.471C385.528 352.549 385.257 352.633 384.995 352.728L384.407 351.407L382.784 352.129L383.373 353.452C383.125 353.585 382.881 353.727 382.644 353.876L381.792 352.701L380.355 353.747L381.207 354.92C380.992 355.101 380.784 355.291 380.583 355.485L379.503 354.513L378.313 355.833L379.393 356.805C379.22 357.027 379.052 357.252 378.895 357.485L377.639 356.76L376.751 358.299L378.005 359.023C377.883 359.275 377.771 359.532 377.664 359.793L376.285 359.345L375.737 361.035L377.115 361.483C377.048 361.755 376.991 362.029 376.941 362.308L375.499 362.156L375.312 363.923L376.757 364.075C376.753 364.215 376.748 364.355 376.748 364.496C376.748 364.637 376.753 364.777 376.757 364.917L375.312 365.069L375.499 366.836L376.941 366.684C376.991 366.963 377.048 367.237 377.115 367.509L375.737 367.957L376.285 369.647L377.664 369.199C377.771 369.46 377.883 369.717 378.007 369.969L376.751 370.693L377.639 372.232L378.895 371.507C379.052 371.74 379.22 371.965 379.393 372.187L378.313 373.159L379.503 374.479L380.583 373.507C380.784 373.701 380.992 373.891 381.207 374.072L380.355 375.247L381.792 376.291L382.644 375.116C382.881 375.265 383.125 375.407 383.373 375.539L382.784 376.863L384.407 377.585L384.995 376.264C385.259 376.36 385.528 376.444 385.799 376.521L385.496 377.94L387.235 378.309L387.536 376.889C387.812 376.928 388.092 376.956 388.373 376.976V378.429H390.151V376.976C390.432 376.956 390.712 376.928 390.988 376.889L391.291 378.309L393.028 377.94L392.727 376.521C392.997 376.444 393.265 376.36 393.528 376.264L394.119 377.585L395.741 376.863L395.151 375.54C395.4 375.407 395.641 375.265 395.88 375.116L396.733 376.291L398.171 375.247L397.316 374.072C397.532 373.891 397.74 373.701 397.943 373.507L399.023 374.479L400.211 373.159L399.132 372.187C399.304 371.965 399.472 371.74 399.631 371.507L400.884 372.232L401.773 370.693L400.519 369.969C400.641 369.717 400.753 369.46 400.861 369.199L402.24 369.647L402.788 367.957L401.411 367.509C401.476 367.237 401.533 366.963 401.583 366.684L403.027 366.836L403.212 365.069L401.767 364.917C401.771 364.777 401.777 364.637 401.777 364.496Z" fill="white"/>
<path d="M512.795 608.449C509.402 608.449 506.65 605.697 506.65 602.304C506.65 598.911 509.402 596.159 512.795 596.159C516.19 596.159 518.94 598.911 518.94 602.304C518.94 605.697 516.19 608.449 512.795 608.449ZM520.06 602.304L520.054 602.06L520.894 601.972L520.786 600.945L519.947 601.033C519.918 600.872 519.886 600.712 519.847 600.555L520.647 600.295L520.328 599.313L519.528 599.575C519.467 599.421 519.402 599.272 519.33 599.127L520.058 598.705L519.542 597.812L518.814 598.233C518.722 598.099 518.624 597.968 518.524 597.839L519.151 597.275L518.462 596.508L517.834 597.073C517.716 596.96 517.595 596.851 517.472 596.745L517.967 596.063L517.132 595.457L516.638 596.139C516.499 596.052 516.359 595.971 516.214 595.893L516.556 595.124L515.614 594.704L515.272 595.472C515.119 595.417 514.964 595.368 514.806 595.323L514.98 594.499L513.972 594.285L513.798 595.109C513.638 595.087 513.474 595.071 513.31 595.059V594.215H512.279V595.059C512.116 595.071 511.954 595.087 511.794 595.109L511.618 594.285L510.608 594.499L510.784 595.323C510.627 595.368 510.471 595.417 510.318 595.472L509.975 594.704L509.034 595.124L509.376 595.893C509.232 595.971 509.091 596.052 508.954 596.139L508.458 595.457L507.624 596.063L508.119 596.745C507.994 596.851 507.872 596.96 507.755 597.073L507.13 596.508L506.439 597.275L507.066 597.839C506.966 597.968 506.867 598.099 506.776 598.233L506.047 597.812L505.531 598.705L506.26 599.127C506.19 599.272 506.124 599.421 506.062 599.575L505.262 599.313L504.943 600.295L505.743 600.555C505.704 600.712 505.671 600.872 505.642 601.033L504.806 600.945L504.696 601.972L505.535 602.06L505.53 602.304L505.535 602.548L504.696 602.637L504.806 603.663L505.642 603.575C505.671 603.736 505.704 603.896 505.743 604.053L504.943 604.312L505.262 605.295L506.062 605.033C506.124 605.185 506.19 605.335 506.26 605.481L505.531 605.901L506.047 606.795L506.776 606.373C506.867 606.509 506.966 606.64 507.066 606.768L506.439 607.333L507.13 608.099L507.755 607.535C507.872 607.648 507.994 607.757 508.119 607.863L507.624 608.544L508.458 609.151L508.954 608.469C509.091 608.556 509.232 608.639 509.376 608.715L509.034 609.483L509.975 609.903L510.318 609.136C510.471 609.192 510.627 609.24 510.784 609.285L510.608 610.108L511.618 610.323L511.794 609.499C511.954 609.521 512.116 609.537 512.279 609.549V610.392H513.31V609.549C513.474 609.537 513.638 609.521 513.798 609.499L513.972 610.323L514.98 610.108L514.806 609.285C514.964 609.24 515.119 609.192 515.272 609.136L515.614 609.903L516.556 609.483L516.214 608.715C516.359 608.639 516.499 608.556 516.638 608.469L517.132 609.151L517.967 608.544L517.472 607.863C517.595 607.757 517.716 607.648 517.834 607.535L518.462 608.099L519.151 607.333L518.524 606.768C518.624 606.64 518.722 606.509 518.814 606.373L519.542 606.795L520.058 605.901L519.33 605.481C519.402 605.335 519.467 605.185 519.528 605.033L520.328 605.295L520.647 604.312L519.847 604.053C519.886 603.896 519.918 603.736 519.947 603.575L520.786 603.663L520.894 602.637L520.054 602.548L520.06 602.304Z" fill="white"/>
<path d="M496.104 291.639C493.067 291.639 490.603 289.176 490.603 286.138C490.603 283.098 493.067 280.635 496.104 280.635C499.143 280.635 501.607 283.098 501.607 286.138C501.607 289.176 499.143 291.639 496.104 291.639ZM504.861 287.643L504.216 287.408C503.857 287.278 503.636 286.926 503.656 286.544C503.664 286.41 503.668 286.274 503.668 286.138C503.668 286.007 503.664 285.878 503.657 285.748L504.959 285.399C505.416 285.278 505.685 284.808 505.563 284.354L505.188 282.952C505.067 282.498 504.597 282.226 504.14 282.348L503.476 282.527C503.109 282.624 502.727 282.466 502.527 282.143L502.439 282.007C502.231 281.688 502.248 281.274 502.492 280.982L502.935 280.454C503.239 280.092 503.192 279.554 502.829 279.251L501.719 278.319C501.357 278.015 500.817 278.062 500.515 278.424L500.073 278.95C499.831 279.239 499.428 279.332 499.083 279.184C498.825 279.074 498.563 278.978 498.292 278.896C497.931 278.787 497.684 278.458 497.684 278.082V277.394C497.684 276.922 497.301 276.539 496.829 276.539H495.38C494.908 276.539 494.525 276.922 494.525 277.394V278.079C494.525 278.46 494.271 278.788 493.907 278.899L493.751 278.947C493.389 279.066 492.995 278.942 492.776 278.63L492.383 278.068C492.112 277.683 491.58 277.588 491.193 277.859L490.005 278.691C489.619 278.962 489.525 279.495 489.796 279.88L490.191 280.444C490.409 280.756 490.389 281.171 490.155 281.471L490.056 281.598C489.828 281.902 489.432 282.028 489.076 281.898L488.428 281.663C487.985 281.5 487.495 281.73 487.333 282.174L486.837 283.535C486.676 283.979 486.905 284.47 487.349 284.631L487.993 284.866C488.353 284.996 488.575 285.348 488.552 285.73C488.545 285.864 488.541 286 488.541 286.138C488.541 286.267 488.544 286.396 488.551 286.526L487.251 286.875C486.795 286.996 486.524 287.466 486.645 287.92L487.021 289.322C487.143 289.778 487.612 290.048 488.068 289.926L488.732 289.748C489.099 289.65 489.481 289.808 489.684 290.131L489.769 290.267C489.977 290.586 489.961 291 489.716 291.292L489.275 291.819C488.972 292.182 489.019 292.72 489.38 293.024L490.491 293.955C490.852 294.259 491.391 294.212 491.695 293.85L492.137 293.323C492.379 293.035 492.78 292.942 493.127 293.09C493.383 293.2 493.647 293.296 493.917 293.378C494.277 293.487 494.525 293.816 494.525 294.194V294.88C494.525 295.352 494.908 295.735 495.38 295.735H496.829C497.301 295.735 497.684 295.352 497.684 294.88V294.195C497.684 293.814 497.937 293.486 498.303 293.375L498.457 293.327C498.819 293.208 499.215 293.332 499.432 293.644L499.825 294.204C500.096 294.591 500.629 294.686 501.016 294.415L502.203 293.584C502.589 293.312 502.684 292.779 502.413 292.392L502.019 291.83C501.801 291.518 501.819 291.103 502.055 290.804L502.152 290.675C502.381 290.372 502.776 290.247 503.135 290.376L503.78 290.611C504.224 290.774 504.715 290.544 504.876 290.1L505.371 288.739C505.532 288.295 505.305 287.804 504.861 287.643Z" fill="white"/>
<path d="M389.261 627.019C386.224 627.019 383.76 624.555 383.76 621.516C383.76 618.477 386.224 616.015 389.261 616.015C392.301 616.015 394.764 618.477 394.764 621.516C394.764 624.555 392.301 627.019 389.261 627.019ZM398.019 623.023L397.373 622.788C397.015 622.656 396.793 622.305 396.813 621.923C396.821 621.789 396.825 621.652 396.825 621.516C396.825 621.385 396.821 621.256 396.815 621.128L398.116 620.779C398.573 620.656 398.843 620.188 398.721 619.732L398.345 618.332C398.224 617.876 397.755 617.605 397.3 617.728L396.635 617.905C396.267 618.004 395.884 617.845 395.684 617.523L395.596 617.385C395.388 617.067 395.405 616.652 395.649 616.361L396.092 615.833C396.396 615.472 396.349 614.932 395.987 614.629L394.876 613.697C394.515 613.395 393.975 613.441 393.672 613.804L393.231 614.329C392.988 614.619 392.585 614.711 392.24 614.563C391.983 614.453 391.72 614.357 391.449 614.275C391.088 614.167 390.841 613.836 390.841 613.46V612.772C390.841 612.301 390.459 611.917 389.987 611.917H388.537C388.065 611.917 387.683 612.301 387.683 612.772V613.459C387.683 613.839 387.428 614.168 387.064 614.277L386.909 614.327C386.548 614.444 386.152 614.32 385.933 614.009L385.54 613.448C385.271 613.061 384.737 612.968 384.351 613.239L383.163 614.069C382.776 614.34 382.683 614.873 382.953 615.26L383.348 615.823C383.567 616.136 383.547 616.549 383.312 616.849L383.213 616.976C382.985 617.281 382.589 617.407 382.233 617.277L381.585 617.041C381.143 616.88 380.652 617.108 380.491 617.552L379.995 618.915C379.833 619.359 380.063 619.849 380.507 620.011L381.151 620.245C381.511 620.375 381.732 620.728 381.711 621.108C381.703 621.244 381.699 621.379 381.699 621.516C381.699 621.645 381.701 621.776 381.708 621.905L380.408 622.253C379.952 622.375 379.681 622.844 379.804 623.3L380.179 624.7C380.301 625.156 380.769 625.427 381.225 625.305L381.889 625.127C382.257 625.028 382.639 625.188 382.841 625.511L382.927 625.645C383.136 625.965 383.12 626.38 382.875 626.672L382.432 627.197C382.129 627.56 382.176 628.099 382.537 628.403L383.648 629.335C384.009 629.639 384.548 629.591 384.852 629.229L385.295 628.703C385.536 628.415 385.937 628.32 386.285 628.469C386.54 628.58 386.805 628.676 387.075 628.756C387.435 628.865 387.683 629.195 387.683 629.572V630.259C387.683 630.732 388.065 631.115 388.537 631.115H389.987C390.459 631.115 390.841 630.732 390.841 630.259V629.575C390.841 629.193 391.095 628.864 391.46 628.753L391.615 628.705C391.976 628.587 392.372 628.711 392.589 629.024L392.983 629.584C393.253 629.972 393.787 630.065 394.173 629.795L395.361 628.963C395.748 628.692 395.841 628.159 395.572 627.772L395.176 627.208C394.959 626.897 394.977 626.481 395.212 626.183L395.311 626.055C395.539 625.751 395.933 625.625 396.292 625.755L396.937 625.991C397.381 626.152 397.872 625.923 398.033 625.479L398.528 624.117C398.691 623.675 398.463 623.184 398.019 623.023Z" fill="white"/>
<path d="M551.636 590.917C549.754 590.917 548.23 589.393 548.23 587.512C548.23 585.632 549.754 584.107 551.636 584.107C553.516 584.107 555.04 585.632 555.04 587.512C555.04 589.393 553.516 590.917 551.636 590.917ZM557.053 588.444L556.655 588.3C556.432 588.217 556.296 588 556.308 587.764L556.316 587.512L556.309 587.272L557.114 587.056C557.397 586.98 557.564 586.691 557.488 586.408L557.256 585.541C557.181 585.259 556.89 585.092 556.608 585.168L556.197 585.277C555.97 585.339 555.733 585.24 555.609 585.04L555.555 584.956C555.427 584.759 555.437 584.503 555.588 584.321L555.861 583.996C556.049 583.772 556.021 583.437 555.797 583.251L555.109 582.673C554.885 582.485 554.552 582.516 554.364 582.74L554.091 583.065C553.941 583.244 553.693 583.301 553.477 583.209C553.318 583.14 553.156 583.083 552.989 583.031C552.765 582.964 552.613 582.759 552.613 582.528V582.101C552.613 581.809 552.376 581.573 552.084 581.573H551.186C550.894 581.573 550.657 581.809 550.657 582.101V582.527C550.657 582.761 550.501 582.965 550.274 583.032L550.18 583.063C549.956 583.136 549.71 583.06 549.576 582.867L549.332 582.52C549.165 582.28 548.835 582.221 548.596 582.389L547.861 582.904C547.622 583.072 547.564 583.401 547.732 583.64L547.974 583.989C548.11 584.183 548.098 584.439 547.953 584.624L547.892 584.703C547.75 584.892 547.507 584.969 547.285 584.889L546.885 584.744C546.611 584.643 546.306 584.785 546.206 585.059L545.901 585.903C545.801 586.177 545.941 586.48 546.216 586.58L546.616 586.725C546.837 586.805 546.975 587.024 546.963 587.26L546.955 587.512L546.961 587.752L546.156 587.969C545.873 588.044 545.705 588.335 545.783 588.616L546.014 589.483C546.089 589.764 546.38 589.932 546.661 589.857L547.073 589.747C547.301 589.687 547.536 589.784 547.661 589.984L547.714 590.068C547.844 590.265 547.833 590.523 547.683 590.703L547.409 591.028C547.221 591.252 547.25 591.585 547.473 591.773L548.161 592.351C548.384 592.537 548.718 592.509 548.906 592.285L549.18 591.96C549.329 591.781 549.579 591.723 549.793 591.815C549.952 591.883 550.114 591.943 550.281 591.993C550.505 592.06 550.657 592.264 550.657 592.497V592.923C550.657 593.215 550.894 593.452 551.186 593.452H552.084C552.376 593.452 552.613 593.215 552.613 592.923V592.499C552.613 592.263 552.769 592.06 552.996 591.991L553.091 591.961C553.315 591.888 553.56 591.965 553.694 592.157L553.937 592.505C554.105 592.745 554.434 592.803 554.674 592.636L555.41 592.12C555.648 591.953 555.706 591.623 555.538 591.384L555.296 591.035C555.16 590.843 555.172 590.585 555.317 590.4L555.378 590.32C555.52 590.133 555.764 590.055 555.985 590.136L556.385 590.281C556.66 590.381 556.964 590.24 557.064 589.965L557.369 589.123C557.47 588.848 557.328 588.544 557.053 588.444Z" fill="white"/>
<path d="M598.408 250.179C596.528 250.179 595.003 248.655 595.003 246.773C595.003 244.893 596.528 243.369 598.408 243.369C600.29 243.369 601.812 244.893 601.812 246.773C601.812 248.655 600.29 250.179 598.408 250.179ZM603.827 247.707L603.427 247.56C603.206 247.48 603.068 247.263 603.083 247.027L603.088 246.773L603.083 246.533L603.888 246.317C604.17 246.243 604.338 245.952 604.262 245.669L604.028 244.803C603.954 244.521 603.664 244.355 603.382 244.429L602.971 244.54C602.744 244.6 602.507 244.503 602.382 244.303L602.328 244.219C602.199 244.021 602.21 243.764 602.362 243.583L602.636 243.257C602.823 243.033 602.794 242.7 602.57 242.512L601.883 241.936C601.659 241.748 601.326 241.777 601.138 242L600.863 242.327C600.714 242.505 600.466 242.563 600.251 242.472C600.092 242.403 599.928 242.344 599.762 242.293C599.539 242.227 599.386 242.021 599.386 241.788V241.364C599.386 241.071 599.148 240.835 598.858 240.835H597.96C597.668 240.835 597.431 241.071 597.431 241.364V241.788C597.431 242.024 597.274 242.227 597.048 242.295L596.952 242.325C596.728 242.397 596.483 242.321 596.35 242.128L596.106 241.781C595.938 241.541 595.608 241.484 595.368 241.651L594.635 242.167C594.395 242.333 594.336 242.664 594.504 242.903L594.75 243.251C594.883 243.444 594.871 243.7 594.726 243.885L594.666 243.965C594.524 244.153 594.279 244.231 594.059 244.151L593.658 244.005C593.383 243.905 593.08 244.047 592.98 244.321L592.674 245.164C592.574 245.439 592.715 245.743 592.99 245.841L593.388 245.987C593.611 246.068 593.748 246.285 593.735 246.521L593.728 246.773L593.734 247.015L592.928 247.231C592.647 247.305 592.479 247.596 592.555 247.879L592.787 248.745C592.862 249.027 593.152 249.193 593.435 249.119L593.847 249.008C594.074 248.948 594.31 249.047 594.435 249.247L594.488 249.331C594.618 249.527 594.607 249.784 594.455 249.964L594.182 250.291C593.994 250.515 594.023 250.848 594.247 251.036L594.934 251.612C595.158 251.8 595.491 251.771 595.679 251.547L595.952 251.221C596.103 251.043 596.351 250.985 596.566 251.076C596.724 251.145 596.887 251.204 597.055 251.255C597.278 251.323 597.431 251.527 597.431 251.76V252.185C597.431 252.477 597.668 252.713 597.96 252.713H598.858C599.148 252.713 599.386 252.477 599.386 252.185V251.76C599.386 251.525 599.543 251.321 599.768 251.253L599.864 251.224C600.088 251.151 600.334 251.227 600.468 251.42L600.711 251.767C600.879 252.005 601.208 252.064 601.448 251.896L602.183 251.383C602.422 251.215 602.479 250.885 602.312 250.645L602.068 250.297C601.932 250.104 601.946 249.848 602.09 249.661L602.151 249.583C602.294 249.395 602.536 249.317 602.758 249.397L603.159 249.543C603.432 249.643 603.736 249.501 603.836 249.227L604.143 248.384C604.243 248.109 604.102 247.805 603.827 247.707Z" fill="white"/>
</g>
<path d="M469.873 495.532L469.771 495.652C469.269 496.225 466.984 498.559 463.435 498.553C461.149 498.552 458.299 497.604 454.968 494.533L454.66 494.456C454.66 494.456 454.593 494.472 454.46 494.5C454.06 494.583 453.089 494.752 451.865 494.752C450.371 494.753 448.501 494.5 446.815 493.555C445.128 492.609 443.604 490.987 442.759 488.156C442.707 487.981 442.523 487.88 442.347 487.931L442.227 487.961C441.981 488.019 441.384 488.139 440.677 488.137C440.008 488.139 439.244 488.031 438.577 487.688C437.911 487.343 437.331 486.777 436.979 485.788L436.776 485.584L436.489 485.615L436.384 485.676C435.876 485.964 433.597 487.144 430.868 487.141C428.201 487.132 425.111 486.061 422.621 481.88L422.417 481.727L422.357 481.709C422.036 481.617 420.5 481.119 418.921 479.809C417.343 478.497 415.719 476.388 415.179 473.013C415.053 472.228 414.997 471.477 414.997 470.765C414.997 467.847 415.929 465.541 416.861 463.961C417.328 463.172 417.795 462.564 418.143 462.157C418.316 461.953 418.46 461.8 418.56 461.697L418.673 461.584L418.711 461.549C418.808 461.46 418.844 461.321 418.801 461.196L418.767 461.079C418.699 460.835 418.559 460.233 418.559 459.484C418.559 458.701 418.709 457.765 419.237 456.883C419.765 456 420.668 455.156 422.24 454.557C422.364 454.509 422.448 454.392 422.455 454.26C422.455 454.26 422.46 454.123 422.492 453.861C422.603 452.948 423.033 450.623 424.587 448.471C426.144 446.32 428.795 444.319 433.48 443.992C433.616 443.983 433.733 443.889 433.775 443.759L433.817 443.633C434.045 442.992 435.208 440.016 438.017 437.216C440.829 434.417 445.271 431.781 452.143 431.779C453.713 431.779 455.412 431.917 457.248 432.224L457.533 432.137L457.7 431.989C458.5 431.3 462.087 428.501 467.079 428.505C469.775 428.507 472.889 429.311 476.251 431.716L476.587 431.747L476.635 431.725C476.876 431.621 477.996 431.181 479.377 431.183C481.133 431.195 483.279 431.843 484.809 434.827C484.877 434.96 485.024 435.032 485.171 435.003L485.307 434.98C485.585 434.937 486.276 434.848 487.239 434.848C490.523 434.856 496.884 435.859 500.963 443.179C501.028 443.296 501.157 443.363 501.291 443.348L501.423 443.339C501.513 443.333 501.649 443.328 501.823 443.328C502.712 443.327 504.587 443.473 506.516 444.505C508.445 445.539 510.445 447.441 511.631 451.035L511.821 451.239L511.88 451.265C512.196 451.407 513.693 452.133 515.097 453.632C516.501 455.135 517.817 457.389 517.819 460.657L517.817 460.836L517.96 461.113L517.988 461.133C518.301 461.369 521.04 463.537 521.039 467.94C521.039 468.987 520.884 470.163 520.504 471.476L520.533 471.733L520.585 471.829C520.828 472.296 521.827 474.4 521.824 476.969C521.824 478.127 521.624 479.379 521.068 480.631C520.057 482.903 519.083 484.261 518.373 485.048C518.017 485.44 517.728 485.691 517.533 485.84L517.312 485.993L517.261 486.024L517.252 486.029L517.281 486.087L517.253 486.029H517.252L517.281 486.087L517.253 486.029C517.139 486.085 517.067 486.204 517.069 486.332V486.404C517.069 486.907 517.024 489.979 516.011 493.507C514.999 497.037 513.024 501.004 509.205 503.367C506.761 504.881 503.749 505.423 500.723 505.423C497.224 505.423 493.716 504.7 491.089 503.976C489.776 503.613 488.683 503.252 487.919 502.98C487.153 502.709 486.725 502.531 486.724 502.531C486.553 502.46 486.359 502.541 486.288 502.711C486.217 502.881 486.299 503.076 486.469 503.147C486.489 503.152 493.545 506.085 500.723 506.089C503.825 506.088 506.961 505.54 509.557 503.933C513.577 501.441 515.613 497.307 516.652 493.691C517.691 490.071 517.736 486.947 517.736 486.404V486.323L517.403 486.327L517.552 486.625C517.628 486.588 519.609 485.555 521.677 480.901C522.277 479.552 522.491 478.204 522.491 476.969C522.488 473.837 521.128 471.432 521.115 471.405L520.824 471.569L521.144 471.661C521.541 470.292 521.705 469.052 521.705 467.94C521.701 462.921 518.38 460.592 518.341 460.567L518.151 460.84L518.484 460.844L518.485 460.657C518.488 456.973 516.881 454.447 515.285 452.869C513.687 451.288 512.1 450.633 512.075 450.623L511.948 450.931L512.264 450.827C511.035 447.083 508.897 445.017 506.829 443.917C504.763 442.815 502.783 442.661 501.823 442.661C501.448 442.661 501.228 442.684 501.217 442.685L501.253 443.017L501.545 442.855C497.327 435.268 490.641 434.173 487.239 434.181C485.901 434.181 485.059 434.345 485.043 434.349L485.107 434.676L485.404 434.524C483.787 431.321 481.303 430.503 479.377 430.516C477.639 430.517 476.329 431.132 476.304 431.143L476.445 431.444L476.64 431.173C473.177 428.693 469.908 427.837 467.079 427.839C461.08 427.845 457.103 431.631 457.073 431.655L457.304 431.896L457.359 431.567C455.489 431.253 453.753 431.112 452.143 431.112C444.625 431.108 439.848 434.217 436.987 437.327C434.123 440.435 433.149 443.531 433.139 443.559L433.457 443.659L433.435 443.327C427.877 443.7 424.915 446.436 423.409 449.067C421.897 451.695 421.791 454.201 421.788 454.231L422.121 454.245L422.003 453.933C420.315 454.573 419.269 455.525 418.664 456.54C418.059 457.556 417.892 458.619 417.892 459.484C417.892 460.593 418.163 461.388 418.171 461.411L418.485 461.304L418.261 461.057C418.232 461.087 414.336 464.633 414.331 470.765C414.331 471.512 414.389 472.299 414.52 473.119C415.12 476.899 417.053 479.229 418.831 480.589C420.608 481.952 422.224 482.365 422.252 482.372L422.335 482.049L422.048 482.22C424.623 486.585 428.016 487.819 430.868 487.808C434.205 487.804 436.811 486.196 436.839 486.183L436.664 485.899L436.349 486.009C436.749 487.151 437.473 487.873 438.273 488.281C439.073 488.691 439.94 488.804 440.677 488.804C441.719 488.804 442.512 488.576 442.531 488.572L442.439 488.251L442.119 488.347C443.003 491.324 444.66 493.119 446.489 494.137C448.317 495.159 450.297 495.419 451.865 495.419C453.58 495.419 454.807 495.105 454.824 495.101L454.743 494.779L454.516 495.024C457.931 498.177 460.957 499.221 463.435 499.22C467.845 499.211 470.372 495.971 470.397 495.943C470.511 495.797 470.485 495.588 470.341 495.475C470.196 495.361 469.987 495.387 469.873 495.532Z" fill="white"/>
<path d="M477.115 475.607H460.051V458.544H477.115V475.607Z" fill="white"/>
<path d="M462.054 477.139H461.047V457.013H462.054V477.139Z" fill="white"/>
<path d="M464.34 477.139H463.333V457.013H464.34V477.139Z" fill="white"/>
<path d="M466.628 477.139H465.622V457.013H466.628V477.139Z" fill="white"/>
<path d="M468.915 477.139H467.908V457.013H468.915V477.139Z" fill="white"/>
<path d="M471.2 477.139H470.195V457.013H471.2V477.139Z" fill="white"/>
<path d="M473.488 477.139H472.481V457.013H473.488V477.139Z" fill="white"/>
<path d="M475.775 477.139H474.768V457.013H475.775V477.139Z" fill="white"/>
<path d="M478.473 473.433V474.44H458.348V473.433H478.473Z" fill="white"/>
<path d="M478.473 471.145V472.152H458.348V471.145H478.473Z" fill="white"/>
<path d="M478.473 468.86V469.865H458.348V468.86H478.473Z" fill="white"/>
<path d="M478.473 466.572V467.579H458.348V466.572H478.473Z" fill="white"/>
<path d="M478.473 464.285V465.292H458.348V464.285H478.473Z" fill="white"/>
<path d="M478.473 461.999V463.004H458.348V461.999H478.473Z" fill="white"/>
<path d="M478.473 459.712V460.717H458.348V459.712H478.473Z" fill="white"/>
<path d="M433.228 443.901L450.767 460.457L450.996 460.548H460.336C460.52 460.548 460.67 460.399 460.67 460.215C460.67 460.031 460.52 459.881 460.336 459.881H451.128L433.686 443.416C433.552 443.291 433.342 443.296 433.215 443.431C433.088 443.564 433.095 443.775 433.228 443.901Z" fill="white"/>
<path d="M429.172 444.719L447.427 462.739L447.661 462.835H460.336C460.52 462.835 460.669 462.686 460.669 462.502C460.669 462.318 460.52 462.168 460.336 462.168H447.799L429.64 444.244C429.509 444.115 429.299 444.116 429.169 444.247C429.04 444.379 429.041 444.59 429.172 444.719Z" fill="white"/>
<path d="M477.115 467.409H487.935L517.22 486.605C517.373 486.707 517.58 486.664 517.681 486.509C517.783 486.356 517.739 486.149 517.585 486.048L488.216 466.797L488.033 466.743H477.115C476.931 466.743 476.781 466.892 476.781 467.076C476.781 467.26 476.931 467.409 477.115 467.409Z" fill="white"/>
<path d="M421.878 454.472L435.93 469.589L436.174 469.695H460.051C460.235 469.695 460.384 469.547 460.384 469.361C460.384 469.177 460.235 469.029 460.051 469.029L436.319 469.028L422.366 454.019C422.24 453.884 422.03 453.876 421.895 454.001C421.759 454.127 421.752 454.338 421.878 454.472Z" fill="white"/>
<path d="M418.24 461.528L427.712 471.875L427.959 471.983H460.051C460.235 471.983 460.384 471.834 460.384 471.65C460.384 471.466 460.235 471.316 460.051 471.316H428.105L418.732 461.079C418.607 460.943 418.396 460.934 418.26 461.058C418.126 461.182 418.116 461.394 418.24 461.528Z" fill="white"/>
<path d="M429.984 454.549H439.268C439.452 454.549 439.602 454.4 439.602 454.216C439.602 454.032 439.452 453.883 439.268 453.883H429.984C429.8 453.883 429.651 454.032 429.651 454.216C429.651 454.4 429.8 454.549 429.984 454.549Z" fill="white"/>
<path d="M436.188 460.2L435.764 469.347C435.755 469.531 435.897 469.687 436.081 469.695C436.265 469.704 436.421 469.562 436.429 469.378L436.853 460.231C436.863 460.047 436.72 459.891 436.536 459.882C436.352 459.874 436.196 460.016 436.188 460.2Z" fill="white"/>
<path d="M429.751 454.245H429.417C429.417 454.707 429.044 455.08 428.583 455.081C428.12 455.08 427.747 454.707 427.747 454.245C427.747 453.784 428.12 453.411 428.583 453.409C429.044 453.411 429.417 453.784 429.417 454.245H429.751H430.084C430.084 453.416 429.412 452.743 428.583 452.743C427.752 452.743 427.08 453.416 427.08 454.245C427.08 455.076 427.752 455.748 428.583 455.748C429.412 455.748 430.084 455.076 430.084 454.245H429.751Z" fill="white"/>
<path d="M452.267 447.464H461.55C461.734 447.464 461.883 447.315 461.883 447.131C461.883 446.947 461.734 446.797 461.55 446.797H452.267C452.083 446.797 451.934 446.947 451.934 447.131C451.934 447.315 452.083 447.464 452.267 447.464Z" fill="white"/>
<path d="M452.033 447.16H451.7C451.7 447.621 451.327 447.995 450.864 447.996C450.403 447.995 450.029 447.621 450.028 447.16C450.029 446.699 450.403 446.325 450.864 446.324C451.327 446.325 451.7 446.699 451.7 447.16H452.033H452.367C452.367 446.331 451.695 445.657 450.864 445.657C450.035 445.657 449.363 446.331 449.361 447.16C449.363 447.991 450.035 448.663 450.864 448.663C451.695 448.663 452.367 447.991 452.367 447.16H452.033Z" fill="white"/>
<path d="M484.556 453.128H475.272C475.088 453.128 474.938 453.278 474.938 453.462C474.938 453.646 475.088 453.795 475.272 453.795H484.556C484.74 453.795 484.889 453.646 484.889 453.462C484.889 453.278 484.74 453.128 484.556 453.128Z" fill="white"/>
<path d="M484.789 453.492H484.456C484.456 454.321 485.128 454.993 485.957 454.993C486.787 454.993 487.46 454.321 487.46 453.492C487.46 452.661 486.787 451.989 485.957 451.989C485.128 451.989 484.456 452.661 484.456 453.492H484.789H485.123C485.123 453.029 485.497 452.656 485.957 452.656C486.419 452.656 486.792 453.029 486.793 453.492C486.792 453.952 486.419 454.325 485.957 454.326C485.497 454.325 485.123 453.952 485.123 453.492H484.789Z" fill="white"/>
<path d="M495.241 482.492H485.957C485.773 482.492 485.624 482.641 485.624 482.825C485.624 483.009 485.773 483.159 485.957 483.159H495.241C495.425 483.159 495.575 483.009 495.575 482.825C495.575 482.641 495.425 482.492 495.241 482.492Z" fill="white"/>
<path d="M495.473 482.856H495.14C495.141 483.686 495.813 484.358 496.643 484.359C497.473 484.358 498.145 483.686 498.145 482.856C498.145 482.026 497.473 481.354 496.643 481.354C495.813 481.354 495.141 482.026 495.14 482.856H495.473H495.807C495.808 482.394 496.181 482.02 496.643 482.02C497.105 482.02 497.479 482.394 497.479 482.856C497.479 483.318 497.105 483.691 496.643 483.692C496.181 483.691 495.808 483.318 495.807 482.856H495.473Z" fill="white"/>
<path d="M477.115 482.472H476.781C476.781 483.302 477.453 483.974 478.284 483.974C479.113 483.974 479.785 483.302 479.785 482.472C479.785 481.642 479.113 480.97 478.284 480.97C477.453 480.97 476.781 481.642 476.781 482.472H477.115H477.448C477.449 482.01 477.823 481.636 478.284 481.636C478.744 481.636 479.117 482.01 479.119 482.472C479.117 482.934 478.744 483.307 478.284 483.307C477.823 483.307 477.449 482.934 477.448 482.472H477.115Z" fill="white"/>
<path d="M501.457 491.309H486.596C486.412 491.309 486.263 491.459 486.263 491.643C486.263 491.827 486.412 491.976 486.596 491.976H501.457C501.641 491.976 501.791 491.827 501.791 491.643C501.791 491.459 501.641 491.309 501.457 491.309Z" fill="white"/>
<path d="M501.404 491.691H501.071C501.071 492.605 501.812 493.348 502.727 493.348C503.642 493.348 504.383 492.605 504.383 491.691C504.383 490.776 503.642 490.035 502.727 490.033C501.812 490.035 501.071 490.776 501.071 491.691H501.404H501.737C501.737 491.144 502.18 490.701 502.727 490.7C503.274 490.701 503.715 491.144 503.716 491.691C503.715 492.237 503.272 492.68 502.727 492.681C502.18 492.68 501.737 492.237 501.737 491.691H501.404Z" fill="white"/>
<path d="M491.099 537.195H490.766C490.766 538.109 491.507 538.849 492.422 538.851C493.338 538.851 494.079 538.109 494.08 537.195C494.08 536.279 493.338 535.536 492.422 535.536C491.507 535.536 490.766 536.279 490.766 537.195H491.099H491.432C491.434 536.647 491.876 536.204 492.422 536.203C492.97 536.204 493.412 536.647 493.414 537.195C493.412 537.74 492.97 538.183 492.422 538.184C491.876 538.183 491.434 537.74 491.432 537.195H491.099Z" fill="white"/>
<path d="M484.635 532.68H484.301C484.301 533.595 485.043 534.336 485.957 534.336C486.873 534.336 487.615 533.595 487.615 532.68C487.615 531.765 486.873 531.024 485.957 531.024C485.043 531.024 484.301 531.765 484.301 532.68H484.635H484.968C484.968 532.133 485.411 531.691 485.957 531.691C486.505 531.691 486.947 532.133 486.948 532.68C486.947 533.225 486.505 533.668 485.957 533.669C485.411 533.668 484.968 533.225 484.968 532.68H484.635Z" fill="white"/>
<path d="M475.521 529.291H475.188C475.188 530.205 475.929 530.947 476.844 530.947C477.759 530.947 478.5 530.205 478.5 529.291C478.5 528.375 477.759 527.633 476.844 527.633C475.929 527.633 475.188 528.375 475.188 529.291H475.521H475.855C475.855 528.743 476.297 528.3 476.844 528.3C477.389 528.3 477.832 528.743 477.833 529.291C477.832 529.836 477.389 530.279 476.844 530.28C476.297 530.279 475.855 529.836 475.855 529.291H475.521Z" fill="white"/>
<path d="M468.015 535.061H467.682C467.682 535.976 468.423 536.717 469.339 536.717C470.254 536.717 470.995 535.976 470.995 535.061C470.995 534.147 470.254 533.405 469.339 533.405C468.423 533.405 467.682 534.147 467.682 535.061H468.015H468.348C468.348 534.515 468.791 534.072 469.339 534.072C469.886 534.072 470.327 534.515 470.328 535.061C470.327 535.608 469.886 536.049 469.339 536.051C468.791 536.049 468.348 535.607 468.348 535.061H468.015Z" fill="white"/>
<path d="M507.656 473.055H507.323C507.323 473.886 507.996 474.558 508.825 474.558C509.656 474.558 510.328 473.886 510.328 473.055C510.328 472.224 509.656 471.552 508.825 471.552C507.996 471.552 507.323 472.224 507.323 473.055H507.656H507.989C507.991 472.594 508.364 472.22 508.825 472.219C509.287 472.22 509.66 472.594 509.661 473.055C509.66 473.516 509.287 473.89 508.825 473.891C508.364 473.89 507.991 473.516 507.989 473.055H507.656Z" fill="white"/>
<path d="M437.691 458.544H437.357C437.356 459.006 436.983 459.379 436.521 459.38C436.061 459.379 435.687 459.006 435.687 458.544C435.687 458.083 436.061 457.71 436.521 457.708C436.983 457.71 437.356 458.083 437.357 458.544H437.691H438.024C438.023 457.715 437.351 457.042 436.521 457.042C435.692 457.043 435.02 457.715 435.02 458.544C435.02 459.374 435.692 460.046 436.521 460.047C437.351 460.047 438.023 459.374 438.024 458.544H437.691Z" fill="white"/>
<path d="M439.268 481.687H438.935C438.935 482.148 438.56 482.521 438.099 482.523C437.638 482.521 437.264 482.148 437.263 481.687C437.264 481.224 437.638 480.851 438.099 480.851C438.56 480.851 438.935 481.224 438.935 481.687H439.268H439.601C439.601 480.856 438.93 480.184 438.099 480.184C437.27 480.184 436.596 480.856 436.596 481.687C436.596 482.516 437.27 483.188 438.099 483.189C438.93 483.188 439.601 482.516 439.601 481.687H439.268Z" fill="white"/>
<path d="M460.336 473.603H450.216C450.094 473.603 449.982 473.669 449.923 473.777L442.145 488.092C442.057 488.253 442.118 488.456 442.28 488.544C442.442 488.632 442.644 488.572 442.732 488.411L450.415 474.269H460.336C460.52 474.269 460.67 474.12 460.67 473.936C460.67 473.752 460.52 473.603 460.336 473.603Z" fill="white"/>
<path d="M439.051 480.671L443.648 471.803C443.732 471.64 443.668 471.439 443.506 471.354C443.342 471.27 443.14 471.334 443.056 471.496L438.459 480.364C438.375 480.527 438.439 480.728 438.601 480.814C438.765 480.898 438.967 480.834 439.051 480.671Z" fill="white"/>
<path d="M425.068 479.368H424.735C424.733 479.828 424.36 480.202 423.899 480.202C423.437 480.202 423.063 479.828 423.063 479.368C423.063 478.906 423.437 478.533 423.899 478.532C424.36 478.533 424.733 478.906 424.735 479.368H425.068H425.401C425.401 478.538 424.728 477.866 423.899 477.865C423.068 477.866 422.396 478.538 422.396 479.368C422.396 480.197 423.068 480.869 423.899 480.869C424.728 480.869 425.401 480.197 425.401 479.368H425.068Z" fill="white"/>
<path d="M424.883 478.352L428.278 471.803C428.363 471.64 428.299 471.439 428.135 471.354C427.972 471.27 427.771 471.334 427.686 471.496L424.291 478.046C424.207 478.21 424.271 478.411 424.434 478.495C424.598 478.58 424.799 478.516 424.883 478.352Z" fill="white"/>
<path d="M461.883 458.544V442.819L461.86 442.697L457.615 431.775C457.547 431.604 457.355 431.519 457.183 431.585C457.011 431.652 456.926 431.845 456.994 432.016L461.216 442.881V458.544C461.216 458.728 461.366 458.877 461.55 458.877C461.734 458.877 461.883 458.728 461.883 458.544Z" fill="white"/>
<path d="M476.184 431.239L468.149 441.429L468.079 441.636V458.544C468.079 458.728 468.228 458.877 468.412 458.877C468.596 458.877 468.745 458.728 468.745 458.544V441.751L476.707 431.651C476.821 431.507 476.796 431.297 476.652 431.183C476.507 431.069 476.297 431.093 476.184 431.239Z" fill="white"/>
<path d="M484.839 434.477L475.004 447.795L474.939 447.992V458.544C474.939 458.728 475.088 458.877 475.272 458.877C475.456 458.877 475.606 458.728 475.606 458.544V448.101L485.375 434.873C485.484 434.725 485.454 434.517 485.306 434.408C485.158 434.299 484.948 434.329 484.839 434.477Z" fill="white"/>
<path d="M500.977 442.831L487.889 462.168H477.115C476.931 462.168 476.781 462.318 476.781 462.502C476.781 462.686 476.931 462.835 477.115 462.835H488.067L488.343 462.688L501.529 443.204C501.633 443.051 501.593 442.844 501.441 442.742C501.288 442.638 501.081 442.678 500.977 442.831Z" fill="white"/>
<path d="M511.676 450.738L501.911 464.455H477.115C476.931 464.455 476.781 464.604 476.781 464.788C476.781 464.972 476.931 465.122 477.115 465.122H502.083L502.353 464.982L512.22 451.124C512.327 450.974 512.291 450.766 512.141 450.659C511.991 450.552 511.783 450.587 511.676 450.738Z" fill="white"/>
<path d="M517.96 460.307L509.238 471.952C509.128 472.1 509.158 472.31 509.305 472.419C509.453 472.53 509.661 472.5 509.772 472.352L518.493 460.707C518.604 460.56 518.573 460.351 518.426 460.24C518.278 460.131 518.07 460.16 517.96 460.307Z" fill="white"/>
<path d="M513.888 479.305H513.555C513.555 480.136 514.227 480.808 515.057 480.808C515.887 480.808 516.56 480.136 516.56 479.305C516.56 478.476 515.887 477.804 515.057 477.804C514.227 477.804 513.555 478.476 513.555 479.305H513.888H514.221C514.223 478.844 514.596 478.471 515.057 478.471C515.519 478.471 515.892 478.844 515.893 479.305C515.892 479.768 515.519 480.141 515.057 480.141C514.596 480.141 514.223 479.768 514.221 479.305H513.888Z" fill="white"/>
<path d="M520.657 470.946L515.422 477.937C515.312 478.084 515.341 478.293 515.489 478.404C515.636 478.513 515.845 478.484 515.956 478.336L521.19 471.345C521.301 471.198 521.272 470.989 521.124 470.878C520.977 470.769 520.768 470.798 520.657 470.946Z" fill="white"/>
<path d="M477.115 474.269H484.245L486.264 502.862C486.277 503.045 486.436 503.184 486.62 503.171C486.804 503.159 486.941 502.999 486.929 502.815L484.888 473.913C484.876 473.739 484.731 473.603 484.556 473.603H477.115C476.931 473.603 476.781 473.752 476.781 473.936C476.781 474.12 476.931 474.269 477.115 474.269Z" fill="white"/>
<path d="M455.039 494.931L461.251 482.806H476.805C476.991 482.806 477.139 482.656 477.139 482.472C477.139 482.287 476.991 482.139 476.805 482.139H461.047C460.921 482.139 460.807 482.208 460.751 482.32L454.445 494.627C454.361 494.791 454.427 494.992 454.591 495.076C454.755 495.159 454.955 495.095 455.039 494.931Z" fill="white"/>
<path d="M469.863 489.178L470.964 508.527L467.79 511.416L467.682 511.679L468.75 533.434C468.759 533.618 468.915 533.759 469.099 533.75C469.283 533.74 469.424 533.584 469.415 533.4L468.355 511.804L471.531 508.914L471.639 508.648L470.528 489.14C470.518 488.956 470.36 488.816 470.176 488.827C469.992 488.836 469.852 488.995 469.863 489.178Z" fill="white"/>
<path d="M474.271 488.644L476.511 527.985C476.521 528.169 476.679 528.309 476.863 528.299C477.047 528.288 477.187 528.131 477.176 527.947L474.936 488.607C474.925 488.423 474.768 488.281 474.584 488.292C474.4 488.303 474.26 488.46 474.271 488.644Z" fill="white"/>
<path d="M478.056 488.644L479.425 512.67C479.433 512.813 479.531 512.933 479.668 512.972L484.963 514.454L485.624 531.369C485.631 531.553 485.787 531.697 485.971 531.689C486.153 531.682 486.297 531.528 486.291 531.344L485.62 514.186C485.613 514.041 485.516 513.917 485.376 513.878L480.077 512.394L478.723 488.606C478.712 488.422 478.555 488.281 478.371 488.292C478.187 488.302 478.047 488.46 478.056 488.644Z" fill="white"/>
<path d="M482.192 488.405L483.345 508.679C483.353 508.825 483.456 508.948 483.597 508.984L490.284 510.645L492.089 535.893C492.103 536.077 492.261 536.216 492.445 536.203C492.629 536.189 492.768 536.029 492.755 535.847L490.932 510.356C490.921 510.213 490.819 510.092 490.679 510.057L483.997 508.396L482.857 488.368C482.847 488.184 482.689 488.044 482.505 488.053C482.321 488.064 482.181 488.221 482.192 488.405Z" fill="white"/>
<path d="M354.69 210.885H341.067L338.469 217.172H331.511L344.588 187.832H351.295L364.414 217.172H357.288L354.69 210.885ZM352.552 205.73L347.899 194.497L343.247 205.73H352.552ZM386.152 217.172L380.493 208.999H380.158H374.248V217.172H367.458V187.832H380.158C382.757 187.832 385.006 188.265 386.906 189.132C388.834 189.998 390.315 191.227 391.349 192.82C392.383 194.413 392.9 196.299 392.9 198.479C392.9 200.658 392.369 202.544 391.307 204.137C390.273 205.702 388.792 206.903 386.864 207.742L393.445 217.172H386.152ZM386.026 198.479C386.026 196.83 385.495 195.572 384.433 194.706C383.371 193.812 381.82 193.365 379.781 193.365H374.248V203.592H379.781C381.82 203.592 383.371 203.145 384.433 202.251C385.495 201.357 386.026 200.099 386.026 198.479ZM403.948 193.365H394.559V187.832H420.127V193.365H410.738V217.172H403.948V193.365ZM423.78 187.832H430.57V217.172H423.78V187.832ZM444.324 193.281V201.035H457.904V206.484H444.324V217.172H437.533V187.832H459.706V193.281H444.324ZM464.303 187.832H471.093V217.172H464.303V187.832ZM492.097 217.675C489.108 217.675 486.397 217.033 483.966 215.747C481.563 214.434 479.663 212.632 478.266 210.34C476.897 208.021 476.212 205.408 476.212 202.502C476.212 199.596 476.897 196.998 478.266 194.706C479.663 192.387 481.563 190.585 483.966 189.299C486.397 187.986 489.122 187.329 492.139 187.329C494.682 187.329 496.974 187.776 499.013 188.671C501.081 189.565 502.814 190.85 504.211 192.527L499.852 196.55C497.868 194.259 495.409 193.113 492.475 193.113C490.658 193.113 489.038 193.519 487.613 194.329C486.188 195.111 485.07 196.215 484.259 197.64C483.477 199.065 483.086 200.686 483.086 202.502C483.086 204.319 483.477 205.939 484.259 207.364C485.07 208.789 486.188 209.907 487.613 210.718C489.038 211.5 490.658 211.891 492.475 211.891C495.409 211.891 497.868 210.732 499.852 208.412L504.211 212.436C502.814 214.141 501.081 215.44 499.013 216.334C496.946 217.228 494.64 217.675 492.097 217.675ZM508.796 187.832H515.586V217.172H508.796V187.832ZM541.872 210.885H528.25L525.651 217.172H518.693L531.77 187.832H538.477L551.596 217.172H544.47L541.872 210.885ZM539.734 205.73L535.082 194.497L530.429 205.73H539.734ZM554.64 187.832H561.43V211.64H576.142V217.172H554.64V187.832Z" fill="#FDDE56"/>
<path d="M333.197 238.206H336.478V252.382H333.197V238.206ZM352.844 238.206V252.382H350.151L343.083 243.775V252.382H339.842V238.206H342.556L349.604 246.813V238.206H352.844ZM359.135 240.879H354.598V238.206H366.952V240.879H362.416V252.382H359.135V240.879ZM379.694 249.75V252.382H368.718V238.206H379.431V240.839H371.978V243.917H378.56V246.469H371.978V249.75H379.694ZM382.305 238.206H385.586V249.709H392.694V252.382H382.305V238.206ZM394.527 238.206H397.808V249.709H404.917V252.382H394.527V238.206ZM406.75 238.206H410.031V252.382H406.75V238.206ZM422.975 245.071H425.972V250.823C425.202 251.403 424.311 251.849 423.299 252.16C422.286 252.47 421.267 252.625 420.24 252.625C418.769 252.625 417.446 252.315 416.271 251.694C415.096 251.059 414.172 250.188 413.496 249.081C412.835 247.961 412.504 246.698 412.504 245.294C412.504 243.89 412.835 242.634 413.496 241.527C414.172 240.406 415.103 239.536 416.291 238.915C417.479 238.28 418.816 237.963 420.301 237.963C421.543 237.963 422.671 238.172 423.683 238.591C424.696 239.009 425.547 239.617 426.235 240.413L424.129 242.357C423.116 241.291 421.894 240.758 420.463 240.758C419.559 240.758 418.755 240.947 418.053 241.325C417.351 241.703 416.804 242.236 416.413 242.925C416.021 243.613 415.826 244.403 415.826 245.294C415.826 246.172 416.021 246.955 416.413 247.643C416.804 248.332 417.344 248.872 418.033 249.263C418.735 249.642 419.532 249.831 420.423 249.831C421.368 249.831 422.218 249.628 422.975 249.223V245.071ZM439.996 249.75V252.382H429.02V238.206H439.733V240.839H432.28V243.917H438.862V246.469H432.28V249.75H439.996ZM455.609 238.206V252.382H452.915L445.847 243.775V252.382H442.607V238.206H445.321L452.368 246.813V238.206H455.609ZM465.747 252.625C464.303 252.625 462.993 252.315 461.818 251.694C460.657 251.059 459.739 250.188 459.064 249.081C458.403 247.961 458.072 246.698 458.072 245.294C458.072 243.89 458.403 242.634 459.064 241.527C459.739 240.406 460.657 239.536 461.818 238.915C462.993 238.28 464.309 237.963 465.768 237.963C466.996 237.963 468.103 238.179 469.089 238.611C470.088 239.043 470.925 239.664 471.6 240.474L469.494 242.418C468.535 241.311 467.347 240.758 465.93 240.758C465.052 240.758 464.269 240.953 463.58 241.345C462.892 241.723 462.352 242.256 461.96 242.945C461.582 243.633 461.393 244.416 461.393 245.294C461.393 246.172 461.582 246.955 461.96 247.643C462.352 248.332 462.892 248.872 463.58 249.263C464.269 249.642 465.052 249.831 465.93 249.831C467.347 249.831 468.535 249.27 469.494 248.15L471.6 250.094C470.925 250.917 470.088 251.545 469.089 251.977C468.09 252.409 466.976 252.625 465.747 252.625ZM484.793 249.75V252.382H473.816V238.206H484.529V240.839H477.076V243.917H483.658V246.469H477.076V249.75H484.793Z" fill="#FCFCFC"/>
</g>
<path fill-rule="evenodd" clip-rule="evenodd" d="M642.129 163.383C642.129 144.268 626.647 128.786 607.532 128.786H576.827C573.006 128.786 569.908 131.884 569.908 135.705V136.57C569.908 147.122 561.432 155.599 550.879 155.599H409.031C398.479 155.599 390.003 147.122 390.003 136.57V135.705C390.003 131.884 386.905 128.786 383.084 128.786H352.379C333.264 128.786 317.782 144.268 317.782 163.383V796.51C317.782 815.625 333.264 831.107 352.379 831.107H607.532C626.647 831.107 642.129 815.625 642.129 796.51V163.383ZM352.379 113.217H607.532C635.21 113.217 657.698 135.705 657.698 163.383V796.51C657.698 824.187 635.21 846.675 607.532 846.675H352.379C324.701 846.675 302.213 824.187 302.213 796.51V163.383C302.213 135.705 324.701 113.217 352.379 113.217Z" fill="#333333"/>
<path fill-rule="evenodd" clip-rule="evenodd" d="M642.129 163.383C642.129 144.268 626.647 128.786 607.532 128.786H576.827C573.006 128.786 569.908 131.884 569.908 135.705V136.57C569.908 147.122 561.432 155.599 550.879 155.599H409.031C398.479 155.599 390.003 147.122 390.003 136.57V135.705C390.003 131.884 386.905 128.786 383.084 128.786H352.379C333.264 128.786 317.782 144.268 317.782 163.383V796.51C317.782 815.625 333.264 831.107 352.379 831.107H607.532C626.647 831.107 642.129 815.625 642.129 796.51V163.383ZM352.379 113.217H607.532C635.21 113.217 657.698 135.705 657.698 163.383V796.51C657.698 824.187 635.21 846.675 607.532 846.675H352.379C324.701 846.675 302.213 824.187 302.213 796.51V163.383C302.213 135.705 324.701 113.217 352.379 113.217Z" fill="black" fill-opacity="0.2"/>
<path d="M524.931 136.57C524.931 139.914 522.221 142.625 518.877 142.625C515.533 142.625 512.822 139.914 512.822 136.57C512.822 133.226 515.533 130.516 518.877 130.516C522.221 130.516 524.931 133.226 524.931 136.57Z" fill="#4F4F4F"/>
<path d="M460.494 133.975C459.061 133.975 457.899 135.137 457.899 136.57C457.899 138.003 459.061 139.165 460.494 139.165H498.551C499.984 139.165 501.146 138.003 501.146 136.57C501.146 135.137 499.984 133.975 498.551 133.975H460.494Z" fill="#4F4F4F"/>
</svg>
