<svg width="398" height="458" viewBox="0 0 398 458" fill="none" xmlns="http://www.w3.org/2000/svg">
<g filter="url(#filter0_d_1189_8636)">
<rect x="28" y="44" width="353" height="375" rx="16.6364" fill="#FCFAFF"/>
<rect x="28.5545" y="44.5545" width="351.891" height="373.891" rx="16.0818" stroke="#DDDDDD" stroke-opacity="0.78" stroke-width="1.10909"/>
</g>
<rect x="50" y="114" width="315" height="8" rx="4" fill="#EEEEEE"/>
<rect x="50" y="114" width="186" height="8" rx="4" fill="#FFC029"/>
<path d="M57.5469 101.523V103H52.2559V101.523H57.5469ZM52.8301 93.0469V103H50.9502V93.0469H52.8301ZM56.8564 97.1553V98.5977H52.2559V97.1553H56.8564ZM57.5264 93.0469V94.5303H52.2559V93.0469H57.5264ZM60.4863 97.1826V103H58.6816V95.6035H60.377L60.4863 97.1826ZM60.1992 99.0352H59.666C59.6706 98.4974 59.7435 98.0098 59.8848 97.5723C60.026 97.1348 60.2243 96.7588 60.4795 96.4443C60.7393 96.1299 61.0469 95.8883 61.4023 95.7197C61.7578 95.5511 62.1543 95.4668 62.5918 95.4668C62.9473 95.4668 63.2686 95.5169 63.5557 95.6172C63.8428 95.7174 64.0889 95.877 64.2939 96.0957C64.5036 96.3145 64.6631 96.6016 64.7725 96.957C64.8864 97.3079 64.9434 97.7409 64.9434 98.2559V103H63.125V98.2422C63.125 97.9049 63.0749 97.6383 62.9746 97.4424C62.8789 97.2464 62.7376 97.1074 62.5508 97.0254C62.3685 96.9434 62.1429 96.9023 61.874 96.9023C61.596 96.9023 61.3522 96.9593 61.1426 97.0732C60.9375 97.1826 60.7643 97.3353 60.623 97.5312C60.4863 97.7272 60.3815 97.9528 60.3086 98.208C60.2357 98.4632 60.1992 98.7389 60.1992 99.0352ZM71.2393 95.6035H72.8799V102.774C72.8799 103.444 72.734 104.012 72.4424 104.477C72.1553 104.946 71.752 105.301 71.2324 105.543C70.7129 105.789 70.109 105.912 69.4209 105.912C69.1247 105.912 68.8034 105.871 68.457 105.789C68.1152 105.707 67.7848 105.577 67.4658 105.399C67.1514 105.226 66.8893 105.001 66.6797 104.723L67.4932 103.656C67.7393 103.943 68.0173 104.16 68.3271 104.306C68.637 104.456 68.972 104.531 69.332 104.531C69.6966 104.531 70.0065 104.463 70.2617 104.326C70.5215 104.194 70.7197 103.998 70.8564 103.738C70.9977 103.483 71.0684 103.169 71.0684 102.795V97.292L71.2393 95.6035ZM66.2422 99.3906V99.2471C66.2422 98.682 66.3105 98.1693 66.4473 97.709C66.584 97.2441 66.7799 96.8454 67.0352 96.5127C67.2949 96.18 67.6071 95.9225 67.9717 95.7402C68.3408 95.5579 68.7555 95.4668 69.2158 95.4668C69.7035 95.4668 70.1136 95.5557 70.4463 95.7334C70.7835 95.9111 71.0615 96.1641 71.2803 96.4922C71.5036 96.8203 71.6768 97.21 71.7998 97.6611C71.9274 98.1077 72.0254 98.5999 72.0938 99.1377V99.5273C72.0299 100.051 71.9274 100.532 71.7861 100.97C71.6494 101.407 71.4671 101.79 71.2393 102.118C71.0114 102.442 70.7288 102.692 70.3916 102.87C70.0544 103.048 69.6579 103.137 69.2021 103.137C68.7464 103.137 68.3363 103.043 67.9717 102.856C67.6071 102.67 67.2949 102.408 67.0352 102.07C66.7799 101.733 66.584 101.337 66.4473 100.881C66.3105 100.425 66.2422 99.9284 66.2422 99.3906ZM68.0469 99.2471V99.3906C68.0469 99.7096 68.0788 100.008 68.1426 100.286C68.2064 100.564 68.3044 100.81 68.4365 101.024C68.5687 101.234 68.735 101.398 68.9355 101.517C69.1361 101.635 69.3753 101.694 69.6533 101.694C70.027 101.694 70.3324 101.617 70.5693 101.462C70.8109 101.302 70.9932 101.086 71.1162 100.812C71.2438 100.535 71.3258 100.222 71.3623 99.876V98.8027C71.3395 98.5293 71.2894 98.2764 71.2119 98.0439C71.139 97.8115 71.0365 97.611 70.9043 97.4424C70.7721 97.2738 70.6035 97.1416 70.3984 97.0459C70.1934 96.9502 69.9495 96.9023 69.667 96.9023C69.3936 96.9023 69.1543 96.9639 68.9492 97.0869C68.7441 97.2054 68.5755 97.3717 68.4434 97.5859C68.3112 97.8001 68.2109 98.0485 68.1426 98.3311C68.0788 98.6136 68.0469 98.9189 68.0469 99.2471ZM76.4209 92.5V103H74.6094V92.5H76.4209ZM80.0576 95.6035V103H78.2461V95.6035H80.0576ZM78.123 93.6689C78.123 93.4001 78.2142 93.1768 78.3965 92.999C78.5833 92.8213 78.834 92.7324 79.1484 92.7324C79.4629 92.7324 79.7113 92.8213 79.8936 92.999C80.0804 93.1768 80.1738 93.4001 80.1738 93.6689C80.1738 93.9333 80.0804 94.1543 79.8936 94.332C79.7113 94.5098 79.4629 94.5986 79.1484 94.5986C78.834 94.5986 78.5833 94.5098 78.3965 94.332C78.2142 94.1543 78.123 93.9333 78.123 93.6689ZM85.8477 100.977C85.8477 100.822 85.8066 100.683 85.7246 100.56C85.6426 100.437 85.4876 100.325 85.2598 100.225C85.0365 100.12 84.7083 100.022 84.2754 99.9307C83.8926 99.8486 83.5394 99.7461 83.2158 99.623C82.8923 99.5 82.6143 99.3519 82.3818 99.1787C82.1494 99.001 81.9671 98.7936 81.835 98.5566C81.7074 98.3151 81.6436 98.0371 81.6436 97.7227C81.6436 97.4173 81.7096 97.1302 81.8418 96.8613C81.974 96.5879 82.1654 96.3486 82.416 96.1436C82.6667 95.9339 82.972 95.7699 83.332 95.6514C83.6921 95.5283 84.0977 95.4668 84.5488 95.4668C85.1777 95.4668 85.7178 95.5693 86.1689 95.7744C86.6247 95.9795 86.9733 96.262 87.2148 96.6221C87.4564 96.9775 87.5771 97.3786 87.5771 97.8252H85.7725C85.7725 97.6292 85.7269 97.4515 85.6357 97.292C85.5492 97.1325 85.4147 97.0049 85.2324 96.9092C85.0501 96.8089 84.82 96.7588 84.542 96.7588C84.2913 96.7588 84.0794 96.7998 83.9062 96.8818C83.7376 96.9639 83.61 97.071 83.5234 97.2031C83.4368 97.3353 83.3936 97.4811 83.3936 97.6406C83.3936 97.7591 83.4163 97.8662 83.4619 97.9619C83.512 98.0531 83.5918 98.1374 83.7012 98.2148C83.8105 98.2923 83.9587 98.363 84.1455 98.4268C84.3369 98.4906 84.5716 98.5521 84.8496 98.6113C85.401 98.7207 85.8818 98.8665 86.292 99.0488C86.7067 99.2266 87.0303 99.4635 87.2627 99.7598C87.4951 100.056 87.6113 100.434 87.6113 100.895C87.6113 101.223 87.5407 101.523 87.3994 101.797C87.2581 102.066 87.0531 102.3 86.7842 102.501C86.5153 102.701 86.194 102.859 85.8203 102.973C85.4466 103.082 85.0251 103.137 84.5557 103.137C83.8766 103.137 83.3024 103.016 82.833 102.774C82.3636 102.528 82.0081 102.218 81.7666 101.845C81.5251 101.466 81.4043 101.075 81.4043 100.669H83.1338C83.1475 100.956 83.2249 101.186 83.3662 101.359C83.5075 101.533 83.6852 101.658 83.8994 101.735C84.1182 101.808 84.3483 101.845 84.5898 101.845C84.8633 101.845 85.0934 101.808 85.2803 101.735C85.4671 101.658 85.6084 101.555 85.7041 101.428C85.7998 101.296 85.8477 101.145 85.8477 100.977ZM90.7559 92.5V103H88.9443V92.5H90.7559ZM90.4688 99.0352H89.9355C89.9355 98.5202 90.0039 98.0462 90.1406 97.6133C90.2773 97.1803 90.471 96.8044 90.7217 96.4854C90.9723 96.1618 91.2708 95.9111 91.6172 95.7334C91.9681 95.5557 92.3555 95.4668 92.7793 95.4668C93.1439 95.4668 93.4743 95.5192 93.7705 95.624C94.0713 95.7243 94.3288 95.8861 94.543 96.1094C94.7572 96.3327 94.9212 96.6243 95.0352 96.9844C95.1536 97.3398 95.2129 97.7728 95.2129 98.2832V103H93.3945V98.2695C93.3945 97.9277 93.3444 97.6589 93.2441 97.4629C93.1439 97.2624 93.0003 97.1188 92.8135 97.0322C92.6312 96.9456 92.4056 96.9023 92.1367 96.9023C91.8451 96.9023 91.5944 96.9593 91.3848 97.0732C91.1751 97.1826 91.002 97.3353 90.8652 97.5312C90.7331 97.7272 90.6328 97.9528 90.5645 98.208C90.5007 98.4632 90.4688 98.7389 90.4688 99.0352Z" fill="#535353"/>
<path d="M340.509 133.42L339.066 133.071L339.62 128.047H345.096V129.544H341.117L340.857 131.868C340.999 131.782 341.204 131.695 341.473 131.608C341.746 131.517 342.054 131.472 342.396 131.472C342.869 131.472 343.293 131.549 343.667 131.704C344.041 131.854 344.357 132.073 344.617 132.36C344.882 132.647 345.08 132.998 345.212 133.413C345.349 133.823 345.417 134.288 345.417 134.808C345.417 135.263 345.349 135.692 345.212 136.093C345.08 136.489 344.877 136.842 344.604 137.152C344.33 137.458 343.986 137.699 343.571 137.877C343.157 138.05 342.669 138.137 342.108 138.137C341.685 138.137 341.277 138.075 340.885 137.952C340.497 137.825 340.149 137.64 339.839 137.398C339.529 137.152 339.281 136.852 339.094 136.496C338.911 136.141 338.811 135.733 338.793 135.272H340.577C340.609 135.578 340.691 135.838 340.823 136.052C340.955 136.266 341.129 136.43 341.343 136.544C341.562 136.658 341.814 136.715 342.102 136.715C342.361 136.715 342.585 136.667 342.771 136.571C342.963 136.471 343.12 136.332 343.243 136.154C343.366 135.977 343.457 135.767 343.517 135.525C343.576 135.284 343.605 135.02 343.605 134.732C343.605 134.454 343.571 134.201 343.503 133.974C343.435 133.741 343.33 133.541 343.188 133.372C343.047 133.203 342.869 133.074 342.655 132.982C342.446 132.891 342.2 132.846 341.917 132.846C341.539 132.846 341.247 132.903 341.042 133.017C340.841 133.131 340.664 133.265 340.509 133.42ZM353.627 134.37V135.792H346.456L346.381 134.698L350.599 128.047H352.041L350.482 130.692L348.22 134.37H353.627ZM352.444 128.047V138H350.633V128.047H352.444ZM354.666 130.487V129.961C354.666 129.583 354.748 129.239 354.912 128.929C355.076 128.619 355.315 128.37 355.63 128.184C355.949 127.997 356.336 127.903 356.792 127.903C357.257 127.903 357.646 127.997 357.961 128.184C358.28 128.37 358.519 128.619 358.679 128.929C358.843 129.239 358.925 129.583 358.925 129.961V130.487C358.925 130.856 358.843 131.196 358.679 131.506C358.519 131.816 358.282 132.064 357.968 132.251C357.653 132.438 357.266 132.531 356.806 132.531C356.345 132.531 355.956 132.438 355.637 132.251C355.318 132.064 355.076 131.816 354.912 131.506C354.748 131.196 354.666 130.856 354.666 130.487ZM355.89 129.961V130.487C355.89 130.66 355.922 130.825 355.985 130.979C356.054 131.13 356.156 131.253 356.293 131.349C356.43 131.444 356.601 131.492 356.806 131.492C357.011 131.492 357.177 131.444 357.305 131.349C357.437 131.253 357.535 131.13 357.599 130.979C357.667 130.825 357.701 130.66 357.701 130.487V129.961C357.701 129.783 357.667 129.617 357.599 129.462C357.535 129.307 357.435 129.182 357.298 129.086C357.166 128.99 356.997 128.942 356.792 128.942C356.591 128.942 356.423 128.99 356.286 129.086C356.154 129.182 356.054 129.307 355.985 129.462C355.922 129.617 355.89 129.783 355.89 129.961ZM359.444 136.086V135.56C359.444 135.186 359.526 134.844 359.69 134.534C359.859 134.224 360.103 133.976 360.422 133.789C360.741 133.602 361.126 133.509 361.577 133.509C362.047 133.509 362.438 133.602 362.753 133.789C363.067 133.976 363.304 134.224 363.464 134.534C363.628 134.844 363.71 135.186 363.71 135.56V136.086C363.71 136.46 363.628 136.801 363.464 137.111C363.304 137.421 363.067 137.67 362.753 137.856C362.443 138.043 362.058 138.137 361.598 138.137C361.137 138.137 360.745 138.043 360.422 137.856C360.103 137.67 359.859 137.421 359.69 137.111C359.526 136.801 359.444 136.46 359.444 136.086ZM360.675 135.56V136.086C360.675 136.264 360.711 136.43 360.784 136.585C360.857 136.735 360.962 136.858 361.099 136.954C361.24 137.05 361.404 137.098 361.591 137.098C361.819 137.098 361.999 137.05 362.131 136.954C362.263 136.858 362.356 136.735 362.411 136.585C362.466 136.43 362.493 136.264 362.493 136.086V135.56C362.493 135.382 362.459 135.218 362.391 135.067C362.322 134.912 362.22 134.787 362.083 134.691C361.951 134.596 361.782 134.548 361.577 134.548C361.377 134.548 361.208 134.596 361.071 134.691C360.939 134.787 360.839 134.912 360.771 135.067C360.707 135.218 360.675 135.382 360.675 135.56ZM362.028 129.469L357.168 137.248L356.272 136.749L361.133 128.97L362.028 129.469Z" fill="#535353"/>
<rect x="50" y="164" width="315" height="8" rx="4" fill="#EEEEEE"/>
<rect x="50" y="164" width="96" height="8" rx="4" fill="#FF3A3A"/>
<path d="M57.5537 147.155V148.632H52.3174V147.155H57.5537ZM52.8301 143.047V153H50.9502V143.047H52.8301ZM58.9482 143.047V153H57.0684V143.047H58.9482ZM62.6396 145.604V153H60.8281V145.604H62.6396ZM60.7051 143.669C60.7051 143.4 60.7962 143.177 60.9785 142.999C61.1654 142.821 61.416 142.732 61.7305 142.732C62.0449 142.732 62.2933 142.821 62.4756 142.999C62.6624 143.177 62.7559 143.4 62.7559 143.669C62.7559 143.933 62.6624 144.154 62.4756 144.332C62.2933 144.51 62.0449 144.599 61.7305 144.599C61.416 144.599 61.1654 144.51 60.9785 144.332C60.7962 144.154 60.7051 143.933 60.7051 143.669ZM66.1328 147.183V153H64.3281V145.604H66.0234L66.1328 147.183ZM65.8457 149.035H65.3125C65.3171 148.497 65.39 148.01 65.5312 147.572C65.6725 147.135 65.8708 146.759 66.126 146.444C66.3857 146.13 66.6934 145.888 67.0488 145.72C67.4043 145.551 67.8008 145.467 68.2383 145.467C68.5938 145.467 68.915 145.517 69.2021 145.617C69.4893 145.717 69.7354 145.877 69.9404 146.096C70.1501 146.314 70.3096 146.602 70.4189 146.957C70.5329 147.308 70.5898 147.741 70.5898 148.256V153H68.7715V148.242C68.7715 147.905 68.7214 147.638 68.6211 147.442C68.5254 147.246 68.3841 147.107 68.1973 147.025C68.015 146.943 67.7894 146.902 67.5205 146.902C67.2425 146.902 66.9987 146.959 66.7891 147.073C66.584 147.183 66.4108 147.335 66.2695 147.531C66.1328 147.727 66.028 147.953 65.9551 148.208C65.8822 148.463 65.8457 148.739 65.8457 149.035ZM76.6191 151.428V142.5H78.4375V153H76.7969L76.6191 151.428ZM71.8682 149.391V149.247C71.8682 148.682 71.932 148.169 72.0596 147.709C72.1917 147.244 72.3831 146.845 72.6338 146.513C72.8844 146.18 73.1875 145.923 73.543 145.74C73.903 145.558 74.3109 145.467 74.7666 145.467C75.2087 145.467 75.5938 145.556 75.9219 145.733C76.2546 145.911 76.5371 146.164 76.7695 146.492C77.0065 146.82 77.1956 147.21 77.3369 147.661C77.4782 148.108 77.5807 148.6 77.6445 149.138V149.527C77.5807 150.051 77.4782 150.532 77.3369 150.97C77.1956 151.407 77.0065 151.79 76.7695 152.118C76.5371 152.442 76.2546 152.692 75.9219 152.87C75.5892 153.048 75.1995 153.137 74.7529 153.137C74.3018 153.137 73.8962 153.043 73.5361 152.856C73.1807 152.67 72.8776 152.408 72.627 152.07C72.3809 151.733 72.1917 151.337 72.0596 150.881C71.932 150.425 71.8682 149.928 71.8682 149.391ZM73.6797 149.247V149.391C73.6797 149.71 73.707 150.008 73.7617 150.286C73.8164 150.564 73.9053 150.81 74.0283 151.024C74.1514 151.234 74.3086 151.398 74.5 151.517C74.696 151.635 74.9329 151.694 75.2109 151.694C75.5664 151.694 75.8581 151.617 76.0859 151.462C76.3184 151.302 76.4984 151.086 76.626 150.812C76.7536 150.535 76.8356 150.222 76.8721 149.876V148.803C76.8538 148.529 76.806 148.276 76.7285 148.044C76.6556 147.812 76.5508 147.611 76.4141 147.442C76.2819 147.274 76.1178 147.142 75.9219 147.046C75.7259 146.95 75.4935 146.902 75.2246 146.902C74.9466 146.902 74.7096 146.964 74.5137 147.087C74.3177 147.205 74.1582 147.372 74.0352 147.586C73.9121 147.8 73.821 148.049 73.7617 148.331C73.707 148.614 73.6797 148.919 73.6797 149.247ZM81.9854 145.604V153H80.1738V145.604H81.9854ZM80.0508 143.669C80.0508 143.4 80.1419 143.177 80.3242 142.999C80.5111 142.821 80.7617 142.732 81.0762 142.732C81.3906 142.732 81.639 142.821 81.8213 142.999C82.0081 143.177 82.1016 143.4 82.1016 143.669C82.1016 143.933 82.0081 144.154 81.8213 144.332C81.639 144.51 81.3906 144.599 81.0762 144.599C80.7617 144.599 80.5111 144.51 80.3242 144.332C80.1419 144.154 80.0508 143.933 80.0508 143.669Z" fill="#535353"/>
<path d="M340.693 182.224H341.712C342.072 182.224 342.368 182.162 342.601 182.039C342.838 181.911 343.013 181.738 343.127 181.52C343.245 181.296 343.305 181.039 343.305 180.747C343.305 180.46 343.252 180.212 343.147 180.002C343.043 179.788 342.883 179.624 342.669 179.51C342.459 179.391 342.19 179.332 341.862 179.332C341.598 179.332 341.354 179.384 341.131 179.489C340.912 179.594 340.737 179.744 340.604 179.94C340.477 180.132 340.413 180.362 340.413 180.631H338.602C338.602 180.093 338.743 179.621 339.025 179.216C339.312 178.806 339.7 178.484 340.188 178.252C340.675 178.02 341.22 177.903 341.821 177.903C342.478 177.903 343.052 178.013 343.544 178.231C344.041 178.446 344.426 178.762 344.699 179.182C344.977 179.601 345.116 180.12 345.116 180.74C345.116 181.036 345.046 181.333 344.904 181.629C344.768 181.921 344.565 182.185 344.296 182.422C344.032 182.654 343.706 182.843 343.318 182.989C342.936 183.131 342.496 183.201 341.999 183.201H340.693V182.224ZM340.693 183.618V182.654H341.999C342.56 182.654 343.045 182.72 343.455 182.853C343.87 182.98 344.212 183.162 344.48 183.399C344.749 183.632 344.948 183.903 345.075 184.213C345.207 184.523 345.273 184.855 345.273 185.211C345.273 185.676 345.187 186.09 345.014 186.455C344.84 186.815 344.597 187.12 344.282 187.371C343.972 187.622 343.608 187.813 343.188 187.945C342.769 188.073 342.316 188.137 341.828 188.137C341.404 188.137 340.992 188.08 340.591 187.966C340.194 187.847 339.837 187.672 339.518 187.439C339.199 187.202 338.946 186.906 338.759 186.551C338.572 186.191 338.479 185.774 338.479 185.3H340.29C340.29 185.573 340.356 185.817 340.488 186.031C340.625 186.245 340.812 186.414 341.049 186.537C341.29 186.656 341.562 186.715 341.862 186.715C342.195 186.715 342.48 186.656 342.717 186.537C342.958 186.414 343.143 186.241 343.271 186.018C343.398 185.79 343.462 185.519 343.462 185.204C343.462 184.83 343.391 184.527 343.25 184.295C343.109 184.062 342.906 183.892 342.642 183.782C342.382 183.673 342.072 183.618 341.712 183.618H340.693ZM348.691 182.224H349.71C350.07 182.224 350.366 182.162 350.599 182.039C350.836 181.911 351.011 181.738 351.125 181.52C351.243 181.296 351.303 181.039 351.303 180.747C351.303 180.46 351.25 180.212 351.146 180.002C351.041 179.788 350.881 179.624 350.667 179.51C350.457 179.391 350.188 179.332 349.86 179.332C349.596 179.332 349.352 179.384 349.129 179.489C348.91 179.594 348.735 179.744 348.603 179.94C348.475 180.132 348.411 180.362 348.411 180.631H346.6C346.6 180.093 346.741 179.621 347.023 179.216C347.311 178.806 347.698 178.484 348.186 178.252C348.673 178.02 349.218 177.903 349.819 177.903C350.476 177.903 351.05 178.013 351.542 178.231C352.039 178.446 352.424 178.762 352.697 179.182C352.975 179.601 353.114 180.12 353.114 180.74C353.114 181.036 353.044 181.333 352.902 181.629C352.766 181.921 352.563 182.185 352.294 182.422C352.03 182.654 351.704 182.843 351.316 182.989C350.934 183.131 350.494 183.201 349.997 183.201H348.691V182.224ZM348.691 183.618V182.654H349.997C350.558 182.654 351.043 182.72 351.453 182.853C351.868 182.98 352.21 183.162 352.479 183.399C352.747 183.632 352.946 183.903 353.073 184.213C353.205 184.523 353.271 184.855 353.271 185.211C353.271 185.676 353.185 186.09 353.012 186.455C352.839 186.815 352.595 187.12 352.28 187.371C351.97 187.622 351.606 187.813 351.187 187.945C350.767 188.073 350.314 188.137 349.826 188.137C349.402 188.137 348.99 188.08 348.589 187.966C348.192 187.847 347.835 187.672 347.516 187.439C347.197 187.202 346.944 186.906 346.757 186.551C346.57 186.191 346.477 185.774 346.477 185.3H348.288C348.288 185.573 348.354 185.817 348.486 186.031C348.623 186.245 348.81 186.414 349.047 186.537C349.288 186.656 349.56 186.715 349.86 186.715C350.193 186.715 350.478 186.656 350.715 186.537C350.956 186.414 351.141 186.241 351.269 186.018C351.396 185.79 351.46 185.519 351.46 185.204C351.46 184.83 351.389 184.527 351.248 184.295C351.107 184.062 350.904 183.892 350.64 183.782C350.38 183.673 350.07 183.618 349.71 183.618H348.691ZM354.666 180.487V179.961C354.666 179.583 354.748 179.239 354.912 178.929C355.076 178.619 355.315 178.37 355.63 178.184C355.949 177.997 356.336 177.903 356.792 177.903C357.257 177.903 357.646 177.997 357.961 178.184C358.28 178.37 358.519 178.619 358.679 178.929C358.843 179.239 358.925 179.583 358.925 179.961V180.487C358.925 180.856 358.843 181.196 358.679 181.506C358.519 181.816 358.282 182.064 357.968 182.251C357.653 182.438 357.266 182.531 356.806 182.531C356.345 182.531 355.956 182.438 355.637 182.251C355.318 182.064 355.076 181.816 354.912 181.506C354.748 181.196 354.666 180.856 354.666 180.487ZM355.89 179.961V180.487C355.89 180.66 355.922 180.825 355.985 180.979C356.054 181.13 356.156 181.253 356.293 181.349C356.43 181.444 356.601 181.492 356.806 181.492C357.011 181.492 357.177 181.444 357.305 181.349C357.437 181.253 357.535 181.13 357.599 180.979C357.667 180.825 357.701 180.66 357.701 180.487V179.961C357.701 179.783 357.667 179.617 357.599 179.462C357.535 179.307 357.435 179.182 357.298 179.086C357.166 178.99 356.997 178.942 356.792 178.942C356.591 178.942 356.423 178.99 356.286 179.086C356.154 179.182 356.054 179.307 355.985 179.462C355.922 179.617 355.89 179.783 355.89 179.961ZM359.444 186.086V185.56C359.444 185.186 359.526 184.844 359.69 184.534C359.859 184.224 360.103 183.976 360.422 183.789C360.741 183.602 361.126 183.509 361.577 183.509C362.047 183.509 362.438 183.602 362.753 183.789C363.067 183.976 363.304 184.224 363.464 184.534C363.628 184.844 363.71 185.186 363.71 185.56V186.086C363.71 186.46 363.628 186.801 363.464 187.111C363.304 187.421 363.067 187.67 362.753 187.856C362.443 188.043 362.058 188.137 361.598 188.137C361.137 188.137 360.745 188.043 360.422 187.856C360.103 187.67 359.859 187.421 359.69 187.111C359.526 186.801 359.444 186.46 359.444 186.086ZM360.675 185.56V186.086C360.675 186.264 360.711 186.43 360.784 186.585C360.857 186.735 360.962 186.858 361.099 186.954C361.24 187.05 361.404 187.098 361.591 187.098C361.819 187.098 361.999 187.05 362.131 186.954C362.263 186.858 362.356 186.735 362.411 186.585C362.466 186.43 362.493 186.264 362.493 186.086V185.56C362.493 185.382 362.459 185.218 362.391 185.067C362.322 184.912 362.22 184.787 362.083 184.691C361.951 184.596 361.782 184.548 361.577 184.548C361.377 184.548 361.208 184.596 361.071 184.691C360.939 184.787 360.839 184.912 360.771 185.067C360.707 185.218 360.675 185.382 360.675 185.56ZM362.028 179.469L357.168 187.248L356.272 186.749L361.133 178.97L362.028 179.469Z" fill="#535353"/>
<rect x="50" y="214" width="315" height="8" rx="4" fill="#EEEEEE"/>
<rect x="50" y="214" width="286" height="8" rx="4" fill="#13B62D"/>
<path d="M56.7744 199.726H58.6543C58.6042 200.391 58.4196 200.981 58.1006 201.496C57.7816 202.007 57.3372 202.408 56.7676 202.699C56.1979 202.991 55.5075 203.137 54.6963 203.137C54.0719 203.137 53.5091 203.027 53.0078 202.809C52.5111 202.585 52.085 202.269 51.7295 201.858C51.3786 201.444 51.1097 200.947 50.9229 200.368C50.736 199.785 50.6426 199.131 50.6426 198.406V197.647C50.6426 196.923 50.7383 196.269 50.9297 195.686C51.1211 195.102 51.3945 194.605 51.75 194.195C52.11 193.781 52.5407 193.462 53.042 193.238C53.5479 193.015 54.113 192.903 54.7373 192.903C55.5485 192.903 56.2344 193.054 56.7949 193.354C57.3555 193.651 57.7907 194.059 58.1006 194.578C58.4105 195.098 58.5973 195.695 58.6611 196.369H56.7812C56.7448 195.95 56.6536 195.594 56.5078 195.303C56.3665 195.011 56.1523 194.79 55.8652 194.64C55.5827 194.485 55.2067 194.407 54.7373 194.407C54.3727 194.407 54.0514 194.476 53.7734 194.612C53.5 194.749 53.2721 194.954 53.0898 195.228C52.9076 195.496 52.7708 195.834 52.6797 196.239C52.5885 196.64 52.543 197.105 52.543 197.634V198.406C52.543 198.912 52.584 199.366 52.666 199.767C52.748 200.168 52.8757 200.507 53.0488 200.785C53.222 201.063 53.4453 201.275 53.7188 201.421C53.9922 201.567 54.318 201.64 54.6963 201.64C55.1566 201.64 55.5303 201.567 55.8174 201.421C56.109 201.275 56.3301 201.061 56.4805 200.778C56.6354 200.496 56.7334 200.145 56.7744 199.726ZM61.7441 192.5V203H59.9326V192.5H61.7441ZM61.457 199.035H60.9238C60.9238 198.52 60.9922 198.046 61.1289 197.613C61.2656 197.18 61.4593 196.804 61.71 196.485C61.9606 196.162 62.2591 195.911 62.6055 195.733C62.9564 195.556 63.3438 195.467 63.7676 195.467C64.1322 195.467 64.4626 195.519 64.7588 195.624C65.0596 195.724 65.3171 195.886 65.5312 196.109C65.7454 196.333 65.9095 196.624 66.0234 196.984C66.1419 197.34 66.2012 197.773 66.2012 198.283V203H64.3828V198.27C64.3828 197.928 64.3327 197.659 64.2324 197.463C64.1322 197.262 63.9886 197.119 63.8018 197.032C63.6195 196.946 63.3939 196.902 63.125 196.902C62.8333 196.902 62.5827 196.959 62.373 197.073C62.1634 197.183 61.9902 197.335 61.8535 197.531C61.7214 197.727 61.6211 197.953 61.5527 198.208C61.4889 198.463 61.457 198.739 61.457 199.035ZM71.1162 203.137C70.5557 203.137 70.0521 203.046 69.6055 202.863C69.1589 202.681 68.7783 202.428 68.4639 202.104C68.154 201.776 67.9147 201.396 67.7461 200.963C67.582 200.525 67.5 200.056 67.5 199.555V199.281C67.5 198.712 67.582 198.194 67.7461 197.729C67.9102 197.26 68.1426 196.857 68.4434 196.52C68.7441 196.182 69.1042 195.923 69.5234 195.74C69.9427 195.558 70.4053 195.467 70.9111 195.467C71.4352 195.467 71.8978 195.556 72.2988 195.733C72.6999 195.907 73.0348 196.153 73.3037 196.472C73.5726 196.791 73.7754 197.174 73.9121 197.62C74.0488 198.062 74.1172 198.552 74.1172 199.09V199.849H68.3203V198.604H72.3398V198.468C72.3307 198.181 72.276 197.919 72.1758 197.682C72.0755 197.44 71.9206 197.249 71.7109 197.107C71.5013 196.962 71.2301 196.889 70.8975 196.889C70.6286 196.889 70.3939 196.948 70.1934 197.066C69.9974 197.18 69.8333 197.344 69.7012 197.559C69.5736 197.768 69.4779 198.019 69.4141 198.311C69.3503 198.602 69.3184 198.926 69.3184 199.281V199.555C69.3184 199.865 69.3594 200.152 69.4414 200.416C69.528 200.68 69.6533 200.91 69.8174 201.106C69.986 201.298 70.1865 201.448 70.4189 201.558C70.6559 201.662 70.9248 201.715 71.2256 201.715C71.6038 201.715 71.9456 201.642 72.251 201.496C72.5609 201.346 72.8298 201.125 73.0576 200.833L73.9668 201.776C73.8118 202.004 73.6022 202.223 73.3379 202.433C73.0781 202.642 72.7637 202.813 72.3945 202.945C72.0254 203.073 71.5993 203.137 71.1162 203.137ZM77.125 197.121V203H75.3203V195.604H77.0225L77.125 197.121ZM76.8584 199.035H76.3047C76.3047 198.52 76.3662 198.046 76.4893 197.613C76.6169 197.18 76.8037 196.804 77.0498 196.485C77.2959 196.162 77.599 195.911 77.959 195.733C78.3236 195.556 78.7451 195.467 79.2236 195.467C79.5563 195.467 79.8617 195.517 80.1396 195.617C80.4176 195.713 80.6569 195.866 80.8574 196.075C81.0625 196.28 81.2197 196.549 81.3291 196.882C81.4385 197.21 81.4932 197.604 81.4932 198.064V203H79.6885V198.249C79.6885 197.903 79.6383 197.632 79.5381 197.436C79.4424 197.24 79.3034 197.103 79.1211 197.025C78.9388 196.943 78.7201 196.902 78.4648 196.902C78.1823 196.902 77.9385 196.959 77.7334 197.073C77.5329 197.183 77.3665 197.335 77.2344 197.531C77.1068 197.727 77.0111 197.953 76.9473 198.208C76.888 198.463 76.8584 198.739 76.8584 199.035ZM81.3564 198.7L80.6113 198.837C80.6159 198.372 80.6797 197.937 80.8027 197.531C80.9258 197.121 81.1058 196.763 81.3428 196.458C81.5843 196.148 81.8828 195.907 82.2383 195.733C82.5983 195.556 83.013 195.467 83.4824 195.467C83.847 195.467 84.1751 195.519 84.4668 195.624C84.763 195.724 85.016 195.886 85.2256 196.109C85.4352 196.328 85.5947 196.613 85.7041 196.964C85.818 197.315 85.875 197.743 85.875 198.249V203H84.0566V198.242C84.0566 197.882 84.0065 197.606 83.9062 197.415C83.8105 197.224 83.6715 197.091 83.4893 197.019C83.307 196.941 83.0928 196.902 82.8467 196.902C82.596 196.902 82.3773 196.95 82.1904 197.046C82.0081 197.137 81.8532 197.265 81.7256 197.429C81.6025 197.593 81.5091 197.784 81.4453 198.003C81.3861 198.217 81.3564 198.45 81.3564 198.7ZM89.4092 195.604V203H87.5977V195.604H89.4092ZM87.4746 193.669C87.4746 193.4 87.5658 193.177 87.748 192.999C87.9349 192.821 88.1855 192.732 88.5 192.732C88.8145 192.732 89.0628 192.821 89.2451 192.999C89.432 193.177 89.5254 193.4 89.5254 193.669C89.5254 193.933 89.432 194.154 89.2451 194.332C89.0628 194.51 88.8145 194.599 88.5 194.599C88.1855 194.599 87.9349 194.51 87.748 194.332C87.5658 194.154 87.4746 193.933 87.4746 193.669ZM95.1992 200.977C95.1992 200.822 95.1582 200.683 95.0762 200.56C94.9941 200.437 94.8392 200.325 94.6113 200.225C94.388 200.12 94.0599 200.022 93.627 199.931C93.2441 199.849 92.891 199.746 92.5674 199.623C92.2438 199.5 91.9658 199.352 91.7334 199.179C91.501 199.001 91.3187 198.794 91.1865 198.557C91.0589 198.315 90.9951 198.037 90.9951 197.723C90.9951 197.417 91.0612 197.13 91.1934 196.861C91.3255 196.588 91.5169 196.349 91.7676 196.144C92.0182 195.934 92.3236 195.77 92.6836 195.651C93.0436 195.528 93.4492 195.467 93.9004 195.467C94.5293 195.467 95.0693 195.569 95.5205 195.774C95.9762 195.979 96.3249 196.262 96.5664 196.622C96.8079 196.978 96.9287 197.379 96.9287 197.825H95.124C95.124 197.629 95.0785 197.451 94.9873 197.292C94.9007 197.132 94.7663 197.005 94.584 196.909C94.4017 196.809 94.1715 196.759 93.8936 196.759C93.6429 196.759 93.431 196.8 93.2578 196.882C93.0892 196.964 92.9616 197.071 92.875 197.203C92.7884 197.335 92.7451 197.481 92.7451 197.641C92.7451 197.759 92.7679 197.866 92.8135 197.962C92.8636 198.053 92.9434 198.137 93.0527 198.215C93.1621 198.292 93.3102 198.363 93.4971 198.427C93.6885 198.491 93.9232 198.552 94.2012 198.611C94.7526 198.721 95.2334 198.867 95.6436 199.049C96.0583 199.227 96.3818 199.464 96.6143 199.76C96.8467 200.056 96.9629 200.434 96.9629 200.895C96.9629 201.223 96.8923 201.523 96.751 201.797C96.6097 202.066 96.4046 202.3 96.1357 202.501C95.8669 202.701 95.5456 202.859 95.1719 202.973C94.7982 203.082 94.3766 203.137 93.9072 203.137C93.2282 203.137 92.654 203.016 92.1846 202.774C91.7152 202.528 91.3597 202.218 91.1182 201.845C90.8766 201.466 90.7559 201.075 90.7559 200.669H92.4854C92.499 200.956 92.5765 201.186 92.7178 201.359C92.859 201.533 93.0368 201.658 93.251 201.735C93.4697 201.808 93.6999 201.845 93.9414 201.845C94.2148 201.845 94.445 201.808 94.6318 201.735C94.8187 201.658 94.96 201.555 95.0557 201.428C95.1514 201.296 95.1992 201.145 95.1992 200.977ZM101.837 195.604V196.902H97.5986V195.604H101.837ZM98.7334 193.785H100.545V200.867C100.545 201.086 100.575 201.255 100.634 201.373C100.693 201.492 100.782 201.571 100.9 201.612C101.019 201.653 101.16 201.674 101.324 201.674C101.443 201.674 101.552 201.667 101.652 201.653C101.753 201.64 101.837 201.626 101.905 201.612L101.912 202.966C101.762 203.016 101.591 203.057 101.399 203.089C101.213 203.121 101.001 203.137 100.764 203.137C100.358 203.137 100.003 203.068 99.6973 202.932C99.3919 202.79 99.1549 202.565 98.9863 202.255C98.8177 201.94 98.7334 201.526 98.7334 201.011V193.785ZM104.845 197.114V203H103.04V195.604H104.749L104.845 197.114ZM107.094 195.556L107.066 197.237C106.966 197.219 106.852 197.205 106.725 197.196C106.602 197.187 106.485 197.183 106.376 197.183C106.098 197.183 105.854 197.221 105.645 197.299C105.435 197.372 105.259 197.479 105.118 197.62C104.981 197.761 104.877 197.935 104.804 198.14C104.731 198.34 104.69 198.568 104.681 198.823L104.291 198.775C104.291 198.306 104.339 197.871 104.435 197.47C104.53 197.069 104.669 196.718 104.852 196.417C105.034 196.116 105.262 195.884 105.535 195.72C105.813 195.551 106.132 195.467 106.492 195.467C106.592 195.467 106.7 195.476 106.813 195.494C106.932 195.508 107.025 195.528 107.094 195.556ZM110.375 202.18L112.357 195.604H114.292L111.325 204.121C111.257 204.303 111.168 204.502 111.059 204.716C110.954 204.93 110.812 205.133 110.635 205.324C110.457 205.52 110.234 205.68 109.965 205.803C109.701 205.926 109.379 205.987 109.001 205.987C108.837 205.987 108.691 205.976 108.563 205.953C108.436 205.93 108.301 205.901 108.16 205.864V204.511C108.206 204.515 108.258 204.518 108.317 204.518C108.381 204.522 108.436 204.524 108.481 204.524C108.746 204.524 108.965 204.493 109.138 204.429C109.311 204.369 109.45 204.271 109.555 204.135C109.664 204.003 109.755 203.829 109.828 203.615L110.375 202.18ZM109.397 195.604L111.072 201.052L111.366 202.959L110.122 203.185L107.449 195.604H109.397Z" fill="#535353"/>
<path d="M345.321 235.279C345.321 235.899 345.175 236.423 344.884 236.852C344.597 237.275 344.202 237.597 343.701 237.815C343.204 238.03 342.639 238.137 342.006 238.137C341.377 238.137 340.81 238.03 340.304 237.815C339.802 237.597 339.404 237.275 339.107 236.852C338.816 236.423 338.67 235.899 338.67 235.279C338.67 234.865 338.752 234.489 338.916 234.151C339.085 233.814 339.317 233.525 339.613 233.283C339.91 233.037 340.26 232.85 340.666 232.723C341.072 232.59 341.514 232.524 341.992 232.524C342.63 232.524 343.2 232.641 343.701 232.873C344.207 233.101 344.604 233.422 344.891 233.837C345.178 234.247 345.321 234.728 345.321 235.279ZM343.503 235.17C343.503 234.851 343.439 234.575 343.312 234.343C343.188 234.106 343.013 233.924 342.785 233.796C342.557 233.668 342.293 233.604 341.992 233.604C341.687 233.604 341.42 233.668 341.192 233.796C340.969 233.924 340.794 234.106 340.666 234.343C340.543 234.575 340.481 234.851 340.481 235.17C340.481 235.493 340.543 235.771 340.666 236.004C340.794 236.232 340.971 236.407 341.199 236.53C341.427 236.653 341.696 236.715 342.006 236.715C342.316 236.715 342.582 236.653 342.806 236.53C343.029 236.407 343.2 236.232 343.318 236.004C343.441 235.771 343.503 235.493 343.503 235.17ZM345.103 230.672C345.103 231.173 344.97 231.62 344.706 232.012C344.442 232.399 344.075 232.702 343.605 232.921C343.141 233.14 342.607 233.249 342.006 233.249C341.404 233.249 340.867 233.14 340.393 232.921C339.923 232.702 339.554 232.399 339.285 232.012C339.021 231.62 338.889 231.173 338.889 230.672C338.889 230.079 339.023 229.578 339.292 229.168C339.561 228.753 339.928 228.439 340.393 228.225C340.862 228.01 341.395 227.903 341.992 227.903C342.598 227.903 343.136 228.01 343.605 228.225C344.075 228.439 344.442 228.753 344.706 229.168C344.97 229.578 345.103 230.079 345.103 230.672ZM343.298 230.747C343.298 230.465 343.245 230.218 343.141 230.009C343.036 229.795 342.885 229.628 342.689 229.51C342.498 229.391 342.266 229.332 341.992 229.332C341.728 229.332 341.5 229.389 341.309 229.503C341.117 229.617 340.969 229.781 340.864 229.995C340.759 230.205 340.707 230.455 340.707 230.747C340.707 231.034 340.759 231.285 340.864 231.499C340.969 231.713 341.117 231.882 341.309 232.005C341.505 232.123 341.737 232.183 342.006 232.183C342.275 232.183 342.505 232.123 342.696 232.005C342.888 231.882 343.036 231.713 343.141 231.499C343.245 231.285 343.298 231.034 343.298 230.747ZM348.507 233.42L347.064 233.071L347.618 228.047H353.094V229.544H349.115L348.855 231.868C348.997 231.782 349.202 231.695 349.471 231.608C349.744 231.517 350.052 231.472 350.394 231.472C350.868 231.472 351.291 231.549 351.665 231.704C352.039 231.854 352.355 232.073 352.615 232.36C352.88 232.647 353.078 232.998 353.21 233.413C353.347 233.823 353.415 234.288 353.415 234.808C353.415 235.263 353.347 235.692 353.21 236.093C353.078 236.489 352.875 236.842 352.602 237.152C352.328 237.458 351.984 237.699 351.569 237.877C351.155 238.05 350.667 238.137 350.106 238.137C349.683 238.137 349.275 238.075 348.883 237.952C348.495 237.825 348.147 237.64 347.837 237.398C347.527 237.152 347.279 236.852 347.092 236.496C346.91 236.141 346.809 235.733 346.791 235.272H348.575C348.607 235.578 348.689 235.838 348.821 236.052C348.953 236.266 349.127 236.43 349.341 236.544C349.56 236.658 349.812 236.715 350.1 236.715C350.359 236.715 350.583 236.667 350.77 236.571C350.961 236.471 351.118 236.332 351.241 236.154C351.364 235.977 351.455 235.767 351.515 235.525C351.574 235.284 351.604 235.02 351.604 234.732C351.604 234.454 351.569 234.201 351.501 233.974C351.433 233.741 351.328 233.541 351.187 233.372C351.045 233.203 350.868 233.074 350.653 232.982C350.444 232.891 350.198 232.846 349.915 232.846C349.537 232.846 349.245 232.903 349.04 233.017C348.84 233.131 348.662 233.265 348.507 233.42ZM354.666 230.487V229.961C354.666 229.583 354.748 229.239 354.912 228.929C355.076 228.619 355.315 228.37 355.63 228.184C355.949 227.997 356.336 227.903 356.792 227.903C357.257 227.903 357.646 227.997 357.961 228.184C358.28 228.37 358.519 228.619 358.679 228.929C358.843 229.239 358.925 229.583 358.925 229.961V230.487C358.925 230.856 358.843 231.196 358.679 231.506C358.519 231.816 358.282 232.064 357.968 232.251C357.653 232.438 357.266 232.531 356.806 232.531C356.345 232.531 355.956 232.438 355.637 232.251C355.318 232.064 355.076 231.816 354.912 231.506C354.748 231.196 354.666 230.856 354.666 230.487ZM355.89 229.961V230.487C355.89 230.66 355.922 230.825 355.985 230.979C356.054 231.13 356.156 231.253 356.293 231.349C356.43 231.444 356.601 231.492 356.806 231.492C357.011 231.492 357.177 231.444 357.305 231.349C357.437 231.253 357.535 231.13 357.599 230.979C357.667 230.825 357.701 230.66 357.701 230.487V229.961C357.701 229.783 357.667 229.617 357.599 229.462C357.535 229.307 357.435 229.182 357.298 229.086C357.166 228.99 356.997 228.942 356.792 228.942C356.591 228.942 356.423 228.99 356.286 229.086C356.154 229.182 356.054 229.307 355.985 229.462C355.922 229.617 355.89 229.783 355.89 229.961ZM359.444 236.086V235.56C359.444 235.186 359.526 234.844 359.69 234.534C359.859 234.224 360.103 233.976 360.422 233.789C360.741 233.602 361.126 233.509 361.577 233.509C362.047 233.509 362.438 233.602 362.753 233.789C363.067 233.976 363.304 234.224 363.464 234.534C363.628 234.844 363.71 235.186 363.71 235.56V236.086C363.71 236.46 363.628 236.801 363.464 237.111C363.304 237.421 363.067 237.67 362.753 237.856C362.443 238.043 362.058 238.137 361.598 238.137C361.137 238.137 360.745 238.043 360.422 237.856C360.103 237.67 359.859 237.421 359.69 237.111C359.526 236.801 359.444 236.46 359.444 236.086ZM360.675 235.56V236.086C360.675 236.264 360.711 236.43 360.784 236.585C360.857 236.735 360.962 236.858 361.099 236.954C361.24 237.05 361.404 237.098 361.591 237.098C361.819 237.098 361.999 237.05 362.131 236.954C362.263 236.858 362.356 236.735 362.411 236.585C362.466 236.43 362.493 236.264 362.493 236.086V235.56C362.493 235.382 362.459 235.218 362.391 235.067C362.322 234.912 362.22 234.787 362.083 234.691C361.951 234.596 361.782 234.548 361.577 234.548C361.377 234.548 361.208 234.596 361.071 234.691C360.939 234.787 360.839 234.912 360.771 235.067C360.707 235.218 360.675 235.382 360.675 235.56ZM362.028 229.469L357.168 237.248L356.272 236.749L361.133 228.97L362.028 229.469Z" fill="#535353"/>
<rect x="50" y="264" width="315" height="8" rx="4" fill="#EEEEEE"/>
<rect x="50" y="264" width="186" height="8" rx="4" fill="#E84FAB"/>
<path d="M51.7705 243.047H53.3975L56.1182 250.539L58.832 243.047H60.4658L56.7676 253H55.4619L51.7705 243.047ZM50.9502 243.047H52.543L52.8301 249.931V253H50.9502V243.047ZM59.6865 243.047H61.2861V253H59.4062V249.931L59.6865 243.047ZM67.1377 251.428V248.017C67.1377 247.766 67.0944 247.549 67.0078 247.367C66.9212 247.185 66.7891 247.044 66.6113 246.943C66.4336 246.843 66.208 246.793 65.9346 246.793C65.693 246.793 65.4811 246.834 65.2988 246.916C65.1211 246.998 64.9844 247.114 64.8887 247.265C64.793 247.41 64.7451 247.579 64.7451 247.771H62.9336C62.9336 247.465 63.0065 247.176 63.1523 246.902C63.2982 246.624 63.5055 246.378 63.7744 246.164C64.0479 245.945 64.3737 245.774 64.752 245.651C65.1348 245.528 65.5632 245.467 66.0371 245.467C66.5977 245.467 67.0967 245.562 67.5342 245.754C67.9762 245.941 68.3226 246.223 68.5732 246.602C68.8285 246.98 68.9561 247.456 68.9561 248.03V251.257C68.9561 251.626 68.9788 251.943 69.0244 252.207C69.0745 252.467 69.1475 252.692 69.2432 252.884V253H67.4043C67.3177 252.813 67.2516 252.576 67.2061 252.289C67.1605 251.997 67.1377 251.71 67.1377 251.428ZM67.3906 248.495L67.4043 249.568H66.2627C65.9801 249.568 65.7318 249.598 65.5176 249.657C65.3034 249.712 65.1279 249.794 64.9912 249.903C64.8545 250.008 64.752 250.136 64.6836 250.286C64.6152 250.432 64.5811 250.598 64.5811 250.785C64.5811 250.967 64.6221 251.132 64.7041 251.277C64.7907 251.423 64.9137 251.539 65.0732 251.626C65.2373 251.708 65.4287 251.749 65.6475 251.749C65.9665 251.749 66.2445 251.685 66.4814 251.558C66.7184 251.425 66.903 251.266 67.0352 251.079C67.1673 250.892 67.238 250.715 67.2471 250.546L67.7666 251.325C67.7028 251.512 67.6071 251.71 67.4795 251.92C67.3519 252.13 67.1878 252.326 66.9873 252.508C66.7868 252.69 66.5452 252.84 66.2627 252.959C65.9801 253.077 65.652 253.137 65.2783 253.137C64.7998 253.137 64.3714 253.041 63.9932 252.85C63.6149 252.658 63.3164 252.396 63.0977 252.063C62.8789 251.731 62.7695 251.353 62.7695 250.929C62.7695 250.537 62.8424 250.19 62.9883 249.89C63.1341 249.589 63.3506 249.336 63.6377 249.131C63.9248 248.921 64.2803 248.764 64.7041 248.659C65.1325 248.55 65.6224 248.495 66.1738 248.495H67.3906ZM74.083 245.604V246.902H69.8447V245.604H74.083ZM70.9795 243.785H72.791V250.867C72.791 251.086 72.8206 251.255 72.8799 251.373C72.9391 251.492 73.028 251.571 73.1465 251.612C73.265 251.653 73.4062 251.674 73.5703 251.674C73.6888 251.674 73.7982 251.667 73.8984 251.653C73.9987 251.64 74.083 251.626 74.1514 251.612L74.1582 252.966C74.0078 253.016 73.8369 253.057 73.6455 253.089C73.4587 253.121 73.2467 253.137 73.0098 253.137C72.6042 253.137 72.2487 253.068 71.9434 252.932C71.638 252.79 71.401 252.565 71.2324 252.255C71.0638 251.94 70.9795 251.526 70.9795 251.011V243.785ZM77.0566 242.5V253H75.2451V242.5H77.0566ZM76.7695 249.035H76.2363C76.2363 248.52 76.3047 248.046 76.4414 247.613C76.5781 247.18 76.7718 246.804 77.0225 246.485C77.2731 246.162 77.5716 245.911 77.918 245.733C78.2689 245.556 78.6562 245.467 79.0801 245.467C79.4447 245.467 79.7751 245.519 80.0713 245.624C80.3721 245.724 80.6296 245.886 80.8438 246.109C81.0579 246.333 81.222 246.624 81.3359 246.984C81.4544 247.34 81.5137 247.773 81.5137 248.283V253H79.6953V248.27C79.6953 247.928 79.6452 247.659 79.5449 247.463C79.4447 247.262 79.3011 247.119 79.1143 247.032C78.932 246.946 78.7064 246.902 78.4375 246.902C78.1458 246.902 77.8952 246.959 77.6855 247.073C77.4759 247.183 77.3027 247.335 77.166 247.531C77.0339 247.727 76.9336 247.953 76.8652 248.208C76.8014 248.463 76.7695 248.739 76.7695 249.035ZM86.4287 253.137C85.8682 253.137 85.3646 253.046 84.918 252.863C84.4714 252.681 84.0908 252.428 83.7764 252.104C83.4665 251.776 83.2272 251.396 83.0586 250.963C82.8945 250.525 82.8125 250.056 82.8125 249.555V249.281C82.8125 248.712 82.8945 248.194 83.0586 247.729C83.2227 247.26 83.4551 246.857 83.7559 246.52C84.0566 246.182 84.4167 245.923 84.8359 245.74C85.2552 245.558 85.7178 245.467 86.2236 245.467C86.7477 245.467 87.2103 245.556 87.6113 245.733C88.0124 245.907 88.3473 246.153 88.6162 246.472C88.8851 246.791 89.0879 247.174 89.2246 247.62C89.3613 248.062 89.4297 248.552 89.4297 249.09V249.849H83.6328V248.604H87.6523V248.468C87.6432 248.181 87.5885 247.919 87.4883 247.682C87.388 247.44 87.2331 247.249 87.0234 247.107C86.8138 246.962 86.5426 246.889 86.21 246.889C85.9411 246.889 85.7064 246.948 85.5059 247.066C85.3099 247.18 85.1458 247.344 85.0137 247.559C84.8861 247.768 84.7904 248.019 84.7266 248.311C84.6628 248.602 84.6309 248.926 84.6309 249.281V249.555C84.6309 249.865 84.6719 250.152 84.7539 250.416C84.8405 250.68 84.9658 250.91 85.1299 251.106C85.2985 251.298 85.499 251.448 85.7314 251.558C85.9684 251.662 86.2373 251.715 86.5381 251.715C86.9163 251.715 87.2581 251.642 87.5635 251.496C87.8734 251.346 88.1423 251.125 88.3701 250.833L89.2793 251.776C89.1243 252.004 88.9147 252.223 88.6504 252.433C88.3906 252.642 88.0762 252.813 87.707 252.945C87.3379 253.073 86.9118 253.137 86.4287 253.137ZM92.4375 247.121V253H90.6328V245.604H92.335L92.4375 247.121ZM92.1709 249.035H91.6172C91.6172 248.52 91.6787 248.046 91.8018 247.613C91.9294 247.18 92.1162 246.804 92.3623 246.485C92.6084 246.162 92.9115 245.911 93.2715 245.733C93.6361 245.556 94.0576 245.467 94.5361 245.467C94.8688 245.467 95.1742 245.517 95.4521 245.617C95.7301 245.713 95.9694 245.866 96.1699 246.075C96.375 246.28 96.5322 246.549 96.6416 246.882C96.751 247.21 96.8057 247.604 96.8057 248.064V253H95.001V248.249C95.001 247.903 94.9508 247.632 94.8506 247.436C94.7549 247.24 94.6159 247.103 94.4336 247.025C94.2513 246.943 94.0326 246.902 93.7773 246.902C93.4948 246.902 93.251 246.959 93.0459 247.073C92.8454 247.183 92.679 247.335 92.5469 247.531C92.4193 247.727 92.3236 247.953 92.2598 248.208C92.2005 248.463 92.1709 248.739 92.1709 249.035ZM96.6689 248.7L95.9238 248.837C95.9284 248.372 95.9922 247.937 96.1152 247.531C96.2383 247.121 96.4183 246.763 96.6553 246.458C96.8968 246.148 97.1953 245.907 97.5508 245.733C97.9108 245.556 98.3255 245.467 98.7949 245.467C99.1595 245.467 99.4876 245.519 99.7793 245.624C100.076 245.724 100.328 245.886 100.538 246.109C100.748 246.328 100.907 246.613 101.017 246.964C101.131 247.315 101.188 247.743 101.188 248.249V253H99.3691V248.242C99.3691 247.882 99.319 247.606 99.2188 247.415C99.123 247.224 98.984 247.091 98.8018 247.019C98.6195 246.941 98.4053 246.902 98.1592 246.902C97.9085 246.902 97.6898 246.95 97.5029 247.046C97.3206 247.137 97.1657 247.265 97.0381 247.429C96.915 247.593 96.8216 247.784 96.7578 248.003C96.6986 248.217 96.6689 248.45 96.6689 248.7ZM106.882 251.428V248.017C106.882 247.766 106.839 247.549 106.752 247.367C106.665 247.185 106.533 247.044 106.355 246.943C106.178 246.843 105.952 246.793 105.679 246.793C105.437 246.793 105.225 246.834 105.043 246.916C104.865 246.998 104.729 247.114 104.633 247.265C104.537 247.41 104.489 247.579 104.489 247.771H102.678C102.678 247.465 102.751 247.176 102.896 246.902C103.042 246.624 103.25 246.378 103.519 246.164C103.792 245.945 104.118 245.774 104.496 245.651C104.879 245.528 105.307 245.467 105.781 245.467C106.342 245.467 106.841 245.562 107.278 245.754C107.72 245.941 108.067 246.223 108.317 246.602C108.573 246.98 108.7 247.456 108.7 248.03V251.257C108.7 251.626 108.723 251.943 108.769 252.207C108.819 252.467 108.892 252.692 108.987 252.884V253H107.148C107.062 252.813 106.996 252.576 106.95 252.289C106.905 251.997 106.882 251.71 106.882 251.428ZM107.135 248.495L107.148 249.568H106.007C105.724 249.568 105.476 249.598 105.262 249.657C105.048 249.712 104.872 249.794 104.735 249.903C104.599 250.008 104.496 250.136 104.428 250.286C104.359 250.432 104.325 250.598 104.325 250.785C104.325 250.967 104.366 251.132 104.448 251.277C104.535 251.423 104.658 251.539 104.817 251.626C104.981 251.708 105.173 251.749 105.392 251.749C105.711 251.749 105.989 251.685 106.226 251.558C106.463 251.425 106.647 251.266 106.779 251.079C106.911 250.892 106.982 250.715 106.991 250.546L107.511 251.325C107.447 251.512 107.351 251.71 107.224 251.92C107.096 252.13 106.932 252.326 106.731 252.508C106.531 252.69 106.289 252.84 106.007 252.959C105.724 253.077 105.396 253.137 105.022 253.137C104.544 253.137 104.116 253.041 103.737 252.85C103.359 252.658 103.061 252.396 102.842 252.063C102.623 251.731 102.514 251.353 102.514 250.929C102.514 250.537 102.587 250.19 102.732 249.89C102.878 249.589 103.095 249.336 103.382 249.131C103.669 248.921 104.024 248.764 104.448 248.659C104.877 248.55 105.367 248.495 105.918 248.495H107.135ZM113.827 245.604V246.902H109.589V245.604H113.827ZM110.724 243.785H112.535V250.867C112.535 251.086 112.565 251.255 112.624 251.373C112.683 251.492 112.772 251.571 112.891 251.612C113.009 251.653 113.15 251.674 113.314 251.674C113.433 251.674 113.542 251.667 113.643 251.653C113.743 251.64 113.827 251.626 113.896 251.612L113.902 252.966C113.752 253.016 113.581 253.057 113.39 253.089C113.203 253.121 112.991 253.137 112.754 253.137C112.348 253.137 111.993 253.068 111.688 252.932C111.382 252.79 111.145 252.565 110.977 252.255C110.808 251.94 110.724 251.526 110.724 251.011V243.785ZM116.944 245.604V253H115.133V245.604H116.944ZM115.01 243.669C115.01 243.4 115.101 243.177 115.283 242.999C115.47 242.821 115.721 242.732 116.035 242.732C116.35 242.732 116.598 242.821 116.78 242.999C116.967 243.177 117.061 243.4 117.061 243.669C117.061 243.933 116.967 244.154 116.78 244.332C116.598 244.51 116.35 244.599 116.035 244.599C115.721 244.599 115.47 244.51 115.283 244.332C115.101 244.154 115.01 243.933 115.01 243.669ZM121.702 251.715C121.957 251.715 122.185 251.665 122.386 251.564C122.586 251.464 122.746 251.323 122.864 251.141C122.987 250.958 123.053 250.746 123.062 250.505H124.765C124.756 251.006 124.614 251.455 124.341 251.852C124.067 252.248 123.703 252.562 123.247 252.795C122.796 253.023 122.29 253.137 121.729 253.137C121.16 253.137 120.663 253.041 120.239 252.85C119.815 252.658 119.462 252.392 119.18 252.05C118.902 251.708 118.692 251.312 118.551 250.86C118.414 250.409 118.346 249.926 118.346 249.411V249.192C118.346 248.677 118.414 248.194 118.551 247.743C118.692 247.292 118.902 246.896 119.18 246.554C119.462 246.212 119.815 245.945 120.239 245.754C120.663 245.562 121.158 245.467 121.723 245.467C122.32 245.467 122.844 245.583 123.295 245.815C123.751 246.048 124.106 246.376 124.361 246.8C124.621 247.224 124.756 247.723 124.765 248.297H123.062C123.053 248.033 122.994 247.796 122.885 247.586C122.775 247.376 122.62 247.208 122.42 247.08C122.219 246.952 121.976 246.889 121.688 246.889C121.383 246.889 121.128 246.952 120.923 247.08C120.722 247.208 120.565 247.383 120.451 247.606C120.342 247.825 120.264 248.071 120.219 248.345C120.178 248.614 120.157 248.896 120.157 249.192V249.411C120.157 249.712 120.178 249.999 120.219 250.272C120.264 250.546 120.342 250.792 120.451 251.011C120.565 251.225 120.722 251.396 120.923 251.523C121.128 251.651 121.388 251.715 121.702 251.715ZM130.035 250.977C130.035 250.822 129.994 250.683 129.912 250.56C129.83 250.437 129.675 250.325 129.447 250.225C129.224 250.12 128.896 250.022 128.463 249.931C128.08 249.849 127.727 249.746 127.403 249.623C127.08 249.5 126.802 249.352 126.569 249.179C126.337 249.001 126.155 248.794 126.022 248.557C125.895 248.315 125.831 248.037 125.831 247.723C125.831 247.417 125.897 247.13 126.029 246.861C126.161 246.588 126.353 246.349 126.604 246.144C126.854 245.934 127.16 245.77 127.52 245.651C127.88 245.528 128.285 245.467 128.736 245.467C129.365 245.467 129.905 245.569 130.356 245.774C130.812 245.979 131.161 246.262 131.402 246.622C131.644 246.978 131.765 247.379 131.765 247.825H129.96C129.96 247.629 129.914 247.451 129.823 247.292C129.737 247.132 129.602 247.005 129.42 246.909C129.238 246.809 129.007 246.759 128.729 246.759C128.479 246.759 128.267 246.8 128.094 246.882C127.925 246.964 127.798 247.071 127.711 247.203C127.624 247.335 127.581 247.481 127.581 247.641C127.581 247.759 127.604 247.866 127.649 247.962C127.7 248.053 127.779 248.137 127.889 248.215C127.998 248.292 128.146 248.363 128.333 248.427C128.524 248.491 128.759 248.552 129.037 248.611C129.589 248.721 130.069 248.867 130.479 249.049C130.894 249.227 131.218 249.464 131.45 249.76C131.683 250.056 131.799 250.434 131.799 250.895C131.799 251.223 131.728 251.523 131.587 251.797C131.446 252.066 131.241 252.3 130.972 252.501C130.703 252.701 130.382 252.859 130.008 252.973C129.634 253.082 129.213 253.137 128.743 253.137C128.064 253.137 127.49 253.016 127.021 252.774C126.551 252.528 126.196 252.218 125.954 251.845C125.713 251.466 125.592 251.075 125.592 250.669H127.321C127.335 250.956 127.412 251.186 127.554 251.359C127.695 251.533 127.873 251.658 128.087 251.735C128.306 251.808 128.536 251.845 128.777 251.845C129.051 251.845 129.281 251.808 129.468 251.735C129.655 251.658 129.796 251.555 129.892 251.428C129.987 251.296 130.035 251.145 130.035 250.977Z" fill="#535353"/>
<path d="M343.742 277.965H343.988V279.421H343.872C343.321 279.421 342.835 279.505 342.416 279.674C342.001 279.842 341.655 280.079 341.377 280.385C341.104 280.686 340.896 281.043 340.755 281.458C340.614 281.868 340.543 282.317 340.543 282.805V284.418C340.543 284.796 340.582 285.129 340.659 285.416C340.741 285.699 340.853 285.938 340.994 286.134C341.14 286.325 341.309 286.469 341.5 286.564C341.696 286.66 341.91 286.708 342.143 286.708C342.375 286.708 342.585 286.66 342.771 286.564C342.958 286.469 343.118 286.334 343.25 286.161C343.387 285.983 343.489 285.776 343.558 285.539C343.631 285.302 343.667 285.042 343.667 284.76C343.667 284.482 343.633 284.224 343.564 283.987C343.496 283.75 343.396 283.543 343.264 283.365C343.132 283.183 342.967 283.044 342.771 282.948C342.58 282.848 342.361 282.798 342.115 282.798C341.796 282.798 341.511 282.873 341.261 283.023C341.01 283.169 340.812 283.361 340.666 283.598C340.52 283.835 340.44 284.085 340.427 284.35L339.818 284.049C339.841 283.661 339.923 283.306 340.064 282.982C340.21 282.659 340.404 282.376 340.646 282.135C340.892 281.893 341.181 281.706 341.514 281.574C341.851 281.442 342.225 281.376 342.635 281.376C343.109 281.376 343.523 281.467 343.879 281.649C344.234 281.827 344.528 282.071 344.761 282.381C344.998 282.691 345.175 283.049 345.294 283.454C345.412 283.855 345.472 284.279 345.472 284.726C345.472 285.204 345.394 285.651 345.239 286.065C345.089 286.48 344.87 286.842 344.583 287.152C344.296 287.462 343.95 287.704 343.544 287.877C343.138 288.05 342.683 288.137 342.177 288.137C341.644 288.137 341.165 288.036 340.741 287.836C340.322 287.635 339.962 287.357 339.661 287.002C339.36 286.646 339.13 286.232 338.971 285.758C338.811 285.284 338.731 284.771 338.731 284.22V283.495C338.731 282.716 338.839 281.991 339.053 281.321C339.267 280.651 339.584 280.066 340.003 279.564C340.427 279.059 340.951 278.667 341.575 278.389C342.2 278.106 342.922 277.965 343.742 277.965ZM348.691 282.224H349.71C350.07 282.224 350.366 282.162 350.599 282.039C350.836 281.911 351.011 281.738 351.125 281.52C351.243 281.296 351.303 281.039 351.303 280.747C351.303 280.46 351.25 280.212 351.146 280.002C351.041 279.788 350.881 279.624 350.667 279.51C350.457 279.391 350.188 279.332 349.86 279.332C349.596 279.332 349.352 279.384 349.129 279.489C348.91 279.594 348.735 279.744 348.603 279.94C348.475 280.132 348.411 280.362 348.411 280.631H346.6C346.6 280.093 346.741 279.621 347.023 279.216C347.311 278.806 347.698 278.484 348.186 278.252C348.673 278.02 349.218 277.903 349.819 277.903C350.476 277.903 351.05 278.013 351.542 278.231C352.039 278.446 352.424 278.762 352.697 279.182C352.975 279.601 353.114 280.12 353.114 280.74C353.114 281.036 353.044 281.333 352.902 281.629C352.766 281.921 352.563 282.185 352.294 282.422C352.03 282.654 351.704 282.843 351.316 282.989C350.934 283.131 350.494 283.201 349.997 283.201H348.691V282.224ZM348.691 283.618V282.654H349.997C350.558 282.654 351.043 282.72 351.453 282.853C351.868 282.98 352.21 283.162 352.479 283.399C352.747 283.632 352.946 283.903 353.073 284.213C353.205 284.523 353.271 284.855 353.271 285.211C353.271 285.676 353.185 286.09 353.012 286.455C352.839 286.815 352.595 287.12 352.28 287.371C351.97 287.622 351.606 287.813 351.187 287.945C350.767 288.073 350.314 288.137 349.826 288.137C349.402 288.137 348.99 288.08 348.589 287.966C348.192 287.847 347.835 287.672 347.516 287.439C347.197 287.202 346.944 286.906 346.757 286.551C346.57 286.191 346.477 285.774 346.477 285.3H348.288C348.288 285.573 348.354 285.817 348.486 286.031C348.623 286.245 348.81 286.414 349.047 286.537C349.288 286.656 349.56 286.715 349.86 286.715C350.193 286.715 350.478 286.656 350.715 286.537C350.956 286.414 351.141 286.241 351.269 286.018C351.396 285.79 351.46 285.519 351.46 285.204C351.46 284.83 351.389 284.527 351.248 284.295C351.107 284.062 350.904 283.892 350.64 283.782C350.38 283.673 350.07 283.618 349.71 283.618H348.691ZM354.666 280.487V279.961C354.666 279.583 354.748 279.239 354.912 278.929C355.076 278.619 355.315 278.37 355.63 278.184C355.949 277.997 356.336 277.903 356.792 277.903C357.257 277.903 357.646 277.997 357.961 278.184C358.28 278.37 358.519 278.619 358.679 278.929C358.843 279.239 358.925 279.583 358.925 279.961V280.487C358.925 280.856 358.843 281.196 358.679 281.506C358.519 281.816 358.282 282.064 357.968 282.251C357.653 282.438 357.266 282.531 356.806 282.531C356.345 282.531 355.956 282.438 355.637 282.251C355.318 282.064 355.076 281.816 354.912 281.506C354.748 281.196 354.666 280.856 354.666 280.487ZM355.89 279.961V280.487C355.89 280.66 355.922 280.825 355.985 280.979C356.054 281.13 356.156 281.253 356.293 281.349C356.43 281.444 356.601 281.492 356.806 281.492C357.011 281.492 357.177 281.444 357.305 281.349C357.437 281.253 357.535 281.13 357.599 280.979C357.667 280.825 357.701 280.66 357.701 280.487V279.961C357.701 279.783 357.667 279.617 357.599 279.462C357.535 279.307 357.435 279.182 357.298 279.086C357.166 278.99 356.997 278.942 356.792 278.942C356.591 278.942 356.423 278.99 356.286 279.086C356.154 279.182 356.054 279.307 355.985 279.462C355.922 279.617 355.89 279.783 355.89 279.961ZM359.444 286.086V285.56C359.444 285.186 359.526 284.844 359.69 284.534C359.859 284.224 360.103 283.976 360.422 283.789C360.741 283.602 361.126 283.509 361.577 283.509C362.047 283.509 362.438 283.602 362.753 283.789C363.067 283.976 363.304 284.224 363.464 284.534C363.628 284.844 363.71 285.186 363.71 285.56V286.086C363.71 286.46 363.628 286.801 363.464 287.111C363.304 287.421 363.067 287.67 362.753 287.856C362.443 288.043 362.058 288.137 361.598 288.137C361.137 288.137 360.745 288.043 360.422 287.856C360.103 287.67 359.859 287.421 359.69 287.111C359.526 286.801 359.444 286.46 359.444 286.086ZM360.675 285.56V286.086C360.675 286.264 360.711 286.43 360.784 286.585C360.857 286.735 360.962 286.858 361.099 286.954C361.24 287.05 361.404 287.098 361.591 287.098C361.819 287.098 361.999 287.05 362.131 286.954C362.263 286.858 362.356 286.735 362.411 286.585C362.466 286.43 362.493 286.264 362.493 286.086V285.56C362.493 285.382 362.459 285.218 362.391 285.067C362.322 284.912 362.22 284.787 362.083 284.691C361.951 284.596 361.782 284.548 361.577 284.548C361.377 284.548 361.208 284.596 361.071 284.691C360.939 284.787 360.839 284.912 360.771 285.067C360.707 285.218 360.675 285.382 360.675 285.56ZM362.028 279.469L357.168 287.248L356.272 286.749L361.133 278.97L362.028 279.469Z" fill="#535353"/>
<rect x="49" y="314" width="315" height="8" rx="4" fill="#EEEEEE"/>
<rect x="49" y="314" width="186" height="8" rx="4" fill="#6F45BF"/>
<path d="M55.1592 300.416C55.1592 300.225 55.1296 300.054 55.0703 299.903C55.0156 299.748 54.9131 299.609 54.7627 299.486C54.6169 299.359 54.4095 299.236 54.1406 299.117C53.8763 298.994 53.5345 298.867 53.1152 298.734C52.6504 298.589 52.2174 298.424 51.8164 298.242C51.4154 298.06 51.0622 297.848 50.7568 297.606C50.4561 297.365 50.2214 297.087 50.0527 296.772C49.8841 296.453 49.7998 296.084 49.7998 295.665C49.7998 295.255 49.8864 294.881 50.0596 294.544C50.2373 294.207 50.488 293.917 50.8115 293.676C51.1351 293.43 51.5156 293.241 51.9531 293.108C52.3952 292.976 52.8828 292.91 53.416 292.91C54.1543 292.91 54.7923 293.045 55.3301 293.313C55.8724 293.582 56.2917 293.947 56.5879 294.407C56.8841 294.868 57.0322 295.385 57.0322 295.959H55.1592C55.1592 295.649 55.0931 295.376 54.9609 295.139C54.8333 294.902 54.6374 294.715 54.373 294.578C54.1133 294.441 53.7852 294.373 53.3887 294.373C53.0059 294.373 52.6868 294.43 52.4316 294.544C52.181 294.658 51.9919 294.813 51.8643 295.009C51.7412 295.205 51.6797 295.424 51.6797 295.665C51.6797 295.847 51.723 296.011 51.8096 296.157C51.8962 296.299 52.026 296.433 52.1992 296.561C52.3724 296.684 52.5866 296.8 52.8418 296.909C53.1016 297.014 53.4023 297.119 53.7441 297.224C54.291 297.388 54.7695 297.57 55.1797 297.771C55.5944 297.971 55.9385 298.199 56.2119 298.454C56.4899 298.709 56.6973 298.996 56.834 299.315C56.9753 299.634 57.0459 299.997 57.0459 300.402C57.0459 300.831 56.9616 301.214 56.793 301.551C56.6243 301.888 56.3828 302.175 56.0684 302.412C55.7539 302.649 55.3757 302.829 54.9336 302.952C54.4961 303.075 54.0062 303.137 53.4639 303.137C52.9808 303.137 52.5023 303.073 52.0283 302.945C51.5589 302.813 51.1328 302.617 50.75 302.357C50.3672 302.093 50.0618 301.76 49.834 301.359C49.6061 300.954 49.4922 300.48 49.4922 299.938H51.3789C51.3789 300.252 51.429 300.521 51.5293 300.744C51.6341 300.963 51.7799 301.143 51.9668 301.284C52.1582 301.421 52.3815 301.521 52.6367 301.585C52.8919 301.649 53.1676 301.681 53.4639 301.681C53.8467 301.681 54.1611 301.628 54.4072 301.523C54.6579 301.414 54.8447 301.264 54.9678 301.072C55.0954 300.881 55.1592 300.662 55.1592 300.416ZM61.3936 301.715C61.6488 301.715 61.8766 301.665 62.0771 301.564C62.2777 301.464 62.4372 301.323 62.5557 301.141C62.6787 300.958 62.7448 300.746 62.7539 300.505H64.4561C64.4469 301.006 64.3057 301.455 64.0322 301.852C63.7588 302.248 63.3942 302.562 62.9385 302.795C62.4873 303.023 61.9814 303.137 61.4209 303.137C60.8512 303.137 60.3545 303.041 59.9307 302.85C59.5068 302.658 59.1536 302.392 58.8711 302.05C58.5931 301.708 58.3835 301.312 58.2422 300.86C58.1055 300.409 58.0371 299.926 58.0371 299.411V299.192C58.0371 298.677 58.1055 298.194 58.2422 297.743C58.3835 297.292 58.5931 296.896 58.8711 296.554C59.1536 296.212 59.5068 295.945 59.9307 295.754C60.3545 295.562 60.849 295.467 61.4141 295.467C62.0111 295.467 62.5352 295.583 62.9863 295.815C63.4421 296.048 63.7975 296.376 64.0527 296.8C64.3125 297.224 64.4469 297.723 64.4561 298.297H62.7539C62.7448 298.033 62.6855 297.796 62.5762 297.586C62.4668 297.376 62.3118 297.208 62.1113 297.08C61.9108 296.952 61.667 296.889 61.3799 296.889C61.0745 296.889 60.8193 296.952 60.6143 297.08C60.4137 297.208 60.2565 297.383 60.1426 297.606C60.0332 297.825 59.9557 298.071 59.9102 298.345C59.8691 298.614 59.8486 298.896 59.8486 299.192V299.411C59.8486 299.712 59.8691 299.999 59.9102 300.272C59.9557 300.546 60.0332 300.792 60.1426 301.011C60.2565 301.225 60.4137 301.396 60.6143 301.523C60.8193 301.651 61.0791 301.715 61.3936 301.715ZM67.5732 295.604V303H65.7617V295.604H67.5732ZM65.6387 293.669C65.6387 293.4 65.7298 293.177 65.9121 292.999C66.099 292.821 66.3496 292.732 66.6641 292.732C66.9785 292.732 67.2269 292.821 67.4092 292.999C67.596 293.177 67.6895 293.4 67.6895 293.669C67.6895 293.933 67.596 294.154 67.4092 294.332C67.2269 294.51 66.9785 294.599 66.6641 294.599C66.3496 294.599 66.099 294.51 65.9121 294.332C65.7298 294.154 65.6387 293.933 65.6387 293.669ZM72.6182 303.137C72.0576 303.137 71.554 303.046 71.1074 302.863C70.6608 302.681 70.2803 302.428 69.9658 302.104C69.6559 301.776 69.4167 301.396 69.248 300.963C69.084 300.525 69.002 300.056 69.002 299.555V299.281C69.002 298.712 69.084 298.194 69.248 297.729C69.4121 297.26 69.6445 296.857 69.9453 296.52C70.2461 296.182 70.6061 295.923 71.0254 295.74C71.4447 295.558 71.9072 295.467 72.4131 295.467C72.9372 295.467 73.3997 295.556 73.8008 295.733C74.2018 295.907 74.5368 296.153 74.8057 296.472C75.0745 296.791 75.2773 297.174 75.4141 297.62C75.5508 298.062 75.6191 298.552 75.6191 299.09V299.849H69.8223V298.604H73.8418V298.468C73.8327 298.181 73.778 297.919 73.6777 297.682C73.5775 297.44 73.4225 297.249 73.2129 297.107C73.0033 296.962 72.7321 296.889 72.3994 296.889C72.1305 296.889 71.8958 296.948 71.6953 297.066C71.4993 297.18 71.3353 297.344 71.2031 297.559C71.0755 297.768 70.9798 298.019 70.916 298.311C70.8522 298.602 70.8203 298.926 70.8203 299.281V299.555C70.8203 299.865 70.8613 300.152 70.9434 300.416C71.0299 300.68 71.1553 300.91 71.3193 301.106C71.488 301.298 71.6885 301.448 71.9209 301.558C72.1579 301.662 72.4268 301.715 72.7275 301.715C73.1058 301.715 73.4476 301.642 73.7529 301.496C74.0628 301.346 74.3317 301.125 74.5596 300.833L75.4688 301.776C75.3138 302.004 75.1042 302.223 74.8398 302.433C74.5801 302.642 74.2656 302.813 73.8965 302.945C73.5273 303.073 73.1012 303.137 72.6182 303.137ZM78.5996 297.183V303H76.7949V295.604H78.4902L78.5996 297.183ZM78.3125 299.035H77.7793C77.7839 298.497 77.8568 298.01 77.998 297.572C78.1393 297.135 78.3376 296.759 78.5928 296.444C78.8525 296.13 79.1602 295.888 79.5156 295.72C79.8711 295.551 80.2676 295.467 80.7051 295.467C81.0605 295.467 81.3818 295.517 81.6689 295.617C81.9561 295.717 82.2021 295.877 82.4072 296.096C82.6169 296.314 82.7764 296.602 82.8857 296.957C82.9997 297.308 83.0566 297.741 83.0566 298.256V303H81.2383V298.242C81.2383 297.905 81.1882 297.638 81.0879 297.442C80.9922 297.246 80.8509 297.107 80.6641 297.025C80.4818 296.943 80.2562 296.902 79.9873 296.902C79.7093 296.902 79.4655 296.959 79.2559 297.073C79.0508 297.183 78.8776 297.335 78.7363 297.531C78.5996 297.727 78.4948 297.953 78.4219 298.208C78.349 298.463 78.3125 298.739 78.3125 299.035ZM87.6846 301.715C87.9398 301.715 88.1676 301.665 88.3682 301.564C88.5687 301.464 88.7282 301.323 88.8467 301.141C88.9697 300.958 89.0358 300.746 89.0449 300.505H90.7471C90.738 301.006 90.5967 301.455 90.3232 301.852C90.0498 302.248 89.6852 302.562 89.2295 302.795C88.7783 303.023 88.2725 303.137 87.7119 303.137C87.1423 303.137 86.6455 303.041 86.2217 302.85C85.7979 302.658 85.4447 302.392 85.1621 302.05C84.8841 301.708 84.6745 301.312 84.5332 300.86C84.3965 300.409 84.3281 299.926 84.3281 299.411V299.192C84.3281 298.677 84.3965 298.194 84.5332 297.743C84.6745 297.292 84.8841 296.896 85.1621 296.554C85.4447 296.212 85.7979 295.945 86.2217 295.754C86.6455 295.562 87.14 295.467 87.7051 295.467C88.3021 295.467 88.8262 295.583 89.2773 295.815C89.7331 296.048 90.0885 296.376 90.3438 296.8C90.6035 297.224 90.738 297.723 90.7471 298.297H89.0449C89.0358 298.033 88.9766 297.796 88.8672 297.586C88.7578 297.376 88.6029 297.208 88.4023 297.08C88.2018 296.952 87.958 296.889 87.6709 296.889C87.3656 296.889 87.1104 296.952 86.9053 297.08C86.7048 297.208 86.5475 297.383 86.4336 297.606C86.3242 297.825 86.2467 298.071 86.2012 298.345C86.1602 298.614 86.1396 298.896 86.1396 299.192V299.411C86.1396 299.712 86.1602 299.999 86.2012 300.272C86.2467 300.546 86.3242 300.792 86.4336 301.011C86.5475 301.225 86.7048 301.396 86.9053 301.523C87.1104 301.651 87.3701 301.715 87.6846 301.715ZM95.2725 303.137C94.7119 303.137 94.2083 303.046 93.7617 302.863C93.3151 302.681 92.9346 302.428 92.6201 302.104C92.3102 301.776 92.071 301.396 91.9023 300.963C91.7383 300.525 91.6562 300.056 91.6562 299.555V299.281C91.6562 298.712 91.7383 298.194 91.9023 297.729C92.0664 297.26 92.2988 296.857 92.5996 296.52C92.9004 296.182 93.2604 295.923 93.6797 295.74C94.099 295.558 94.5615 295.467 95.0674 295.467C95.5915 295.467 96.054 295.556 96.4551 295.733C96.8561 295.907 97.1911 296.153 97.46 296.472C97.7288 296.791 97.9316 297.174 98.0684 297.62C98.2051 298.062 98.2734 298.552 98.2734 299.09V299.849H92.4766V298.604H96.4961V298.468C96.487 298.181 96.4323 297.919 96.332 297.682C96.2318 297.44 96.0768 297.249 95.8672 297.107C95.6576 296.962 95.3864 296.889 95.0537 296.889C94.7848 296.889 94.5501 296.948 94.3496 297.066C94.1536 297.18 93.9896 297.344 93.8574 297.559C93.7298 297.768 93.6341 298.019 93.5703 298.311C93.5065 298.602 93.4746 298.926 93.4746 299.281V299.555C93.4746 299.865 93.5156 300.152 93.5977 300.416C93.6842 300.68 93.8096 300.91 93.9736 301.106C94.1423 301.298 94.3428 301.448 94.5752 301.558C94.8122 301.662 95.0811 301.715 95.3818 301.715C95.7601 301.715 96.1019 301.642 96.4072 301.496C96.7171 301.346 96.986 301.125 97.2139 300.833L98.123 301.776C97.9681 302.004 97.7585 302.223 97.4941 302.433C97.2344 302.642 96.9199 302.813 96.5508 302.945C96.1816 303.073 95.7555 303.137 95.2725 303.137Z" fill="#535353"/>
<path d="M342.742 327.965H342.988V329.421H342.872C342.321 329.421 341.835 329.505 341.416 329.674C341.001 329.842 340.655 330.079 340.377 330.385C340.104 330.686 339.896 331.043 339.755 331.458C339.614 331.868 339.543 332.317 339.543 332.805V334.418C339.543 334.796 339.582 335.129 339.659 335.416C339.741 335.699 339.853 335.938 339.994 336.134C340.14 336.325 340.309 336.469 340.5 336.564C340.696 336.66 340.91 336.708 341.143 336.708C341.375 336.708 341.585 336.66 341.771 336.564C341.958 336.469 342.118 336.334 342.25 336.161C342.387 335.983 342.489 335.776 342.558 335.539C342.631 335.302 342.667 335.042 342.667 334.76C342.667 334.482 342.633 334.224 342.564 333.987C342.496 333.75 342.396 333.543 342.264 333.365C342.132 333.183 341.967 333.044 341.771 332.948C341.58 332.848 341.361 332.798 341.115 332.798C340.796 332.798 340.511 332.873 340.261 333.023C340.01 333.169 339.812 333.361 339.666 333.598C339.52 333.835 339.44 334.085 339.427 334.35L338.818 334.049C338.841 333.661 338.923 333.306 339.064 332.982C339.21 332.659 339.404 332.376 339.646 332.135C339.892 331.893 340.181 331.706 340.514 331.574C340.851 331.442 341.225 331.376 341.635 331.376C342.109 331.376 342.523 331.467 342.879 331.649C343.234 331.827 343.528 332.071 343.761 332.381C343.998 332.691 344.175 333.049 344.294 333.454C344.412 333.855 344.472 334.279 344.472 334.726C344.472 335.204 344.394 335.651 344.239 336.065C344.089 336.48 343.87 336.842 343.583 337.152C343.296 337.462 342.95 337.704 342.544 337.877C342.138 338.05 341.683 338.137 341.177 338.137C340.644 338.137 340.165 338.036 339.741 337.836C339.322 337.635 338.962 337.357 338.661 337.002C338.36 336.646 338.13 336.232 337.971 335.758C337.811 335.284 337.731 334.771 337.731 334.22V333.495C337.731 332.716 337.839 331.991 338.053 331.321C338.267 330.651 338.584 330.066 339.003 329.564C339.427 329.059 339.951 328.667 340.575 328.389C341.2 328.106 341.922 327.965 342.742 327.965ZM347.691 332.224H348.71C349.07 332.224 349.366 332.162 349.599 332.039C349.836 331.911 350.011 331.738 350.125 331.52C350.243 331.296 350.303 331.039 350.303 330.747C350.303 330.46 350.25 330.212 350.146 330.002C350.041 329.788 349.881 329.624 349.667 329.51C349.457 329.391 349.188 329.332 348.86 329.332C348.596 329.332 348.352 329.384 348.129 329.489C347.91 329.594 347.735 329.744 347.603 329.94C347.475 330.132 347.411 330.362 347.411 330.631H345.6C345.6 330.093 345.741 329.621 346.023 329.216C346.311 328.806 346.698 328.484 347.186 328.252C347.673 328.02 348.218 327.903 348.819 327.903C349.476 327.903 350.05 328.013 350.542 328.231C351.039 328.446 351.424 328.762 351.697 329.182C351.975 329.601 352.114 330.12 352.114 330.74C352.114 331.036 352.044 331.333 351.902 331.629C351.766 331.921 351.563 332.185 351.294 332.422C351.03 332.654 350.704 332.843 350.316 332.989C349.934 333.131 349.494 333.201 348.997 333.201H347.691V332.224ZM347.691 333.618V332.654H348.997C349.558 332.654 350.043 332.72 350.453 332.853C350.868 332.98 351.21 333.162 351.479 333.399C351.747 333.632 351.946 333.903 352.073 334.213C352.205 334.523 352.271 334.855 352.271 335.211C352.271 335.676 352.185 336.09 352.012 336.455C351.839 336.815 351.595 337.12 351.28 337.371C350.97 337.622 350.606 337.813 350.187 337.945C349.767 338.073 349.314 338.137 348.826 338.137C348.402 338.137 347.99 338.08 347.589 337.966C347.192 337.847 346.835 337.672 346.516 337.439C346.197 337.202 345.944 336.906 345.757 336.551C345.57 336.191 345.477 335.774 345.477 335.3H347.288C347.288 335.573 347.354 335.817 347.486 336.031C347.623 336.245 347.81 336.414 348.047 336.537C348.288 336.656 348.56 336.715 348.86 336.715C349.193 336.715 349.478 336.656 349.715 336.537C349.956 336.414 350.141 336.241 350.269 336.018C350.396 335.79 350.46 335.519 350.46 335.204C350.46 334.83 350.389 334.527 350.248 334.295C350.107 334.062 349.904 333.892 349.64 333.782C349.38 333.673 349.07 333.618 348.71 333.618H347.691ZM353.666 330.487V329.961C353.666 329.583 353.748 329.239 353.912 328.929C354.076 328.619 354.315 328.37 354.63 328.184C354.949 327.997 355.336 327.903 355.792 327.903C356.257 327.903 356.646 327.997 356.961 328.184C357.28 328.37 357.519 328.619 357.679 328.929C357.843 329.239 357.925 329.583 357.925 329.961V330.487C357.925 330.856 357.843 331.196 357.679 331.506C357.519 331.816 357.282 332.064 356.968 332.251C356.653 332.438 356.266 332.531 355.806 332.531C355.345 332.531 354.956 332.438 354.637 332.251C354.318 332.064 354.076 331.816 353.912 331.506C353.748 331.196 353.666 330.856 353.666 330.487ZM354.89 329.961V330.487C354.89 330.66 354.922 330.825 354.985 330.979C355.054 331.13 355.156 331.253 355.293 331.349C355.43 331.444 355.601 331.492 355.806 331.492C356.011 331.492 356.177 331.444 356.305 331.349C356.437 331.253 356.535 331.13 356.599 330.979C356.667 330.825 356.701 330.66 356.701 330.487V329.961C356.701 329.783 356.667 329.617 356.599 329.462C356.535 329.307 356.435 329.182 356.298 329.086C356.166 328.99 355.997 328.942 355.792 328.942C355.591 328.942 355.423 328.99 355.286 329.086C355.154 329.182 355.054 329.307 354.985 329.462C354.922 329.617 354.89 329.783 354.89 329.961ZM358.444 336.086V335.56C358.444 335.186 358.526 334.844 358.69 334.534C358.859 334.224 359.103 333.976 359.422 333.789C359.741 333.602 360.126 333.509 360.577 333.509C361.047 333.509 361.438 333.602 361.753 333.789C362.067 333.976 362.304 334.224 362.464 334.534C362.628 334.844 362.71 335.186 362.71 335.56V336.086C362.71 336.46 362.628 336.801 362.464 337.111C362.304 337.421 362.067 337.67 361.753 337.856C361.443 338.043 361.058 338.137 360.598 338.137C360.137 338.137 359.745 338.043 359.422 337.856C359.103 337.67 358.859 337.421 358.69 337.111C358.526 336.801 358.444 336.46 358.444 336.086ZM359.675 335.56V336.086C359.675 336.264 359.711 336.43 359.784 336.585C359.857 336.735 359.962 336.858 360.099 336.954C360.24 337.05 360.404 337.098 360.591 337.098C360.819 337.098 360.999 337.05 361.131 336.954C361.263 336.858 361.356 336.735 361.411 336.585C361.466 336.43 361.493 336.264 361.493 336.086V335.56C361.493 335.382 361.459 335.218 361.391 335.067C361.322 334.912 361.22 334.787 361.083 334.691C360.951 334.596 360.782 334.548 360.577 334.548C360.377 334.548 360.208 334.596 360.071 334.691C359.939 334.787 359.839 334.912 359.771 335.067C359.707 335.218 359.675 335.382 359.675 335.56ZM361.028 329.469L356.168 337.248L355.272 336.749L360.133 328.97L361.028 329.469Z" fill="#535353"/>
<rect x="50" y="364" width="315" height="8" rx="4" fill="#EEEEEE"/>
<rect x="50" y="364" width="314" height="8" rx="4" fill="#0068FF"/>
<path d="M56.1592 350.416C56.1592 350.225 56.1296 350.054 56.0703 349.903C56.0156 349.748 55.9131 349.609 55.7627 349.486C55.6169 349.359 55.4095 349.236 55.1406 349.117C54.8763 348.994 54.5345 348.867 54.1152 348.734C53.6504 348.589 53.2174 348.424 52.8164 348.242C52.4154 348.06 52.0622 347.848 51.7568 347.606C51.4561 347.365 51.2214 347.087 51.0527 346.772C50.8841 346.453 50.7998 346.084 50.7998 345.665C50.7998 345.255 50.8864 344.881 51.0596 344.544C51.2373 344.207 51.488 343.917 51.8115 343.676C52.1351 343.43 52.5156 343.241 52.9531 343.108C53.3952 342.976 53.8828 342.91 54.416 342.91C55.1543 342.91 55.7923 343.045 56.3301 343.313C56.8724 343.582 57.2917 343.947 57.5879 344.407C57.8841 344.868 58.0322 345.385 58.0322 345.959H56.1592C56.1592 345.649 56.0931 345.376 55.9609 345.139C55.8333 344.902 55.6374 344.715 55.373 344.578C55.1133 344.441 54.7852 344.373 54.3887 344.373C54.0059 344.373 53.6868 344.43 53.4316 344.544C53.181 344.658 52.9919 344.813 52.8643 345.009C52.7412 345.205 52.6797 345.424 52.6797 345.665C52.6797 345.847 52.723 346.011 52.8096 346.157C52.8962 346.299 53.026 346.433 53.1992 346.561C53.3724 346.684 53.5866 346.8 53.8418 346.909C54.1016 347.014 54.4023 347.119 54.7441 347.224C55.291 347.388 55.7695 347.57 56.1797 347.771C56.5944 347.971 56.9385 348.199 57.2119 348.454C57.4899 348.709 57.6973 348.996 57.834 349.315C57.9753 349.634 58.0459 349.997 58.0459 350.402C58.0459 350.831 57.9616 351.214 57.793 351.551C57.6243 351.888 57.3828 352.175 57.0684 352.412C56.7539 352.649 56.3757 352.829 55.9336 352.952C55.4961 353.075 55.0062 353.137 54.4639 353.137C53.9808 353.137 53.5023 353.073 53.0283 352.945C52.5589 352.813 52.1328 352.617 51.75 352.357C51.3672 352.093 51.0618 351.76 50.834 351.359C50.6061 350.954 50.4922 350.48 50.4922 349.938H52.3789C52.3789 350.252 52.429 350.521 52.5293 350.744C52.6341 350.963 52.7799 351.143 52.9668 351.284C53.1582 351.421 53.3815 351.521 53.6367 351.585C53.8919 351.649 54.1676 351.681 54.4639 351.681C54.8467 351.681 55.1611 351.628 55.4072 351.523C55.6579 351.414 55.8447 351.264 55.9678 351.072C56.0954 350.881 56.1592 350.662 56.1592 350.416ZM62.3936 351.715C62.6488 351.715 62.8766 351.665 63.0771 351.564C63.2777 351.464 63.4372 351.323 63.5557 351.141C63.6787 350.958 63.7448 350.746 63.7539 350.505H65.4561C65.4469 351.006 65.3057 351.455 65.0322 351.852C64.7588 352.248 64.3942 352.562 63.9385 352.795C63.4873 353.023 62.9814 353.137 62.4209 353.137C61.8512 353.137 61.3545 353.041 60.9307 352.85C60.5068 352.658 60.1536 352.392 59.8711 352.05C59.5931 351.708 59.3835 351.312 59.2422 350.86C59.1055 350.409 59.0371 349.926 59.0371 349.411V349.192C59.0371 348.677 59.1055 348.194 59.2422 347.743C59.3835 347.292 59.5931 346.896 59.8711 346.554C60.1536 346.212 60.5068 345.945 60.9307 345.754C61.3545 345.562 61.849 345.467 62.4141 345.467C63.0111 345.467 63.5352 345.583 63.9863 345.815C64.4421 346.048 64.7975 346.376 65.0527 346.8C65.3125 347.224 65.4469 347.723 65.4561 348.297H63.7539C63.7448 348.033 63.6855 347.796 63.5762 347.586C63.4668 347.376 63.3118 347.208 63.1113 347.08C62.9108 346.952 62.667 346.889 62.3799 346.889C62.0745 346.889 61.8193 346.952 61.6143 347.08C61.4137 347.208 61.2565 347.383 61.1426 347.606C61.0332 347.825 60.9557 348.071 60.9102 348.345C60.8691 348.614 60.8486 348.896 60.8486 349.192V349.411C60.8486 349.712 60.8691 349.999 60.9102 350.272C60.9557 350.546 61.0332 350.792 61.1426 351.011C61.2565 351.225 61.4137 351.396 61.6143 351.523C61.8193 351.651 62.0791 351.715 62.3936 351.715ZM68.5732 345.604V353H66.7617V345.604H68.5732ZM66.6387 343.669C66.6387 343.4 66.7298 343.177 66.9121 342.999C67.099 342.821 67.3496 342.732 67.6641 342.732C67.9785 342.732 68.2269 342.821 68.4092 342.999C68.596 343.177 68.6895 343.4 68.6895 343.669C68.6895 343.933 68.596 344.154 68.4092 344.332C68.2269 344.51 67.9785 344.599 67.6641 344.599C67.3496 344.599 67.099 344.51 66.9121 344.332C66.7298 344.154 66.6387 343.933 66.6387 343.669ZM73.6182 353.137C73.0576 353.137 72.554 353.046 72.1074 352.863C71.6608 352.681 71.2803 352.428 70.9658 352.104C70.6559 351.776 70.4167 351.396 70.248 350.963C70.084 350.525 70.002 350.056 70.002 349.555V349.281C70.002 348.712 70.084 348.194 70.248 347.729C70.4121 347.26 70.6445 346.857 70.9453 346.52C71.2461 346.182 71.6061 345.923 72.0254 345.74C72.4447 345.558 72.9072 345.467 73.4131 345.467C73.9372 345.467 74.3997 345.556 74.8008 345.733C75.2018 345.907 75.5368 346.153 75.8057 346.472C76.0745 346.791 76.2773 347.174 76.4141 347.62C76.5508 348.062 76.6191 348.552 76.6191 349.09V349.849H70.8223V348.604H74.8418V348.468C74.8327 348.181 74.778 347.919 74.6777 347.682C74.5775 347.44 74.4225 347.249 74.2129 347.107C74.0033 346.962 73.7321 346.889 73.3994 346.889C73.1305 346.889 72.8958 346.948 72.6953 347.066C72.4993 347.18 72.3353 347.344 72.2031 347.559C72.0755 347.768 71.9798 348.019 71.916 348.311C71.8522 348.602 71.8203 348.926 71.8203 349.281V349.555C71.8203 349.865 71.8613 350.152 71.9434 350.416C72.0299 350.68 72.1553 350.91 72.3193 351.106C72.488 351.298 72.6885 351.448 72.9209 351.558C73.1579 351.662 73.4268 351.715 73.7275 351.715C74.1058 351.715 74.4476 351.642 74.7529 351.496C75.0628 351.346 75.3317 351.125 75.5596 350.833L76.4688 351.776C76.3138 352.004 76.1042 352.223 75.8398 352.433C75.5801 352.642 75.2656 352.813 74.8965 352.945C74.5273 353.073 74.1012 353.137 73.6182 353.137ZM79.5996 347.183V353H77.7949V345.604H79.4902L79.5996 347.183ZM79.3125 349.035H78.7793C78.7839 348.497 78.8568 348.01 78.998 347.572C79.1393 347.135 79.3376 346.759 79.5928 346.444C79.8525 346.13 80.1602 345.888 80.5156 345.72C80.8711 345.551 81.2676 345.467 81.7051 345.467C82.0605 345.467 82.3818 345.517 82.6689 345.617C82.9561 345.717 83.2021 345.877 83.4072 346.096C83.6169 346.314 83.7764 346.602 83.8857 346.957C83.9997 347.308 84.0566 347.741 84.0566 348.256V353H82.2383V348.242C82.2383 347.905 82.1882 347.638 82.0879 347.442C81.9922 347.246 81.8509 347.107 81.6641 347.025C81.4818 346.943 81.2562 346.902 80.9873 346.902C80.7093 346.902 80.4655 346.959 80.2559 347.073C80.0508 347.183 79.8776 347.335 79.7363 347.531C79.5996 347.727 79.4948 347.953 79.4219 348.208C79.349 348.463 79.3125 348.739 79.3125 349.035ZM88.6846 351.715C88.9398 351.715 89.1676 351.665 89.3682 351.564C89.5687 351.464 89.7282 351.323 89.8467 351.141C89.9697 350.958 90.0358 350.746 90.0449 350.505H91.7471C91.738 351.006 91.5967 351.455 91.3232 351.852C91.0498 352.248 90.6852 352.562 90.2295 352.795C89.7783 353.023 89.2725 353.137 88.7119 353.137C88.1423 353.137 87.6455 353.041 87.2217 352.85C86.7979 352.658 86.4447 352.392 86.1621 352.05C85.8841 351.708 85.6745 351.312 85.5332 350.86C85.3965 350.409 85.3281 349.926 85.3281 349.411V349.192C85.3281 348.677 85.3965 348.194 85.5332 347.743C85.6745 347.292 85.8841 346.896 86.1621 346.554C86.4447 346.212 86.7979 345.945 87.2217 345.754C87.6455 345.562 88.14 345.467 88.7051 345.467C89.3021 345.467 89.8262 345.583 90.2773 345.815C90.7331 346.048 91.0885 346.376 91.3438 346.8C91.6035 347.224 91.738 347.723 91.7471 348.297H90.0449C90.0358 348.033 89.9766 347.796 89.8672 347.586C89.7578 347.376 89.6029 347.208 89.4023 347.08C89.2018 346.952 88.958 346.889 88.6709 346.889C88.3656 346.889 88.1104 346.952 87.9053 347.08C87.7048 347.208 87.5475 347.383 87.4336 347.606C87.3242 347.825 87.2467 348.071 87.2012 348.345C87.1602 348.614 87.1396 348.896 87.1396 349.192V349.411C87.1396 349.712 87.1602 349.999 87.2012 350.272C87.2467 350.546 87.3242 350.792 87.4336 351.011C87.5475 351.225 87.7048 351.396 87.9053 351.523C88.1104 351.651 88.3701 351.715 88.6846 351.715ZM96.2725 353.137C95.7119 353.137 95.2083 353.046 94.7617 352.863C94.3151 352.681 93.9346 352.428 93.6201 352.104C93.3102 351.776 93.071 351.396 92.9023 350.963C92.7383 350.525 92.6562 350.056 92.6562 349.555V349.281C92.6562 348.712 92.7383 348.194 92.9023 347.729C93.0664 347.26 93.2988 346.857 93.5996 346.52C93.9004 346.182 94.2604 345.923 94.6797 345.74C95.099 345.558 95.5615 345.467 96.0674 345.467C96.5915 345.467 97.054 345.556 97.4551 345.733C97.8561 345.907 98.1911 346.153 98.46 346.472C98.7288 346.791 98.9316 347.174 99.0684 347.62C99.2051 348.062 99.2734 348.552 99.2734 349.09V349.849H93.4766V348.604H97.4961V348.468C97.487 348.181 97.4323 347.919 97.332 347.682C97.2318 347.44 97.0768 347.249 96.8672 347.107C96.6576 346.962 96.3864 346.889 96.0537 346.889C95.7848 346.889 95.5501 346.948 95.3496 347.066C95.1536 347.18 94.9896 347.344 94.8574 347.559C94.7298 347.768 94.6341 348.019 94.5703 348.311C94.5065 348.602 94.4746 348.926 94.4746 349.281V349.555C94.4746 349.865 94.5156 350.152 94.5977 350.416C94.6842 350.68 94.8096 350.91 94.9736 351.106C95.1423 351.298 95.3428 351.448 95.5752 351.558C95.8122 351.662 96.0811 351.715 96.3818 351.715C96.7601 351.715 97.1019 351.642 97.4072 351.496C97.7171 351.346 97.986 351.125 98.2139 350.833L99.123 351.776C98.9681 352.004 98.7585 352.223 98.4941 352.433C98.2344 352.642 97.9199 352.813 97.5508 352.945C97.1816 353.073 96.7555 353.137 96.2725 353.137Z" fill="#535353"/>
<path d="M340.078 386.599H340.208C340.796 386.599 341.293 386.523 341.698 386.373C342.108 386.223 342.439 386.011 342.689 385.737C342.945 385.459 343.129 385.129 343.243 384.746C343.362 384.359 343.421 383.93 343.421 383.461V381.656C343.421 381.273 343.382 380.938 343.305 380.651C343.227 380.36 343.118 380.116 342.977 379.92C342.84 379.724 342.678 379.578 342.491 379.482C342.304 379.382 342.104 379.332 341.89 379.332C341.653 379.332 341.443 379.387 341.261 379.496C341.078 379.605 340.924 379.756 340.796 379.947C340.673 380.134 340.577 380.351 340.509 380.597C340.445 380.843 340.413 381.103 340.413 381.376C340.413 381.64 340.443 381.893 340.502 382.135C340.566 382.376 340.659 382.59 340.782 382.777C340.91 382.964 341.069 383.112 341.261 383.222C341.452 383.326 341.675 383.379 341.931 383.379C342.172 383.379 342.391 383.333 342.587 383.242C342.787 383.146 342.961 383.021 343.106 382.866C343.252 382.707 343.364 382.531 343.441 382.34C343.523 382.144 343.569 381.946 343.578 381.745L344.214 382.019C344.214 382.351 344.143 382.679 344.002 383.003C343.865 383.326 343.672 383.62 343.421 383.885C343.175 384.145 342.888 384.354 342.56 384.514C342.231 384.669 341.878 384.746 341.5 384.746C341.031 384.746 340.616 384.66 340.256 384.486C339.896 384.313 339.593 384.074 339.347 383.769C339.105 383.459 338.923 383.103 338.8 382.702C338.677 382.297 338.615 381.864 338.615 381.403C338.615 380.925 338.69 380.476 338.841 380.057C338.991 379.633 339.208 379.261 339.49 378.942C339.777 378.619 340.124 378.366 340.529 378.184C340.935 377.997 341.391 377.903 341.896 377.903C342.421 377.903 342.888 378.006 343.298 378.211C343.708 378.416 344.057 378.701 344.344 379.065C344.631 379.425 344.85 379.852 345 380.344C345.155 380.836 345.232 381.374 345.232 381.957V382.593C345.232 383.208 345.171 383.791 345.048 384.343C344.925 384.894 344.736 385.398 344.48 385.854C344.225 386.309 343.899 386.703 343.503 387.036C343.111 387.369 342.642 387.626 342.095 387.809C341.552 387.986 340.933 388.075 340.235 388.075H340.078V386.599ZM348.076 386.599H348.206C348.794 386.599 349.291 386.523 349.696 386.373C350.106 386.223 350.437 386.011 350.688 385.737C350.943 385.459 351.127 385.129 351.241 384.746C351.36 384.359 351.419 383.93 351.419 383.461V381.656C351.419 381.273 351.38 380.938 351.303 380.651C351.225 380.36 351.116 380.116 350.975 379.92C350.838 379.724 350.676 379.578 350.489 379.482C350.302 379.382 350.102 379.332 349.888 379.332C349.651 379.332 349.441 379.387 349.259 379.496C349.076 379.605 348.922 379.756 348.794 379.947C348.671 380.134 348.575 380.351 348.507 380.597C348.443 380.843 348.411 381.103 348.411 381.376C348.411 381.64 348.441 381.893 348.5 382.135C348.564 382.376 348.657 382.59 348.78 382.777C348.908 382.964 349.067 383.112 349.259 383.222C349.45 383.326 349.674 383.379 349.929 383.379C350.17 383.379 350.389 383.333 350.585 383.242C350.785 383.146 350.959 383.021 351.104 382.866C351.25 382.707 351.362 382.531 351.439 382.34C351.521 382.144 351.567 381.946 351.576 381.745L352.212 382.019C352.212 382.351 352.141 382.679 352 383.003C351.863 383.326 351.67 383.62 351.419 383.885C351.173 384.145 350.886 384.354 350.558 384.514C350.229 384.669 349.876 384.746 349.498 384.746C349.029 384.746 348.614 384.66 348.254 384.486C347.894 384.313 347.591 384.074 347.345 383.769C347.103 383.459 346.921 383.103 346.798 382.702C346.675 382.297 346.613 381.864 346.613 381.403C346.613 380.925 346.688 380.476 346.839 380.057C346.989 379.633 347.206 379.261 347.488 378.942C347.775 378.619 348.122 378.366 348.527 378.184C348.933 377.997 349.389 377.903 349.895 377.903C350.419 377.903 350.886 378.006 351.296 378.211C351.706 378.416 352.055 378.701 352.342 379.065C352.629 379.425 352.848 379.852 352.998 380.344C353.153 380.836 353.23 381.374 353.23 381.957V382.593C353.23 383.208 353.169 383.791 353.046 384.343C352.923 384.894 352.734 385.398 352.479 385.854C352.223 386.309 351.897 386.703 351.501 387.036C351.109 387.369 350.64 387.626 350.093 387.809C349.55 387.986 348.931 388.075 348.233 388.075H348.076V386.599ZM354.666 380.487V379.961C354.666 379.583 354.748 379.239 354.912 378.929C355.076 378.619 355.315 378.37 355.63 378.184C355.949 377.997 356.336 377.903 356.792 377.903C357.257 377.903 357.646 377.997 357.961 378.184C358.28 378.37 358.519 378.619 358.679 378.929C358.843 379.239 358.925 379.583 358.925 379.961V380.487C358.925 380.856 358.843 381.196 358.679 381.506C358.519 381.816 358.282 382.064 357.968 382.251C357.653 382.438 357.266 382.531 356.806 382.531C356.345 382.531 355.956 382.438 355.637 382.251C355.318 382.064 355.076 381.816 354.912 381.506C354.748 381.196 354.666 380.856 354.666 380.487ZM355.89 379.961V380.487C355.89 380.66 355.922 380.825 355.985 380.979C356.054 381.13 356.156 381.253 356.293 381.349C356.43 381.444 356.601 381.492 356.806 381.492C357.011 381.492 357.177 381.444 357.305 381.349C357.437 381.253 357.535 381.13 357.599 380.979C357.667 380.825 357.701 380.66 357.701 380.487V379.961C357.701 379.783 357.667 379.617 357.599 379.462C357.535 379.307 357.435 379.182 357.298 379.086C357.166 378.99 356.997 378.942 356.792 378.942C356.591 378.942 356.423 378.99 356.286 379.086C356.154 379.182 356.054 379.307 355.985 379.462C355.922 379.617 355.89 379.783 355.89 379.961ZM359.444 386.086V385.56C359.444 385.186 359.526 384.844 359.69 384.534C359.859 384.224 360.103 383.976 360.422 383.789C360.741 383.602 361.126 383.509 361.577 383.509C362.047 383.509 362.438 383.602 362.753 383.789C363.067 383.976 363.304 384.224 363.464 384.534C363.628 384.844 363.71 385.186 363.71 385.56V386.086C363.71 386.46 363.628 386.801 363.464 387.111C363.304 387.421 363.067 387.67 362.753 387.856C362.443 388.043 362.058 388.137 361.598 388.137C361.137 388.137 360.745 388.043 360.422 387.856C360.103 387.67 359.859 387.421 359.69 387.111C359.526 386.801 359.444 386.46 359.444 386.086ZM360.675 385.56V386.086C360.675 386.264 360.711 386.43 360.784 386.585C360.857 386.735 360.962 386.858 361.099 386.954C361.24 387.05 361.404 387.098 361.591 387.098C361.819 387.098 361.999 387.05 362.131 386.954C362.263 386.858 362.356 386.735 362.411 386.585C362.466 386.43 362.493 386.264 362.493 386.086V385.56C362.493 385.382 362.459 385.218 362.391 385.067C362.322 384.912 362.22 384.787 362.083 384.691C361.951 384.596 361.782 384.548 361.577 384.548C361.377 384.548 361.208 384.596 361.071 384.691C360.939 384.787 360.839 384.912 360.771 385.067C360.707 385.218 360.675 385.382 360.675 385.56ZM362.028 379.469L357.168 387.248L356.272 386.749L361.133 378.97L362.028 379.469Z" fill="#535353"/>
<path d="M123.91 10.72C123.91 11.94 123.63 13.06 123.07 14.08C122.51 15.08 121.65 15.89 120.49 16.51C119.33 17.13 117.89 17.44 116.17 17.44H112.99V25H107.86V3.94H116.17C117.85 3.94 119.27 4.23 120.43 4.81C121.59 5.39 122.46 6.19 123.04 7.21C123.62 8.23 123.91 9.4 123.91 10.72ZM115.78 13.36C116.76 13.36 117.49 13.13 117.97 12.67C118.45 12.21 118.69 11.56 118.69 10.72C118.69 9.88 118.45 9.23 117.97 8.77C117.49 8.31 116.76 8.08 115.78 8.08H112.99V13.36H115.78ZM131.711 11.05C132.311 10.13 133.061 9.41 133.961 8.89C134.861 8.35 135.861 8.08 136.961 8.08V13.51H135.551C134.271 13.51 133.311 13.79 132.671 14.35C132.031 14.89 131.711 15.85 131.711 17.23V25H126.581V8.26H131.711V11.05ZM147.033 25.24C145.393 25.24 143.913 24.89 142.593 24.19C141.293 23.49 140.263 22.49 139.503 21.19C138.763 19.89 138.393 18.37 138.393 16.63C138.393 14.91 138.773 13.4 139.533 12.1C140.293 10.78 141.333 9.77 142.653 9.07C143.973 8.37 145.453 8.02 147.093 8.02C148.733 8.02 150.213 8.37 151.533 9.07C152.853 9.77 153.893 10.78 154.653 12.1C155.413 13.4 155.793 14.91 155.793 16.63C155.793 18.35 155.403 19.87 154.623 21.19C153.863 22.49 152.813 23.49 151.473 24.19C150.153 24.89 148.673 25.24 147.033 25.24ZM147.033 20.8C148.013 20.8 148.843 20.44 149.523 19.72C150.223 19 150.573 17.97 150.573 16.63C150.573 15.29 150.233 14.26 149.553 13.54C148.893 12.82 148.073 12.46 147.093 12.46C146.093 12.46 145.263 12.82 144.603 13.54C143.943 14.24 143.613 15.27 143.613 16.63C143.613 17.97 143.933 19 144.573 19.72C145.233 20.44 146.053 20.8 147.033 20.8ZM166.914 12.52H164.154V25H159.024V12.52H157.164V8.26H159.024V7.78C159.024 5.72 159.614 4.16 160.794 3.1C161.974 2.02 163.704 1.48 165.984 1.48C166.364 1.48 166.644 1.49 166.824 1.51V5.86C165.844 5.8 165.154 5.94 164.754 6.28C164.354 6.62 164.154 7.23 164.154 8.11V8.26H166.914V12.52ZM171.905 6.52C171.005 6.52 170.265 6.26 169.685 5.74C169.125 5.2 168.845 4.54 168.845 3.76C168.845 2.96 169.125 2.3 169.685 1.78C170.265 1.24 171.005 0.969998 171.905 0.969998C172.785 0.969998 173.505 1.24 174.065 1.78C174.645 2.3 174.935 2.96 174.935 3.76C174.935 4.54 174.645 5.2 174.065 5.74C173.505 6.26 172.785 6.52 171.905 6.52ZM174.455 8.26V25H169.325V8.26H174.455ZM177.153 16.63C177.153 14.89 177.503 13.37 178.203 12.07C178.923 10.77 179.913 9.77 181.173 9.07C182.453 8.37 183.913 8.02 185.553 8.02C187.653 8.02 189.403 8.57 190.803 9.67C192.223 10.77 193.153 12.32 193.593 14.32H188.133C187.673 13.04 186.783 12.4 185.463 12.4C184.523 12.4 183.773 12.77 183.213 13.51C182.653 14.23 182.373 15.27 182.373 16.63C182.373 17.99 182.653 19.04 183.213 19.78C183.773 20.5 184.523 20.86 185.463 20.86C186.783 20.86 187.673 20.22 188.133 18.94H193.593C193.153 20.9 192.223 22.44 190.803 23.56C189.383 24.68 187.633 25.24 185.553 25.24C183.913 25.24 182.453 24.89 181.173 24.19C179.913 23.49 178.923 22.49 178.203 21.19C177.503 19.89 177.153 18.37 177.153 16.63ZM198.917 6.52C198.017 6.52 197.277 6.26 196.697 5.74C196.137 5.2 195.857 4.54 195.857 3.76C195.857 2.96 196.137 2.3 196.697 1.78C197.277 1.24 198.017 0.969998 198.917 0.969998C199.797 0.969998 200.517 1.24 201.077 1.78C201.657 2.3 201.947 2.96 201.947 3.76C201.947 4.54 201.657 5.2 201.077 5.74C200.517 6.26 199.797 6.52 198.917 6.52ZM201.467 8.26V25H196.337V8.26H201.467ZM220.964 16.36C220.964 16.84 220.934 17.34 220.874 17.86H209.264C209.344 18.9 209.674 19.7 210.254 20.26C210.854 20.8 211.584 21.07 212.444 21.07C213.724 21.07 214.614 20.53 215.114 19.45H220.574C220.294 20.55 219.784 21.54 219.044 22.42C218.324 23.3 217.414 23.99 216.314 24.49C215.214 24.99 213.984 25.24 212.624 25.24C210.984 25.24 209.524 24.89 208.244 24.19C206.964 23.49 205.964 22.49 205.244 21.19C204.524 19.89 204.164 18.37 204.164 16.63C204.164 14.89 204.514 13.37 205.214 12.07C205.934 10.77 206.934 9.77 208.214 9.07C209.494 8.37 210.964 8.02 212.624 8.02C214.244 8.02 215.684 8.36 216.944 9.04C218.204 9.72 219.184 10.69 219.884 11.95C220.604 13.21 220.964 14.68 220.964 16.36ZM215.714 15.01C215.714 14.13 215.414 13.43 214.814 12.91C214.214 12.39 213.464 12.13 212.564 12.13C211.704 12.13 210.974 12.38 210.374 12.88C209.794 13.38 209.434 14.09 209.294 15.01H215.714ZM233.871 8.08C235.831 8.08 237.391 8.72 238.551 10C239.731 11.26 240.321 13 240.321 15.22V25H235.221V15.91C235.221 14.79 234.931 13.92 234.351 13.3C233.771 12.68 232.991 12.37 232.011 12.37C231.031 12.37 230.251 12.68 229.671 13.3C229.091 13.92 228.801 14.79 228.801 15.91V25H223.671V8.26H228.801V10.48C229.321 9.74 230.021 9.16 230.901 8.74C231.781 8.3 232.771 8.08 233.871 8.08ZM242.865 16.63C242.865 14.89 243.215 13.37 243.915 12.07C244.635 10.77 245.625 9.77 246.885 9.07C248.165 8.37 249.625 8.02 251.265 8.02C253.365 8.02 255.115 8.57 256.515 9.67C257.935 10.77 258.865 12.32 259.305 14.32H253.845C253.385 13.04 252.495 12.4 251.175 12.4C250.235 12.4 249.485 12.77 248.925 13.51C248.365 14.23 248.085 15.27 248.085 16.63C248.085 17.99 248.365 19.04 248.925 19.78C249.485 20.5 250.235 20.86 251.175 20.86C252.495 20.86 253.385 20.22 253.845 18.94H259.305C258.865 20.9 257.935 22.44 256.515 23.56C255.095 24.68 253.345 25.24 251.265 25.24C249.625 25.24 248.165 24.89 246.885 24.19C245.625 23.49 244.635 22.49 243.915 21.19C243.215 19.89 242.865 18.37 242.865 16.63ZM279.149 8.26L268.649 32.95H263.129L266.969 24.43L260.159 8.26H265.889L269.759 18.73L273.599 8.26H279.149Z" fill="black"/>
<defs>
<filter id="filter0_d_1189_8636" x="0.272727" y="38.4545" width="397.364" height="419.364" filterUnits="userSpaceOnUse" color-interpolation-filters="sRGB">
<feFlood flood-opacity="0" result="BackgroundImageFix"/>
<feColorMatrix in="SourceAlpha" type="matrix" values="0 0 0 0 0 0 0 0 0 0 0 0 0 0 0 0 0 0 127 0" result="hardAlpha"/>
<feOffset dx="-5.54545" dy="16.6364"/>
<feGaussianBlur stdDeviation="11.0909"/>
<feComposite in2="hardAlpha" operator="out"/>
<feColorMatrix type="matrix" values="0 0 0 0 0.564706 0 0 0 0 0.564706 0 0 0 0 0.564706 0 0 0 0.17 0"/>
<feBlend mode="normal" in2="BackgroundImageFix" result="effect1_dropShadow_1189_8636"/>
<feBlend mode="normal" in="SourceGraphic" in2="effect1_dropShadow_1189_8636" result="shape"/>
</filter>
</defs>
</svg>
