<svg width="185" height="236" viewBox="0 0 185 236" fill="none" xmlns="http://www.w3.org/2000/svg">
<g filter="url(#filter0_d_1193_8173)">
<rect x="14" y="10" width="156.055" height="207.777" rx="10" fill="white"/>
<rect x="14.5" y="10.5" width="155.055" height="206.777" rx="9.5" stroke="#E4E4E4" stroke-opacity="0.6"/>
</g>
<path d="M32.3626 55.6836L29.3746 50.5536H27.3946V55.6836H25.7566V43.1376H29.8066C30.7546 43.1376 31.5526 43.2996 32.2006 43.6236C32.8606 43.9476 33.3526 44.3856 33.6766 44.9376C34.0006 45.4896 34.1626 46.1196 34.1626 46.8276C34.1626 47.6916 33.9106 48.4536 33.4066 49.1136C32.9146 49.7736 32.1706 50.2116 31.1746 50.4276L34.3246 55.6836H32.3626ZM27.3946 49.2396H29.8066C30.6946 49.2396 31.3606 49.0236 31.8046 48.5916C32.2486 48.1476 32.4706 47.5596 32.4706 46.8276C32.4706 46.0836 32.2486 45.5076 31.8046 45.0996C31.3726 44.6916 30.7066 44.4876 29.8066 44.4876H27.3946V49.2396ZM36.0958 50.7156C36.0958 49.7076 36.2998 48.8256 36.7078 48.0696C37.1158 47.3016 37.6738 46.7076 38.3818 46.2876C39.1018 45.8676 39.8998 45.6576 40.7758 45.6576C41.6398 45.6576 42.3898 45.8436 43.0258 46.2156C43.6618 46.5876 44.1358 47.0556 44.4478 47.6196V45.8196H46.1038V55.6836H44.4478V53.8476C44.1238 54.4236 43.6378 54.9036 42.9898 55.2876C42.3538 55.6596 41.6098 55.8456 40.7578 55.8456C39.8818 55.8456 39.0898 55.6296 38.3818 55.1976C37.6738 54.7656 37.1158 54.1596 36.7078 53.3796C36.2998 52.5996 36.0958 51.7116 36.0958 50.7156ZM44.4478 50.7336C44.4478 49.9896 44.2978 49.3416 43.9978 48.7896C43.6978 48.2376 43.2898 47.8176 42.7738 47.5296C42.2698 47.2296 41.7118 47.0796 41.0998 47.0796C40.4878 47.0796 39.9298 47.2236 39.4258 47.5116C38.9218 47.7996 38.5198 48.2196 38.2198 48.7716C37.9198 49.3236 37.7698 49.9716 37.7698 50.7156C37.7698 51.4716 37.9198 52.1316 38.2198 52.6956C38.5198 53.2476 38.9218 53.6736 39.4258 53.9736C39.9298 54.2616 40.4878 54.4056 41.0998 54.4056C41.7118 54.4056 42.2698 54.2616 42.7738 53.9736C43.2898 53.6736 43.6978 53.2476 43.9978 52.6956C44.2978 52.1316 44.4478 51.4776 44.4478 50.7336ZM53.6778 45.6396C54.8778 45.6396 55.8498 46.0056 56.5938 46.7376C57.3378 47.4576 57.7098 48.5016 57.7098 49.8696V55.6836H56.0898V50.1036C56.0898 49.1196 55.8438 48.3696 55.3518 47.8536C54.8598 47.3256 54.1878 47.0616 53.3358 47.0616C52.4718 47.0616 51.7818 47.3316 51.2658 47.8716C50.7618 48.4116 50.5098 49.1976 50.5098 50.2296V55.6836H48.8718V45.8196H50.5098V47.2236C50.8338 46.7196 51.2718 46.3296 51.8238 46.0536C52.3878 45.7776 53.0058 45.6396 53.6778 45.6396ZM65.8935 55.6836L62.0235 51.3276V55.6836H60.3855V42.3636H62.0235V50.1936L65.8215 45.8196H68.1075L63.4635 50.7336L68.1255 55.6836H65.8935ZM24.9026 68.7236V67.5616H27.5346V77.6836H26.2466V68.7236H24.9026ZM34.693 64.4956L30.857 80.0636H29.597L33.419 64.4956H34.693ZM36.2272 76.6616C37.4125 75.7096 38.3412 74.9303 39.0132 74.3236C39.6852 73.7076 40.2499 73.0683 40.7072 72.4056C41.1739 71.7336 41.4072 71.0756 41.4072 70.4316C41.4072 69.8249 41.2579 69.3489 40.9592 69.0036C40.6699 68.6489 40.1985 68.4716 39.5452 68.4716C38.9105 68.4716 38.4159 68.6723 38.0612 69.0736C37.7159 69.4656 37.5292 69.9929 37.5012 70.6556H36.2692C36.3065 69.6103 36.6239 68.8029 37.2212 68.2336C37.8185 67.6643 38.5885 67.3796 39.5312 67.3796C40.4925 67.3796 41.2532 67.6456 41.8132 68.1776C42.3825 68.7096 42.6672 69.4423 42.6672 70.3756C42.6672 71.1503 42.4339 71.9063 41.9672 72.6436C41.5099 73.3716 40.9872 74.0156 40.3992 74.5756C39.8112 75.1263 39.0599 75.7703 38.1452 76.5076H42.9612V77.5716H36.2272V76.6616ZM44.1259 75.4296V74.4636L49.0399 67.6596H50.5659V74.3236H51.9659V75.4296H50.5659V77.6836H49.3059V75.4296H44.1259ZM49.3619 68.9896L45.5959 74.3236H49.3619V68.9896ZM52.9306 75.4296V74.4636L57.8446 67.6596H59.3706V74.3236H60.7706V75.4296H59.3706V77.6836H58.1106V75.4296H52.9306ZM58.1666 68.9896L54.4006 74.3236H58.1666V68.9896ZM62.0153 70.1096C62.0806 69.2509 62.412 68.5789 63.0093 68.0936C63.6066 67.6083 64.3813 67.3656 65.3333 67.3656C65.968 67.3656 66.514 67.4823 66.9713 67.7156C67.438 67.9396 67.788 68.2476 68.0213 68.6396C68.264 69.0316 68.3853 69.4749 68.3853 69.9696C68.3853 70.5483 68.2173 71.0476 67.8813 71.4676C67.5546 71.8876 67.1253 72.1583 66.5933 72.2796V72.3496C67.2 72.4989 67.6806 72.7929 68.0353 73.2316C68.39 73.6703 68.5673 74.2443 68.5673 74.9536C68.5673 75.4856 68.446 75.9663 68.2033 76.3956C67.9606 76.8156 67.5966 77.1469 67.1113 77.3896C66.626 77.6323 66.0426 77.7536 65.3613 77.7536C64.372 77.7536 63.56 77.4969 62.9253 76.9836C62.2906 76.4609 61.936 75.7236 61.8613 74.7716H63.0933C63.1586 75.3316 63.3873 75.7889 63.7793 76.1436C64.1713 76.4983 64.694 76.6756 65.3473 76.6756C66.0006 76.6756 66.4953 76.5076 66.8313 76.1716C67.1766 75.8263 67.3493 75.3829 67.3493 74.8416C67.3493 74.1416 67.116 73.6376 66.6493 73.3296C66.1826 73.0216 65.478 72.8676 64.5353 72.8676H64.2133V71.8036H64.5493C65.408 71.7943 66.0566 71.6543 66.4953 71.3836C66.934 71.1036 67.1533 70.6743 67.1533 70.0956C67.1533 69.6009 66.99 69.2043 66.6633 68.9056C66.346 68.6069 65.8886 68.4576 65.2913 68.4576C64.7126 68.4576 64.246 68.6069 63.8913 68.9056C63.5366 69.2043 63.3266 69.6056 63.2613 70.1096H62.0153ZM76.5174 68.5556L72.6254 77.6836H71.3374L75.2854 68.6816H69.8814V67.5896H76.5174V68.5556ZM84.384 68.6676H79.47V71.8596C79.6847 71.5609 80.002 71.3183 80.422 71.1316C80.842 70.9356 81.2947 70.8376 81.78 70.8376C82.5547 70.8376 83.1847 71.0009 83.67 71.3276C84.1553 71.6449 84.5007 72.0603 84.706 72.5736C84.9207 73.0776 85.028 73.6143 85.028 74.1836C85.028 74.8556 84.902 75.4576 84.65 75.9896C84.398 76.5216 84.0107 76.9416 83.488 77.2496C82.9747 77.5576 82.3353 77.7116 81.57 77.7116C80.59 77.7116 79.7967 77.4596 79.19 76.9556C78.5833 76.4516 78.2147 75.7796 78.084 74.9396H79.33C79.4513 75.4716 79.708 75.8869 80.1 76.1856C80.492 76.4843 80.9867 76.6336 81.584 76.6336C82.3213 76.6336 82.8767 76.4143 83.25 75.9756C83.6233 75.5276 83.81 74.9396 83.81 74.2116C83.81 73.4836 83.6233 72.9236 83.25 72.5316C82.8767 72.1303 82.326 71.9296 81.598 71.9296C81.1033 71.9296 80.6693 72.0509 80.296 72.2936C79.932 72.5269 79.666 72.8489 79.498 73.2596H78.294V67.5476H84.384V68.6676Z" fill="#999999"/>
<path d="M25.6421 96.585V96.626H28.9507V96.5713C28.9507 94.6162 30.4819 93.167 32.5327 93.167C34.4878 93.167 35.9507 94.4658 35.9507 96.0928C35.9507 97.5693 35.3354 98.5811 33.0933 100.864L25.8335 108.083V110.462H39.6968V107.577H30.5366V107.509L35.4175 102.683C38.0015 100.071 39.396 98.2939 39.396 95.9424C39.396 92.7432 36.5796 90.3369 32.6421 90.3369C28.5542 90.3369 25.6421 92.9482 25.6421 96.585ZM51.2769 110.462H54.6401V106.729H57.2925V103.845H54.6401V90.7334H49.6226C45.3433 96.9541 43.1421 100.468 41.4331 103.694V106.729H51.2769V110.462ZM44.6323 103.831C46.2046 100.878 48.0913 97.9658 51.2769 93.3447H51.3315V103.927H44.6323V103.831ZM68.9956 110.462H72.3589V106.729H75.0112V103.845H72.3589V90.7334H67.3413C63.062 96.9541 60.8608 100.468 59.1519 103.694V106.729H68.9956V110.462ZM62.3511 103.831C63.9233 100.878 65.8101 97.9658 68.9956 93.3447H69.0503V103.927H62.3511V103.831ZM79.7007 114.632L81.5464 107.208H78.2241L77.0894 114.632H79.7007ZM89.1753 101.671H91.6089C94.0562 101.671 95.5601 102.888 95.5601 104.884C95.5601 106.702 93.9604 107.974 91.6909 107.974C89.3394 107.974 87.8628 106.771 87.6987 104.966H84.3354C84.5132 108.479 87.3296 110.858 91.6636 110.858C95.9702 110.858 99.1421 108.507 99.1421 105.021C99.1421 102.272 97.228 100.468 94.2749 100.249V100.167C96.7085 99.7432 98.3491 97.9795 98.3491 95.5322C98.3491 92.4561 95.5874 90.3369 91.7046 90.3369C87.6304 90.3369 84.9097 92.6338 84.7183 96.1748H87.9995C88.1362 94.3291 89.5034 93.1396 91.5405 93.1396C93.7554 93.1396 94.9585 94.2881 94.9585 96.0107C94.9585 97.7744 93.5776 99.0186 91.5542 99.0186H89.1753V101.671ZM102.97 110.462H106.662L115.097 93.6729V90.7334H101.371V93.6182H111.625V93.6865L102.97 110.462ZM124.982 110.858C129.357 110.858 132.378 108.042 132.378 103.94C132.378 100.099 129.658 97.3232 125.884 97.3232C123.929 97.3232 122.316 98.1162 121.496 99.3877H121.414L121.919 93.6182H131.216V90.7334H119.13L118.105 101.972H121.304C122.029 100.741 123.423 100.003 125.037 100.003C127.347 100.003 128.974 101.671 128.974 104.036C128.974 106.36 127.361 108.001 125.009 108.001C122.931 108.001 121.332 106.743 121.113 104.911H117.804C117.955 108.411 120.908 110.858 124.982 110.858Z" fill="#151522"/>
<path d="M156.721 43.6836L147.338 53.1836L142.399 48.1836L134.992 55.6836M156.721 43.6836H150.795M156.721 43.6836V49.6836" stroke="#FF647C" stroke-width="2" stroke-linecap="round" stroke-linejoin="round"/>
<path d="M30.3887 171.401H169.137" stroke="#E4E4E4" stroke-opacity="0.4" stroke-width="0.476388" stroke-linecap="square"/>
<path d="M30.3887 154.085H169.137" stroke="#E4E4E4" stroke-opacity="0.4" stroke-width="0.476388" stroke-linecap="square"/>
<path d="M30.3887 136.769H169.137" stroke="#E4E4E4" stroke-opacity="0.4" stroke-width="0.476388" stroke-linecap="square"/>
<path d="M30.3887 174.631L45.5077 164.158C45.7871 163.965 46.045 163.742 46.277 163.493L58.6401 150.253C58.9463 149.925 59.2047 149.556 59.4075 149.156L72.8158 122.698C74.9179 118.55 81.1088 119.563 81.7792 124.165L84.3548 141.842C85.0147 146.372 91.0611 147.455 93.2518 143.436L95.0373 140.16C96.6744 137.156 100.85 136.806 102.965 139.494L109.607 147.939C111.027 149.744 113.533 150.279 115.566 149.211L130.1 141.579C131.6 140.791 133.405 140.859 134.842 141.758L151.318 152.065C153.281 153.293 155.842 152.932 157.389 151.21L170 137.172" stroke="#FF647C" stroke-linejoin="round"/>
<defs>
<filter id="filter0_d_1193_8173" x="0" y="0" width="184.055" height="235.777" filterUnits="userSpaceOnUse" color-interpolation-filters="sRGB">
<feFlood flood-opacity="0" result="BackgroundImageFix"/>
<feColorMatrix in="SourceAlpha" type="matrix" values="0 0 0 0 0 0 0 0 0 0 0 0 0 0 0 0 0 0 127 0" result="hardAlpha"/>
<feOffset dy="4"/>
<feGaussianBlur stdDeviation="7"/>
<feComposite in2="hardAlpha" operator="out"/>
<feColorMatrix type="matrix" values="0 0 0 0 0 0 0 0 0 0 0 0 0 0 0 0 0 0 0.15 0"/>
<feBlend mode="normal" in2="BackgroundImageFix" result="effect1_dropShadow_1193_8173"/>
<feBlend mode="normal" in="SourceGraphic" in2="effect1_dropShadow_1193_8173" result="shape"/>
</filter>
</defs>
</svg>
