<svg width="449" height="441" viewBox="0 0 449 441" fill="none" xmlns="http://www.w3.org/2000/svg">
<g filter="url(#filter0_d_1189_8418)">
<path d="M21 67.2015C21 54.94 29.6122 45 40.2358 45H408.764C419.388 45 428 54.94 428 67.2016V397.798C428 410.06 419.388 420 408.764 420H40.2358C29.6121 420 21 410.06 21 397.798V67.2015Z" fill="#FCFAFF"/>
<path d="M40.2358 44.5C29.2711 44.5 20.5 54.7335 20.5 67.2015V397.798C20.5 410.266 29.2711 420.5 40.2358 420.5H408.764C419.729 420.5 428.5 410.266 428.5 397.798V67.2016C428.5 54.7335 419.729 44.5 408.764 44.5H40.2358Z" stroke="#E7E7E7"/>
</g>
<ellipse cx="205.178" cy="210.397" rx="95.012" ry="94" fill="#6655A2"/>
<path d="M125.129 131.202C137.351 119.11 152.208 109.948 168.563 104.418C184.917 98.8869 202.335 97.1346 219.48 99.2948C236.625 101.455 253.042 107.471 267.474 116.88C281.905 126.29 293.967 138.844 302.735 153.58L205.178 210.397L125.129 131.202Z" fill="#00ADCB"/>
<path d="M167.855 316.135C152.897 310.967 139.201 302.75 127.655 292.015L205.178 210.397L167.855 316.135Z" fill="#FFD63B"/>
<path d="M118.418 301.643C105.51 289.629 95.2941 275.069 88.4321 258.903L205.178 210.397L118.418 301.643Z" fill="#D14E9C"/>
<path d="M316.693 145.499C330.18 168.181 336.272 194.425 334.14 220.656C332.008 246.887 321.756 271.831 304.78 292.09C287.803 312.349 264.928 326.94 239.269 333.874C213.61 340.808 186.414 339.749 161.385 330.842L205.178 210.397L316.693 145.499Z" fill="#B6D332"/>
<g filter="url(#filter1_dd_1189_8418)">
<path d="M339.148 120.397C339.148 118.188 340.939 116.397 343.148 116.397H407.555C409.764 116.397 411.555 118.188 411.555 120.397V144.397C411.555 146.607 409.764 148.397 407.555 148.397H385.695L375.352 156.397L365.008 148.397H343.148C340.939 148.397 339.148 146.607 339.148 144.397V120.397Z" fill="white"/>
</g>
<path d="M358.92 134.469C358.296 134.469 357.696 134.369 357.12 134.169C356.552 133.969 356.112 133.705 355.8 133.377L356.148 132.693C356.452 132.997 356.856 133.245 357.36 133.437C357.864 133.621 358.384 133.713 358.92 133.713C359.672 133.713 360.236 133.577 360.612 133.305C360.988 133.025 361.176 132.665 361.176 132.225C361.176 131.889 361.072 131.621 360.864 131.421C360.664 131.221 360.416 131.069 360.12 130.965C359.824 130.853 359.412 130.733 358.884 130.605C358.252 130.445 357.748 130.293 357.372 130.149C356.996 129.997 356.672 129.769 356.4 129.465C356.136 129.161 356.004 128.749 356.004 128.229C356.004 127.805 356.116 127.421 356.34 127.077C356.564 126.725 356.908 126.445 357.372 126.237C357.836 126.029 358.412 125.925 359.1 125.925C359.58 125.925 360.048 125.993 360.504 126.129C360.968 126.257 361.368 126.437 361.704 126.669L361.404 127.377C361.052 127.145 360.676 126.973 360.276 126.861C359.876 126.741 359.484 126.681 359.1 126.681C358.364 126.681 357.808 126.825 357.432 127.113C357.064 127.393 356.88 127.757 356.88 128.205C356.88 128.541 356.98 128.813 357.18 129.021C357.388 129.221 357.644 129.377 357.948 129.489C358.26 129.593 358.676 129.709 359.196 129.837C359.812 129.989 360.308 130.141 360.684 130.293C361.068 130.437 361.392 130.661 361.656 130.965C361.92 131.261 362.052 131.665 362.052 132.177C362.052 132.601 361.936 132.989 361.704 133.341C361.48 133.685 361.132 133.961 360.66 134.169C360.188 134.369 359.608 134.469 358.92 134.469ZM367.531 134.013C367.371 134.157 367.171 134.269 366.931 134.349C366.699 134.421 366.455 134.457 366.199 134.457C365.607 134.457 365.151 134.297 364.831 133.977C364.511 133.657 364.351 133.205 364.351 132.621V128.805H363.223V128.085H364.351V126.705H365.203V128.085H367.123V128.805H365.203V132.573C365.203 132.949 365.295 133.237 365.479 133.437C365.671 133.629 365.943 133.725 366.295 133.725C366.471 133.725 366.639 133.697 366.799 133.641C366.967 133.585 367.111 133.505 367.231 133.401L367.531 134.013ZM370.298 129.321C370.498 128.897 370.794 128.577 371.186 128.361C371.586 128.145 372.078 128.037 372.662 128.037V128.865L372.458 128.853C371.794 128.853 371.274 129.057 370.898 129.465C370.522 129.873 370.334 130.445 370.334 131.181V134.397H369.482V128.085H370.298V129.321ZM377.126 134.457C376.518 134.457 375.97 134.321 375.482 134.049C374.994 133.769 374.61 133.385 374.33 132.897C374.05 132.409 373.91 131.857 373.91 131.241C373.91 130.625 374.05 130.073 374.33 129.585C374.61 129.097 374.994 128.717 375.482 128.445C375.97 128.173 376.518 128.037 377.126 128.037C377.734 128.037 378.282 128.173 378.77 128.445C379.258 128.717 379.638 129.097 379.91 129.585C380.19 130.073 380.33 130.625 380.33 131.241C380.33 131.857 380.19 132.409 379.91 132.897C379.638 133.385 379.258 133.769 378.77 134.049C378.282 134.321 377.734 134.457 377.126 134.457ZM377.126 133.701C377.574 133.701 377.974 133.601 378.326 133.401C378.686 133.193 378.966 132.901 379.166 132.525C379.366 132.149 379.466 131.721 379.466 131.241C379.466 130.761 379.366 130.333 379.166 129.957C378.966 129.581 378.686 129.293 378.326 129.093C377.974 128.885 377.574 128.781 377.126 128.781C376.678 128.781 376.274 128.885 375.914 129.093C375.562 129.293 375.282 129.581 375.074 129.957C374.874 130.333 374.774 130.761 374.774 131.241C374.774 131.721 374.874 132.149 375.074 132.525C375.282 132.901 375.562 133.193 375.914 133.401C376.274 133.601 376.678 133.701 377.126 133.701ZM385.686 128.037C386.478 128.037 387.106 128.269 387.57 128.733C388.042 129.189 388.278 129.857 388.278 130.737V134.397H387.426V130.821C387.426 130.165 387.262 129.665 386.934 129.321C386.606 128.977 386.138 128.805 385.53 128.805C384.85 128.805 384.31 129.009 383.91 129.417C383.518 129.817 383.322 130.373 383.322 131.085V134.397H382.47V128.085H383.286V129.249C383.518 128.865 383.838 128.569 384.246 128.361C384.662 128.145 385.142 128.037 385.686 128.037ZM396.858 128.085V133.629C396.858 134.701 396.594 135.493 396.066 136.005C395.546 136.525 394.758 136.785 393.702 136.785C393.118 136.785 392.562 136.697 392.034 136.521C391.514 136.353 391.09 136.117 390.762 135.813L391.194 135.165C391.498 135.437 391.866 135.649 392.298 135.801C392.738 135.953 393.198 136.029 393.678 136.029C394.478 136.029 395.066 135.841 395.442 135.465C395.818 135.097 396.006 134.521 396.006 133.737V132.933C395.742 133.333 395.394 133.637 394.962 133.845C394.538 134.053 394.066 134.157 393.546 134.157C392.954 134.157 392.414 134.029 391.926 133.773C391.446 133.509 391.066 133.145 390.786 132.681C390.514 132.209 390.378 131.677 390.378 131.085C390.378 130.493 390.514 129.965 390.786 129.501C391.066 129.037 391.446 128.677 391.926 128.421C392.406 128.165 392.946 128.037 393.546 128.037C394.082 128.037 394.566 128.145 394.998 128.361C395.43 128.577 395.778 128.889 396.042 129.297V128.085H396.858ZM393.63 133.401C394.086 133.401 394.498 133.305 394.866 133.113C395.234 132.913 395.518 132.637 395.718 132.285C395.926 131.933 396.03 131.533 396.03 131.085C396.03 130.637 395.926 130.241 395.718 129.897C395.518 129.545 395.234 129.273 394.866 129.081C394.506 128.881 394.094 128.781 393.63 128.781C393.174 128.781 392.762 128.877 392.394 129.069C392.034 129.261 391.75 129.533 391.542 129.885C391.342 130.237 391.242 130.637 391.242 131.085C391.242 131.533 391.342 131.933 391.542 132.285C391.75 132.637 392.034 132.913 392.394 133.113C392.762 133.305 393.174 133.401 393.63 133.401Z" fill="#333333"/>
<path d="M65.1503 374.469C64.5263 374.469 63.9263 374.369 63.3503 374.169C62.7823 373.969 62.3423 373.705 62.0303 373.377L62.3783 372.693C62.6823 372.997 63.0863 373.245 63.5903 373.437C64.0943 373.621 64.6143 373.713 65.1503 373.713C65.9023 373.713 66.4663 373.577 66.8423 373.305C67.2183 373.025 67.4063 372.665 67.4063 372.225C67.4063 371.889 67.3023 371.621 67.0943 371.421C66.8943 371.221 66.6463 371.069 66.3503 370.965C66.0543 370.853 65.6423 370.733 65.1143 370.605C64.4823 370.445 63.9783 370.293 63.6023 370.149C63.2263 369.997 62.9023 369.769 62.6303 369.465C62.3663 369.161 62.2343 368.749 62.2343 368.229C62.2343 367.805 62.3463 367.421 62.5703 367.077C62.7943 366.725 63.1383 366.445 63.6023 366.237C64.0663 366.029 64.6423 365.925 65.3303 365.925C65.8103 365.925 66.2783 365.993 66.7343 366.129C67.1983 366.257 67.5983 366.437 67.9343 366.669L67.6343 367.377C67.2823 367.145 66.9063 366.973 66.5063 366.861C66.1063 366.741 65.7143 366.681 65.3303 366.681C64.5943 366.681 64.0383 366.825 63.6623 367.113C63.2943 367.393 63.1103 367.757 63.1103 368.205C63.1103 368.541 63.2103 368.813 63.4103 369.021C63.6183 369.221 63.8743 369.377 64.1783 369.489C64.4903 369.593 64.9063 369.709 65.4263 369.837C66.0423 369.989 66.5383 370.141 66.9143 370.293C67.2983 370.437 67.6223 370.661 67.8863 370.965C68.1503 371.261 68.2823 371.665 68.2823 372.177C68.2823 372.601 68.1663 372.989 67.9343 373.341C67.7103 373.685 67.3623 373.961 66.8903 374.169C66.4183 374.369 65.8383 374.469 65.1503 374.469ZM73.7611 374.013C73.6011 374.157 73.4011 374.269 73.1611 374.349C72.9291 374.421 72.6851 374.457 72.4291 374.457C71.8371 374.457 71.3811 374.297 71.0611 373.977C70.7411 373.657 70.5811 373.205 70.5811 372.621V368.805H69.4531V368.085H70.5811V366.705H71.4331V368.085H73.3531V368.805H71.4331V372.573C71.4331 372.949 71.5251 373.237 71.7091 373.437C71.9011 373.629 72.1731 373.725 72.5251 373.725C72.7011 373.725 72.8691 373.697 73.0291 373.641C73.1971 373.585 73.3411 373.505 73.4611 373.401L73.7611 374.013ZM76.5281 369.321C76.7281 368.897 77.0241 368.577 77.4161 368.361C77.8161 368.145 78.3081 368.037 78.8921 368.037V368.865L78.6881 368.853C78.0241 368.853 77.5041 369.057 77.1281 369.465C76.7521 369.873 76.5641 370.445 76.5641 371.181V374.397H75.7121V368.085H76.5281V369.321ZM83.3562 374.457C82.7482 374.457 82.2002 374.321 81.7122 374.049C81.2242 373.769 80.8402 373.385 80.5602 372.897C80.2802 372.409 80.1402 371.857 80.1402 371.241C80.1402 370.625 80.2802 370.073 80.5602 369.585C80.8402 369.097 81.2242 368.717 81.7122 368.445C82.2002 368.173 82.7482 368.037 83.3562 368.037C83.9642 368.037 84.5122 368.173 85.0002 368.445C85.4882 368.717 85.8682 369.097 86.1402 369.585C86.4202 370.073 86.5602 370.625 86.5602 371.241C86.5602 371.857 86.4202 372.409 86.1402 372.897C85.8682 373.385 85.4882 373.769 85.0002 374.049C84.5122 374.321 83.9642 374.457 83.3562 374.457ZM83.3562 373.701C83.8042 373.701 84.2042 373.601 84.5562 373.401C84.9162 373.193 85.1962 372.901 85.3962 372.525C85.5962 372.149 85.6962 371.721 85.6962 371.241C85.6962 370.761 85.5962 370.333 85.3962 369.957C85.1962 369.581 84.9162 369.293 84.5562 369.093C84.2042 368.885 83.8042 368.781 83.3562 368.781C82.9082 368.781 82.5042 368.885 82.1442 369.093C81.7922 369.293 81.5122 369.581 81.3042 369.957C81.1042 370.333 81.0042 370.761 81.0042 371.241C81.0042 371.721 81.1042 372.149 81.3042 372.525C81.5122 372.901 81.7922 373.193 82.1442 373.401C82.5042 373.601 82.9082 373.701 83.3562 373.701ZM91.9156 368.037C92.7076 368.037 93.3356 368.269 93.7996 368.733C94.2716 369.189 94.5076 369.857 94.5076 370.737V374.397H93.6556V370.821C93.6556 370.165 93.4916 369.665 93.1636 369.321C92.8356 368.977 92.3676 368.805 91.7596 368.805C91.0796 368.805 90.5396 369.009 90.1396 369.417C89.7476 369.817 89.5516 370.373 89.5516 371.085V374.397H88.6996V368.085H89.5156V369.249C89.7476 368.865 90.0676 368.569 90.4756 368.361C90.8916 368.145 91.3716 368.037 91.9156 368.037ZM103.088 368.085V373.629C103.088 374.701 102.824 375.493 102.296 376.005C101.776 376.525 100.988 376.785 99.9322 376.785C99.3482 376.785 98.7922 376.697 98.2642 376.521C97.7442 376.353 97.3202 376.117 96.9922 375.813L97.4242 375.165C97.7282 375.437 98.0962 375.649 98.5282 375.801C98.9682 375.953 99.4282 376.029 99.9082 376.029C100.708 376.029 101.296 375.841 101.672 375.465C102.048 375.097 102.236 374.521 102.236 373.737V372.933C101.972 373.333 101.624 373.637 101.192 373.845C100.768 374.053 100.296 374.157 99.7762 374.157C99.1842 374.157 98.6442 374.029 98.1562 373.773C97.6762 373.509 97.2962 373.145 97.0162 372.681C96.7442 372.209 96.6082 371.677 96.6082 371.085C96.6082 370.493 96.7442 369.965 97.0162 369.501C97.2962 369.037 97.6762 368.677 98.1562 368.421C98.6362 368.165 99.1762 368.037 99.7762 368.037C100.312 368.037 100.796 368.145 101.228 368.361C101.66 368.577 102.008 368.889 102.272 369.297V368.085H103.088ZM99.8602 373.401C100.316 373.401 100.728 373.305 101.096 373.113C101.464 372.913 101.748 372.637 101.948 372.285C102.156 371.933 102.26 371.533 102.26 371.085C102.26 370.637 102.156 370.241 101.948 369.897C101.748 369.545 101.464 369.273 101.096 369.081C100.736 368.881 100.324 368.781 99.8602 368.781C99.4042 368.781 98.9922 368.877 98.6242 369.069C98.2642 369.261 97.9802 369.533 97.7722 369.885C97.5722 370.237 97.4722 370.637 97.4722 371.085C97.4722 371.533 97.5722 371.933 97.7722 372.285C97.9802 372.637 98.2642 372.913 98.6242 373.113C98.9922 373.305 99.4042 373.401 99.8602 373.401Z" fill="#9C9C9C"/>
<circle cx="48.4663" cy="370.397" r="4" fill="#007AFF"/>
<path d="M69.8543 395.997V404.397H69.1223L63.7223 397.581V404.397H62.8343V395.997H63.5663L68.9783 402.813V395.997H69.8543ZM78.312 401.505H73.032C73.08 402.161 73.332 402.693 73.788 403.101C74.244 403.501 74.82 403.701 75.516 403.701C75.908 403.701 76.268 403.633 76.596 403.497C76.924 403.353 77.208 403.145 77.448 402.873L77.928 403.425C77.648 403.761 77.296 404.017 76.872 404.193C76.456 404.369 75.996 404.457 75.492 404.457C74.844 404.457 74.268 404.321 73.764 404.049C73.268 403.769 72.88 403.385 72.6 402.897C72.32 402.409 72.18 401.857 72.18 401.241C72.18 400.625 72.312 400.073 72.576 399.585C72.848 399.097 73.216 398.717 73.68 398.445C74.152 398.173 74.68 398.037 75.264 398.037C75.848 398.037 76.372 398.173 76.836 398.445C77.3 398.717 77.664 399.097 77.928 399.585C78.192 400.065 78.324 400.617 78.324 401.241L78.312 401.505ZM75.264 398.769C74.656 398.769 74.144 398.965 73.728 399.357C73.32 399.741 73.088 400.245 73.032 400.869H77.508C77.452 400.245 77.216 399.741 76.8 399.357C76.392 398.965 75.88 398.769 75.264 398.769ZM85.9542 401.505H80.6742C80.7222 402.161 80.9742 402.693 81.4302 403.101C81.8862 403.501 82.4622 403.701 83.1582 403.701C83.5502 403.701 83.9102 403.633 84.2382 403.497C84.5662 403.353 84.8502 403.145 85.0902 402.873L85.5702 403.425C85.2902 403.761 84.9382 404.017 84.5142 404.193C84.0982 404.369 83.6382 404.457 83.1342 404.457C82.4862 404.457 81.9102 404.321 81.4062 404.049C80.9102 403.769 80.5222 403.385 80.2422 402.897C79.9622 402.409 79.8222 401.857 79.8222 401.241C79.8222 400.625 79.9542 400.073 80.2182 399.585C80.4902 399.097 80.8582 398.717 81.3222 398.445C81.7942 398.173 82.3222 398.037 82.9062 398.037C83.4902 398.037 84.0142 398.173 84.4782 398.445C84.9422 398.717 85.3062 399.097 85.5702 399.585C85.8342 400.065 85.9662 400.617 85.9662 401.241L85.9542 401.505ZM82.9062 398.769C82.2982 398.769 81.7862 398.965 81.3702 399.357C80.9622 399.741 80.7302 400.245 80.6742 400.869H85.1502C85.0942 400.245 84.8582 399.741 84.4422 399.357C84.0342 398.965 83.5222 398.769 82.9062 398.769ZM93.8604 395.493V404.397H93.0444V403.149C92.7884 403.573 92.4484 403.897 92.0244 404.121C91.6084 404.345 91.1364 404.457 90.6084 404.457C90.0164 404.457 89.4804 404.321 89.0004 404.049C88.5204 403.777 88.1444 403.397 87.8724 402.909C87.6004 402.421 87.4644 401.865 87.4644 401.241C87.4644 400.617 87.6004 400.061 87.8724 399.573C88.1444 399.085 88.5204 398.709 89.0004 398.445C89.4804 398.173 90.0164 398.037 90.6084 398.037C91.1204 398.037 91.5804 398.145 91.9884 398.361C92.4044 398.569 92.7444 398.877 93.0084 399.285V395.493H93.8604ZM90.6804 403.701C91.1204 403.701 91.5164 403.601 91.8684 403.401C92.2284 403.193 92.5084 402.901 92.7084 402.525C92.9164 402.149 93.0204 401.721 93.0204 401.241C93.0204 400.761 92.9164 400.333 92.7084 399.957C92.5084 399.581 92.2284 399.293 91.8684 399.093C91.5164 398.885 91.1204 398.781 90.6804 398.781C90.2324 398.781 89.8284 398.885 89.4684 399.093C89.1164 399.293 88.8364 399.581 88.6284 399.957C88.4284 400.333 88.3284 400.761 88.3284 401.241C88.3284 401.721 88.4284 402.149 88.6284 402.525C88.8364 402.901 89.1164 403.193 89.4684 403.401C89.8284 403.601 90.2324 403.701 90.6804 403.701ZM103.498 404.013C103.338 404.157 103.138 404.269 102.898 404.349C102.666 404.421 102.422 404.457 102.166 404.457C101.574 404.457 101.118 404.297 100.798 403.977C100.478 403.657 100.318 403.205 100.318 402.621V398.805H99.1898V398.085H100.318V396.705H101.17V398.085H103.09V398.805H101.17V402.573C101.17 402.949 101.262 403.237 101.446 403.437C101.638 403.629 101.91 403.725 102.262 403.725C102.438 403.725 102.606 403.697 102.766 403.641C102.934 403.585 103.078 403.505 103.198 403.401L103.498 404.013ZM107.806 404.457C107.198 404.457 106.65 404.321 106.162 404.049C105.674 403.769 105.29 403.385 105.01 402.897C104.73 402.409 104.59 401.857 104.59 401.241C104.59 400.625 104.73 400.073 105.01 399.585C105.29 399.097 105.674 398.717 106.162 398.445C106.65 398.173 107.198 398.037 107.806 398.037C108.414 398.037 108.962 398.173 109.45 398.445C109.938 398.717 110.318 399.097 110.59 399.585C110.87 400.073 111.01 400.625 111.01 401.241C111.01 401.857 110.87 402.409 110.59 402.897C110.318 403.385 109.938 403.769 109.45 404.049C108.962 404.321 108.414 404.457 107.806 404.457ZM107.806 403.701C108.254 403.701 108.654 403.601 109.006 403.401C109.366 403.193 109.646 402.901 109.846 402.525C110.046 402.149 110.146 401.721 110.146 401.241C110.146 400.761 110.046 400.333 109.846 399.957C109.646 399.581 109.366 399.293 109.006 399.093C108.654 398.885 108.254 398.781 107.806 398.781C107.358 398.781 106.954 398.885 106.594 399.093C106.242 399.293 105.962 399.581 105.754 399.957C105.554 400.333 105.454 400.761 105.454 401.241C105.454 401.721 105.554 402.149 105.754 402.525C105.962 402.901 106.242 403.193 106.594 403.401C106.954 403.601 107.358 403.701 107.806 403.701ZM119.942 398.037C120.534 398.037 121.07 398.173 121.55 398.445C122.03 398.709 122.406 399.085 122.678 399.573C122.95 400.061 123.086 400.617 123.086 401.241C123.086 401.865 122.95 402.421 122.678 402.909C122.406 403.397 122.03 403.777 121.55 404.049C121.07 404.321 120.534 404.457 119.942 404.457C119.414 404.457 118.938 404.345 118.514 404.121C118.098 403.897 117.762 403.573 117.506 403.149V404.397H116.69V395.493H117.542V399.285C117.806 398.877 118.142 398.569 118.55 398.361C118.966 398.145 119.43 398.037 119.942 398.037ZM119.882 403.701C120.322 403.701 120.722 403.601 121.082 403.401C121.442 403.193 121.722 402.901 121.922 402.525C122.13 402.149 122.234 401.721 122.234 401.241C122.234 400.761 122.13 400.333 121.922 399.957C121.722 399.581 121.442 399.293 121.082 399.093C120.722 398.885 120.322 398.781 119.882 398.781C119.434 398.781 119.03 398.885 118.67 399.093C118.318 399.293 118.038 399.581 117.83 399.957C117.63 400.333 117.53 400.761 117.53 401.241C117.53 401.721 117.63 402.149 117.83 402.525C118.038 402.901 118.318 403.193 118.67 403.401C119.03 403.601 119.434 403.701 119.882 403.701ZM130.719 401.505H125.439C125.487 402.161 125.739 402.693 126.195 403.101C126.651 403.501 127.227 403.701 127.923 403.701C128.315 403.701 128.675 403.633 129.003 403.497C129.331 403.353 129.615 403.145 129.855 402.873L130.335 403.425C130.055 403.761 129.703 404.017 129.279 404.193C128.863 404.369 128.403 404.457 127.899 404.457C127.251 404.457 126.675 404.321 126.171 404.049C125.675 403.769 125.287 403.385 125.007 402.897C124.727 402.409 124.587 401.857 124.587 401.241C124.587 400.625 124.719 400.073 124.983 399.585C125.255 399.097 125.623 398.717 126.087 398.445C126.559 398.173 127.087 398.037 127.671 398.037C128.255 398.037 128.779 398.173 129.243 398.445C129.707 398.717 130.071 399.097 130.335 399.585C130.599 400.065 130.731 400.617 130.731 401.241L130.719 401.505ZM127.671 398.769C127.063 398.769 126.551 398.965 126.135 399.357C125.727 399.741 125.495 400.245 125.439 400.869H129.915C129.859 400.245 129.623 399.741 129.207 399.357C128.799 398.965 128.287 398.769 127.671 398.769ZM140.234 404.469C139.402 404.469 138.65 404.285 137.978 403.917C137.314 403.549 136.79 403.041 136.406 402.393C136.03 401.737 135.842 401.005 135.842 400.197C135.842 399.389 136.03 398.661 136.406 398.013C136.79 397.357 137.318 396.845 137.99 396.477C138.662 396.109 139.414 395.925 140.246 395.925C140.87 395.925 141.446 396.029 141.974 396.237C142.502 396.445 142.95 396.749 143.318 397.149L142.754 397.713C142.098 397.049 141.27 396.717 140.27 396.717C139.606 396.717 139.002 396.869 138.458 397.173C137.914 397.477 137.486 397.893 137.174 398.421C136.87 398.949 136.718 399.541 136.718 400.197C136.718 400.853 136.87 401.445 137.174 401.973C137.486 402.501 137.914 402.917 138.458 403.221C139.002 403.525 139.606 403.677 140.27 403.677C141.278 403.677 142.106 403.341 142.754 402.669L143.318 403.233C142.95 403.633 142.498 403.941 141.962 404.157C141.434 404.365 140.858 404.469 140.234 404.469ZM147.545 398.037C148.369 398.037 149.001 398.245 149.441 398.661C149.881 399.069 150.101 399.677 150.101 400.485V404.397H149.285V403.413C149.093 403.741 148.809 403.997 148.433 404.181C148.065 404.365 147.625 404.457 147.113 404.457C146.409 404.457 145.849 404.289 145.433 403.953C145.017 403.617 144.809 403.173 144.809 402.621C144.809 402.085 145.001 401.653 145.385 401.325C145.777 400.997 146.397 400.833 147.245 400.833H149.249V400.449C149.249 399.905 149.097 399.493 148.793 399.213C148.489 398.925 148.045 398.781 147.461 398.781C147.061 398.781 146.677 398.849 146.309 398.985C145.941 399.113 145.625 399.293 145.361 399.525L144.977 398.889C145.297 398.617 145.681 398.409 146.129 398.265C146.577 398.113 147.049 398.037 147.545 398.037ZM147.245 403.785C147.725 403.785 148.137 403.677 148.481 403.461C148.825 403.237 149.081 402.917 149.249 402.501V401.469H147.269C146.189 401.469 145.649 401.845 145.649 402.597C145.649 402.965 145.789 403.257 146.069 403.473C146.349 403.681 146.741 403.785 147.245 403.785ZM158.503 398.085V404.397H157.687V403.245C157.463 403.629 157.155 403.929 156.763 404.145C156.371 404.353 155.923 404.457 155.419 404.457C154.595 404.457 153.943 404.229 153.463 403.773C152.991 403.309 152.755 402.633 152.755 401.745V398.085H153.607V401.661C153.607 402.325 153.771 402.829 154.099 403.173C154.427 403.517 154.895 403.689 155.503 403.689C156.167 403.689 156.691 403.489 157.075 403.089C157.459 402.681 157.651 402.117 157.651 401.397V398.085H158.503ZM164.613 404.013C164.453 404.157 164.253 404.269 164.013 404.349C163.781 404.421 163.537 404.457 163.281 404.457C162.689 404.457 162.233 404.297 161.913 403.977C161.593 403.657 161.433 403.205 161.433 402.621V398.805H160.305V398.085H161.433V396.705H162.285V398.085H164.205V398.805H162.285V402.573C162.285 402.949 162.377 403.237 162.561 403.437C162.753 403.629 163.025 403.725 163.377 403.725C163.553 403.725 163.721 403.697 163.881 403.641C164.049 403.585 164.193 403.505 164.313 403.401L164.613 404.013ZM166.564 398.085H167.416V404.397H166.564V398.085ZM166.996 396.705C166.82 396.705 166.672 396.645 166.552 396.525C166.432 396.405 166.372 396.261 166.372 396.093C166.372 395.933 166.432 395.793 166.552 395.673C166.672 395.553 166.82 395.493 166.996 395.493C167.172 395.493 167.32 395.553 167.44 395.673C167.56 395.785 167.62 395.921 167.62 396.081C167.62 396.257 167.56 396.405 167.44 396.525C167.32 396.645 167.172 396.705 166.996 396.705ZM172.767 404.457C172.159 404.457 171.611 404.321 171.123 404.049C170.635 403.769 170.251 403.385 169.971 402.897C169.691 402.409 169.551 401.857 169.551 401.241C169.551 400.625 169.691 400.073 169.971 399.585C170.251 399.097 170.635 398.717 171.123 398.445C171.611 398.173 172.159 398.037 172.767 398.037C173.375 398.037 173.923 398.173 174.411 398.445C174.899 398.717 175.279 399.097 175.551 399.585C175.831 400.073 175.971 400.625 175.971 401.241C175.971 401.857 175.831 402.409 175.551 402.897C175.279 403.385 174.899 403.769 174.411 404.049C173.923 404.321 173.375 404.457 172.767 404.457ZM172.767 403.701C173.215 403.701 173.615 403.601 173.967 403.401C174.327 403.193 174.607 402.901 174.807 402.525C175.007 402.149 175.107 401.721 175.107 401.241C175.107 400.761 175.007 400.333 174.807 399.957C174.607 399.581 174.327 399.293 173.967 399.093C173.615 398.885 173.215 398.781 172.767 398.781C172.319 398.781 171.915 398.885 171.555 399.093C171.203 399.293 170.923 399.581 170.715 399.957C170.515 400.333 170.415 400.761 170.415 401.241C170.415 401.721 170.515 402.149 170.715 402.525C170.923 402.901 171.203 403.193 171.555 403.401C171.915 403.601 172.319 403.701 172.767 403.701ZM183.799 398.085V404.397H182.983V403.245C182.759 403.629 182.451 403.929 182.059 404.145C181.667 404.353 181.219 404.457 180.715 404.457C179.891 404.457 179.239 404.229 178.759 403.773C178.287 403.309 178.051 402.633 178.051 401.745V398.085H178.903V401.661C178.903 402.325 179.067 402.829 179.395 403.173C179.723 403.517 180.191 403.689 180.799 403.689C181.463 403.689 181.987 403.489 182.371 403.089C182.755 402.681 182.947 402.117 182.947 401.397V398.085H183.799ZM188.277 404.457C187.765 404.457 187.273 404.385 186.801 404.241C186.337 404.089 185.973 403.901 185.709 403.677L186.093 403.005C186.357 403.213 186.689 403.385 187.089 403.521C187.489 403.649 187.905 403.713 188.337 403.713C188.913 403.713 189.337 403.625 189.609 403.449C189.889 403.265 190.029 403.009 190.029 402.681C190.029 402.449 189.953 402.269 189.801 402.141C189.649 402.005 189.457 401.905 189.225 401.841C188.993 401.769 188.685 401.701 188.301 401.637C187.789 401.541 187.377 401.445 187.065 401.349C186.753 401.245 186.485 401.073 186.261 400.833C186.045 400.593 185.937 400.261 185.937 399.837C185.937 399.309 186.157 398.877 186.597 398.541C187.037 398.205 187.649 398.037 188.433 398.037C188.841 398.037 189.249 398.093 189.657 398.205C190.065 398.309 190.401 398.449 190.665 398.625L190.293 399.309C189.773 398.949 189.153 398.769 188.433 398.769C187.889 398.769 187.477 398.865 187.197 399.057C186.925 399.249 186.789 399.501 186.789 399.813C186.789 400.053 186.865 400.245 187.017 400.389C187.177 400.533 187.373 400.641 187.605 400.713C187.837 400.777 188.157 400.845 188.565 400.917C189.069 401.013 189.473 401.109 189.777 401.205C190.081 401.301 190.341 401.465 190.557 401.697C190.773 401.929 190.881 402.249 190.881 402.657C190.881 403.209 190.649 403.649 190.185 403.977C189.729 404.297 189.093 404.457 188.277 404.457Z" fill="#9C9C9C"/>
<circle cx="48.4663" cy="400.397" r="4" fill="#219653"/>
<path d="M180.028 366.997V375.397H179.296L173.896 368.581V375.397H173.008V366.997H173.74L179.152 373.813V366.997H180.028ZM188.485 372.505H183.205C183.253 373.161 183.505 373.693 183.961 374.101C184.417 374.501 184.993 374.701 185.689 374.701C186.081 374.701 186.441 374.633 186.769 374.497C187.097 374.353 187.381 374.145 187.621 373.873L188.101 374.425C187.821 374.761 187.469 375.017 187.045 375.193C186.629 375.369 186.169 375.457 185.665 375.457C185.017 375.457 184.441 375.321 183.937 375.049C183.441 374.769 183.053 374.385 182.773 373.897C182.493 373.409 182.353 372.857 182.353 372.241C182.353 371.625 182.485 371.073 182.749 370.585C183.021 370.097 183.389 369.717 183.853 369.445C184.325 369.173 184.853 369.037 185.437 369.037C186.021 369.037 186.545 369.173 187.009 369.445C187.473 369.717 187.837 370.097 188.101 370.585C188.365 371.065 188.497 371.617 188.497 372.241L188.485 372.505ZM185.437 369.769C184.829 369.769 184.317 369.965 183.901 370.357C183.493 370.741 183.261 371.245 183.205 371.869H187.681C187.625 371.245 187.389 370.741 186.973 370.357C186.565 369.965 186.053 369.769 185.437 369.769ZM196.128 372.505H190.848C190.896 373.161 191.148 373.693 191.604 374.101C192.06 374.501 192.636 374.701 193.332 374.701C193.724 374.701 194.084 374.633 194.412 374.497C194.74 374.353 195.024 374.145 195.264 373.873L195.744 374.425C195.464 374.761 195.112 375.017 194.688 375.193C194.272 375.369 193.812 375.457 193.308 375.457C192.66 375.457 192.084 375.321 191.58 375.049C191.084 374.769 190.696 374.385 190.416 373.897C190.136 373.409 189.996 372.857 189.996 372.241C189.996 371.625 190.128 371.073 190.392 370.585C190.664 370.097 191.032 369.717 191.496 369.445C191.968 369.173 192.496 369.037 193.08 369.037C193.664 369.037 194.188 369.173 194.652 369.445C195.116 369.717 195.48 370.097 195.744 370.585C196.008 371.065 196.14 371.617 196.14 372.241L196.128 372.505ZM193.08 369.769C192.472 369.769 191.96 369.965 191.544 370.357C191.136 370.741 190.904 371.245 190.848 371.869H195.324C195.268 371.245 195.032 370.741 194.616 370.357C194.208 369.965 193.696 369.769 193.08 369.769ZM204.034 366.493V375.397H203.218V374.149C202.962 374.573 202.622 374.897 202.198 375.121C201.782 375.345 201.31 375.457 200.782 375.457C200.19 375.457 199.654 375.321 199.174 375.049C198.694 374.777 198.318 374.397 198.046 373.909C197.774 373.421 197.638 372.865 197.638 372.241C197.638 371.617 197.774 371.061 198.046 370.573C198.318 370.085 198.694 369.709 199.174 369.445C199.654 369.173 200.19 369.037 200.782 369.037C201.294 369.037 201.754 369.145 202.162 369.361C202.578 369.569 202.918 369.877 203.182 370.285V366.493H204.034ZM200.854 374.701C201.294 374.701 201.69 374.601 202.042 374.401C202.402 374.193 202.682 373.901 202.882 373.525C203.09 373.149 203.194 372.721 203.194 372.241C203.194 371.761 203.09 371.333 202.882 370.957C202.682 370.581 202.402 370.293 202.042 370.093C201.69 369.885 201.294 369.781 200.854 369.781C200.406 369.781 200.002 369.885 199.642 370.093C199.29 370.293 199.01 370.581 198.802 370.957C198.602 371.333 198.502 371.761 198.502 372.241C198.502 372.721 198.602 373.149 198.802 373.525C199.01 373.901 199.29 374.193 199.642 374.401C200.002 374.601 200.406 374.701 200.854 374.701ZM213.671 375.013C213.511 375.157 213.311 375.269 213.071 375.349C212.839 375.421 212.595 375.457 212.339 375.457C211.747 375.457 211.291 375.297 210.971 374.977C210.651 374.657 210.491 374.205 210.491 373.621V369.805H209.363V369.085H210.491V367.705H211.343V369.085H213.263V369.805H211.343V373.573C211.343 373.949 211.435 374.237 211.619 374.437C211.811 374.629 212.083 374.725 212.435 374.725C212.611 374.725 212.779 374.697 212.939 374.641C213.107 374.585 213.251 374.505 213.371 374.401L213.671 375.013ZM217.98 375.457C217.372 375.457 216.824 375.321 216.336 375.049C215.848 374.769 215.464 374.385 215.184 373.897C214.904 373.409 214.764 372.857 214.764 372.241C214.764 371.625 214.904 371.073 215.184 370.585C215.464 370.097 215.848 369.717 216.336 369.445C216.824 369.173 217.372 369.037 217.98 369.037C218.588 369.037 219.136 369.173 219.624 369.445C220.112 369.717 220.492 370.097 220.764 370.585C221.044 371.073 221.184 371.625 221.184 372.241C221.184 372.857 221.044 373.409 220.764 373.897C220.492 374.385 220.112 374.769 219.624 375.049C219.136 375.321 218.588 375.457 217.98 375.457ZM217.98 374.701C218.428 374.701 218.828 374.601 219.18 374.401C219.54 374.193 219.82 373.901 220.02 373.525C220.22 373.149 220.32 372.721 220.32 372.241C220.32 371.761 220.22 371.333 220.02 370.957C219.82 370.581 219.54 370.293 219.18 370.093C218.828 369.885 218.428 369.781 217.98 369.781C217.532 369.781 217.128 369.885 216.768 370.093C216.416 370.293 216.136 370.581 215.928 370.957C215.728 371.333 215.628 371.761 215.628 372.241C215.628 372.721 215.728 373.149 215.928 373.525C216.136 373.901 216.416 374.193 216.768 374.401C217.128 374.601 217.532 374.701 217.98 374.701ZM238.576 366.997L235.744 375.397H234.808L232.348 368.233L229.876 375.397H228.952L226.12 366.997H227.032L229.456 374.221L231.964 366.997H232.792L235.264 374.257L237.724 366.997H238.576ZM242.523 375.457C241.915 375.457 241.367 375.321 240.879 375.049C240.391 374.769 240.007 374.385 239.727 373.897C239.447 373.409 239.307 372.857 239.307 372.241C239.307 371.625 239.447 371.073 239.727 370.585C240.007 370.097 240.391 369.717 240.879 369.445C241.367 369.173 241.915 369.037 242.523 369.037C243.131 369.037 243.679 369.173 244.167 369.445C244.655 369.717 245.035 370.097 245.307 370.585C245.587 371.073 245.727 371.625 245.727 372.241C245.727 372.857 245.587 373.409 245.307 373.897C245.035 374.385 244.655 374.769 244.167 375.049C243.679 375.321 243.131 375.457 242.523 375.457ZM242.523 374.701C242.971 374.701 243.371 374.601 243.723 374.401C244.083 374.193 244.363 373.901 244.563 373.525C244.763 373.149 244.863 372.721 244.863 372.241C244.863 371.761 244.763 371.333 244.563 370.957C244.363 370.581 244.083 370.293 243.723 370.093C243.371 369.885 242.971 369.781 242.523 369.781C242.075 369.781 241.671 369.885 241.311 370.093C240.959 370.293 240.679 370.581 240.471 370.957C240.271 371.333 240.171 371.761 240.171 372.241C240.171 372.721 240.271 373.149 240.471 373.525C240.679 373.901 240.959 374.193 241.311 374.401C241.671 374.601 242.075 374.701 242.523 374.701ZM248.683 370.321C248.883 369.897 249.179 369.577 249.571 369.361C249.971 369.145 250.463 369.037 251.047 369.037V369.865L250.843 369.853C250.179 369.853 249.659 370.057 249.283 370.465C248.907 370.873 248.719 371.445 248.719 372.181V375.397H247.867V369.085H248.683V370.321ZM255.329 372.229L253.841 373.597V375.397H252.989V366.493H253.841V372.529L257.609 369.085H258.665L255.965 371.665L258.917 375.397H257.873L255.329 372.229Z" fill="#9C9C9C"/>
<circle cx="158.64" cy="371.397" r="4" fill="#FB8832"/>
<path d="M241.152 396.997C242.224 396.997 243.064 397.253 243.672 397.765C244.28 398.277 244.584 398.981 244.584 399.877C244.584 400.773 244.28 401.477 243.672 401.989C243.064 402.493 242.224 402.745 241.152 402.745H238.896V405.397H238.008V396.997H241.152ZM241.128 401.965C241.96 401.965 242.596 401.785 243.036 401.425C243.476 401.057 243.696 400.541 243.696 399.877C243.696 399.197 243.476 398.677 243.036 398.317C242.596 397.949 241.96 397.765 241.128 397.765H238.896V401.965H241.128ZM247.376 400.321C247.576 399.897 247.872 399.577 248.264 399.361C248.664 399.145 249.156 399.037 249.74 399.037V399.865L249.536 399.853C248.872 399.853 248.352 400.057 247.976 400.465C247.6 400.873 247.412 401.445 247.412 402.181V405.397H246.56V399.085H247.376V400.321ZM254.204 405.457C253.596 405.457 253.048 405.321 252.56 405.049C252.072 404.769 251.688 404.385 251.408 403.897C251.128 403.409 250.988 402.857 250.988 402.241C250.988 401.625 251.128 401.073 251.408 400.585C251.688 400.097 252.072 399.717 252.56 399.445C253.048 399.173 253.596 399.037 254.204 399.037C254.812 399.037 255.36 399.173 255.848 399.445C256.336 399.717 256.716 400.097 256.988 400.585C257.268 401.073 257.408 401.625 257.408 402.241C257.408 402.857 257.268 403.409 256.988 403.897C256.716 404.385 256.336 404.769 255.848 405.049C255.36 405.321 254.812 405.457 254.204 405.457ZM254.204 404.701C254.652 404.701 255.052 404.601 255.404 404.401C255.764 404.193 256.044 403.901 256.244 403.525C256.444 403.149 256.544 402.721 256.544 402.241C256.544 401.761 256.444 401.333 256.244 400.957C256.044 400.581 255.764 400.293 255.404 400.093C255.052 399.885 254.652 399.781 254.204 399.781C253.756 399.781 253.352 399.885 252.992 400.093C252.64 400.293 252.36 400.581 252.152 400.957C251.952 401.333 251.852 401.761 251.852 402.241C251.852 402.721 251.952 403.149 252.152 403.525C252.36 403.901 252.64 404.193 252.992 404.401C253.352 404.601 253.756 404.701 254.204 404.701ZM262.763 399.037C263.555 399.037 264.183 399.269 264.647 399.733C265.119 400.189 265.355 400.857 265.355 401.737V405.397H264.503V401.821C264.503 401.165 264.339 400.665 264.011 400.321C263.683 399.977 263.215 399.805 262.607 399.805C261.927 399.805 261.387 400.009 260.987 400.417C260.595 400.817 260.399 401.373 260.399 402.085V405.397H259.547V399.085H260.363V400.249C260.595 399.865 260.915 399.569 261.323 399.361C261.739 399.145 262.219 399.037 262.763 399.037ZM273.588 402.505H268.308C268.356 403.161 268.608 403.693 269.064 404.101C269.52 404.501 270.096 404.701 270.792 404.701C271.184 404.701 271.544 404.633 271.872 404.497C272.2 404.353 272.484 404.145 272.724 403.873L273.204 404.425C272.924 404.761 272.572 405.017 272.148 405.193C271.732 405.369 271.272 405.457 270.768 405.457C270.12 405.457 269.544 405.321 269.04 405.049C268.544 404.769 268.156 404.385 267.876 403.897C267.596 403.409 267.456 402.857 267.456 402.241C267.456 401.625 267.588 401.073 267.852 400.585C268.124 400.097 268.492 399.717 268.956 399.445C269.428 399.173 269.956 399.037 270.54 399.037C271.124 399.037 271.648 399.173 272.112 399.445C272.576 399.717 272.94 400.097 273.204 400.585C273.468 401.065 273.6 401.617 273.6 402.241L273.588 402.505ZM270.54 399.769C269.932 399.769 269.42 399.965 269.004 400.357C268.596 400.741 268.364 401.245 268.308 401.869H272.784C272.728 401.245 272.492 400.741 272.076 400.357C271.668 399.965 271.156 399.769 270.54 399.769ZM282.599 405.013C282.439 405.157 282.239 405.269 281.999 405.349C281.767 405.421 281.523 405.457 281.267 405.457C280.675 405.457 280.219 405.297 279.899 404.977C279.579 404.657 279.419 404.205 279.419 403.621V399.805H278.291V399.085H279.419V397.705H280.271V399.085H282.191V399.805H280.271V403.573C280.271 403.949 280.363 404.237 280.547 404.437C280.739 404.629 281.011 404.725 281.363 404.725C281.539 404.725 281.707 404.697 281.867 404.641C282.035 404.585 282.179 404.505 282.299 404.401L282.599 405.013ZM286.907 405.457C286.299 405.457 285.751 405.321 285.263 405.049C284.775 404.769 284.391 404.385 284.111 403.897C283.831 403.409 283.691 402.857 283.691 402.241C283.691 401.625 283.831 401.073 284.111 400.585C284.391 400.097 284.775 399.717 285.263 399.445C285.751 399.173 286.299 399.037 286.907 399.037C287.515 399.037 288.063 399.173 288.551 399.445C289.039 399.717 289.419 400.097 289.691 400.585C289.971 401.073 290.111 401.625 290.111 402.241C290.111 402.857 289.971 403.409 289.691 403.897C289.419 404.385 289.039 404.769 288.551 405.049C288.063 405.321 287.515 405.457 286.907 405.457ZM286.907 404.701C287.355 404.701 287.755 404.601 288.107 404.401C288.467 404.193 288.747 403.901 288.947 403.525C289.147 403.149 289.247 402.721 289.247 402.241C289.247 401.761 289.147 401.333 288.947 400.957C288.747 400.581 288.467 400.293 288.107 400.093C287.755 399.885 287.355 399.781 286.907 399.781C286.459 399.781 286.055 399.885 285.695 400.093C285.343 400.293 285.063 400.581 284.855 400.957C284.655 401.333 284.555 401.761 284.555 402.241C284.555 402.721 284.655 403.149 284.855 403.525C285.063 403.901 285.343 404.193 285.695 404.401C286.055 404.601 286.459 404.701 286.907 404.701ZM303.663 399.037C304.455 399.037 305.075 399.265 305.523 399.721C305.979 400.177 306.207 400.849 306.207 401.737V405.397H305.355V401.821C305.355 401.165 305.195 400.665 304.875 400.321C304.563 399.977 304.119 399.805 303.543 399.805C302.887 399.805 302.371 400.009 301.995 400.417C301.619 400.817 301.431 401.373 301.431 402.085V405.397H300.579V401.821C300.579 401.165 300.419 400.665 300.099 400.321C299.787 399.977 299.339 399.805 298.755 399.805C298.107 399.805 297.591 400.009 297.207 400.417C296.831 400.817 296.643 401.373 296.643 402.085V405.397H295.791V399.085H296.607V400.237C296.831 399.853 297.143 399.557 297.543 399.349C297.943 399.141 298.403 399.037 298.923 399.037C299.451 399.037 299.907 399.149 300.291 399.373C300.683 399.597 300.975 399.929 301.167 400.369C301.399 399.953 301.731 399.629 302.163 399.397C302.603 399.157 303.103 399.037 303.663 399.037ZM311.125 399.037C311.949 399.037 312.581 399.245 313.021 399.661C313.461 400.069 313.681 400.677 313.681 401.485V405.397H312.865V404.413C312.673 404.741 312.389 404.997 312.013 405.181C311.645 405.365 311.205 405.457 310.693 405.457C309.989 405.457 309.429 405.289 309.013 404.953C308.597 404.617 308.389 404.173 308.389 403.621C308.389 403.085 308.581 402.653 308.965 402.325C309.357 401.997 309.977 401.833 310.825 401.833H312.829V401.449C312.829 400.905 312.677 400.493 312.373 400.213C312.069 399.925 311.625 399.781 311.041 399.781C310.641 399.781 310.257 399.849 309.889 399.985C309.521 400.113 309.205 400.293 308.941 400.525L308.557 399.889C308.877 399.617 309.261 399.409 309.709 399.265C310.157 399.113 310.629 399.037 311.125 399.037ZM310.825 404.785C311.305 404.785 311.717 404.677 312.061 404.461C312.405 404.237 312.661 403.917 312.829 403.501V402.469H310.849C309.769 402.469 309.229 402.845 309.229 403.597C309.229 403.965 309.369 404.257 309.649 404.473C309.929 404.681 310.321 404.785 310.825 404.785ZM318.736 402.229L317.248 403.597V405.397H316.396V396.493H317.248V402.529L321.016 399.085H322.072L319.372 401.665L322.324 405.397H321.28L318.736 402.229ZM329.241 402.505H323.961C324.009 403.161 324.261 403.693 324.717 404.101C325.173 404.501 325.749 404.701 326.445 404.701C326.837 404.701 327.197 404.633 327.525 404.497C327.853 404.353 328.137 404.145 328.377 403.873L328.857 404.425C328.577 404.761 328.225 405.017 327.801 405.193C327.385 405.369 326.925 405.457 326.421 405.457C325.773 405.457 325.197 405.321 324.693 405.049C324.197 404.769 323.809 404.385 323.529 403.897C323.249 403.409 323.109 402.857 323.109 402.241C323.109 401.625 323.241 401.073 323.505 400.585C323.777 400.097 324.145 399.717 324.609 399.445C325.081 399.173 325.609 399.037 326.193 399.037C326.777 399.037 327.301 399.173 327.765 399.445C328.229 399.717 328.593 400.097 328.857 400.585C329.121 401.065 329.253 401.617 329.253 402.241L329.241 402.505ZM326.193 399.769C325.585 399.769 325.073 399.965 324.657 400.357C324.249 400.741 324.017 401.245 323.961 401.869H328.437C328.381 401.245 328.145 400.741 327.729 400.357C327.321 399.965 326.809 399.769 326.193 399.769ZM342.8 399.037C343.592 399.037 344.212 399.265 344.66 399.721C345.116 400.177 345.344 400.849 345.344 401.737V405.397H344.492V401.821C344.492 401.165 344.332 400.665 344.012 400.321C343.7 399.977 343.256 399.805 342.68 399.805C342.024 399.805 341.508 400.009 341.132 400.417C340.756 400.817 340.568 401.373 340.568 402.085V405.397H339.716V401.821C339.716 401.165 339.556 400.665 339.236 400.321C338.924 399.977 338.476 399.805 337.892 399.805C337.244 399.805 336.728 400.009 336.344 400.417C335.968 400.817 335.78 401.373 335.78 402.085V405.397H334.928V399.085H335.744V400.237C335.968 399.853 336.28 399.557 336.68 399.349C337.08 399.141 337.54 399.037 338.06 399.037C338.588 399.037 339.044 399.149 339.428 399.373C339.82 399.597 340.112 399.929 340.304 400.369C340.536 399.953 340.868 399.629 341.3 399.397C341.74 399.157 342.24 399.037 342.8 399.037ZM348.054 399.085H348.906V405.397H348.054V399.085ZM348.486 397.705C348.31 397.705 348.162 397.645 348.042 397.525C347.922 397.405 347.862 397.261 347.862 397.093C347.862 396.933 347.922 396.793 348.042 396.673C348.162 396.553 348.31 396.493 348.486 396.493C348.662 396.493 348.81 396.553 348.93 396.673C349.05 396.785 349.11 396.921 349.11 397.081C349.11 397.257 349.05 397.405 348.93 397.525C348.81 397.645 348.662 397.705 348.486 397.705ZM353.369 405.457C352.857 405.457 352.365 405.385 351.893 405.241C351.429 405.089 351.065 404.901 350.801 404.677L351.185 404.005C351.449 404.213 351.781 404.385 352.181 404.521C352.581 404.649 352.997 404.713 353.429 404.713C354.005 404.713 354.429 404.625 354.701 404.449C354.981 404.265 355.121 404.009 355.121 403.681C355.121 403.449 355.045 403.269 354.893 403.141C354.741 403.005 354.549 402.905 354.317 402.841C354.085 402.769 353.777 402.701 353.393 402.637C352.881 402.541 352.469 402.445 352.157 402.349C351.845 402.245 351.577 402.073 351.353 401.833C351.137 401.593 351.029 401.261 351.029 400.837C351.029 400.309 351.249 399.877 351.689 399.541C352.129 399.205 352.741 399.037 353.525 399.037C353.933 399.037 354.341 399.093 354.749 399.205C355.157 399.309 355.493 399.449 355.757 399.625L355.385 400.309C354.865 399.949 354.245 399.769 353.525 399.769C352.981 399.769 352.569 399.865 352.289 400.057C352.017 400.249 351.881 400.501 351.881 400.813C351.881 401.053 351.957 401.245 352.109 401.389C352.269 401.533 352.465 401.641 352.697 401.713C352.929 401.777 353.249 401.845 353.657 401.917C354.161 402.013 354.565 402.109 354.869 402.205C355.173 402.301 355.433 402.465 355.649 402.697C355.865 402.929 355.973 403.249 355.973 403.657C355.973 404.209 355.741 404.649 355.277 404.977C354.821 405.297 354.185 405.457 353.369 405.457ZM361.272 405.013C361.112 405.157 360.912 405.269 360.672 405.349C360.44 405.421 360.196 405.457 359.94 405.457C359.348 405.457 358.892 405.297 358.572 404.977C358.252 404.657 358.092 404.205 358.092 403.621V399.805H356.964V399.085H358.092V397.705H358.944V399.085H360.864V399.805H358.944V403.573C358.944 403.949 359.036 404.237 359.22 404.437C359.412 404.629 359.684 404.725 360.036 404.725C360.212 404.725 360.38 404.697 360.54 404.641C360.708 404.585 360.852 404.505 360.972 404.401L361.272 405.013ZM365.431 399.037C366.255 399.037 366.887 399.245 367.327 399.661C367.767 400.069 367.987 400.677 367.987 401.485V405.397H367.171V404.413C366.979 404.741 366.695 404.997 366.319 405.181C365.951 405.365 365.511 405.457 364.999 405.457C364.295 405.457 363.735 405.289 363.319 404.953C362.903 404.617 362.695 404.173 362.695 403.621C362.695 403.085 362.887 402.653 363.271 402.325C363.663 401.997 364.283 401.833 365.131 401.833H367.135V401.449C367.135 400.905 366.983 400.493 366.679 400.213C366.375 399.925 365.931 399.781 365.347 399.781C364.947 399.781 364.563 399.849 364.195 399.985C363.827 400.113 363.511 400.293 363.247 400.525L362.863 399.889C363.183 399.617 363.567 399.409 364.015 399.265C364.463 399.113 364.935 399.037 365.431 399.037ZM365.131 404.785C365.611 404.785 366.023 404.677 366.367 404.461C366.711 404.237 366.967 403.917 367.135 403.501V402.469H365.155C364.075 402.469 363.535 402.845 363.535 403.597C363.535 403.965 363.675 404.257 363.955 404.473C364.235 404.681 364.627 404.785 365.131 404.785ZM373.041 402.229L371.553 403.597V405.397H370.701V396.493H371.553V402.529L375.321 399.085H376.377L373.677 401.665L376.629 405.397H375.585L373.041 402.229ZM383.546 402.505H378.266C378.314 403.161 378.566 403.693 379.022 404.101C379.478 404.501 380.054 404.701 380.75 404.701C381.142 404.701 381.502 404.633 381.83 404.497C382.158 404.353 382.442 404.145 382.682 403.873L383.162 404.425C382.882 404.761 382.53 405.017 382.106 405.193C381.69 405.369 381.23 405.457 380.726 405.457C380.078 405.457 379.502 405.321 378.998 405.049C378.502 404.769 378.114 404.385 377.834 403.897C377.554 403.409 377.414 402.857 377.414 402.241C377.414 401.625 377.546 401.073 377.81 400.585C378.082 400.097 378.45 399.717 378.914 399.445C379.386 399.173 379.914 399.037 380.498 399.037C381.082 399.037 381.606 399.173 382.07 399.445C382.534 399.717 382.898 400.097 383.162 400.585C383.426 401.065 383.558 401.617 383.558 402.241L383.546 402.505ZM380.498 399.769C379.89 399.769 379.378 399.965 378.962 400.357C378.554 400.741 378.322 401.245 378.266 401.869H382.742C382.686 401.245 382.45 400.741 382.034 400.357C381.626 399.965 381.114 399.769 380.498 399.769Z" fill="#9C9C9C"/>
<circle cx="220.64" cy="401.397" r="4" fill="#E6E5E6"/>
<path d="M322.471 366.997V375.397H321.739L316.339 368.581V375.397H315.451V366.997H316.183L321.595 373.813V366.997H322.471ZM328.012 375.457C327.404 375.457 326.856 375.321 326.368 375.049C325.88 374.769 325.496 374.385 325.216 373.897C324.936 373.409 324.796 372.857 324.796 372.241C324.796 371.625 324.936 371.073 325.216 370.585C325.496 370.097 325.88 369.717 326.368 369.445C326.856 369.173 327.404 369.037 328.012 369.037C328.62 369.037 329.168 369.173 329.656 369.445C330.144 369.717 330.524 370.097 330.796 370.585C331.076 371.073 331.216 371.625 331.216 372.241C331.216 372.857 331.076 373.409 330.796 373.897C330.524 374.385 330.144 374.769 329.656 375.049C329.168 375.321 328.62 375.457 328.012 375.457ZM328.012 374.701C328.46 374.701 328.86 374.601 329.212 374.401C329.572 374.193 329.852 373.901 330.052 373.525C330.252 373.149 330.352 372.721 330.352 372.241C330.352 371.761 330.252 371.333 330.052 370.957C329.852 370.581 329.572 370.293 329.212 370.093C328.86 369.885 328.46 369.781 328.012 369.781C327.564 369.781 327.16 369.885 326.8 370.093C326.448 370.293 326.168 370.581 325.96 370.957C325.76 371.333 325.66 371.761 325.66 372.241C325.66 372.721 325.76 373.149 325.96 373.525C326.168 373.901 326.448 374.193 326.8 374.401C327.16 374.601 327.564 374.701 328.012 374.701ZM336.68 375.013C336.52 375.157 336.32 375.269 336.08 375.349C335.848 375.421 335.604 375.457 335.348 375.457C334.756 375.457 334.3 375.297 333.98 374.977C333.66 374.657 333.5 374.205 333.5 373.621V369.805H332.372V369.085H333.5V367.705H334.352V369.085H336.272V369.805H334.352V373.573C334.352 373.949 334.444 374.237 334.628 374.437C334.82 374.629 335.092 374.725 335.444 374.725C335.62 374.725 335.788 374.697 335.948 374.641C336.116 374.585 336.26 374.505 336.38 374.401L336.68 375.013ZM345.999 375.469C345.167 375.469 344.415 375.285 343.743 374.917C343.079 374.549 342.555 374.041 342.171 373.393C341.795 372.737 341.607 372.005 341.607 371.197C341.607 370.389 341.795 369.661 342.171 369.013C342.555 368.357 343.083 367.845 343.755 367.477C344.427 367.109 345.179 366.925 346.011 366.925C346.635 366.925 347.211 367.029 347.739 367.237C348.267 367.445 348.715 367.749 349.083 368.149L348.519 368.713C347.863 368.049 347.035 367.717 346.035 367.717C345.371 367.717 344.767 367.869 344.223 368.173C343.679 368.477 343.251 368.893 342.939 369.421C342.635 369.949 342.483 370.541 342.483 371.197C342.483 371.853 342.635 372.445 342.939 372.973C343.251 373.501 343.679 373.917 344.223 374.221C344.767 374.525 345.371 374.677 346.035 374.677C347.043 374.677 347.871 374.341 348.519 373.669L349.083 374.233C348.715 374.633 348.263 374.941 347.727 375.157C347.199 375.365 346.623 375.469 345.999 375.469ZM351.196 366.493H352.048V375.397H351.196V366.493ZM360.315 372.505H355.035C355.083 373.161 355.335 373.693 355.791 374.101C356.247 374.501 356.823 374.701 357.519 374.701C357.911 374.701 358.271 374.633 358.599 374.497C358.927 374.353 359.211 374.145 359.451 373.873L359.931 374.425C359.651 374.761 359.299 375.017 358.875 375.193C358.459 375.369 357.999 375.457 357.495 375.457C356.847 375.457 356.271 375.321 355.767 375.049C355.271 374.769 354.883 374.385 354.603 373.897C354.323 373.409 354.183 372.857 354.183 372.241C354.183 371.625 354.315 371.073 354.579 370.585C354.851 370.097 355.219 369.717 355.683 369.445C356.155 369.173 356.683 369.037 357.267 369.037C357.851 369.037 358.375 369.173 358.839 369.445C359.303 369.717 359.667 370.097 359.931 370.585C360.195 371.065 360.327 371.617 360.327 372.241L360.315 372.505ZM357.267 369.769C356.659 369.769 356.147 369.965 355.731 370.357C355.323 370.741 355.091 371.245 355.035 371.869H359.511C359.455 371.245 359.219 370.741 358.803 370.357C358.395 369.965 357.883 369.769 357.267 369.769ZM364.493 369.037C365.317 369.037 365.949 369.245 366.389 369.661C366.829 370.069 367.049 370.677 367.049 371.485V375.397H366.233V374.413C366.041 374.741 365.757 374.997 365.381 375.181C365.013 375.365 364.573 375.457 364.061 375.457C363.357 375.457 362.797 375.289 362.381 374.953C361.965 374.617 361.757 374.173 361.757 373.621C361.757 373.085 361.949 372.653 362.333 372.325C362.725 371.997 363.345 371.833 364.193 371.833H366.197V371.449C366.197 370.905 366.045 370.493 365.741 370.213C365.437 369.925 364.993 369.781 364.409 369.781C364.009 369.781 363.625 369.849 363.257 369.985C362.889 370.113 362.573 370.293 362.309 370.525L361.925 369.889C362.245 369.617 362.629 369.409 363.077 369.265C363.525 369.113 363.997 369.037 364.493 369.037ZM364.193 374.785C364.673 374.785 365.085 374.677 365.429 374.461C365.773 374.237 366.029 373.917 366.197 373.501V372.469H364.217C363.137 372.469 362.597 372.845 362.597 373.597C362.597 373.965 362.737 374.257 363.017 374.473C363.297 374.681 363.689 374.785 364.193 374.785ZM370.579 370.321C370.779 369.897 371.075 369.577 371.467 369.361C371.867 369.145 372.359 369.037 372.943 369.037V369.865L372.739 369.853C372.075 369.853 371.555 370.057 371.179 370.465C370.803 370.873 370.615 371.445 370.615 372.181V375.397H369.763V369.085H370.579V370.321Z" fill="#9C9C9C"/>
<circle cx="294.083" cy="371.397" r="4" fill="#9B51E0"/>
<path d="M52.97 29.28H45.11L43.85 33H38.48L46.1 11.94H52.04L59.66 33H54.23L52.97 29.28ZM51.65 25.32L49.04 17.61L46.46 25.32H51.65ZM60.9591 24.63C60.9591 22.89 61.3091 21.37 62.0091 20.07C62.7291 18.77 63.7191 17.77 64.9791 17.07C66.2591 16.37 67.7191 16.02 69.3591 16.02C71.4591 16.02 73.2091 16.57 74.6091 17.67C76.0291 18.77 76.9591 20.32 77.3991 22.32H71.9391C71.4791 21.04 70.5891 20.4 69.2691 20.4C68.3291 20.4 67.5791 20.77 67.0191 21.51C66.4591 22.23 66.1791 23.27 66.1791 24.63C66.1791 25.99 66.4591 27.04 67.0191 27.78C67.5791 28.5 68.3291 28.86 69.2691 28.86C70.5891 28.86 71.4791 28.22 71.9391 26.94H77.3991C76.9591 28.9 76.0291 30.44 74.6091 31.56C73.1891 32.68 71.4391 33.24 69.3591 33.24C67.7191 33.24 66.2591 32.89 64.9791 32.19C63.7191 31.49 62.7291 30.49 62.0091 29.19C61.3091 27.89 60.9591 26.37 60.9591 24.63ZM79.1232 24.6C79.1232 22.88 79.4432 21.37 80.0832 20.07C80.7432 18.77 81.6332 17.77 82.7532 17.07C83.8732 16.37 85.1232 16.02 86.5032 16.02C87.6832 16.02 88.7132 16.26 89.5932 16.74C90.4932 17.22 91.1832 17.85 91.6632 18.63V16.26H96.7932V33H91.6632V30.63C91.1632 31.41 90.4632 32.04 89.5632 32.52C88.6832 33 87.6532 33.24 86.4732 33.24C85.1132 33.24 83.8732 32.89 82.7532 32.19C81.6332 31.47 80.7432 30.46 80.0832 29.16C79.4432 27.84 79.1232 26.32 79.1232 24.6ZM91.6632 24.63C91.6632 23.35 91.3032 22.34 90.5832 21.6C89.8832 20.86 89.0232 20.49 88.0032 20.49C86.9832 20.49 86.1132 20.86 85.3932 21.6C84.6932 22.32 84.3432 23.32 84.3432 24.6C84.3432 25.88 84.6932 26.9 85.3932 27.66C86.1132 28.4 86.9832 28.77 88.0032 28.77C89.0232 28.77 89.8832 28.4 90.5832 27.66C91.3032 26.92 91.6632 25.91 91.6632 24.63ZM99.4845 24.6C99.4845 22.88 99.8045 21.37 100.445 20.07C101.105 18.77 101.995 17.77 103.115 17.07C104.235 16.37 105.485 16.02 106.865 16.02C107.965 16.02 108.965 16.25 109.865 16.71C110.785 17.17 111.505 17.79 112.025 18.57V10.8H117.155V33H112.025V30.6C111.545 31.4 110.855 32.04 109.955 32.52C109.075 33 108.045 33.24 106.865 33.24C105.485 33.24 104.235 32.89 103.115 32.19C101.995 31.47 101.105 30.46 100.445 29.16C99.8045 27.84 99.4845 26.32 99.4845 24.6ZM112.025 24.63C112.025 23.35 111.665 22.34 110.945 21.6C110.245 20.86 109.385 20.49 108.365 20.49C107.345 20.49 106.475 20.86 105.755 21.6C105.055 22.32 104.705 23.32 104.705 24.6C104.705 25.88 105.055 26.9 105.755 27.66C106.475 28.4 107.345 28.77 108.365 28.77C109.385 28.77 110.245 28.4 110.945 27.66C111.665 26.92 112.025 25.91 112.025 24.63ZM136.646 24.36C136.646 24.84 136.616 25.34 136.556 25.86H124.946C125.026 26.9 125.356 27.7 125.936 28.26C126.536 28.8 127.266 29.07 128.126 29.07C129.406 29.07 130.296 28.53 130.796 27.45H136.256C135.976 28.55 135.466 29.54 134.726 30.42C134.006 31.3 133.096 31.99 131.996 32.49C130.896 32.99 129.666 33.24 128.306 33.24C126.666 33.24 125.206 32.89 123.926 32.19C122.646 31.49 121.646 30.49 120.926 29.19C120.206 27.89 119.846 26.37 119.846 24.63C119.846 22.89 120.196 21.37 120.896 20.07C121.616 18.77 122.616 17.77 123.896 17.07C125.176 16.37 126.646 16.02 128.306 16.02C129.926 16.02 131.366 16.36 132.626 17.04C133.886 17.72 134.866 18.69 135.566 19.95C136.286 21.21 136.646 22.68 136.646 24.36ZM131.396 23.01C131.396 22.13 131.096 21.43 130.496 20.91C129.896 20.39 129.146 20.13 128.246 20.13C127.386 20.13 126.656 20.38 126.056 20.88C125.476 21.38 125.116 22.09 124.976 23.01H131.396ZM160.712 16.08C162.792 16.08 164.442 16.71 165.662 17.97C166.902 19.23 167.522 20.98 167.522 23.22V33H162.422V23.91C162.422 22.83 162.132 22 161.552 21.42C160.992 20.82 160.212 20.52 159.212 20.52C158.212 20.52 157.422 20.82 156.842 21.42C156.282 22 156.002 22.83 156.002 23.91V33H150.902V23.91C150.902 22.83 150.612 22 150.032 21.42C149.472 20.82 148.692 20.52 147.692 20.52C146.692 20.52 145.902 20.82 145.322 21.42C144.762 22 144.482 22.83 144.482 23.91V33H139.352V16.26H144.482V18.36C145.002 17.66 145.682 17.11 146.522 16.71C147.362 16.29 148.312 16.08 149.372 16.08C150.632 16.08 151.752 16.35 152.732 16.89C153.732 17.43 154.512 18.2 155.072 19.2C155.652 18.28 156.442 17.53 157.442 16.95C158.442 16.37 159.532 16.08 160.712 16.08ZM173.69 14.52C172.79 14.52 172.05 14.26 171.47 13.74C170.91 13.2 170.63 12.54 170.63 11.76C170.63 10.96 170.91 10.3 171.47 9.78C172.05 9.24 172.79 8.97 173.69 8.97C174.57 8.97 175.29 9.24 175.85 9.78C176.43 10.3 176.72 10.96 176.72 11.76C176.72 12.54 176.43 13.2 175.85 13.74C175.29 14.26 174.57 14.52 173.69 14.52ZM176.24 16.26V33H171.11V16.26H176.24ZM178.938 24.63C178.938 22.89 179.288 21.37 179.988 20.07C180.708 18.77 181.698 17.77 182.958 17.07C184.238 16.37 185.698 16.02 187.338 16.02C189.438 16.02 191.188 16.57 192.588 17.67C194.008 18.77 194.938 20.32 195.378 22.32H189.918C189.458 21.04 188.568 20.4 187.248 20.4C186.308 20.4 185.558 20.77 184.998 21.51C184.438 22.23 184.158 23.27 184.158 24.63C184.158 25.99 184.438 27.04 184.998 27.78C185.558 28.5 186.308 28.86 187.248 28.86C188.568 28.86 189.458 28.22 189.918 26.94H195.378C194.938 28.9 194.008 30.44 192.588 31.56C191.168 32.68 189.418 33.24 187.338 33.24C185.698 33.24 184.238 32.89 182.958 32.19C181.698 31.49 180.708 30.49 179.988 29.19C179.288 27.89 178.938 26.37 178.938 24.63ZM217.589 29.28H209.729L208.469 33H203.099L210.719 11.94H216.659L224.279 33H218.849L217.589 29.28ZM216.269 25.32L213.659 17.61L211.079 25.32H216.269ZM236.798 16.08C238.758 16.08 240.318 16.72 241.478 18C242.658 19.26 243.248 21 243.248 23.22V33H238.148V23.91C238.148 22.79 237.858 21.92 237.278 21.3C236.698 20.68 235.918 20.37 234.938 20.37C233.958 20.37 233.178 20.68 232.598 21.3C232.018 21.92 231.728 22.79 231.728 23.91V33H226.598V16.26H231.728V18.48C232.248 17.74 232.948 17.16 233.828 16.74C234.708 16.3 235.698 16.08 236.798 16.08ZM245.793 24.6C245.793 22.88 246.113 21.37 246.753 20.07C247.413 18.77 248.303 17.77 249.423 17.07C250.543 16.37 251.793 16.02 253.173 16.02C254.353 16.02 255.383 16.26 256.263 16.74C257.163 17.22 257.853 17.85 258.333 18.63V16.26H263.463V33H258.333V30.63C257.833 31.41 257.133 32.04 256.233 32.52C255.353 33 254.323 33.24 253.143 33.24C251.783 33.24 250.543 32.89 249.423 32.19C248.303 31.47 247.413 30.46 246.753 29.16C246.113 27.84 245.793 26.32 245.793 24.6ZM258.333 24.63C258.333 23.35 257.973 22.34 257.253 21.6C256.553 20.86 255.693 20.49 254.673 20.49C253.653 20.49 252.783 20.86 252.063 21.6C251.363 22.32 251.013 23.32 251.013 24.6C251.013 25.88 251.363 26.9 252.063 27.66C252.783 28.4 253.653 28.77 254.673 28.77C255.693 28.77 256.553 28.4 257.253 27.66C257.973 26.92 258.333 25.91 258.333 24.63ZM272.304 10.8V33H267.174V10.8H272.304ZM293.122 16.26L282.622 40.95H277.102L280.942 32.43L274.132 16.26H279.862L283.732 26.73L287.572 16.26H293.122ZM301.787 33.24C300.327 33.24 299.027 32.99 297.887 32.49C296.747 31.99 295.847 31.31 295.187 30.45C294.527 29.57 294.157 28.59 294.077 27.51H299.147C299.207 28.09 299.477 28.56 299.957 28.92C300.437 29.28 301.027 29.46 301.727 29.46C302.367 29.46 302.857 29.34 303.197 29.1C303.557 28.84 303.737 28.51 303.737 28.11C303.737 27.63 303.487 27.28 302.987 27.06C302.487 26.82 301.677 26.56 300.557 26.28C299.357 26 298.357 25.71 297.557 25.41C296.757 25.09 296.067 24.6 295.487 23.94C294.907 23.26 294.617 22.35 294.617 21.21C294.617 20.25 294.877 19.38 295.397 18.6C295.937 17.8 296.717 17.17 297.737 16.71C298.777 16.25 300.007 16.02 301.427 16.02C303.527 16.02 305.177 16.54 306.377 17.58C307.597 18.62 308.297 20 308.477 21.72H303.737C303.657 21.14 303.397 20.68 302.957 20.34C302.537 20 301.977 19.83 301.277 19.83C300.677 19.83 300.217 19.95 299.897 20.19C299.577 20.41 299.417 20.72 299.417 21.12C299.417 21.6 299.667 21.96 300.167 22.2C300.687 22.44 301.487 22.68 302.567 22.92C303.807 23.24 304.817 23.56 305.597 23.88C306.377 24.18 307.057 24.68 307.637 25.38C308.237 26.06 308.547 26.98 308.567 28.14C308.567 29.12 308.287 30 307.727 30.78C307.187 31.54 306.397 32.14 305.357 32.58C304.337 33.02 303.147 33.24 301.787 33.24ZM314.286 14.52C313.386 14.52 312.646 14.26 312.066 13.74C311.506 13.2 311.226 12.54 311.226 11.76C311.226 10.96 311.506 10.3 312.066 9.78C312.646 9.24 313.386 8.97 314.286 8.97C315.166 8.97 315.886 9.24 316.446 9.78C317.026 10.3 317.316 10.96 317.316 11.76C317.316 12.54 317.026 13.2 316.446 13.74C315.886 14.26 315.166 14.52 314.286 14.52ZM316.836 16.26V33H311.706V16.26H316.836ZM327.363 33.24C325.903 33.24 324.603 32.99 323.463 32.49C322.323 31.99 321.423 31.31 320.763 30.45C320.103 29.57 319.733 28.59 319.653 27.51H324.723C324.783 28.09 325.053 28.56 325.533 28.92C326.013 29.28 326.603 29.46 327.303 29.46C327.943 29.46 328.433 29.34 328.773 29.1C329.133 28.84 329.313 28.51 329.313 28.11C329.313 27.63 329.063 27.28 328.563 27.06C328.063 26.82 327.253 26.56 326.133 26.28C324.933 26 323.933 25.71 323.133 25.41C322.333 25.09 321.643 24.6 321.063 23.94C320.483 23.26 320.193 22.35 320.193 21.21C320.193 20.25 320.453 19.38 320.973 18.6C321.513 17.8 322.293 17.17 323.313 16.71C324.353 16.25 325.583 16.02 327.003 16.02C329.103 16.02 330.753 16.54 331.953 17.58C333.173 18.62 333.873 20 334.053 21.72H329.313C329.233 21.14 328.973 20.68 328.533 20.34C328.113 20 327.553 19.83 326.853 19.83C326.253 19.83 325.793 19.95 325.473 20.19C325.153 20.41 324.993 20.72 324.993 21.12C324.993 21.6 325.243 21.96 325.743 22.2C326.263 22.44 327.063 22.68 328.143 22.92C329.383 23.24 330.393 23.56 331.173 23.88C331.953 24.18 332.633 24.68 333.213 25.38C333.813 26.06 334.123 26.98 334.143 28.14C334.143 29.12 333.863 30 333.303 30.78C332.763 31.54 331.973 32.14 330.933 32.58C329.913 33.02 328.723 33.24 327.363 33.24Z" fill="black"/>
<defs>
<filter id="filter0_d_1189_8418" x="0" y="24" width="449" height="417" filterUnits="userSpaceOnUse" color-interpolation-filters="sRGB">
<feFlood flood-opacity="0" result="BackgroundImageFix"/>
<feColorMatrix in="SourceAlpha" type="matrix" values="0 0 0 0 0 0 0 0 0 0 0 0 0 0 0 0 0 0 127 0" result="hardAlpha"/>
<feOffset/>
<feGaussianBlur stdDeviation="10"/>
<feComposite in2="hardAlpha" operator="out"/>
<feColorMatrix type="matrix" values="0 0 0 0 0.564706 0 0 0 0 0.564706 0 0 0 0 0.564706 0 0 0 0.17 0"/>
<feBlend mode="normal" in2="BackgroundImageFix" result="effect1_dropShadow_1189_8418"/>
<feBlend mode="normal" in="SourceGraphic" in2="effect1_dropShadow_1189_8418" result="shape"/>
</filter>
<filter id="filter1_dd_1189_8418" x="315.148" y="96.3975" width="120.406" height="88" filterUnits="userSpaceOnUse" color-interpolation-filters="sRGB">
<feFlood flood-opacity="0" result="BackgroundImageFix"/>
<feColorMatrix in="SourceAlpha" type="matrix" values="0 0 0 0 0 0 0 0 0 0 0 0 0 0 0 0 0 0 127 0" result="hardAlpha"/>
<feOffset dy="4"/>
<feGaussianBlur stdDeviation="12"/>
<feColorMatrix type="matrix" values="0 0 0 0 0 0 0 0 0 0 0 0 0 0 0 0 0 0 0.08 0"/>
<feBlend mode="normal" in2="BackgroundImageFix" result="effect1_dropShadow_1189_8418"/>
<feColorMatrix in="SourceAlpha" type="matrix" values="0 0 0 0 0 0 0 0 0 0 0 0 0 0 0 0 0 0 127 0" result="hardAlpha"/>
<feOffset dy="2"/>
<feGaussianBlur stdDeviation="2"/>
<feColorMatrix type="matrix" values="0 0 0 0 0 0 0 0 0 0 0 0 0 0 0 0 0 0 0.08 0"/>
<feBlend mode="normal" in2="effect1_dropShadow_1189_8418" result="effect2_dropShadow_1189_8418"/>
<feBlend mode="normal" in="SourceGraphic" in2="effect2_dropShadow_1189_8418" result="shape"/>
</filter>
</defs>
</svg>
