<svg width="471" height="906" viewBox="0 0 471 906" fill="none" xmlns="http://www.w3.org/2000/svg">
<g clip-path="url(#clip0_1243_9417)">
<rect x="28" y="16" width="414" height="866" rx="40" fill="#FDDE56"/>
<rect x="28" y="16" width="414" height="896" fill="#FDDE56"/>
<path d="M442 994H28V155C28 138.431 41.4315 125 58 125H402C424.091 125 442 142.909 442 165V994Z" fill="white"/>
<path fill-rule="evenodd" clip-rule="evenodd" d="M91 292.18V264.59C91 256.971 93.4408 250.468 98.3223 245.081C103.204 239.694 109.096 237 116 237H349C355.904 237 361.796 239.694 366.678 245.081C371.559 250.468 374 256.971 374 264.59V731.41C374 739.029 371.559 745.532 366.678 750.919C361.796 756.306 355.904 759 349 759H116C109.096 759 103.204 756.306 98.3223 750.919C93.4408 745.532 91 739.029 91 731.41V292.18Z" fill="#D2D2D2"/>
<path fill-rule="evenodd" clip-rule="evenodd" d="M76 280.18V252.59C76 244.971 78.4408 238.468 83.3223 233.081C88.2039 227.694 94.0964 225 101 225H364C370.904 225 376.796 227.694 381.678 233.081C386.559 238.468 389 244.971 389 252.59V719.41C389 727.029 386.559 733.532 381.678 738.919C376.796 744.306 370.904 747 364 747H101C94.0964 747 88.2039 744.306 83.3223 738.919C78.4408 733.532 76 727.029 76 719.41V280.18Z" fill="#EDEDED"/>
<g filter="url(#filter0_d_1243_9417)">
<path fill-rule="evenodd" clip-rule="evenodd" d="M61 280.12V252.56C61 244.949 63.4408 238.454 68.3223 233.072C73.2039 227.691 79.0964 225 86 225H379C385.904 225 391.796 227.691 396.678 233.072C401.559 238.454 404 244.949 404 252.56V703.44C404 711.051 401.559 717.546 396.678 722.928C391.796 728.309 385.904 731 379 731H86C79.0964 731 73.2039 728.309 68.3223 722.928C63.4408 717.546 61 711.051 61 703.44V280.12Z" fill="#F7F8FB"/>
</g>
<path d="M171.027 554.187H121.258V570.364H171.027V554.187Z" fill="#E5EEF4"/>
<path d="M160.342 524.453L158.92 520.642C167.207 517.549 173.286 512.119 176.995 504.508C178.313 501.791 179.264 498.91 179.82 495.942H166.896V491.875H184.284L184.166 494.024C184.166 494.252 183.816 499.667 180.72 506.119C177.859 512.08 172.005 520.095 160.342 524.453Z" fill="#E5EEF4"/>
<path d="M131.941 524.453L133.364 520.642C125.077 517.549 119.002 512.119 115.289 504.508C113.971 501.791 113.022 498.91 112.468 495.942H125.403V491.875H108L108.122 494.024C108.122 494.252 108.468 499.667 111.568 506.119C114.424 512.08 120.295 520.095 131.941 524.453Z" fill="#E5EEF4"/>
<path d="M174.508 570.363H117.78V572.988H174.508V570.363Z" fill="#D4E3ED"/>
<path d="M167.019 558.202H125.266V566.344H167.019V558.202Z" fill="#D4E3ED"/>
<path d="M148.979 532.308C148.979 532.308 170.539 527.785 170.539 486.488H121.761C121.761 527.785 143.317 532.308 143.317 532.308C143.317 547.573 128.028 553.012 128.028 553.012L127.167 554.403L146.142 554.187L165.121 554.403L164.256 553.012C164.256 553.012 148.979 547.573 148.979 532.308Z" fill="#EFF5F9"/>
<path d="M146.539 498.854L149.01 503.867C149.042 503.932 149.089 503.987 149.148 504.029C149.206 504.071 149.273 504.097 149.344 504.107L154.873 504.913C154.954 504.925 155.03 504.959 155.093 505.012C155.156 505.065 155.202 505.134 155.228 505.212C155.253 505.29 155.256 505.374 155.237 505.454C155.217 505.533 155.175 505.606 155.117 505.663L151.113 509.565C151.06 509.614 151.021 509.676 150.999 509.745C150.977 509.814 150.973 509.887 150.987 509.958L151.93 515.459C151.944 515.54 151.935 515.623 151.905 515.699C151.874 515.775 151.822 515.84 151.756 515.888C151.689 515.936 151.611 515.965 151.529 515.97C151.447 515.975 151.365 515.958 151.293 515.919L146.346 513.325C146.285 513.295 146.218 513.279 146.15 513.279C146.082 513.279 146.014 513.295 145.953 513.325L141.006 515.927C140.934 515.965 140.852 515.982 140.77 515.977C140.689 515.971 140.61 515.943 140.544 515.895C140.477 515.847 140.425 515.782 140.394 515.706C140.362 515.631 140.353 515.548 140.366 515.467L141.313 509.966C141.325 509.895 141.32 509.822 141.298 509.754C141.276 509.686 141.238 509.623 141.187 509.573L137.183 505.671C137.124 505.614 137.083 505.541 137.063 505.461C137.043 505.382 137.046 505.298 137.072 505.22C137.097 505.142 137.144 505.073 137.207 505.02C137.269 504.967 137.346 504.932 137.427 504.921L142.959 504.115C143.03 504.105 143.096 504.078 143.154 504.036C143.212 503.994 143.258 503.939 143.289 503.875L145.765 498.862C145.802 498.791 145.857 498.733 145.925 498.691C145.993 498.65 146.07 498.628 146.149 498.627C146.229 498.626 146.307 498.647 146.375 498.687C146.444 498.727 146.5 498.784 146.539 498.854Z" fill="#D4E3ED"/>
<path d="M344.785 479.679L345.791 493.679L350.903 491.439L351.563 479.679H344.785Z" fill="#D4E3ED"/>
<path d="M348.781 439.847L348.738 438.22C348.781 438.443 348.802 438.669 348.801 438.896C348.801 439.23 348.797 439.541 348.781 439.847Z" fill="url(#paint0_linear_1243_9417)"/>
<path d="M374.993 485.156C374.993 485.156 346.231 497.325 345.791 493.679C345.728 493.16 346.247 492.315 347.504 491.07C349.217 489.376 349.983 487.973 349.972 486.861V486.755L348.981 448.189C356.608 445.988 374.098 440.947 374.986 438.22L374.993 485.156Z" fill="#E5EEF4"/>
<path d="M348.981 448.189L348.781 439.847L348.737 438.221C347.559 431.906 330.222 432.602 317.884 436.7C303.287 441.553 298.984 445.058 298.984 445.058L309.523 495.53C328.05 483.541 349.633 480.272 349.967 486.756L348.981 448.189Z" fill="#EFF5F9"/>
<path d="M325.629 572.988L298.254 441.226L299.641 440.939L327.075 572.988H325.629Z" fill="#D4E3ED"/>
<path d="M210.001 503.502C207.758 508.869 202.901 521.498 201.915 532.555C200.98 543.058 196.642 555.149 193.663 562.481L191.573 573H198.983L213.789 503.502H210.001Z" fill="#B3D0E2"/>
<path d="M210.001 503.502H206.382L193.651 562.481C196.642 555.149 200.98 543.058 201.903 532.555C202.901 521.486 207.758 508.858 210.001 503.502Z" fill="#D0E2ED"/>
<path d="M249.569 504.339H242.139L249.735 540.045C253.361 549.475 257.723 558.882 262.772 566.501L249.569 504.339Z" fill="#84B3D0"/>
<path d="M264.151 572.988L262.772 566.505C257.723 558.905 248.466 526.453 244.854 517.035L256.756 572.988H264.151Z" fill="#B3D0E2"/>
<path d="M286.796 512.909L275.357 487.632H267.947L306.505 572.988H313.106C309.888 569.409 304.804 560.348 301.169 551.825C294.611 536.446 293.256 531.18 286.796 512.909Z" fill="#B3D0E2"/>
<path d="M282.532 503.502C288.992 521.773 294.611 536.457 301.169 551.833C304.804 560.355 309.888 569.416 313.106 572.996H313.975L282.532 503.502Z" fill="#D0E2ED"/>
<path d="M279.045 484.535C299.815 457.033 299.593 421.856 278.551 405.964C257.508 390.073 223.613 399.485 202.844 426.987C182.074 454.489 182.296 489.667 203.338 505.558C224.381 521.449 258.276 512.037 279.045 484.535Z" fill="#D0E2ED"/>
<path d="M272.663 480.344C293.432 452.842 293.211 417.665 272.168 401.773C251.126 385.882 217.23 395.295 196.461 422.797C175.691 450.299 175.913 485.476 196.955 501.367C217.998 517.258 251.893 507.846 272.663 480.344Z" fill="#EDF4F9"/>
<path d="M266.612 475.145C284.494 451.467 284.303 421.18 266.185 407.498C248.068 393.815 218.885 401.919 201.003 425.597C183.121 449.275 183.312 479.562 201.43 493.244C219.547 506.927 248.731 498.823 266.612 475.145Z" fill="#FA4803"/>
<path d="M260.295 470.584C274.733 451.466 274.579 427.012 259.951 415.964C245.323 404.917 221.76 411.461 207.322 430.579C192.883 449.698 193.037 474.152 207.665 485.199C222.293 496.246 245.856 489.703 260.295 470.584Z" fill="#EDF4F9"/>
<path d="M253.418 466.313C264.752 451.305 264.63 432.109 253.147 423.437C241.664 414.765 223.167 419.901 211.834 434.908C200.5 449.916 200.622 469.112 212.105 477.784C223.588 486.456 242.085 481.32 253.418 466.313Z" fill="#FA4803"/>
<path d="M246.374 461.352C254.302 450.854 254.218 437.426 246.186 431.361C238.154 425.295 225.216 428.888 217.288 439.386C209.36 449.884 209.444 463.311 217.476 469.377C225.508 475.443 238.446 471.849 246.374 461.352Z" fill="#EDF4F9"/>
<path d="M239.006 455.786C243.414 449.948 243.366 442.481 238.898 439.106C234.43 435.732 227.234 437.729 222.826 443.567C218.417 449.405 218.465 456.873 222.933 460.247C227.401 463.621 234.597 461.624 239.006 455.786Z" fill="#FA4803"/>
<path fill-rule="evenodd" clip-rule="evenodd" d="M226.771 447.796L141.941 388.64L142.881 387.485L227.715 446.645L226.771 447.796Z" fill="#002272"/>
<path fill-rule="evenodd" clip-rule="evenodd" d="M168.338 406.09L156.546 390.786L146.134 390.68L168.338 406.09Z" fill="#007DFF"/>
<path fill-rule="evenodd" clip-rule="evenodd" d="M168.327 406.106L149.874 400.389L146.142 390.664L168.327 406.106Z" fill="#1757D9"/>
<path fill-rule="evenodd" clip-rule="evenodd" d="M231.357 450.056L226.386 441.674L221.773 448.287L231.357 450.056Z" fill="#1D2141"/>
<g opacity="0.2">
<path opacity="0.2" d="M272.725 480.425C292.945 453.651 293.263 419.603 273.849 403.159C254.988 404.92 242.021 416.578 244.331 435.47C247.742 463.533 240.614 479.608 213.789 484.009C200.036 486.268 200.268 492.701 200.52 503.769C221.671 516.257 253.066 506.445 272.725 480.425Z" fill="white"/>
</g>
<rect x="133" y="646" width="200" height="45" rx="22.5" fill="black"/>
<path d="M185.42 661.49L180.722 674H178.346L173.63 661.49H175.826L179.534 671.894L183.26 661.49H185.42ZM188.18 662.768C187.808 662.768 187.496 662.642 187.244 662.39C186.992 662.138 186.866 661.826 186.866 661.454C186.866 661.082 186.992 660.77 187.244 660.518C187.496 660.266 187.808 660.14 188.18 660.14C188.54 660.14 188.846 660.266 189.098 660.518C189.35 660.77 189.476 661.082 189.476 661.454C189.476 661.826 189.35 662.138 189.098 662.39C188.846 662.642 188.54 662.768 188.18 662.768ZM189.188 664.082V674H187.136V664.082H189.188ZM200.972 668.798C200.972 669.17 200.948 669.506 200.9 669.806H193.322C193.382 670.598 193.676 671.234 194.204 671.714C194.732 672.194 195.38 672.434 196.148 672.434C197.252 672.434 198.032 671.972 198.488 671.048H200.702C200.402 671.96 199.856 672.71 199.064 673.298C198.284 673.874 197.312 674.162 196.148 674.162C195.2 674.162 194.348 673.952 193.592 673.532C192.848 673.1 192.26 672.5 191.828 671.732C191.408 670.952 191.198 670.052 191.198 669.032C191.198 668.012 191.402 667.118 191.81 666.35C192.23 665.57 192.812 664.97 193.556 664.55C194.312 664.13 195.176 663.92 196.148 663.92C197.084 663.92 197.918 664.124 198.65 664.532C199.382 664.94 199.952 665.516 200.36 666.26C200.768 666.992 200.972 667.838 200.972 668.798ZM198.83 668.15C198.818 667.394 198.548 666.788 198.02 666.332C197.492 665.876 196.838 665.648 196.058 665.648C195.35 665.648 194.744 665.876 194.24 666.332C193.736 666.776 193.436 667.382 193.34 668.15H198.83ZM216.312 664.082L213.234 674H211.074L209.076 666.674L207.078 674H204.918L201.822 664.082H203.91L205.98 672.056L208.086 664.082H210.228L212.244 672.02L214.296 664.082H216.312ZM228.227 674.126C227.063 674.126 225.989 673.856 225.005 673.316C224.033 672.764 223.259 672.002 222.683 671.03C222.119 670.046 221.837 668.942 221.837 667.718C221.837 666.494 222.119 665.396 222.683 664.424C223.259 663.452 224.033 662.696 225.005 662.156C225.989 661.604 227.063 661.328 228.227 661.328C229.403 661.328 230.477 661.604 231.449 662.156C232.433 662.696 233.207 663.452 233.771 664.424C234.335 665.396 234.617 666.494 234.617 667.718C234.617 668.942 234.335 670.046 233.771 671.03C233.207 672.002 232.433 672.764 231.449 673.316C230.477 673.856 229.403 674.126 228.227 674.126ZM228.227 672.344C229.055 672.344 229.793 672.158 230.441 671.786C231.089 671.402 231.593 670.862 231.953 670.166C232.325 669.458 232.511 668.642 232.511 667.718C232.511 666.794 232.325 665.984 231.953 665.288C231.593 664.592 231.089 664.058 230.441 663.686C229.793 663.314 229.055 663.128 228.227 663.128C227.399 663.128 226.661 663.314 226.013 663.686C225.365 664.058 224.855 664.592 224.483 665.288C224.123 665.984 223.943 666.794 223.943 667.718C223.943 668.642 224.123 669.458 224.483 670.166C224.855 670.862 225.365 671.402 226.013 671.786C226.661 672.158 227.399 672.344 228.227 672.344ZM238.688 665.54C239.036 665.084 239.51 664.7 240.11 664.388C240.71 664.076 241.388 663.92 242.144 663.92C243.008 663.92 243.794 664.136 244.502 664.568C245.222 664.988 245.786 665.582 246.194 666.35C246.602 667.118 246.806 668 246.806 668.996C246.806 669.992 246.602 670.886 246.194 671.678C245.786 672.458 245.222 673.07 244.502 673.514C243.794 673.946 243.008 674.162 242.144 674.162C241.388 674.162 240.716 674.012 240.128 673.712C239.54 673.4 239.06 673.016 238.688 672.56V678.716H236.636V664.082H238.688V665.54ZM244.718 668.996C244.718 668.312 244.574 667.724 244.286 667.232C244.01 666.728 243.638 666.35 243.17 666.098C242.714 665.834 242.222 665.702 241.694 665.702C241.178 665.702 240.686 665.834 240.218 666.098C239.762 666.362 239.39 666.746 239.102 667.25C238.826 667.754 238.688 668.348 238.688 669.032C238.688 669.716 238.826 670.316 239.102 670.832C239.39 671.336 239.762 671.72 240.218 671.984C240.686 672.248 241.178 672.38 241.694 672.38C242.222 672.38 242.714 672.248 243.17 671.984C243.638 671.708 244.01 671.312 244.286 670.796C244.574 670.28 244.718 669.68 244.718 668.996ZM251.229 665.756V671.246C251.229 671.618 251.313 671.888 251.481 672.056C251.661 672.212 251.961 672.29 252.381 672.29H253.641V674H252.021C251.097 674 250.389 673.784 249.897 673.352C249.405 672.92 249.159 672.218 249.159 671.246V665.756H247.989V664.082H249.159V661.616H251.229V664.082H253.641V665.756H251.229ZM256.577 662.768C256.205 662.768 255.893 662.642 255.641 662.39C255.389 662.138 255.263 661.826 255.263 661.454C255.263 661.082 255.389 660.77 255.641 660.518C255.893 660.266 256.205 660.14 256.577 660.14C256.937 660.14 257.243 660.266 257.495 660.518C257.747 660.77 257.873 661.082 257.873 661.454C257.873 661.826 257.747 662.138 257.495 662.39C257.243 662.642 256.937 662.768 256.577 662.768ZM257.585 664.082V674H255.533V664.082H257.585ZM264.581 674.162C263.645 674.162 262.799 673.952 262.043 673.532C261.287 673.1 260.693 672.5 260.261 671.732C259.829 670.952 259.613 670.052 259.613 669.032C259.613 668.024 259.835 667.13 260.279 666.35C260.723 665.57 261.329 664.97 262.097 664.55C262.865 664.13 263.723 663.92 264.671 663.92C265.619 663.92 266.477 664.13 267.245 664.55C268.013 664.97 268.619 665.57 269.063 666.35C269.507 667.13 269.729 668.024 269.729 669.032C269.729 670.04 269.501 670.934 269.045 671.714C268.589 672.494 267.965 673.1 267.173 673.532C266.393 673.952 265.529 674.162 264.581 674.162ZM264.581 672.38C265.109 672.38 265.601 672.254 266.057 672.002C266.525 671.75 266.903 671.372 267.191 670.868C267.479 670.364 267.623 669.752 267.623 669.032C267.623 668.312 267.485 667.706 267.209 667.214C266.933 666.71 266.567 666.332 266.111 666.08C265.655 665.828 265.163 665.702 264.635 665.702C264.107 665.702 263.615 665.828 263.159 666.08C262.715 666.332 262.361 666.71 262.097 667.214C261.833 667.706 261.701 668.312 261.701 669.032C261.701 670.1 261.971 670.928 262.511 671.516C263.063 672.092 263.753 672.38 264.581 672.38ZM276.761 663.92C277.541 663.92 278.237 664.082 278.849 664.406C279.473 664.73 279.959 665.21 280.307 665.846C280.655 666.482 280.829 667.25 280.829 668.15V674H278.795V668.456C278.795 667.568 278.573 666.89 278.129 666.422C277.685 665.942 277.079 665.702 276.311 665.702C275.543 665.702 274.931 665.942 274.475 666.422C274.031 666.89 273.809 667.568 273.809 668.456V674H271.757V664.082H273.809V665.216C274.145 664.808 274.571 664.49 275.087 664.262C275.615 664.034 276.173 663.92 276.761 663.92ZM287.047 674.162C286.267 674.162 285.565 674.024 284.941 673.748C284.329 673.46 283.843 673.076 283.483 672.596C283.123 672.104 282.931 671.558 282.907 670.958H285.031C285.067 671.378 285.265 671.732 285.625 672.02C285.997 672.296 286.459 672.434 287.011 672.434C287.587 672.434 288.031 672.326 288.343 672.11C288.667 671.882 288.829 671.594 288.829 671.246C288.829 670.874 288.649 670.598 288.289 670.418C287.941 670.238 287.383 670.04 286.615 669.824C285.871 669.62 285.265 669.422 284.797 669.23C284.329 669.038 283.921 668.744 283.573 668.348C283.237 667.952 283.069 667.43 283.069 666.782C283.069 666.254 283.225 665.774 283.537 665.342C283.849 664.898 284.293 664.55 284.869 664.298C285.457 664.046 286.129 663.92 286.885 663.92C288.013 663.92 288.919 664.208 289.603 664.784C290.299 665.348 290.671 666.122 290.719 667.106H288.667C288.631 666.662 288.451 666.308 288.127 666.044C287.803 665.78 287.365 665.648 286.813 665.648C286.273 665.648 285.859 665.75 285.571 665.954C285.283 666.158 285.139 666.428 285.139 666.764C285.139 667.028 285.235 667.25 285.427 667.43C285.619 667.61 285.853 667.754 286.129 667.862C286.405 667.958 286.813 668.084 287.353 668.24C288.073 668.432 288.661 668.63 289.117 668.834C289.585 669.026 289.987 669.314 290.323 669.698C290.659 670.082 290.833 670.592 290.845 671.228C290.845 671.792 290.689 672.296 290.377 672.74C290.065 673.184 289.621 673.532 289.045 673.784C288.481 674.036 287.815 674.162 287.047 674.162Z" fill="white"/>
<rect x="48" y="26" width="390" height="44" fill="white" fill-opacity="0.01"/>
<g opacity="0.35">
<path fill-rule="evenodd" clip-rule="evenodd" d="M398.826 46.167V44C398.826 43.4016 399.046 42.8908 399.486 42.4677C399.926 42.0446 400.458 41.833 401.08 41.833H418.412C419.035 41.833 419.566 42.0446 420.006 42.4677C420.446 42.8908 420.666 43.4016 420.666 44V49.999C420.666 50.5974 420.446 51.1082 420.006 51.5313C419.566 51.9544 419.035 52.166 418.412 52.166H401.08C400.458 52.166 399.926 51.9544 399.486 51.5313C399.046 51.1082 398.826 50.5974 398.826 49.999V46.167Z" stroke="white"/>
</g>
<path opacity="0.4" fill-rule="evenodd" clip-rule="evenodd" d="M422.226 45V49C423.063 48.6612 423.607 47.8731 423.607 47C423.607 46.1269 423.063 45.3388 422.226 45" fill="white"/>
<path fill-rule="evenodd" clip-rule="evenodd" d="M400.386 45.999V44.666C400.386 44.2979 400.522 43.9837 400.792 43.7234C401.063 43.4632 401.39 43.333 401.773 43.333H417.72C418.103 43.333 418.43 43.4632 418.7 43.7234C418.971 43.9837 419.106 44.2979 419.106 44.666V49.333C419.106 49.7011 418.971 50.0153 418.7 50.2756C418.43 50.5359 418.103 50.666 417.72 50.666H401.773C401.39 50.666 401.063 50.5359 400.792 50.2756C400.522 50.0153 400.386 49.7011 400.386 49.333V45.999Z" fill="white"/>
<path fill-rule="evenodd" clip-rule="evenodd" d="M385.134 52.3311C385.047 52.3308 384.964 52.2974 384.903 52.2381L382.816 50.2161C382.752 50.1557 382.716 50.0719 382.719 49.9851C382.72 49.899 382.757 49.817 382.823 49.7581C384.155 48.6756 386.105 48.6756 387.437 49.7581C387.504 49.8164 387.543 49.8985 387.545 49.9852C387.546 50.0718 387.511 50.1554 387.447 50.2161L385.364 52.2381C385.303 52.2974 385.22 52.3308 385.134 52.3311V52.3311ZM388.798 48.7821C388.714 48.782 388.634 48.7512 388.574 48.6961C386.622 46.9981 383.649 46.9981 381.697 48.6961C381.637 48.7512 381.557 48.782 381.474 48.7821C381.388 48.7825 381.306 48.7497 381.245 48.6911L380.039 47.5201C379.974 47.4595 379.938 47.3766 379.938 47.2901C379.938 47.2036 379.974 47.1207 380.039 47.0601C382.909 44.4957 387.351 44.4957 390.221 47.0601C390.287 47.1202 390.324 47.2031 390.325 47.2901C390.326 47.3765 390.29 47.4595 390.226 47.5201L389.025 48.6911C388.965 48.7494 388.883 48.7821 388.798 48.7821V48.7821ZM391.573 46.0891C391.489 46.0898 391.409 46.0581 391.35 46.0011C387.866 42.8195 382.4 42.8195 378.916 46.0011C378.857 46.0589 378.775 46.0914 378.69 46.0914C378.605 46.0914 378.524 46.0589 378.464 46.0011L377.258 44.8311C377.195 44.7705 377.159 44.6883 377.159 44.6026C377.159 44.5169 377.195 44.4347 377.258 44.3741C381.661 40.3216 388.601 40.3216 393.004 44.3741C393.067 44.4347 393.103 44.5169 393.103 44.6026C393.103 44.6883 393.067 44.7705 393.004 44.8311L391.797 46.0011C391.737 46.0576 391.657 46.0892 391.573 46.0891V46.0891Z" fill="white"/>
<path fill-rule="evenodd" clip-rule="evenodd" d="M370.92 52.334H369.88C369.305 52.334 368.84 51.8863 368.84 51.334V42.667C368.84 42.1147 369.305 41.667 369.88 41.667H370.92C371.494 41.667 371.96 42.1147 371.96 42.667V51.334C371.96 51.8863 371.494 52.334 370.92 52.334V52.334ZM366.066 52.334H365.026C364.452 52.334 363.986 51.8863 363.986 51.334V45.001C363.986 44.4487 364.452 44.001 365.026 44.001H366.066C366.64 44.001 367.106 44.4487 367.106 45.001V51.334C367.106 51.8859 366.641 52.3334 366.067 52.334H366.066ZM361.212 52.334H360.172C359.598 52.334 359.132 51.8863 359.132 51.334V47.334C359.132 46.7817 359.598 46.334 360.172 46.334H361.212C361.787 46.334 362.252 46.7817 362.252 47.334V51.334C362.252 51.8863 361.787 52.334 361.212 52.334H361.212ZM356.36 52.334H355.32C354.745 52.334 354.28 51.8863 354.28 51.334V49.334C354.28 48.7817 354.745 48.334 355.32 48.334H356.36C356.934 48.334 357.4 48.7817 357.4 49.334V51.334C357.4 51.8863 356.934 52.334 356.36 52.334V52.334Z" fill="white"/>
<path d="M67.93 52H69.4L72.22 47.515C72.79 46.6 73.225 45.76 73.225 44.53C73.225 42.46 71.68 41.2 69.67 41.2C67.66 41.2 66.115 42.46 66.115 44.53C66.115 46.51 67.48 47.86 69.325 47.86C69.76 47.86 70.36 47.77 70.75 47.545L70.78 47.575L67.93 52ZM69.67 46.78C68.395 46.78 67.375 45.91 67.375 44.53C67.375 43.15 68.395 42.28 69.67 42.28C70.945 42.28 71.965 43.15 71.965 44.53C71.965 45.91 70.945 46.78 69.67 46.78ZM75.92 44.8C75.425 44.8 75.02 45.205 75.02 45.7C75.02 46.195 75.455 46.6 75.92 46.6C76.385 46.6 76.82 46.195 76.82 45.7C76.82 45.205 76.415 44.8 75.92 44.8ZM75.92 50.29C75.425 50.29 75.02 50.695 75.02 51.19C75.02 51.685 75.455 52.09 75.92 52.09C76.385 52.09 76.82 51.685 76.82 51.19C76.82 50.695 76.415 50.29 75.92 50.29ZM84.2948 41.38H82.7498L78.5348 48.175V49.57H83.0348V52H84.2948V49.57H85.8248V48.4H84.2948V41.38ZM83.0348 48.4H79.6148L83.0048 42.85H83.0348V48.4ZM91.7447 41.38H90.6497L87.7997 43.69L88.5497 44.605L90.4547 43H90.4847V52H91.7447V41.38Z" fill="white"/>
<path d="M86.594 89.664C86.594 88.416 86.864 87.306 87.404 86.334C87.944 85.35 88.694 84.588 89.654 84.048C90.626 83.496 91.724 83.22 92.948 83.22C94.448 83.22 95.732 83.616 96.8 84.408C97.868 85.2 98.582 86.28 98.942 87.648H95.558C95.306 87.12 94.946 86.718 94.478 86.442C94.022 86.166 93.5 86.028 92.912 86.028C91.964 86.028 91.196 86.358 90.608 87.018C90.02 87.678 89.726 88.56 89.726 89.664C89.726 90.768 90.02 91.65 90.608 92.31C91.196 92.97 91.964 93.3 92.912 93.3C93.5 93.3 94.022 93.162 94.478 92.886C94.946 92.61 95.306 92.208 95.558 91.68H98.942C98.582 93.048 97.868 94.128 96.8 94.92C95.732 95.7 94.448 96.09 92.948 96.09C91.724 96.09 90.626 95.82 89.654 95.28C88.694 94.728 87.944 93.966 87.404 92.994C86.864 92.022 86.594 90.912 86.594 89.664ZM107.001 85.848C108.153 85.848 109.077 86.232 109.773 87C110.469 87.756 110.817 88.8 110.817 90.132V96H107.757V90.546C107.757 89.874 107.583 89.352 107.235 88.98C106.887 88.608 106.419 88.422 105.831 88.422C105.243 88.422 104.775 88.608 104.427 88.98C104.079 89.352 103.905 89.874 103.905 90.546V96H100.827V82.68H103.905V87.306C104.217 86.862 104.643 86.508 105.183 86.244C105.723 85.98 106.329 85.848 107.001 85.848ZM112.344 90.96C112.344 89.928 112.536 89.022 112.92 88.242C113.316 87.462 113.85 86.862 114.522 86.442C115.194 86.022 115.944 85.812 116.772 85.812C117.48 85.812 118.098 85.956 118.626 86.244C119.166 86.532 119.58 86.91 119.868 87.378V85.956H122.946V96H119.868V94.578C119.568 95.046 119.148 95.424 118.608 95.712C118.08 96 117.462 96.144 116.754 96.144C115.938 96.144 115.194 95.934 114.522 95.514C113.85 95.082 113.316 94.476 112.92 93.696C112.536 92.904 112.344 91.992 112.344 90.96ZM119.868 90.978C119.868 90.21 119.652 89.604 119.22 89.16C118.8 88.716 118.284 88.494 117.672 88.494C117.06 88.494 116.538 88.716 116.106 89.16C115.686 89.592 115.476 90.192 115.476 90.96C115.476 91.728 115.686 92.34 116.106 92.796C116.538 93.24 117.06 93.462 117.672 93.462C118.284 93.462 118.8 93.24 119.22 92.796C119.652 92.352 119.868 91.746 119.868 90.978ZM128.251 82.68V96H125.173V82.68H128.251ZM139.949 90.816C139.949 91.104 139.931 91.404 139.895 91.716H132.929C132.977 92.34 133.175 92.82 133.523 93.156C133.883 93.48 134.321 93.642 134.837 93.642C135.605 93.642 136.139 93.318 136.439 92.67H139.715C139.547 93.33 139.241 93.924 138.797 94.452C138.365 94.98 137.819 95.394 137.159 95.694C136.499 95.994 135.761 96.144 134.945 96.144C133.961 96.144 133.085 95.934 132.317 95.514C131.549 95.094 130.949 94.494 130.517 93.714C130.085 92.934 129.869 92.022 129.869 90.978C129.869 89.934 130.079 89.022 130.499 88.242C130.931 87.462 131.531 86.862 132.299 86.442C133.067 86.022 133.949 85.812 134.945 85.812C135.917 85.812 136.781 86.016 137.537 86.424C138.293 86.832 138.881 87.414 139.301 88.17C139.733 88.926 139.949 89.808 139.949 90.816ZM136.799 90.006C136.799 89.478 136.619 89.058 136.259 88.746C135.899 88.434 135.449 88.278 134.909 88.278C134.393 88.278 133.955 88.428 133.595 88.728C133.247 89.028 133.031 89.454 132.947 90.006H136.799ZM147.693 85.848C148.869 85.848 149.805 86.232 150.501 87C151.209 87.756 151.563 88.8 151.563 90.132V96H148.503V90.546C148.503 89.874 148.329 89.352 147.981 88.98C147.633 88.608 147.165 88.422 146.577 88.422C145.989 88.422 145.521 88.608 145.173 88.98C144.825 89.352 144.651 89.874 144.651 90.546V96H141.573V85.956H144.651V87.288C144.963 86.844 145.383 86.496 145.911 86.244C146.439 85.98 147.033 85.848 147.693 85.848ZM157.518 85.812C158.226 85.812 158.844 85.956 159.372 86.244C159.912 86.532 160.326 86.91 160.614 87.378V85.956H163.692V95.982C163.692 96.906 163.506 97.74 163.134 98.484C162.774 99.24 162.216 99.84 161.46 100.284C160.716 100.728 159.786 100.95 158.67 100.95C157.182 100.95 155.976 100.596 155.052 99.888C154.128 99.192 153.6 98.244 153.468 97.044H156.51C156.606 97.428 156.834 97.728 157.194 97.944C157.554 98.172 157.998 98.286 158.526 98.286C159.162 98.286 159.666 98.1 160.038 97.728C160.422 97.368 160.614 96.786 160.614 95.982V94.56C160.314 95.028 159.9 95.412 159.372 95.712C158.844 96 158.226 96.144 157.518 96.144C156.69 96.144 155.94 95.934 155.268 95.514C154.596 95.082 154.062 94.476 153.666 93.696C153.282 92.904 153.09 91.992 153.09 90.96C153.09 89.928 153.282 89.022 153.666 88.242C154.062 87.462 154.596 86.862 155.268 86.442C155.94 86.022 156.69 85.812 157.518 85.812ZM160.614 90.978C160.614 90.21 160.398 89.604 159.966 89.16C159.546 88.716 159.03 88.494 158.418 88.494C157.806 88.494 157.284 88.716 156.852 89.16C156.432 89.592 156.222 90.192 156.222 90.96C156.222 91.728 156.432 92.34 156.852 92.796C157.284 93.24 157.806 93.462 158.418 93.462C159.03 93.462 159.546 93.24 159.966 92.796C160.398 92.352 160.614 91.746 160.614 90.978ZM175.387 90.816C175.387 91.104 175.369 91.404 175.333 91.716H168.367C168.415 92.34 168.613 92.82 168.961 93.156C169.321 93.48 169.759 93.642 170.275 93.642C171.043 93.642 171.577 93.318 171.877 92.67H175.153C174.985 93.33 174.679 93.924 174.235 94.452C173.803 94.98 173.257 95.394 172.597 95.694C171.937 95.994 171.199 96.144 170.383 96.144C169.399 96.144 168.523 95.934 167.755 95.514C166.987 95.094 166.387 94.494 165.955 93.714C165.523 92.934 165.307 92.022 165.307 90.978C165.307 89.934 165.517 89.022 165.937 88.242C166.369 87.462 166.969 86.862 167.737 86.442C168.505 86.022 169.387 85.812 170.383 85.812C171.355 85.812 172.219 86.016 172.975 86.424C173.731 86.832 174.319 87.414 174.739 88.17C175.171 88.926 175.387 89.808 175.387 90.816ZM172.237 90.006C172.237 89.478 172.057 89.058 171.697 88.746C171.337 88.434 170.887 88.278 170.347 88.278C169.831 88.278 169.393 88.428 169.033 88.728C168.685 89.028 168.469 89.454 168.385 90.006H172.237Z" fill="white"/>
<path d="M380.364 96.126C379.536 96.126 378.792 95.982 378.132 95.694C377.484 95.394 376.974 94.986 376.602 94.47C376.23 93.942 376.038 93.336 376.026 92.652H377.772C377.832 93.24 378.072 93.738 378.492 94.146C378.924 94.542 379.548 94.74 380.364 94.74C381.144 94.74 381.756 94.548 382.2 94.164C382.656 93.768 382.884 93.264 382.884 92.652C382.884 92.172 382.752 91.782 382.488 91.482C382.224 91.182 381.894 90.954 381.498 90.798C381.102 90.642 380.568 90.474 379.896 90.294C379.068 90.078 378.402 89.862 377.898 89.646C377.406 89.43 376.98 89.094 376.62 88.638C376.272 88.17 376.098 87.546 376.098 86.766C376.098 86.082 376.272 85.476 376.62 84.948C376.968 84.42 377.454 84.012 378.078 83.724C378.714 83.436 379.44 83.292 380.256 83.292C381.432 83.292 382.392 83.586 383.136 84.174C383.892 84.762 384.318 85.542 384.414 86.514H382.614C382.554 86.034 382.302 85.614 381.858 85.254C381.414 84.882 380.826 84.696 380.094 84.696C379.41 84.696 378.852 84.876 378.42 85.236C377.988 85.584 377.772 86.076 377.772 86.712C377.772 87.168 377.898 87.54 378.15 87.828C378.414 88.116 378.732 88.338 379.104 88.494C379.488 88.638 380.022 88.806 380.706 88.998C381.534 89.226 382.2 89.454 382.704 89.682C383.208 89.898 383.64 90.24 384 90.708C384.36 91.164 384.54 91.788 384.54 92.58C384.54 93.192 384.378 93.768 384.054 94.308C383.73 94.848 383.25 95.286 382.614 95.622C381.978 95.958 381.228 96.126 380.364 96.126ZM392.458 96L388.588 91.644V96H386.95V82.68H388.588V90.51L392.386 86.136H394.672L390.028 91.05L394.69 96H392.458ZM397.06 84.534C396.748 84.534 396.484 84.426 396.268 84.21C396.052 83.994 395.944 83.73 395.944 83.418C395.944 83.106 396.052 82.842 396.268 82.626C396.484 82.41 396.748 82.302 397.06 82.302C397.36 82.302 397.612 82.41 397.816 82.626C398.032 82.842 398.14 83.106 398.14 83.418C398.14 83.73 398.032 83.994 397.816 84.21C397.612 84.426 397.36 84.534 397.06 84.534ZM397.852 86.136V96H396.214V86.136H397.852ZM402.282 87.954C402.606 87.39 403.086 86.922 403.722 86.55C404.37 86.166 405.12 85.974 405.972 85.974C406.848 85.974 407.64 86.184 408.348 86.604C409.068 87.024 409.632 87.618 410.04 88.386C410.448 89.142 410.652 90.024 410.652 91.032C410.652 92.028 410.448 92.916 410.04 93.696C409.632 94.476 409.068 95.082 408.348 95.514C407.64 95.946 406.848 96.162 405.972 96.162C405.132 96.162 404.388 95.976 403.74 95.604C403.104 95.22 402.618 94.746 402.282 94.182V100.68H400.644V86.136H402.282V87.954ZM408.978 91.032C408.978 90.288 408.828 89.64 408.528 89.088C408.228 88.536 407.82 88.116 407.304 87.828C406.8 87.54 406.242 87.396 405.63 87.396C405.03 87.396 404.472 87.546 403.956 87.846C403.452 88.134 403.044 88.56 402.732 89.124C402.432 89.676 402.282 90.318 402.282 91.05C402.282 91.794 402.432 92.448 402.732 93.012C403.044 93.564 403.452 93.99 403.956 94.29C404.472 94.578 405.03 94.722 405.63 94.722C406.242 94.722 406.8 94.578 407.304 94.29C407.82 93.99 408.228 93.564 408.528 93.012C408.828 92.448 408.978 91.788 408.978 91.032Z" fill="white"/>
<path fill-rule="evenodd" clip-rule="evenodd" d="M67.5372 99.0835L58.2922 89.9465C58.1053 89.7631 58 89.5123 58 89.2505C58 88.9887 58.1053 88.7378 58.2922 88.5545L67.5372 79.4175C68.1037 78.8608 69.0117 78.8608 69.5782 79.4175C69.8482 79.6834 70.0001 80.0465 70.0001 80.4255C70.0001 80.8044 69.8482 81.1675 69.5782 81.4335L61.6692 89.2505L69.5782 97.0655C69.848 97.3317 69.9998 97.695 69.9998 98.074C69.9998 98.453 69.848 98.8162 69.5782 99.0825C69.0117 99.6391 68.1037 99.6391 67.5372 99.0825" fill="white"/>
<path d="M143.418 182.554L148.838 186.846L146.934 188.604L141.602 184.37L143.418 182.554ZM148.765 173.662V175.01C148.765 176.611 148.564 178.047 148.164 179.316C147.764 180.586 147.188 181.665 146.436 182.554C145.684 183.442 144.78 184.121 143.726 184.59C142.681 185.059 141.509 185.293 140.21 185.293C138.95 185.293 137.793 185.059 136.738 184.59C135.693 184.121 134.785 183.442 134.014 182.554C133.252 181.665 132.661 180.586 132.241 179.316C131.821 178.047 131.611 176.611 131.611 175.01V173.662C131.611 172.061 131.816 170.63 132.227 169.37C132.646 168.101 133.237 167.021 133.999 166.133C134.761 165.234 135.664 164.551 136.709 164.082C137.764 163.613 138.921 163.379 140.181 163.379C141.479 163.379 142.656 163.613 143.711 164.082C144.766 164.551 145.669 165.234 146.421 166.133C147.173 167.021 147.749 168.101 148.149 169.37C148.56 170.63 148.765 172.061 148.765 173.662ZM145.967 175.01V173.633C145.967 172.363 145.835 171.24 145.571 170.264C145.317 169.287 144.941 168.467 144.443 167.803C143.945 167.139 143.34 166.636 142.627 166.294C141.914 165.952 141.099 165.781 140.181 165.781C139.312 165.781 138.521 165.952 137.808 166.294C137.104 166.636 136.499 167.139 135.991 167.803C135.483 168.467 135.093 169.287 134.819 170.264C134.546 171.24 134.409 172.363 134.409 173.633V175.01C134.409 176.289 134.546 177.422 134.819 178.408C135.093 179.385 135.483 180.21 135.991 180.884C136.509 181.548 137.124 182.051 137.837 182.393C138.55 182.734 139.341 182.905 140.21 182.905C141.128 182.905 141.943 182.734 142.656 182.393C143.369 182.051 143.97 181.548 144.458 180.884C144.956 180.21 145.332 179.385 145.586 178.408C145.84 177.422 145.967 176.289 145.967 175.01ZM162.417 181.338V169.15H165.142V185H162.549L162.417 181.338ZM162.93 177.998L164.058 177.969C164.058 179.023 163.945 180 163.721 180.898C163.506 181.787 163.154 182.559 162.666 183.213C162.178 183.867 161.538 184.38 160.747 184.751C159.956 185.112 158.994 185.293 157.861 185.293C157.09 185.293 156.382 185.181 155.737 184.956C155.103 184.731 154.556 184.385 154.097 183.916C153.638 183.447 153.281 182.837 153.027 182.085C152.783 181.333 152.661 180.43 152.661 179.375V169.15H155.371V179.404C155.371 180.117 155.449 180.708 155.605 181.177C155.771 181.636 155.991 182.002 156.265 182.275C156.548 182.539 156.86 182.725 157.202 182.832C157.554 182.939 157.915 182.993 158.286 182.993C159.438 182.993 160.352 182.773 161.025 182.334C161.699 181.885 162.183 181.284 162.476 180.532C162.778 179.771 162.93 178.926 162.93 177.998ZM175.85 185.293C174.746 185.293 173.745 185.107 172.847 184.736C171.958 184.355 171.191 183.823 170.547 183.14C169.912 182.456 169.424 181.646 169.082 180.708C168.74 179.771 168.569 178.745 168.569 177.632V177.017C168.569 175.728 168.76 174.58 169.141 173.574C169.521 172.559 170.039 171.699 170.693 170.996C171.348 170.293 172.09 169.761 172.92 169.399C173.75 169.038 174.609 168.857 175.498 168.857C176.631 168.857 177.607 169.053 178.428 169.443C179.258 169.834 179.937 170.381 180.464 171.084C180.991 171.777 181.382 172.598 181.636 173.545C181.89 174.482 182.017 175.508 182.017 176.621V177.837H170.181V175.625H179.307V175.42C179.268 174.717 179.121 174.033 178.867 173.369C178.623 172.705 178.232 172.158 177.695 171.729C177.158 171.299 176.426 171.084 175.498 171.084C174.883 171.084 174.316 171.216 173.799 171.479C173.281 171.733 172.837 172.114 172.466 172.622C172.095 173.13 171.807 173.75 171.602 174.482C171.396 175.215 171.294 176.06 171.294 177.017V177.632C171.294 178.384 171.396 179.092 171.602 179.756C171.816 180.41 172.124 180.986 172.524 181.484C172.935 181.982 173.428 182.373 174.004 182.656C174.59 182.939 175.254 183.081 175.996 183.081C176.953 183.081 177.764 182.886 178.428 182.495C179.092 182.104 179.673 181.582 180.171 180.928L181.812 182.231C181.47 182.749 181.035 183.242 180.508 183.711C179.98 184.18 179.331 184.561 178.56 184.854C177.798 185.146 176.895 185.293 175.85 185.293ZM194.409 180.796C194.409 180.405 194.321 180.044 194.146 179.712C193.979 179.37 193.633 179.062 193.105 178.789C192.588 178.506 191.807 178.262 190.762 178.057C189.883 177.871 189.087 177.651 188.374 177.397C187.671 177.144 187.07 176.836 186.572 176.475C186.084 176.113 185.708 175.688 185.444 175.2C185.181 174.712 185.049 174.141 185.049 173.486C185.049 172.861 185.186 172.271 185.459 171.714C185.742 171.157 186.138 170.664 186.646 170.234C187.163 169.805 187.783 169.468 188.506 169.224C189.229 168.979 190.034 168.857 190.923 168.857C192.192 168.857 193.276 169.082 194.175 169.531C195.073 169.98 195.762 170.581 196.24 171.333C196.719 172.075 196.958 172.9 196.958 173.809H194.248C194.248 173.369 194.116 172.944 193.853 172.534C193.599 172.114 193.223 171.768 192.725 171.494C192.236 171.221 191.636 171.084 190.923 171.084C190.171 171.084 189.561 171.201 189.092 171.436C188.633 171.66 188.296 171.948 188.081 172.3C187.876 172.651 187.773 173.022 187.773 173.413C187.773 173.706 187.822 173.97 187.92 174.204C188.027 174.429 188.213 174.639 188.477 174.834C188.74 175.02 189.111 175.195 189.59 175.361C190.068 175.527 190.679 175.693 191.421 175.859C192.72 176.152 193.789 176.504 194.629 176.914C195.469 177.324 196.094 177.827 196.504 178.423C196.914 179.019 197.119 179.741 197.119 180.591C197.119 181.284 196.973 181.919 196.68 182.495C196.396 183.071 195.981 183.569 195.435 183.989C194.897 184.399 194.253 184.722 193.501 184.956C192.759 185.181 191.924 185.293 190.996 185.293C189.6 185.293 188.418 185.044 187.451 184.546C186.484 184.048 185.752 183.403 185.254 182.612C184.756 181.821 184.507 180.986 184.507 180.107H187.231C187.271 180.85 187.485 181.44 187.876 181.88C188.267 182.31 188.745 182.617 189.312 182.803C189.878 182.979 190.439 183.066 190.996 183.066C191.738 183.066 192.358 182.969 192.856 182.773C193.364 182.578 193.75 182.31 194.014 181.968C194.277 181.626 194.409 181.235 194.409 180.796ZM207.314 169.15V171.23H198.745V169.15H207.314ZM201.646 165.298H204.355V181.074C204.355 181.611 204.438 182.017 204.604 182.29C204.771 182.563 204.985 182.744 205.249 182.832C205.513 182.92 205.796 182.964 206.099 182.964C206.323 182.964 206.558 182.944 206.802 182.905C207.056 182.856 207.246 182.817 207.373 182.788L207.388 185C207.173 185.068 206.89 185.132 206.538 185.19C206.196 185.259 205.781 185.293 205.293 185.293C204.629 185.293 204.019 185.161 203.462 184.897C202.905 184.634 202.461 184.194 202.129 183.579C201.807 182.954 201.646 182.114 201.646 181.06V165.298ZM213.438 169.15V185H210.713V169.15H213.438ZM210.508 164.946C210.508 164.507 210.64 164.136 210.903 163.833C211.177 163.53 211.577 163.379 212.104 163.379C212.622 163.379 213.018 163.53 213.291 163.833C213.574 164.136 213.716 164.507 213.716 164.946C213.716 165.366 213.574 165.728 213.291 166.03C213.018 166.323 212.622 166.47 212.104 166.47C211.577 166.47 211.177 166.323 210.903 166.03C210.64 165.728 210.508 165.366 210.508 164.946ZM217.07 177.251V176.914C217.07 175.771 217.236 174.712 217.568 173.735C217.9 172.749 218.379 171.895 219.004 171.172C219.629 170.439 220.386 169.873 221.274 169.473C222.163 169.062 223.159 168.857 224.263 168.857C225.376 168.857 226.377 169.062 227.266 169.473C228.164 169.873 228.926 170.439 229.551 171.172C230.186 171.895 230.669 172.749 231.001 173.735C231.333 174.712 231.499 175.771 231.499 176.914V177.251C231.499 178.394 231.333 179.453 231.001 180.43C230.669 181.406 230.186 182.261 229.551 182.993C228.926 183.716 228.169 184.282 227.28 184.692C226.401 185.093 225.405 185.293 224.292 185.293C223.179 185.293 222.178 185.093 221.289 184.692C220.4 184.282 219.639 183.716 219.004 182.993C218.379 182.261 217.9 181.406 217.568 180.43C217.236 179.453 217.07 178.394 217.07 177.251ZM219.78 176.914V177.251C219.78 178.042 219.873 178.789 220.059 179.492C220.244 180.186 220.522 180.801 220.894 181.338C221.274 181.875 221.748 182.3 222.314 182.612C222.881 182.915 223.54 183.066 224.292 183.066C225.034 183.066 225.684 182.915 226.24 182.612C226.807 182.3 227.275 181.875 227.646 181.338C228.018 180.801 228.296 180.186 228.481 179.492C228.677 178.789 228.774 178.042 228.774 177.251V176.914C228.774 176.133 228.677 175.396 228.481 174.702C228.296 173.999 228.013 173.379 227.632 172.842C227.261 172.295 226.792 171.865 226.226 171.553C225.669 171.24 225.015 171.084 224.263 171.084C223.521 171.084 222.866 171.24 222.3 171.553C221.743 171.865 221.274 172.295 220.894 172.842C220.522 173.379 220.244 173.999 220.059 174.702C219.873 175.396 219.78 176.133 219.78 176.914ZM237.607 172.534V185H234.897V169.15H237.461L237.607 172.534ZM236.963 176.475L235.835 176.431C235.845 175.347 236.006 174.346 236.318 173.428C236.631 172.5 237.07 171.694 237.637 171.011C238.203 170.327 238.877 169.8 239.658 169.429C240.449 169.048 241.323 168.857 242.28 168.857C243.062 168.857 243.765 168.965 244.39 169.18C245.015 169.385 245.547 169.717 245.986 170.176C246.436 170.635 246.777 171.23 247.012 171.963C247.246 172.686 247.363 173.569 247.363 174.614V185H244.639V174.585C244.639 173.755 244.517 173.091 244.272 172.593C244.028 172.085 243.672 171.719 243.203 171.494C242.734 171.26 242.158 171.143 241.475 171.143C240.801 171.143 240.186 171.284 239.629 171.567C239.082 171.851 238.608 172.241 238.208 172.739C237.817 173.237 237.51 173.809 237.285 174.453C237.07 175.088 236.963 175.762 236.963 176.475ZM267.534 163.555V185H264.824V166.938L259.36 168.931V166.484L267.109 163.555H267.534Z" fill="black"/>
<path d="M280.18 182.88H281.26L286.048 167.22H284.968L280.18 182.88ZM287.715 180H294.195V178.758H291.837V168.516H290.685C290.055 168.894 289.299 169.182 288.237 169.362V170.334H290.343V178.758H287.715V180ZM299.722 180.216C302.008 180.216 303.394 178.074 303.394 174.222C303.394 170.37 302.008 168.3 299.722 168.3C297.418 168.3 296.032 170.37 296.032 174.222C296.032 178.074 297.418 180.216 299.722 180.216ZM299.722 179.01C298.39 179.01 297.49 177.588 297.49 174.222C297.49 170.856 298.39 169.506 299.722 169.506C301.054 169.506 301.954 170.856 301.954 174.222C301.954 177.588 301.054 179.01 299.722 179.01Z" fill="black"/>
<path fill-rule="evenodd" clip-rule="evenodd" d="M67.5372 185.083L58.2922 175.946C58.1053 175.763 58 175.512 58 175.25C58 174.989 58.1053 174.738 58.2922 174.554L67.5372 165.417C68.1037 164.861 69.0117 164.861 69.5782 165.417C69.8482 165.683 70.0001 166.047 70.0001 166.425C70.0001 166.804 69.8482 167.168 69.5782 167.433L61.6692 175.25L69.5782 183.065C69.848 183.332 69.9998 183.695 69.9998 184.074C69.9998 184.453 69.848 184.816 69.5782 185.082C69.0117 185.639 68.1037 185.639 67.5372 185.082" fill="black"/>
<path fill-rule="evenodd" clip-rule="evenodd" d="M402.463 185.083L411.708 175.946C411.895 175.763 412 175.512 412 175.25C412 174.989 411.895 174.738 411.708 174.554L402.463 165.417C401.896 164.861 400.988 164.861 400.422 165.417C400.152 165.683 400 166.047 400 166.425C400 166.804 400.152 167.168 400.422 167.433L408.331 175.25L400.422 183.065C400.152 183.332 400 183.695 400 184.074C400 184.453 400.152 184.816 400.422 185.082C400.988 185.639 401.896 185.639 402.463 185.082" fill="black"/>
<circle cx="137" cy="811" r="25" fill="#FDDE56"/>
<g clip-path="url(#clip1_1243_9417)">
<path d="M140.764 798.44C140.877 798.44 140.989 798.462 141.093 798.505C141.198 798.548 141.292 798.611 141.372 798.691L149.877 807.196C150.038 807.357 150.129 807.575 150.129 807.803C150.129 808.031 150.038 808.249 149.877 808.41C149.052 809.235 148.035 809.421 147.295 809.421C146.991 809.421 146.719 809.39 146.504 809.354L141.12 814.738C141.262 815.309 141.354 815.892 141.395 816.479C141.474 817.685 141.34 819.377 140.158 820.559C139.997 820.72 139.778 820.811 139.55 820.811C139.322 820.811 139.104 820.72 138.943 820.559L134.082 815.7L128.615 821.167C128.28 821.502 126.521 822.717 126.186 822.382C125.851 822.047 127.065 820.286 127.401 819.953L132.868 814.486L128.009 809.625C127.848 809.464 127.757 809.245 127.757 809.018C127.757 808.79 127.848 808.571 128.009 808.41C129.191 807.228 130.883 807.092 132.089 807.173C132.676 807.214 133.259 807.306 133.83 807.448L139.214 802.065C139.169 801.804 139.146 801.539 139.146 801.273C139.146 800.534 139.331 799.517 140.158 798.691C140.319 798.53 140.537 798.44 140.764 798.44V798.44Z" stroke="white" stroke-width="2"/>
</g>
<path d="M133.299 847.168C133.299 847.663 133.183 848.129 132.949 848.568C132.716 849.007 132.343 849.366 131.829 849.646C131.316 849.917 130.658 850.052 129.855 850.052H128.091V854H126.495V844.27H129.855C130.602 844.27 131.232 844.401 131.745 844.662C132.268 844.914 132.655 845.259 132.907 845.698C133.169 846.137 133.299 846.627 133.299 847.168ZM129.855 848.75C130.462 848.75 130.915 848.615 131.213 848.344C131.512 848.064 131.661 847.672 131.661 847.168C131.661 846.104 131.059 845.572 129.855 845.572H128.091V848.75H129.855ZM135.633 845.264C135.344 845.264 135.101 845.166 134.905 844.97C134.709 844.774 134.611 844.531 134.611 844.242C134.611 843.953 134.709 843.71 134.905 843.514C135.101 843.318 135.344 843.22 135.633 843.22C135.913 843.22 136.151 843.318 136.347 843.514C136.543 843.71 136.641 843.953 136.641 844.242C136.641 844.531 136.543 844.774 136.347 844.97C136.151 845.166 135.913 845.264 135.633 845.264ZM136.417 846.286V854H134.821V846.286H136.417ZM142.405 846.16C143.012 846.16 143.553 846.286 144.029 846.538C144.514 846.79 144.892 847.163 145.163 847.658C145.434 848.153 145.569 848.75 145.569 849.45V854H143.987V849.688C143.987 848.997 143.814 848.47 143.469 848.106C143.124 847.733 142.652 847.546 142.055 847.546C141.458 847.546 140.982 847.733 140.627 848.106C140.282 848.47 140.109 848.997 140.109 849.688V854H138.513V846.286H140.109V847.168C140.37 846.851 140.702 846.603 141.103 846.426C141.514 846.249 141.948 846.16 142.405 846.16Z" fill="black"/>
<circle cx="235" cy="811" r="25" fill="#FDDE56"/>
<g clip-path="url(#clip2_1243_9417)">
<path d="M236.371 796.011C228.981 795.755 221.213 800.05 221.884 808.36C221.902 808.94 222.568 811.527 219.965 813.633C219.039 814.385 219.284 815.841 220.587 816.558C221.02 816.797 221.472 816.956 221.941 817.066C221.844 817.587 221.892 818.113 222.143 818.609C221.53 819.803 222.348 820.892 223.065 821.149C223.401 821.316 223.142 821.919 223.179 822.424C223.283 823.874 225.013 824.578 226.132 824.402C228.138 824.077 230.393 824.18 231.147 826.384C231.297 826.824 231.678 826.944 232.088 826.993C232.998 827.104 243.437 825.928 243.751 825.738C244.188 825.602 244.541 825.112 244.259 824.584C241.847 820.089 246.674 815.315 247.601 810.996C249.165 803.89 243.105 796.011 236.371 796.011ZM246.129 810.476C245.122 815.097 240.702 819.565 242.451 824.403C239.165 824.849 232.527 825.547 232.504 825.551C231.321 822.918 228.568 822.445 225.844 822.857C225.485 822.928 224.715 822.845 224.735 822.143C224.959 820.596 223.966 819.709 223.573 819.614C223.426 819.566 223.487 819.493 223.485 819.495C224.225 818.664 223.111 817.906 223.676 816.835C224.02 816.182 223.578 815.748 222.85 815.647C221.944 815.549 221.466 815.209 221.152 815.07C221 814.998 220.941 814.866 221.08 814.71C223.96 812.096 223.47 808.395 223.467 808.361C222.817 800.308 231.044 797.124 236.45 797.594C242.847 798.17 247.21 804.446 246.129 810.476Z" fill="white"/>
<path d="M232.273 804.359C230.175 805.624 229.736 808.163 230.603 810.324C230.81 810.84 231.143 811.29 231.398 811.781C232.142 813.215 231.643 813.087 231.65 813.632C231.657 814.271 231.817 815.436 231.885 815.749C231.939 816.091 232.189 816.397 232.637 816.397C237.792 816.397 237.878 816.716 238.158 816.104C238.323 815.825 238.264 815.632 238.264 813.929C238.264 813.114 237.428 813.826 238.967 811.732C239.359 811.198 239.748 810.684 240.002 810.068C240.545 808.756 240.455 807.263 239.748 806.028C238.253 803.41 234.677 802.91 232.273 804.359ZM236.684 814.88C235.567 814.834 234.45 814.824 233.331 814.821C233.308 814.649 233.288 814.476 233.271 814.303C234.412 814.282 235.548 814.336 236.684 814.451V814.88H236.684ZM238.101 810.325C237.644 810.803 236.958 811.534 236.561 812.857C236.289 812.831 236.016 812.808 235.744 812.789C235.746 812.476 235.569 811.844 235.873 810.664C235.883 810.628 235.887 810.594 235.89 810.56L236.708 809.741C237.26 809.19 236.423 808.351 235.871 808.904L235.468 809.306C235.346 809.1 235.214 808.9 235.063 808.706C234.687 808.222 233.643 808.793 234.225 809.544C234.426 809.802 234.575 810.106 234.721 810.401C234.527 811.177 234.485 811.947 234.576 812.735C234.162 812.723 233.747 812.717 233.332 812.724C233.258 811.877 232.922 811.297 232.597 810.808C232.401 810.489 230.333 807.373 233.299 805.585C234.958 804.586 236.93 805.158 238.229 806.413C239.788 808.503 238.356 810.042 238.101 810.325Z" fill="white"/>
<path d="M228.725 807.192C228.041 807.187 227.36 807.13 226.679 807.068C225.961 807.003 225.968 808.12 226.679 808.185C227.36 808.247 228.041 808.304 228.725 808.309C229.445 808.313 229.445 807.197 228.725 807.192Z" fill="white"/>
<path d="M231.936 802.631C231.54 802.037 231.137 801.447 230.67 800.905C230.2 800.359 229.414 801.152 229.881 801.695C230.286 802.164 230.629 802.679 230.972 803.194C231.37 803.79 232.337 803.231 231.936 802.631Z" fill="white"/>
<path d="M239.008 802.884C239.303 802.412 239.598 801.94 239.876 801.457C240.235 800.832 239.271 800.27 238.912 800.894C238.634 801.376 238.339 801.849 238.044 802.32C237.661 802.933 238.627 803.493 239.008 802.884Z" fill="white"/>
<path d="M241.775 807.607C242.487 807.407 243.169 807.132 243.831 806.806C244.477 806.487 243.911 805.525 243.268 805.842C242.691 806.127 242.098 806.356 241.479 806.53C240.786 806.724 241.081 807.801 241.775 807.607Z" fill="white"/>
</g>
<path d="M228.82 844.27V854H227.224V849.744H222.646V854H221.05V844.27H222.646V848.442H227.224V844.27H228.82ZM231.733 845.264C231.444 845.264 231.201 845.166 231.005 844.97C230.809 844.774 230.711 844.531 230.711 844.242C230.711 843.953 230.809 843.71 231.005 843.514C231.201 843.318 231.444 843.22 231.733 843.22C232.013 843.22 232.251 843.318 232.447 843.514C232.643 843.71 232.741 843.953 232.741 844.242C232.741 844.531 232.643 844.774 232.447 844.97C232.251 845.166 232.013 845.264 231.733 845.264ZM232.517 846.286V854H230.921V846.286H232.517ZM238.505 846.16C239.111 846.16 239.653 846.286 240.129 846.538C240.614 846.79 240.992 847.163 241.263 847.658C241.533 848.153 241.669 848.75 241.669 849.45V854H240.087V849.688C240.087 848.997 239.914 848.47 239.569 848.106C239.223 847.733 238.752 847.546 238.155 847.546C237.557 847.546 237.081 847.733 236.727 848.106C236.381 848.47 236.209 848.997 236.209 849.688V854H234.613V846.286H236.209V847.168C236.47 846.851 236.801 846.603 237.203 846.426C237.613 846.249 238.047 846.16 238.505 846.16ZM245.566 847.588V851.858C245.566 852.147 245.632 852.357 245.762 852.488C245.902 852.609 246.136 852.67 246.462 852.67H247.442V854H246.182C245.464 854 244.913 853.832 244.53 853.496C244.148 853.16 243.956 852.614 243.956 851.858V847.588H243.046V846.286H243.956V844.368H245.566V846.286H247.442V847.588H245.566Z" fill="black"/>
<circle cx="339" cy="811" r="25" fill="#FDDE56"/>
<g clip-path="url(#clip3_1243_9417)">
<path d="M337.047 823.609H328.328V799.391H348.672V813.922" stroke="white" stroke-width="1.5" stroke-linecap="round" stroke-linejoin="round"/>
<path d="M334.141 805.203H342.859M341.891 820.703L344.797 823.609L350.609 818.766L341.891 820.703ZM334.141 811.016H342.859H334.141ZM334.141 816.828H337.047H334.141Z" stroke="white" stroke-width="1.5" stroke-linecap="round" stroke-linejoin="round"/>
</g>
<path d="M313.716 854.098C313.063 854.098 312.475 853.986 311.952 853.762C311.429 853.529 311.019 853.202 310.72 852.782C310.421 852.362 310.272 851.872 310.272 851.312H311.98C312.017 851.732 312.181 852.077 312.47 852.348C312.769 852.619 313.184 852.754 313.716 852.754C314.267 852.754 314.696 852.623 315.004 852.362C315.312 852.091 315.466 851.746 315.466 851.326C315.466 850.999 315.368 850.733 315.172 850.528C314.985 850.323 314.747 850.164 314.458 850.052C314.178 849.94 313.786 849.819 313.282 849.688C312.647 849.52 312.129 849.352 311.728 849.184C311.336 849.007 311 848.736 310.72 848.372C310.44 848.008 310.3 847.523 310.3 846.916C310.3 846.356 310.44 845.866 310.72 845.446C311 845.026 311.392 844.704 311.896 844.48C312.4 844.256 312.983 844.144 313.646 844.144C314.589 844.144 315.359 844.382 315.956 844.858C316.563 845.325 316.899 845.969 316.964 846.79H315.2C315.172 846.435 315.004 846.132 314.696 845.88C314.388 845.628 313.982 845.502 313.478 845.502C313.021 845.502 312.647 845.619 312.358 845.852C312.069 846.085 311.924 846.421 311.924 846.86C311.924 847.159 312.013 847.406 312.19 847.602C312.377 847.789 312.61 847.938 312.89 848.05C313.17 848.162 313.553 848.283 314.038 848.414C314.682 848.591 315.205 848.769 315.606 848.946C316.017 849.123 316.362 849.399 316.642 849.772C316.931 850.136 317.076 850.626 317.076 851.242C317.076 851.737 316.941 852.203 316.67 852.642C316.409 853.081 316.021 853.435 315.508 853.706C315.004 853.967 314.407 854.098 313.716 854.098ZM322.305 854.126C321.577 854.126 320.919 853.963 320.331 853.636C319.743 853.3 319.281 852.833 318.945 852.236C318.609 851.629 318.441 850.929 318.441 850.136C318.441 849.352 318.614 848.657 318.959 848.05C319.305 847.443 319.776 846.977 320.373 846.65C320.971 846.323 321.638 846.16 322.375 846.16C323.113 846.16 323.78 846.323 324.377 846.65C324.975 846.977 325.446 847.443 325.791 848.05C326.137 848.657 326.309 849.352 326.309 850.136C326.309 850.92 326.132 851.615 325.777 852.222C325.423 852.829 324.937 853.3 324.321 853.636C323.715 853.963 323.043 854.126 322.305 854.126ZM322.305 852.74C322.716 852.74 323.099 852.642 323.453 852.446C323.817 852.25 324.111 851.956 324.335 851.564C324.559 851.172 324.671 850.696 324.671 850.136C324.671 849.576 324.564 849.105 324.349 848.722C324.135 848.33 323.85 848.036 323.495 847.84C323.141 847.644 322.758 847.546 322.347 847.546C321.937 847.546 321.554 847.644 321.199 847.84C320.854 848.036 320.579 848.33 320.373 848.722C320.168 849.105 320.065 849.576 320.065 850.136C320.065 850.967 320.275 851.611 320.695 852.068C321.125 852.516 321.661 852.74 322.305 852.74ZM329.483 843.64V854H327.887V843.64H329.483ZM338.564 846.286V854H336.968V853.09C336.716 853.407 336.385 853.659 335.974 853.846C335.573 854.023 335.144 854.112 334.686 854.112C334.08 854.112 333.534 853.986 333.048 853.734C332.572 853.482 332.194 853.109 331.914 852.614C331.644 852.119 331.508 851.522 331.508 850.822V846.286H333.09V850.584C333.09 851.275 333.263 851.807 333.608 852.18C333.954 852.544 334.425 852.726 335.022 852.726C335.62 852.726 336.091 852.544 336.436 852.18C336.791 851.807 336.968 851.275 336.968 850.584V846.286H338.564ZM342.532 847.588V851.858C342.532 852.147 342.597 852.357 342.728 852.488C342.868 852.609 343.101 852.67 343.428 852.67H344.408V854H343.148C342.429 854 341.879 853.832 341.496 853.496C341.113 853.16 340.922 852.614 340.922 851.858V847.588H340.012V846.286H340.922V844.368H342.532V846.286H344.408V847.588H342.532ZM346.691 845.264C346.402 845.264 346.159 845.166 345.963 844.97C345.767 844.774 345.669 844.531 345.669 844.242C345.669 843.953 345.767 843.71 345.963 843.514C346.159 843.318 346.402 843.22 346.691 843.22C346.971 843.22 347.209 843.318 347.405 843.514C347.601 843.71 347.699 843.953 347.699 844.242C347.699 844.531 347.601 844.774 347.405 844.97C347.209 845.166 346.971 845.264 346.691 845.264ZM347.475 846.286V854H345.879V846.286H347.475ZM352.917 854.126C352.189 854.126 351.531 853.963 350.943 853.636C350.355 853.3 349.893 852.833 349.557 852.236C349.221 851.629 349.053 850.929 349.053 850.136C349.053 849.352 349.225 848.657 349.571 848.05C349.916 847.443 350.387 846.977 350.985 846.65C351.582 846.323 352.249 846.16 352.987 846.16C353.724 846.16 354.391 846.323 354.989 846.65C355.586 846.977 356.057 847.443 356.403 848.05C356.748 848.657 356.921 849.352 356.921 850.136C356.921 850.92 356.743 851.615 356.389 852.222C356.034 852.829 355.549 853.3 354.933 853.636C354.326 853.963 353.654 854.126 352.917 854.126ZM352.917 852.74C353.327 852.74 353.71 852.642 354.065 852.446C354.429 852.25 354.723 851.956 354.947 851.564C355.171 851.172 355.283 850.696 355.283 850.136C355.283 849.576 355.175 849.105 354.961 848.722C354.746 848.33 354.461 848.036 354.107 847.84C353.752 847.644 353.369 847.546 352.959 847.546C352.548 847.546 352.165 847.644 351.811 847.84C351.465 848.036 351.19 848.33 350.985 848.722C350.779 849.105 350.677 849.576 350.677 850.136C350.677 850.967 350.887 851.611 351.307 852.068C351.736 852.516 352.273 852.74 352.917 852.74ZM362.39 846.16C362.997 846.16 363.538 846.286 364.014 846.538C364.5 846.79 364.878 847.163 365.148 847.658C365.419 848.153 365.554 848.75 365.554 849.45V854H363.972V849.688C363.972 848.997 363.8 848.47 363.454 848.106C363.109 847.733 362.638 847.546 362.04 847.546C361.443 847.546 360.967 847.733 360.612 848.106C360.267 848.47 360.094 848.997 360.094 849.688V854H358.498V846.286H360.094V847.168C360.356 846.851 360.687 846.603 361.088 846.426C361.499 846.249 361.933 846.16 362.39 846.16Z" fill="black"/>
<path d="M111.56 250.96L107.9 265H103.76L101.52 255.76L99.2 265H95.06L91.5 250.96H95.16L97.18 261.18L99.68 250.96H103.44L105.84 261.18L107.88 250.96H111.56ZM120.135 253.72C121.415 253.72 122.442 254.147 123.215 255C123.988 255.84 124.375 257 124.375 258.48V265H120.975V258.94C120.975 258.193 120.782 257.613 120.395 257.2C120.008 256.787 119.488 256.58 118.835 256.58C118.182 256.58 117.662 256.787 117.275 257.2C116.888 257.613 116.695 258.193 116.695 258.94V265H113.275V250.2H116.695V255.34C117.042 254.847 117.515 254.453 118.115 254.16C118.715 253.867 119.388 253.72 120.135 253.72ZM131.832 265.16C130.738 265.16 129.752 264.927 128.872 264.46C128.005 263.993 127.318 263.327 126.812 262.46C126.318 261.593 126.072 260.58 126.072 259.42C126.072 258.273 126.325 257.267 126.832 256.4C127.338 255.52 128.032 254.847 128.912 254.38C129.792 253.913 130.778 253.68 131.872 253.68C132.965 253.68 133.952 253.913 134.832 254.38C135.712 254.847 136.405 255.52 136.912 256.4C137.418 257.267 137.672 258.273 137.672 259.42C137.672 260.567 137.412 261.58 136.892 262.46C136.385 263.327 135.685 263.993 134.792 264.46C133.912 264.927 132.925 265.16 131.832 265.16ZM131.832 262.2C132.485 262.2 133.038 261.96 133.492 261.48C133.958 261 134.192 260.313 134.192 259.42C134.192 258.527 133.965 257.84 133.512 257.36C133.072 256.88 132.525 256.64 131.872 256.64C131.205 256.64 130.652 256.88 130.212 257.36C129.772 257.827 129.552 258.513 129.552 259.42C129.552 260.313 129.765 261 130.192 261.48C130.632 261.96 131.178 262.2 131.832 262.2ZM145.444 252.68C144.844 252.68 144.351 252.507 143.964 252.16C143.591 251.8 143.404 251.36 143.404 250.84C143.404 250.307 143.591 249.867 143.964 249.52C144.351 249.16 144.844 248.98 145.444 248.98C146.031 248.98 146.511 249.16 146.884 249.52C147.271 249.867 147.464 250.307 147.464 250.84C147.464 251.36 147.271 251.8 146.884 252.16C146.511 252.507 146.031 252.68 145.444 252.68ZM147.144 253.84V265H143.724V253.84H147.144ZM154.163 265.16C153.189 265.16 152.323 264.993 151.563 264.66C150.803 264.327 150.203 263.873 149.763 263.3C149.323 262.713 149.076 262.06 149.023 261.34H152.403C152.443 261.727 152.623 262.04 152.943 262.28C153.263 262.52 153.656 262.64 154.123 262.64C154.549 262.64 154.876 262.56 155.103 262.4C155.343 262.227 155.463 262.007 155.463 261.74C155.463 261.42 155.296 261.187 154.963 261.04C154.629 260.88 154.089 260.707 153.343 260.52C152.543 260.333 151.876 260.14 151.343 259.94C150.809 259.727 150.349 259.4 149.963 258.96C149.576 258.507 149.383 257.9 149.383 257.14C149.383 256.5 149.556 255.92 149.903 255.4C150.263 254.867 150.783 254.447 151.463 254.14C152.156 253.833 152.976 253.68 153.923 253.68C155.323 253.68 156.423 254.027 157.223 254.72C158.036 255.413 158.503 256.333 158.623 257.48H155.463C155.409 257.093 155.236 256.787 154.943 256.56C154.663 256.333 154.289 256.22 153.823 256.22C153.423 256.22 153.116 256.3 152.903 256.46C152.689 256.607 152.583 256.813 152.583 257.08C152.583 257.4 152.749 257.64 153.083 257.8C153.429 257.96 153.963 258.12 154.683 258.28C155.509 258.493 156.183 258.707 156.703 258.92C157.223 259.12 157.676 259.453 158.063 259.92C158.463 260.373 158.669 260.987 158.683 261.76C158.683 262.413 158.496 263 158.123 263.52C157.763 264.027 157.236 264.427 156.543 264.72C155.863 265.013 155.069 265.16 154.163 265.16ZM171.233 262.1V265H169.493C168.253 265 167.287 264.7 166.593 264.1C165.9 263.487 165.553 262.493 165.553 261.12V256.68H164.193V253.84H165.553V251.12H168.973V253.84H171.213V256.68H168.973V261.16C168.973 261.493 169.053 261.733 169.213 261.88C169.373 262.027 169.64 262.1 170.013 262.1H171.233ZM179.998 253.72C181.278 253.72 182.305 254.147 183.078 255C183.852 255.84 184.238 257 184.238 258.48V265H180.838V258.94C180.838 258.193 180.645 257.613 180.258 257.2C179.872 256.787 179.352 256.58 178.698 256.58C178.045 256.58 177.525 256.787 177.138 257.2C176.752 257.613 176.558 258.193 176.558 258.94V265H173.138V250.2H176.558V255.34C176.905 254.847 177.378 254.453 177.978 254.16C178.578 253.867 179.252 253.72 179.998 253.72ZM197.135 259.24C197.135 259.56 197.115 259.893 197.075 260.24H189.335C189.388 260.933 189.608 261.467 189.995 261.84C190.395 262.2 190.882 262.38 191.455 262.38C192.308 262.38 192.902 262.02 193.235 261.3H196.875C196.688 262.033 196.348 262.693 195.855 263.28C195.375 263.867 194.768 264.327 194.035 264.66C193.302 264.993 192.482 265.16 191.575 265.16C190.482 265.16 189.508 264.927 188.655 264.46C187.802 263.993 187.135 263.327 186.655 262.46C186.175 261.593 185.935 260.58 185.935 259.42C185.935 258.26 186.168 257.247 186.635 256.38C187.115 255.513 187.782 254.847 188.635 254.38C189.488 253.913 190.468 253.68 191.575 253.68C192.655 253.68 193.615 253.907 194.455 254.36C195.295 254.813 195.948 255.46 196.415 256.3C196.895 257.14 197.135 258.12 197.135 259.24ZM193.635 258.34C193.635 257.753 193.435 257.287 193.035 256.94C192.635 256.593 192.135 256.42 191.535 256.42C190.962 256.42 190.475 256.587 190.075 256.92C189.688 257.253 189.448 257.727 189.355 258.34H193.635ZM202.718 262.26C203.171 261.9 203.378 261.733 203.338 261.76C204.644 260.68 205.671 259.793 206.418 259.1C207.178 258.407 207.818 257.68 208.338 256.92C208.858 256.16 209.118 255.42 209.118 254.7C209.118 254.153 208.991 253.727 208.738 253.42C208.484 253.113 208.104 252.96 207.598 252.96C207.091 252.96 206.691 253.153 206.398 253.54C206.118 253.913 205.978 254.447 205.978 255.14H202.678C202.704 254.007 202.944 253.06 203.398 252.3C203.864 251.54 204.471 250.98 205.218 250.62C205.978 250.26 206.818 250.08 207.738 250.08C209.324 250.08 210.518 250.487 211.318 251.3C212.131 252.113 212.538 253.173 212.538 254.48C212.538 255.907 212.051 257.233 211.078 258.46C210.104 259.673 208.864 260.86 207.358 262.02H212.758V264.8H202.718V262.26ZM221.403 253.72C222.71 253.72 223.75 254.147 224.523 255C225.31 255.84 225.703 257 225.703 258.48V265H222.303V258.94C222.303 258.193 222.11 257.613 221.723 257.2C221.337 256.787 220.817 256.58 220.163 256.58C219.51 256.58 218.99 256.787 218.603 257.2C218.217 257.613 218.023 258.193 218.023 258.94V265H214.603V253.84H218.023V255.32C218.37 254.827 218.837 254.44 219.423 254.16C220.01 253.867 220.67 253.72 221.403 253.72ZM227.4 259.4C227.4 258.253 227.613 257.247 228.04 256.38C228.48 255.513 229.073 254.847 229.82 254.38C230.567 253.913 231.4 253.68 232.32 253.68C233.053 253.68 233.72 253.833 234.32 254.14C234.933 254.447 235.413 254.86 235.76 255.38V250.2H239.18V265H235.76V263.4C235.44 263.933 234.98 264.36 234.38 264.68C233.793 265 233.107 265.16 232.32 265.16C231.4 265.16 230.567 264.927 229.82 264.46C229.073 263.98 228.48 263.307 228.04 262.44C227.613 261.56 227.4 260.547 227.4 259.4ZM235.76 259.42C235.76 258.567 235.52 257.893 235.04 257.4C234.573 256.907 234 256.66 233.32 256.66C232.64 256.66 232.06 256.907 231.58 257.4C231.113 257.88 230.88 258.547 230.88 259.4C230.88 260.253 231.113 260.933 231.58 261.44C232.06 261.933 232.64 262.18 233.32 262.18C234 262.18 234.573 261.933 235.04 261.44C235.52 260.947 235.76 260.273 235.76 259.42ZM249.312 250.96V265H245.892V250.96H249.312ZM258.591 253.72C259.897 253.72 260.937 254.147 261.711 255C262.497 255.84 262.891 257 262.891 258.48V265H259.491V258.94C259.491 258.193 259.297 257.613 258.911 257.2C258.524 256.787 258.004 256.58 257.351 256.58C256.697 256.58 256.177 256.787 255.791 257.2C255.404 257.613 255.211 258.193 255.211 258.94V265H251.791V253.84H255.211V255.32C255.557 254.827 256.024 254.44 256.611 254.16C257.197 253.867 257.857 253.72 258.591 253.72ZM264.587 259.4C264.587 258.253 264.801 257.247 265.227 256.38C265.667 255.513 266.261 254.847 267.007 254.38C267.754 253.913 268.587 253.68 269.507 253.68C270.241 253.68 270.907 253.833 271.507 254.14C272.121 254.447 272.601 254.86 272.947 255.38V250.2H276.367V265H272.947V263.4C272.627 263.933 272.167 264.36 271.567 264.68C270.981 265 270.294 265.16 269.507 265.16C268.587 265.16 267.754 264.927 267.007 264.46C266.261 263.98 265.667 263.307 265.227 262.44C264.801 261.56 264.587 260.547 264.587 259.4ZM272.947 259.42C272.947 258.567 272.707 257.893 272.227 257.4C271.761 256.907 271.187 256.66 270.507 256.66C269.827 256.66 269.247 256.907 268.767 257.4C268.301 257.88 268.067 258.547 268.067 259.4C268.067 260.253 268.301 260.933 268.767 261.44C269.247 261.933 269.827 262.18 270.507 262.18C271.187 262.18 271.761 261.933 272.227 261.44C272.707 260.947 272.947 260.273 272.947 259.42ZM280.562 252.68C279.962 252.68 279.468 252.507 279.082 252.16C278.708 251.8 278.522 251.36 278.522 250.84C278.522 250.307 278.708 249.867 279.082 249.52C279.468 249.16 279.962 248.98 280.562 248.98C281.148 248.98 281.628 249.16 282.002 249.52C282.388 249.867 282.582 250.307 282.582 250.84C282.582 251.36 282.388 251.8 282.002 252.16C281.628 252.507 281.148 252.68 280.562 252.68ZM282.262 253.84V265H278.842V253.84H282.262ZM284.06 259.4C284.06 258.253 284.273 257.247 284.7 256.38C285.14 255.513 285.733 254.847 286.48 254.38C287.227 253.913 288.06 253.68 288.98 253.68C289.767 253.68 290.453 253.84 291.04 254.16C291.64 254.48 292.1 254.9 292.42 255.42V253.84H295.84V265H292.42V263.42C292.087 263.94 291.62 264.36 291.02 264.68C290.433 265 289.747 265.16 288.96 265.16C288.053 265.16 287.227 264.927 286.48 264.46C285.733 263.98 285.14 263.307 284.7 262.44C284.273 261.56 284.06 260.547 284.06 259.4ZM292.42 259.42C292.42 258.567 292.18 257.893 291.7 257.4C291.233 256.907 290.66 256.66 289.98 256.66C289.3 256.66 288.72 256.907 288.24 257.4C287.773 257.88 287.54 258.547 287.54 259.4C287.54 260.253 287.773 260.933 288.24 261.44C288.72 261.933 289.3 262.18 289.98 262.18C290.66 262.18 291.233 261.933 291.7 261.44C292.18 260.947 292.42 260.273 292.42 259.42ZM91.56 284.42C91.56 283.26 91.7933 282.247 92.26 281.38C92.74 280.513 93.4 279.847 94.24 279.38C95.0933 278.913 96.0667 278.68 97.16 278.68C98.56 278.68 99.7267 279.047 100.66 279.78C101.607 280.513 102.227 281.547 102.52 282.88H98.88C98.5733 282.027 97.98 281.6 97.1 281.6C96.4733 281.6 95.9733 281.847 95.6 282.34C95.2267 282.82 95.04 283.513 95.04 284.42C95.04 285.327 95.2267 286.027 95.6 286.52C95.9733 287 96.4733 287.24 97.1 287.24C97.98 287.24 98.5733 286.813 98.88 285.96H102.52C102.227 287.267 101.607 288.293 100.66 289.04C99.7133 289.787 98.5467 290.16 97.16 290.16C96.0667 290.16 95.0933 289.927 94.24 289.46C93.4 288.993 92.74 288.327 92.26 287.46C91.7933 286.593 91.56 285.58 91.56 284.42ZM103.669 284.4C103.669 283.253 103.883 282.247 104.309 281.38C104.749 280.513 105.343 279.847 106.089 279.38C106.836 278.913 107.669 278.68 108.589 278.68C109.376 278.68 110.063 278.84 110.649 279.16C111.249 279.48 111.709 279.9 112.029 280.42V278.84H115.449V290H112.029V288.42C111.696 288.94 111.229 289.36 110.629 289.68C110.043 290 109.356 290.16 108.569 290.16C107.663 290.16 106.836 289.927 106.089 289.46C105.343 288.98 104.749 288.307 104.309 287.44C103.883 286.56 103.669 285.547 103.669 284.4ZM112.029 284.42C112.029 283.567 111.789 282.893 111.309 282.4C110.843 281.907 110.269 281.66 109.589 281.66C108.909 281.66 108.329 281.907 107.849 282.4C107.383 282.88 107.149 283.547 107.149 284.4C107.149 285.253 107.383 285.933 107.849 286.44C108.329 286.933 108.909 287.18 109.589 287.18C110.269 287.18 110.843 286.933 111.309 286.44C111.789 285.947 112.029 285.273 112.029 284.42ZM121.344 280.42C121.677 279.9 122.137 279.48 122.724 279.16C123.31 278.84 123.997 278.68 124.784 278.68C125.704 278.68 126.537 278.913 127.284 279.38C128.03 279.847 128.617 280.513 129.044 281.38C129.484 282.247 129.704 283.253 129.704 284.4C129.704 285.547 129.484 286.56 129.044 287.44C128.617 288.307 128.03 288.98 127.284 289.46C126.537 289.927 125.704 290.16 124.784 290.16C124.01 290.16 123.324 290 122.724 289.68C122.137 289.36 121.677 288.947 121.344 288.44V295.32H117.924V278.84H121.344V280.42ZM126.224 284.4C126.224 283.547 125.984 282.88 125.504 282.4C125.037 281.907 124.457 281.66 123.764 281.66C123.084 281.66 122.504 281.907 122.024 282.4C121.557 282.893 121.324 283.567 121.324 284.42C121.324 285.273 121.557 285.947 122.024 286.44C122.504 286.933 123.084 287.18 123.764 287.18C124.444 287.18 125.024 286.933 125.504 286.44C125.984 285.933 126.224 285.253 126.224 284.4ZM137.718 287.1V290H135.978C134.738 290 133.771 289.7 133.078 289.1C132.384 288.487 132.038 287.493 132.038 286.12V281.68H130.678V278.84H132.038V276.12H135.458V278.84H137.698V281.68H135.458V286.16C135.458 286.493 135.538 286.733 135.698 286.88C135.858 287.027 136.124 287.1 136.498 287.1H137.718ZM138.943 284.4C138.943 283.253 139.156 282.247 139.583 281.38C140.023 280.513 140.616 279.847 141.363 279.38C142.109 278.913 142.943 278.68 143.863 278.68C144.649 278.68 145.336 278.84 145.923 279.16C146.523 279.48 146.983 279.9 147.303 280.42V278.84H150.723V290H147.303V288.42C146.969 288.94 146.503 289.36 145.903 289.68C145.316 290 144.629 290.16 143.843 290.16C142.936 290.16 142.109 289.927 141.363 289.46C140.616 288.98 140.023 288.307 139.583 287.44C139.156 286.56 138.943 285.547 138.943 284.4ZM147.303 284.42C147.303 283.567 147.063 282.893 146.583 282.4C146.116 281.907 145.543 281.66 144.863 281.66C144.183 281.66 143.603 281.907 143.123 282.4C142.656 282.88 142.423 283.547 142.423 284.4C142.423 285.253 142.656 285.933 143.123 286.44C143.603 286.933 144.183 287.18 144.863 287.18C145.543 287.18 146.116 286.933 146.583 286.44C147.063 285.947 147.303 285.273 147.303 284.42ZM154.917 277.68C154.317 277.68 153.824 277.507 153.437 277.16C153.064 276.8 152.877 276.36 152.877 275.84C152.877 275.307 153.064 274.867 153.437 274.52C153.824 274.16 154.317 273.98 154.917 273.98C155.504 273.98 155.984 274.16 156.357 274.52C156.744 274.867 156.937 275.307 156.937 275.84C156.937 276.36 156.744 276.8 156.357 277.16C155.984 277.507 155.504 277.68 154.917 277.68ZM156.617 278.84V290H153.197V278.84H156.617ZM165.895 278.72C167.202 278.72 168.242 279.147 169.015 280C169.802 280.84 170.195 282 170.195 283.48V290H166.795V283.94C166.795 283.193 166.602 282.613 166.215 282.2C165.829 281.787 165.309 281.58 164.655 281.58C164.002 281.58 163.482 281.787 163.095 282.2C162.709 282.613 162.515 283.193 162.515 283.94V290H159.095V278.84H162.515V280.32C162.862 279.827 163.329 279.44 163.915 279.16C164.502 278.867 165.162 278.72 165.895 278.72ZM183.03 287.1V290H181.29C180.05 290 179.084 289.7 178.39 289.1C177.697 288.487 177.35 287.493 177.35 286.12V281.68H175.99V278.84H177.35V276.12H180.77V278.84H183.01V281.68H180.77V286.16C180.77 286.493 180.85 286.733 181.01 286.88C181.17 287.027 181.437 287.1 181.81 287.1H183.03ZM190.015 290.16C188.922 290.16 187.935 289.927 187.055 289.46C186.189 288.993 185.502 288.327 184.995 287.46C184.502 286.593 184.255 285.58 184.255 284.42C184.255 283.273 184.509 282.267 185.015 281.4C185.522 280.52 186.215 279.847 187.095 279.38C187.975 278.913 188.962 278.68 190.055 278.68C191.149 278.68 192.135 278.913 193.015 279.38C193.895 279.847 194.589 280.52 195.095 281.4C195.602 282.267 195.855 283.273 195.855 284.42C195.855 285.567 195.595 286.58 195.075 287.46C194.569 288.327 193.869 288.993 192.975 289.46C192.095 289.927 191.109 290.16 190.015 290.16ZM190.015 287.2C190.669 287.2 191.222 286.96 191.675 286.48C192.142 286 192.375 285.313 192.375 284.42C192.375 283.527 192.149 282.84 191.695 282.36C191.255 281.88 190.709 281.64 190.055 281.64C189.389 281.64 188.835 281.88 188.395 282.36C187.955 282.827 187.735 283.513 187.735 284.42C187.735 285.313 187.949 286 188.375 286.48C188.815 286.96 189.362 287.2 190.015 287.2ZM217.928 278.84L214.908 290H211.128L209.368 282.76L207.548 290H203.788L200.748 278.84H204.168L205.748 286.82L207.628 278.84H211.248L213.148 286.78L214.708 278.84H217.928ZM220.952 277.68C220.352 277.68 219.859 277.507 219.472 277.16C219.099 276.8 218.912 276.36 218.912 275.84C218.912 275.307 219.099 274.867 219.472 274.52C219.859 274.16 220.352 273.98 220.952 273.98C221.539 273.98 222.019 274.16 222.392 274.52C222.779 274.867 222.972 275.307 222.972 275.84C222.972 276.36 222.779 276.8 222.392 277.16C222.019 277.507 221.539 277.68 220.952 277.68ZM222.652 278.84V290H219.232V278.84H222.652ZM231.931 278.72C233.237 278.72 234.277 279.147 235.051 280C235.837 280.84 236.231 282 236.231 283.48V290H232.831V283.94C232.831 283.193 232.637 282.613 232.251 282.2C231.864 281.787 231.344 281.58 230.691 281.58C230.037 281.58 229.517 281.787 229.131 282.2C228.744 282.613 228.551 283.193 228.551 283.94V290H225.131V278.84H228.551V280.32C228.897 279.827 229.364 279.44 229.951 279.16C230.537 278.867 231.197 278.72 231.931 278.72ZM262.165 275.96L258.505 290H254.365L252.125 280.76L249.805 290H245.665L242.105 275.96H245.765L247.785 286.18L250.285 275.96H254.045L256.445 286.18L258.485 275.96H262.165ZM268.961 290.16C267.867 290.16 266.881 289.927 266.001 289.46C265.134 288.993 264.447 288.327 263.941 287.46C263.447 286.593 263.201 285.58 263.201 284.42C263.201 283.273 263.454 282.267 263.961 281.4C264.467 280.52 265.161 279.847 266.041 279.38C266.921 278.913 267.907 278.68 269.001 278.68C270.094 278.68 271.081 278.913 271.961 279.38C272.841 279.847 273.534 280.52 274.041 281.4C274.547 282.267 274.801 283.273 274.801 284.42C274.801 285.567 274.541 286.58 274.021 287.46C273.514 288.327 272.814 288.993 271.921 289.46C271.041 289.927 270.054 290.16 268.961 290.16ZM268.961 287.2C269.614 287.2 270.167 286.96 270.621 286.48C271.087 286 271.321 285.313 271.321 284.42C271.321 283.527 271.094 282.84 270.641 282.36C270.201 281.88 269.654 281.64 269.001 281.64C268.334 281.64 267.781 281.88 267.341 282.36C266.901 282.827 266.681 283.513 266.681 284.42C266.681 285.313 266.894 286 267.321 286.48C267.761 286.96 268.307 287.2 268.961 287.2ZM280.035 280.7C280.435 280.087 280.935 279.607 281.535 279.26C282.135 278.9 282.802 278.72 283.535 278.72V282.34H282.595C281.742 282.34 281.102 282.527 280.675 282.9C280.248 283.26 280.035 283.9 280.035 284.82V290H276.615V278.84H280.035V280.7ZM288.59 275.2V290H285.17V275.2H288.59ZM290.388 284.4C290.388 283.253 290.601 282.247 291.028 281.38C291.468 280.513 292.061 279.847 292.808 279.38C293.555 278.913 294.388 278.68 295.308 278.68C296.041 278.68 296.708 278.833 297.308 279.14C297.921 279.447 298.401 279.86 298.748 280.38V275.2H302.168V290H298.748V288.4C298.428 288.933 297.968 289.36 297.368 289.68C296.781 290 296.095 290.16 295.308 290.16C294.388 290.16 293.555 289.927 292.808 289.46C292.061 288.98 291.468 288.307 291.028 287.44C290.601 286.56 290.388 285.547 290.388 284.4ZM298.748 284.42C298.748 283.567 298.508 282.893 298.028 282.4C297.561 281.907 296.988 281.66 296.308 281.66C295.628 281.66 295.048 281.907 294.568 282.4C294.101 282.88 293.868 283.547 293.868 284.4C293.868 285.253 294.101 285.933 294.568 286.44C295.048 286.933 295.628 287.18 296.308 287.18C296.988 287.18 297.561 286.933 298.028 286.44C298.508 285.947 298.748 285.273 298.748 284.42ZM308.301 282.96C308.301 281.573 308.601 280.34 309.201 279.26C309.801 278.167 310.634 277.32 311.701 276.72C312.781 276.107 314.001 275.8 315.361 275.8C317.027 275.8 318.454 276.24 319.641 277.12C320.827 278 321.621 279.2 322.021 280.72H318.261C317.981 280.133 317.581 279.687 317.061 279.38C316.554 279.073 315.974 278.92 315.321 278.92C314.267 278.92 313.414 279.287 312.761 280.02C312.107 280.753 311.781 281.733 311.781 282.96C311.781 284.187 312.107 285.167 312.761 285.9C313.414 286.633 314.267 287 315.321 287C315.974 287 316.554 286.847 317.061 286.54C317.581 286.233 317.981 285.787 318.261 285.2H322.021C321.621 286.72 320.827 287.92 319.641 288.8C318.454 289.667 317.027 290.1 315.361 290.1C314.001 290.1 312.781 289.8 311.701 289.2C310.634 288.587 309.801 287.74 309.201 286.66C308.601 285.58 308.301 284.347 308.301 282.96ZM335.135 278.84V290H331.715V288.48C331.368 288.973 330.895 289.373 330.295 289.68C329.708 289.973 329.055 290.12 328.335 290.12C327.482 290.12 326.728 289.933 326.075 289.56C325.422 289.173 324.915 288.62 324.555 287.9C324.195 287.18 324.015 286.333 324.015 285.36V278.84H327.415V284.9C327.415 285.647 327.608 286.227 327.995 286.64C328.382 287.053 328.902 287.26 329.555 287.26C330.222 287.26 330.748 287.053 331.135 286.64C331.522 286.227 331.715 285.647 331.715 284.9V278.84H335.135ZM341.012 280.42C341.345 279.9 341.805 279.48 342.392 279.16C342.978 278.84 343.665 278.68 344.452 278.68C345.372 278.68 346.205 278.913 346.952 279.38C347.698 279.847 348.285 280.513 348.712 281.38C349.152 282.247 349.372 283.253 349.372 284.4C349.372 285.547 349.152 286.56 348.712 287.44C348.285 288.307 347.698 288.98 346.952 289.46C346.205 289.927 345.372 290.16 344.452 290.16C343.678 290.16 342.992 290 342.392 289.68C341.805 289.36 341.345 288.947 341.012 288.44V295.32H337.592V278.84H341.012V280.42ZM345.892 284.4C345.892 283.547 345.652 282.88 345.172 282.4C344.705 281.907 344.125 281.66 343.432 281.66C342.752 281.66 342.172 281.907 341.692 282.4C341.225 282.893 340.992 283.567 340.992 284.42C340.992 285.273 341.225 285.947 341.692 286.44C342.172 286.933 342.752 287.18 343.432 287.18C344.112 287.18 344.692 286.933 345.172 286.44C345.652 285.933 345.892 285.253 345.892 284.4ZM97.84 306.68H96V315H92.58V306.68H91.34V303.84H92.58V303.52C92.58 302.147 92.9733 301.107 93.76 300.4C94.5467 299.68 95.7 299.32 97.22 299.32C97.4733 299.32 97.66 299.327 97.78 299.34V302.24C97.1267 302.2 96.6667 302.293 96.4 302.52C96.1333 302.747 96 303.153 96 303.74V303.84H97.84V306.68ZM104.527 315.16C103.434 315.16 102.447 314.927 101.567 314.46C100.7 313.993 100.014 313.327 99.507 312.46C99.0137 311.593 98.767 310.58 98.767 309.42C98.767 308.273 99.0204 307.267 99.527 306.4C100.034 305.52 100.727 304.847 101.607 304.38C102.487 303.913 103.474 303.68 104.567 303.68C105.66 303.68 106.647 303.913 107.527 304.38C108.407 304.847 109.1 305.52 109.607 306.4C110.114 307.267 110.367 308.273 110.367 309.42C110.367 310.567 110.107 311.58 109.587 312.46C109.08 313.327 108.38 313.993 107.487 314.46C106.607 314.927 105.62 315.16 104.527 315.16ZM104.527 312.2C105.18 312.2 105.734 311.96 106.187 311.48C106.654 311 106.887 310.313 106.887 309.42C106.887 308.527 106.66 307.84 106.207 307.36C105.767 306.88 105.22 306.64 104.567 306.64C103.9 306.64 103.347 306.88 102.907 307.36C102.467 307.827 102.247 308.513 102.247 309.42C102.247 310.313 102.46 311 102.887 311.48C103.327 311.96 103.874 312.2 104.527 312.2ZM115.601 305.7C116.001 305.087 116.501 304.607 117.101 304.26C117.701 303.9 118.368 303.72 119.101 303.72V307.34H118.161C117.308 307.34 116.668 307.527 116.241 307.9C115.815 308.26 115.601 308.9 115.601 309.82V315H112.181V303.84H115.601V305.7ZM128.394 300.96V315H124.974V300.96H128.394ZM137.673 303.72C138.979 303.72 140.019 304.147 140.793 305C141.579 305.84 141.973 307 141.973 308.48V315H138.573V308.94C138.573 308.193 138.379 307.613 137.993 307.2C137.606 306.787 137.086 306.58 136.433 306.58C135.779 306.58 135.259 306.787 134.873 307.2C134.486 307.613 134.293 308.193 134.293 308.94V315H130.873V303.84H134.293V305.32C134.639 304.827 135.106 304.44 135.693 304.16C136.279 303.867 136.939 303.72 137.673 303.72ZM143.669 309.4C143.669 308.253 143.883 307.247 144.309 306.38C144.749 305.513 145.343 304.847 146.089 304.38C146.836 303.913 147.669 303.68 148.589 303.68C149.323 303.68 149.989 303.833 150.589 304.14C151.203 304.447 151.683 304.86 152.029 305.38V300.2H155.449V315H152.029V313.4C151.709 313.933 151.249 314.36 150.649 314.68C150.063 315 149.376 315.16 148.589 315.16C147.669 315.16 146.836 314.927 146.089 314.46C145.343 313.98 144.749 313.307 144.309 312.44C143.883 311.56 143.669 310.547 143.669 309.4ZM152.029 309.42C152.029 308.567 151.789 307.893 151.309 307.4C150.843 306.907 150.269 306.66 149.589 306.66C148.909 306.66 148.329 306.907 147.849 307.4C147.383 307.88 147.149 308.547 147.149 309.4C147.149 310.253 147.383 310.933 147.849 311.44C148.329 311.933 148.909 312.18 149.589 312.18C150.269 312.18 150.843 311.933 151.309 311.44C151.789 310.947 152.029 310.273 152.029 309.42ZM159.644 302.68C159.044 302.68 158.55 302.507 158.164 302.16C157.79 301.8 157.604 301.36 157.604 300.84C157.604 300.307 157.79 299.867 158.164 299.52C158.55 299.16 159.044 298.98 159.644 298.98C160.23 298.98 160.71 299.16 161.084 299.52C161.47 299.867 161.664 300.307 161.664 300.84C161.664 301.36 161.47 301.8 161.084 302.16C160.71 302.507 160.23 302.68 159.644 302.68ZM161.344 303.84V315H157.924V303.84H161.344ZM163.142 309.4C163.142 308.253 163.355 307.247 163.782 306.38C164.222 305.513 164.815 304.847 165.562 304.38C166.309 303.913 167.142 303.68 168.062 303.68C168.849 303.68 169.535 303.84 170.122 304.16C170.722 304.48 171.182 304.9 171.502 305.42V303.84H174.922V315H171.502V313.42C171.169 313.94 170.702 314.36 170.102 314.68C169.515 315 168.829 315.16 168.042 315.16C167.135 315.16 166.309 314.927 165.562 314.46C164.815 313.98 164.222 313.307 163.782 312.44C163.355 311.56 163.142 310.547 163.142 309.4ZM171.502 309.42C171.502 308.567 171.262 307.893 170.782 307.4C170.315 306.907 169.742 306.66 169.062 306.66C168.382 306.66 167.802 306.907 167.322 307.4C166.855 307.88 166.622 308.547 166.622 309.4C166.622 310.253 166.855 310.933 167.322 311.44C167.802 311.933 168.382 312.18 169.062 312.18C169.742 312.18 170.315 311.933 170.782 311.44C171.262 310.947 171.502 310.273 171.502 309.42ZM181.496 300.18C182.923 300.18 184.063 300.553 184.916 301.3C185.783 302.047 186.216 303.1 186.216 304.46C186.216 305.713 185.803 306.693 184.976 307.4C184.163 308.093 183.083 308.447 181.736 308.46L181.636 309.96H178.636L178.536 306.24H179.736C180.763 306.24 181.543 306.113 182.076 305.86C182.623 305.607 182.896 305.147 182.896 304.48C182.896 304.013 182.77 303.647 182.516 303.38C182.263 303.113 181.91 302.98 181.456 302.98C180.976 302.98 180.603 303.12 180.336 303.4C180.07 303.667 179.936 304.033 179.936 304.5H176.716C176.69 303.687 176.856 302.953 177.216 302.3C177.59 301.647 178.136 301.133 178.856 300.76C179.59 300.373 180.47 300.18 181.496 300.18ZM180.176 315.16C179.576 315.16 179.083 314.987 178.696 314.64C178.323 314.28 178.136 313.84 178.136 313.32C178.136 312.787 178.323 312.34 178.696 311.98C179.083 311.62 179.576 311.44 180.176 311.44C180.763 311.44 181.243 311.62 181.616 311.98C182.003 312.34 182.196 312.787 182.196 313.32C182.196 313.84 182.003 314.28 181.616 314.64C181.243 314.987 180.763 315.16 180.176 315.16Z" fill="black"/>
</g>
<path fill-rule="evenodd" clip-rule="evenodd" d="M398.2 0H72.8016C34.4223 0 3.30968 29.784 3.30968 66.5245V839.476C3.30968 876.216 34.4223 906 72.8016 906H398.2C436.579 906 467.692 876.216 467.692 839.476V313.615H468C469.657 313.615 471 312.272 471 310.615V211.021C471 209.364 469.657 208.021 468 208.021H467.692V66.5245C467.692 29.784 436.579 0 398.2 0ZM8.82491 66.5245C8.82491 32.6999 37.4682 5.27972 72.8016 5.27972H398.2C433.533 5.27972 462.177 32.6999 462.177 66.5245V839.476C462.177 873.3 433.533 900.72 398.2 900.72H72.8016C37.4682 900.72 8.82491 873.3 8.82491 839.476V66.5245ZM3.30914 121.434H3C1.34315 121.434 0 122.777 0 124.434V152.224C0 153.881 1.34315 155.224 3 155.224H3.30914V121.434ZM3 186.902H3.30914V252.371H3C1.34315 252.371 0 251.028 0 249.371V189.902C0 188.245 1.34315 186.902 3 186.902ZM3.30914 269.266H3C1.34315 269.266 0 270.609 0 272.266V331.735C0 333.391 1.34315 334.735 3 334.735H3.30914V269.266Z" fill="#FDDE56"/>
<path fill-rule="evenodd" clip-rule="evenodd" d="M442.323 66.5245C442.323 43.1882 422.578 24.2868 398.201 24.2868H359.043C354.169 24.2868 350.218 28.0689 350.218 32.7343V33.7903C350.218 46.6728 339.409 57.021 325.951 57.021H145.052C131.595 57.021 120.785 46.6728 120.785 33.7903V32.7343C120.785 28.0689 116.834 24.2868 111.961 24.2868H72.8024C48.425 24.2868 28.6805 43.1882 28.6805 66.5245V839.476C28.6805 862.812 48.425 881.713 72.8024 881.713H398.201C422.578 881.713 442.323 862.812 442.323 839.476V66.5245ZM72.8024 5.27979H398.201C433.498 5.27979 462.178 32.7343 462.178 66.5245V839.476C462.178 873.266 433.498 900.72 398.201 900.72H72.8024C37.5049 900.72 8.82568 873.266 8.82568 839.476V66.5245C8.82568 32.7343 37.5049 5.27979 72.8024 5.27979Z" fill="black"/>
<path d="M292.861 33.79C292.861 37.8723 289.404 41.1817 285.139 41.1817C280.875 41.1817 277.418 37.8723 277.418 33.79C277.418 29.7078 280.875 26.3984 285.139 26.3984C289.404 26.3984 292.861 29.7078 292.861 33.79Z" fill="#4F4F4F"/>
<path d="M210.684 30.6222C208.856 30.6222 207.375 32.0405 207.375 33.79C207.375 35.5396 208.856 36.9579 210.684 36.9579H259.218C261.045 36.9579 262.527 35.5396 262.527 33.79C262.527 32.0405 261.045 30.6222 259.218 30.6222H210.684Z" fill="#4F4F4F"/>
<defs>
<filter id="filter0_d_1243_9417" x="47" y="213" width="371" height="534" filterUnits="userSpaceOnUse" color-interpolation-filters="sRGB">
<feFlood flood-opacity="0" result="BackgroundImageFix"/>
<feColorMatrix in="SourceAlpha" type="matrix" values="0 0 0 0 0 0 0 0 0 0 0 0 0 0 0 0 0 0 127 0" result="hardAlpha"/>
<feOffset dy="2"/>
<feGaussianBlur stdDeviation="7"/>
<feComposite in2="hardAlpha" operator="out"/>
<feColorMatrix type="matrix" values="0 0 0 0 0 0 0 0 0 0 0 0 0 0 0 0 0 0 0.12 0"/>
<feBlend mode="normal" in2="BackgroundImageFix" result="effect1_dropShadow_1243_9417"/>
<feBlend mode="normal" in="SourceGraphic" in2="effect1_dropShadow_1243_9417" result="shape"/>
</filter>
<linearGradient id="paint0_linear_1243_9417" x1="348.608" y1="439.065" x2="348.907" y2="439.002" gradientUnits="userSpaceOnUse">
<stop stop-color="#BA0101"/>
<stop offset="0.03" stop-color="#BF0403"/>
<stop offset="0.06" stop-color="#CD0D0A"/>
<stop offset="0.09" stop-color="#E51D15"/>
<stop offset="0.12" stop-color="#FF2E21"/>
<stop offset="0.29" stop-color="#FF8A85"/>
<stop offset="0.37" stop-color="#FC6059"/>
<stop offset="0.46" stop-color="#F9352C"/>
<stop offset="0.5" stop-color="#F8241A"/>
<stop offset="0.7" stop-color="#E7241A"/>
<stop offset="0.83" stop-color="#EE271C"/>
<stop offset="0.99" stop-color="#FF2E21"/>
</linearGradient>
<clipPath id="clip0_1243_9417">
<rect x="28" y="16" width="414" height="866" rx="40" fill="white"/>
</clipPath>
<clipPath id="clip1_1243_9417">
<rect width="31" height="31" fill="white" transform="translate(120 796)"/>
</clipPath>
<clipPath id="clip2_1243_9417">
<rect width="31" height="31" fill="white" transform="translate(218 796)"/>
</clipPath>
<clipPath id="clip3_1243_9417">
<rect width="31" height="31" fill="white" transform="translate(322 796)"/>
</clipPath>
</defs>
</svg>
